%TF.GenerationSoftware,KiCad,Pcbnew,9.0.7*%
%TF.CreationDate,2026-04-03T13:52:56+01:00*%
%TF.ProjectId,solderbit-segment-shift-edition,736f6c64-6572-4626-9974-2d7365676d65,v0.1*%
%TF.SameCoordinates,PX8583b00PY4e33880*%
%TF.FileFunction,Legend,Bot*%
%TF.FilePolarity,Positive*%
%FSLAX46Y46*%
G04 Gerber Fmt 4.6, Leading zero omitted, Abs format (unit mm)*
G04 Created by KiCad (PCBNEW 9.0.7) date 2026-04-03 13:52:56*
%MOMM*%
%LPD*%
G01*
G04 APERTURE LIST*
%ADD10C,0.000000*%
%ADD11C,0.250000*%
%ADD12C,0.150000*%
%ADD13C,0.120000*%
G04 APERTURE END LIST*
D10*
G36*
X9500000Y21250000D02*
G01*
X9500000Y21250000D01*
G75*
G02*
X10500000Y20250000I0J-1000000D01*
G01*
X10500000Y14250000D01*
G75*
G02*
X9500000Y13250000I-1000000J0D01*
G01*
X-9500000Y13250000D01*
G75*
G02*
X-10500000Y14250000I0J1000000D01*
G01*
X-10500000Y20250000D01*
G75*
G02*
X-9500000Y21250000I1000000J0D01*
G01*
X9500000Y21250000D01*
G37*
D11*
G36*
X5862285Y-16872500D02*
G01*
X5341773Y-16872500D01*
X5198772Y-16863461D01*
X5072561Y-16837580D01*
X4960729Y-16796116D01*
X4861260Y-16739504D01*
X4772626Y-16667336D01*
X4696898Y-16581321D01*
X4637923Y-16485111D01*
X4594969Y-16377271D01*
X4568256Y-16255821D01*
X4559223Y-16122460D01*
X4907265Y-16122460D01*
X4915744Y-16233266D01*
X4939686Y-16327050D01*
X4977725Y-16406775D01*
X5029722Y-16474719D01*
X5094834Y-16530016D01*
X5171204Y-16570092D01*
X5261055Y-16595178D01*
X5367418Y-16604046D01*
X5531366Y-16604046D01*
X5531366Y-15670642D01*
X5369433Y-15670642D01*
X5260279Y-15679088D01*
X5169131Y-15702806D01*
X5092763Y-15740293D01*
X5028715Y-15791359D01*
X4976964Y-15855129D01*
X4939287Y-15929997D01*
X4915635Y-16018141D01*
X4907265Y-16122460D01*
X4559223Y-16122460D01*
X4558944Y-16118339D01*
X4567767Y-15974147D01*
X4592570Y-15851876D01*
X4631499Y-15748146D01*
X4683638Y-15660126D01*
X4749064Y-15585663D01*
X4828834Y-15523408D01*
X4924918Y-15472910D01*
X5040074Y-15434651D01*
X5177710Y-15410008D01*
X5341773Y-15401181D01*
X5862285Y-15401181D01*
X5862285Y-16872500D01*
G37*
G36*
X3439701Y-16872500D02*
G01*
X4314762Y-16872500D01*
X4314762Y-15401181D01*
X3983844Y-15401181D01*
X3983844Y-16604046D01*
X3439701Y-16604046D01*
X3439701Y-16872500D01*
G37*
G36*
X2703126Y-16427001D02*
G01*
X3263572Y-16427001D01*
X3263572Y-16198389D01*
X2703126Y-16198389D01*
X2703126Y-16427001D01*
G37*
G36*
X2043041Y-15386368D02*
G01*
X2135222Y-15411034D01*
X2215651Y-15450777D01*
X2286215Y-15505885D01*
X2348027Y-15577860D01*
X2395214Y-15657215D01*
X2434084Y-15752309D01*
X2463806Y-15865726D01*
X2483021Y-16000457D01*
X2489902Y-16159829D01*
X2480987Y-16339230D01*
X2456529Y-16484320D01*
X2419368Y-16600682D01*
X2371451Y-16693179D01*
X2313709Y-16765797D01*
X2245962Y-16821455D01*
X2166939Y-16861793D01*
X2074388Y-16887031D01*
X1965268Y-16895947D01*
X1862351Y-16887449D01*
X1772845Y-16863117D01*
X1694361Y-16823791D01*
X1625123Y-16769077D01*
X1564099Y-16697377D01*
X1517437Y-16618525D01*
X1479092Y-16524583D01*
X1449844Y-16413124D01*
X1430981Y-16281346D01*
X1424705Y-16136840D01*
X1754151Y-16136840D01*
X1763540Y-16334657D01*
X1787422Y-16469381D01*
X1820506Y-16557004D01*
X1859451Y-16610693D01*
X1903532Y-16640037D01*
X1955010Y-16649750D01*
X2008625Y-16640008D01*
X2054134Y-16610820D01*
X2093929Y-16558020D01*
X2127466Y-16472708D01*
X2151553Y-16342486D01*
X2160998Y-16152227D01*
X2151228Y-15948951D01*
X2126361Y-15810320D01*
X2091864Y-15719975D01*
X2051166Y-15664464D01*
X2004970Y-15634028D01*
X1950888Y-15623930D01*
X1900758Y-15633523D01*
X1857689Y-15662593D01*
X1819491Y-15716009D01*
X1786947Y-15803511D01*
X1763413Y-15938408D01*
X1754151Y-16136840D01*
X1424705Y-16136840D01*
X1424240Y-16126124D01*
X1433104Y-15942198D01*
X1457387Y-15793832D01*
X1494193Y-15675241D01*
X1541488Y-15581367D01*
X1598238Y-15508024D01*
X1664499Y-15452095D01*
X1741420Y-15411750D01*
X1831141Y-15386598D01*
X1936600Y-15377733D01*
X2043041Y-15386368D01*
G37*
G36*
X871488Y-16596719D02*
G01*
X871488Y-16602855D01*
X275138Y-16602855D01*
X275138Y-16872500D01*
X1242431Y-16872500D01*
X1242431Y-16619250D01*
X821204Y-16217440D01*
X706275Y-16097462D01*
X642418Y-16012734D01*
X613356Y-15955912D01*
X596328Y-15898245D01*
X590669Y-15838803D01*
X600117Y-15763065D01*
X625653Y-15708702D01*
X666236Y-15670069D01*
X725085Y-15645065D01*
X808931Y-15635654D01*
X899970Y-15644626D01*
X989834Y-15671852D01*
X1080019Y-15718774D01*
X1171723Y-15788061D01*
X1171723Y-15503213D01*
X1073268Y-15448511D01*
X969163Y-15409495D01*
X858294Y-15385804D01*
X739322Y-15377733D01*
X626383Y-15385747D01*
X532098Y-15408193D01*
X453263Y-15443456D01*
X387337Y-15491031D01*
X332594Y-15551756D01*
X293457Y-15621659D01*
X269247Y-15702557D01*
X260758Y-15797037D01*
X271068Y-15891719D01*
X303185Y-15990326D01*
X360222Y-16094935D01*
X446885Y-16207373D01*
X569237Y-16329181D01*
X871488Y-16596719D01*
G37*
G36*
X-338982Y-15387222D02*
G01*
X-240635Y-15414421D01*
X-154239Y-15458462D01*
X-77854Y-15519883D01*
X-15682Y-15595217D01*
X29068Y-15681640D01*
X56845Y-15781305D01*
X66585Y-15897146D01*
X58619Y-15996480D01*
X35844Y-16082738D01*
X-866Y-16158199D01*
X-51750Y-16224584D01*
X-114961Y-16279921D01*
X-184783Y-16318902D01*
X-262604Y-16342613D01*
X-350429Y-16350797D01*
X-447131Y-16341019D01*
X-526512Y-16313483D01*
X-592227Y-16269188D01*
X-646543Y-16206816D01*
X-652679Y-16208831D01*
X-645476Y-16315679D01*
X-626474Y-16403630D01*
X-597337Y-16475857D01*
X-558890Y-16534986D01*
X-508565Y-16584534D01*
X-449325Y-16619966D01*
X-379387Y-16641980D01*
X-296115Y-16649750D01*
X-189762Y-16640762D01*
X-97727Y-16615065D01*
X-17404Y-16573546D01*
X-17404Y-16843190D01*
X-106368Y-16871574D01*
X-209134Y-16889583D01*
X-327897Y-16895947D01*
X-447430Y-16886561D01*
X-552036Y-16859654D01*
X-644266Y-16816201D01*
X-726072Y-16755943D01*
X-798676Y-16677411D01*
X-855881Y-16589472D01*
X-902214Y-16486775D01*
X-937112Y-16367075D01*
X-959391Y-16227712D01*
X-967295Y-16065674D01*
X-957059Y-15897465D01*
X-956560Y-15895040D01*
X-640406Y-15895040D01*
X-634156Y-15954897D01*
X-616292Y-16005635D01*
X-587100Y-16049187D01*
X-548163Y-16083249D01*
X-503071Y-16103475D01*
X-449805Y-16110462D01*
X-391388Y-16102967D01*
X-343564Y-16081584D01*
X-303809Y-16046073D01*
X-275044Y-16000211D01*
X-256693Y-15942364D01*
X-250045Y-15869303D01*
X-256581Y-15798974D01*
X-274968Y-15740870D01*
X-304359Y-15692532D01*
X-344504Y-15653967D01*
X-389941Y-15631560D01*
X-442661Y-15623930D01*
X-496205Y-15632356D01*
X-542806Y-15657376D01*
X-584536Y-15701233D01*
X-614819Y-15755308D01*
X-633723Y-15819141D01*
X-640406Y-15895040D01*
X-956560Y-15895040D01*
X-928736Y-15759718D01*
X-885047Y-15647286D01*
X-827435Y-15555878D01*
X-767125Y-15491268D01*
X-700518Y-15442045D01*
X-626773Y-15406839D01*
X-544510Y-15385220D01*
X-451912Y-15377733D01*
X-338982Y-15387222D01*
G37*
G36*
X-1767984Y-16427001D02*
G01*
X-1207538Y-16427001D01*
X-1207538Y-16198389D01*
X-1767984Y-16198389D01*
X-1767984Y-16427001D01*
G37*
G36*
X-3044855Y-15823232D02*
G01*
X-2654494Y-16872500D01*
X-2285565Y-16872500D01*
X-1913614Y-15823232D01*
X-2259919Y-15823232D01*
X-2442277Y-16469774D01*
X-2467546Y-16575978D01*
X-2478181Y-16656253D01*
X-2482303Y-16656253D01*
X-2494326Y-16579757D01*
X-2520221Y-16475910D01*
X-2706701Y-15823232D01*
X-3044855Y-15823232D01*
G37*
G36*
X-3565263Y-15386368D02*
G01*
X-3473083Y-15411034D01*
X-3392653Y-15450777D01*
X-3322090Y-15505885D01*
X-3260277Y-15577860D01*
X-3213090Y-15657215D01*
X-3174220Y-15752309D01*
X-3144498Y-15865726D01*
X-3125284Y-16000457D01*
X-3118402Y-16159829D01*
X-3127317Y-16339230D01*
X-3151775Y-16484320D01*
X-3188937Y-16600682D01*
X-3236853Y-16693179D01*
X-3294596Y-16765797D01*
X-3362342Y-16821455D01*
X-3441365Y-16861793D01*
X-3533916Y-16887031D01*
X-3643036Y-16895947D01*
X-3745953Y-16887449D01*
X-3835459Y-16863117D01*
X-3913943Y-16823791D01*
X-3983182Y-16769077D01*
X-4044205Y-16697377D01*
X-4090867Y-16618525D01*
X-4129213Y-16524583D01*
X-4158460Y-16413124D01*
X-4177323Y-16281346D01*
X-4183600Y-16136840D01*
X-3854154Y-16136840D01*
X-3844764Y-16334657D01*
X-3820883Y-16469381D01*
X-3787798Y-16557004D01*
X-3748853Y-16610693D01*
X-3704773Y-16640037D01*
X-3653294Y-16649750D01*
X-3599679Y-16640008D01*
X-3554171Y-16610820D01*
X-3514375Y-16558020D01*
X-3480839Y-16472708D01*
X-3456751Y-16342486D01*
X-3447306Y-16152227D01*
X-3457076Y-15948951D01*
X-3481943Y-15810320D01*
X-3516440Y-15719975D01*
X-3557138Y-15664464D01*
X-3603334Y-15634028D01*
X-3657416Y-15623930D01*
X-3707546Y-15633523D01*
X-3750616Y-15662593D01*
X-3788813Y-15716009D01*
X-3821357Y-15803511D01*
X-3844891Y-15938408D01*
X-3854154Y-16136840D01*
X-4183600Y-16136840D01*
X-4184065Y-16126124D01*
X-4175200Y-15942198D01*
X-4150917Y-15793832D01*
X-4114112Y-15675241D01*
X-4066816Y-15581367D01*
X-4010066Y-15508024D01*
X-3943805Y-15452095D01*
X-3866884Y-15411750D01*
X-3777163Y-15386598D01*
X-3671704Y-15377733D01*
X-3565263Y-15386368D01*
G37*
G36*
X-4534950Y-16895947D02*
G01*
X-4483653Y-16890216D01*
X-4439818Y-16873727D01*
X-4401777Y-16846488D01*
X-4371976Y-16810703D01*
X-4354451Y-16770695D01*
X-4348471Y-16724946D01*
X-4354693Y-16677983D01*
X-4372748Y-16638056D01*
X-4403242Y-16603405D01*
X-4442146Y-16577387D01*
X-4487203Y-16561505D01*
X-4540079Y-16555961D01*
X-4593614Y-16561622D01*
X-4638254Y-16577703D01*
X-4675909Y-16603863D01*
X-4705262Y-16638678D01*
X-4722672Y-16678487D01*
X-4728665Y-16724946D01*
X-4722512Y-16772663D01*
X-4704713Y-16813102D01*
X-4674809Y-16848045D01*
X-4636474Y-16874108D01*
X-4590536Y-16890239D01*
X-4534950Y-16895947D01*
G37*
G36*
X-5926401Y-16872500D02*
G01*
X-4997027Y-16872500D01*
X-4997027Y-16614579D01*
X-5301384Y-16614579D01*
X-5301384Y-15700134D01*
X-4988784Y-15770476D01*
X-4988784Y-15506693D01*
X-5624151Y-15377733D01*
X-5624151Y-16614579D01*
X-5926401Y-16614579D01*
X-5926401Y-16872500D01*
G37*
D12*
X333333Y22920181D02*
X333333Y22205896D01*
X333333Y22205896D02*
X380952Y22063039D01*
X380952Y22063039D02*
X476190Y21967800D01*
X476190Y21967800D02*
X619047Y21920181D01*
X619047Y21920181D02*
X714285Y21920181D01*
X-666667Y21920181D02*
X-95239Y21920181D01*
X-380953Y21920181D02*
X-380953Y22920181D01*
X-380953Y22920181D02*
X-285715Y22777324D01*
X-285715Y22777324D02*
X-190477Y22682086D01*
X-190477Y22682086D02*
X-95239Y22634467D01*
D13*
%TO.C,J1*%
X-10270000Y23620000D02*
X-10270000Y26380000D01*
X10270000Y26380000D02*
X-10270000Y26380000D01*
X10270000Y23620000D02*
X-10270000Y23620000D01*
X10270000Y23620000D02*
X10270000Y26380000D01*
%TD*%
M02*
