%TF.GenerationSoftware,KiCad,Pcbnew,9.0.7*%
%TF.CreationDate,2026-04-03T13:52:56+01:00*%
%TF.ProjectId,solderbit-segment-shift-edition,736f6c64-6572-4626-9974-2d7365676d65,v0.1*%
%TF.SameCoordinates,PX8583b00PY4e33880*%
%TF.FileFunction,AssemblyDrawing,Bot*%
%FSLAX46Y46*%
G04 Gerber Fmt 4.6, Leading zero omitted, Abs format (unit mm)*
G04 Created by KiCad (PCBNEW 9.0.7) date 2026-04-03 13:52:56*
%MOMM*%
%LPD*%
G01*
G04 APERTURE LIST*
%ADD10C,0.150000*%
%ADD11C,0.100000*%
G04 APERTURE END LIST*
D10*
X333333Y25545181D02*
X333333Y24830896D01*
X333333Y24830896D02*
X380952Y24688039D01*
X380952Y24688039D02*
X476190Y24592800D01*
X476190Y24592800D02*
X619047Y24545181D01*
X619047Y24545181D02*
X714285Y24545181D01*
X-666667Y24545181D02*
X-95239Y24545181D01*
X-380953Y24545181D02*
X-380953Y25545181D01*
X-380953Y25545181D02*
X-285715Y25402324D01*
X-285715Y25402324D02*
X-190477Y25307086D01*
X-190477Y25307086D02*
X-95239Y25259467D01*
X-885958Y25044468D02*
X933576Y25044468D01*
D11*
X-10210000Y26270000D02*
X-10210000Y23730000D01*
X-10110000Y23730000D02*
G75*
G02*
X-10210000Y23730000I-50000J0D01*
G01*
X-10110000Y23730000D02*
X-10110000Y26270000D01*
X-10110000Y26270000D02*
G75*
G03*
X-10210000Y26270000I-50000J0D01*
G01*
X-10160000Y23680000D02*
X9525000Y23680000D01*
X9525000Y23780000D02*
G75*
G02*
X9525000Y23680000I0J-50000D01*
G01*
X9525000Y23780000D02*
X-10160000Y23780000D01*
X-10160000Y23780000D02*
G75*
G03*
X-10160000Y23680000I0J-50000D01*
G01*
X9560355Y23694645D02*
X10195355Y24329645D01*
X10124645Y24400355D02*
G75*
G02*
X10195355Y24329645I35355J-35355D01*
G01*
X10124645Y24400355D02*
X9489645Y23765355D01*
X9489645Y23765355D02*
G75*
G03*
X9560355Y23694645I35355J-35355D01*
G01*
X10160000Y26320000D02*
X-10160000Y26320000D01*
X-10160000Y26220000D02*
G75*
G02*
X-10160000Y26320000I0J50000D01*
G01*
X-10160000Y26220000D02*
X10160000Y26220000D01*
X10160000Y26220000D02*
G75*
G03*
X10160000Y26320000I0J50000D01*
G01*
X10210000Y24365000D02*
X10210000Y26270000D01*
X10110000Y26270000D02*
G75*
G02*
X10210000Y26270000I50000J0D01*
G01*
X10110000Y26270000D02*
X10110000Y24365000D01*
X10110000Y24365000D02*
G75*
G03*
X10210000Y24365000I50000J0D01*
G01*
X-10705000Y26815000D02*
X10705000Y23185000D01*
X-10705000Y23185000D02*
X10705000Y26815000D01*
M02*
