%TF.GenerationSoftware,KiCad,Pcbnew,9.0.7*%
%TF.CreationDate,2026-04-03T13:52:58+01:00*%
%TF.ProjectId,solderbit-segment-shift-edition,736f6c64-6572-4626-9974-2d7365676d65,v0.1*%
%TF.SameCoordinates,PX8583b00PY4e33880*%
%TF.FileFunction,Drillmap*%
%TF.FilePolarity,Positive*%
%FSLAX45Y45*%
G04 Gerber Fmt 4.5, Leading zero omitted, Abs format (unit mm)*
G04 Created by KiCad (PCBNEW 9.0.7) date 2026-04-03 13:52:58*
%MOMM*%
%LPD*%
G01*
G04 APERTURE LIST*
%ADD10C,0.050000*%
%ADD11C,0.200000*%
G04 APERTURE END LIST*
D10*
X1100000Y-2600000D02*
X-1100000Y-2600000D01*
X-1100000Y-2600000D02*
G75*
G02*
X-1400000Y-2300000I0J300000D01*
G01*
X-1400000Y-2300000D02*
X-1400000Y2500000D01*
X-1100000Y2800000D02*
X1100000Y2800000D01*
X1400000Y-2300000D02*
G75*
G02*
X1100000Y-2600000I-300000J0D01*
G01*
X-1400000Y2500000D02*
G75*
G02*
X-1100000Y2800000I300000J0D01*
G01*
X1100000Y2800000D02*
G75*
G02*
X1400000Y2500000I0J-300000D01*
G01*
X1400000Y2500000D02*
X1400000Y-2300000D01*
D11*
X-1141723Y-2913984D02*
X-1141723Y-2713984D01*
X-1141723Y-2713984D02*
X-1094104Y-2713984D01*
X-1094104Y-2713984D02*
X-1065533Y-2723508D01*
X-1065533Y-2723508D02*
X-1046485Y-2742555D01*
X-1046485Y-2742555D02*
X-1036961Y-2761603D01*
X-1036961Y-2761603D02*
X-1027437Y-2799698D01*
X-1027437Y-2799698D02*
X-1027437Y-2828269D01*
X-1027437Y-2828269D02*
X-1036961Y-2866365D01*
X-1036961Y-2866365D02*
X-1046485Y-2885412D01*
X-1046485Y-2885412D02*
X-1065533Y-2904460D01*
X-1065533Y-2904460D02*
X-1094104Y-2913984D01*
X-1094104Y-2913984D02*
X-1141723Y-2913984D01*
X-941723Y-2913984D02*
X-941723Y-2780650D01*
X-941723Y-2818746D02*
X-932199Y-2799698D01*
X-932199Y-2799698D02*
X-922676Y-2790174D01*
X-922676Y-2790174D02*
X-903628Y-2780650D01*
X-903628Y-2780650D02*
X-884580Y-2780650D01*
X-817914Y-2913984D02*
X-817914Y-2780650D01*
X-817914Y-2713984D02*
X-827437Y-2723508D01*
X-827437Y-2723508D02*
X-817914Y-2733031D01*
X-817914Y-2733031D02*
X-808390Y-2723508D01*
X-808390Y-2723508D02*
X-817914Y-2713984D01*
X-817914Y-2713984D02*
X-817914Y-2733031D01*
X-694104Y-2913984D02*
X-713152Y-2904460D01*
X-713152Y-2904460D02*
X-722676Y-2885412D01*
X-722676Y-2885412D02*
X-722676Y-2713984D01*
X-589342Y-2913984D02*
X-608390Y-2904460D01*
X-608390Y-2904460D02*
X-617914Y-2885412D01*
X-617914Y-2885412D02*
X-617914Y-2713984D01*
X-360771Y-2913984D02*
X-360771Y-2713984D01*
X-360771Y-2713984D02*
X-294104Y-2856841D01*
X-294104Y-2856841D02*
X-227437Y-2713984D01*
X-227437Y-2713984D02*
X-227437Y-2913984D01*
X-46485Y-2913984D02*
X-46485Y-2809222D01*
X-46485Y-2809222D02*
X-56009Y-2790174D01*
X-56009Y-2790174D02*
X-75057Y-2780650D01*
X-75057Y-2780650D02*
X-113152Y-2780650D01*
X-113152Y-2780650D02*
X-132199Y-2790174D01*
X-46485Y-2904460D02*
X-65533Y-2913984D01*
X-65533Y-2913984D02*
X-113152Y-2913984D01*
X-113152Y-2913984D02*
X-132199Y-2904460D01*
X-132199Y-2904460D02*
X-141723Y-2885412D01*
X-141723Y-2885412D02*
X-141723Y-2866365D01*
X-141723Y-2866365D02*
X-132199Y-2847317D01*
X-132199Y-2847317D02*
X-113152Y-2837793D01*
X-113152Y-2837793D02*
X-65533Y-2837793D01*
X-65533Y-2837793D02*
X-46485Y-2828269D01*
X48753Y-2780650D02*
X48753Y-2980650D01*
X48753Y-2790174D02*
X67801Y-2780650D01*
X67801Y-2780650D02*
X105896Y-2780650D01*
X105896Y-2780650D02*
X124943Y-2790174D01*
X124943Y-2790174D02*
X134467Y-2799698D01*
X134467Y-2799698D02*
X143991Y-2818746D01*
X143991Y-2818746D02*
X143991Y-2875888D01*
X143991Y-2875888D02*
X134467Y-2894936D01*
X134467Y-2894936D02*
X124943Y-2904460D01*
X124943Y-2904460D02*
X105896Y-2913984D01*
X105896Y-2913984D02*
X67801Y-2913984D01*
X67801Y-2913984D02*
X48753Y-2904460D01*
X229705Y-2894936D02*
X239229Y-2904460D01*
X239229Y-2904460D02*
X229705Y-2913984D01*
X229705Y-2913984D02*
X220182Y-2904460D01*
X220182Y-2904460D02*
X229705Y-2894936D01*
X229705Y-2894936D02*
X229705Y-2913984D01*
X229705Y-2790174D02*
X239229Y-2799698D01*
X239229Y-2799698D02*
X229705Y-2809222D01*
X229705Y-2809222D02*
X220182Y-2799698D01*
X220182Y-2799698D02*
X229705Y-2790174D01*
X229705Y-2790174D02*
X229705Y-2809222D01*
M02*
