%TF.GenerationSoftware,KiCad,Pcbnew,9.0.7*%
%TF.CreationDate,2026-04-21T17:40:21+01:00*%
%TF.ProjectId,solderbit-segment-shift-edition,736f6c64-6572-4626-9974-2d7365676d65,v0.1*%
%TF.SameCoordinates,PX8583b00PY4e33880*%
%TF.FileFunction,Legend,Top*%
%TF.FilePolarity,Positive*%
%FSLAX46Y46*%
G04 Gerber Fmt 4.6, Leading zero omitted, Abs format (unit mm)*
G04 Created by KiCad (PCBNEW 9.0.7) date 2026-04-21 17:40:21*
%MOMM*%
%LPD*%
G01*
G04 APERTURE LIST*
%ADD10C,0.100000*%
%ADD11C,0.450000*%
%ADD12C,0.360000*%
%ADD13C,0.150000*%
%ADD14C,0.120000*%
%ADD15C,0.000000*%
G04 APERTURE END LIST*
D10*
G36*
X1885000Y21835808D02*
G01*
X1885000Y21617882D01*
X1298084Y21617882D01*
X1200640Y21619842D01*
X1088096Y21626125D01*
X1088096Y21620691D01*
X1171847Y21602986D01*
X1218094Y21589916D01*
X1885000Y21360389D01*
X1885000Y21180016D01*
X1224933Y20946397D01*
X1088096Y20915684D01*
X1088096Y20909517D01*
X1342597Y20918371D01*
X1885000Y20918371D01*
X1885000Y20719618D01*
X904120Y20719618D01*
X904120Y21042690D01*
X1485540Y21242847D01*
X1555780Y21263605D01*
X1625736Y21277713D01*
X1625736Y21281804D01*
X1547168Y21301445D01*
X1484136Y21320761D01*
X904120Y21520918D01*
X904120Y21835808D01*
X1885000Y21835808D01*
G37*
G36*
X1885000Y22627399D02*
G01*
X1632819Y22475052D01*
X1581589Y22442263D01*
X1542998Y22410511D01*
X1518391Y22376989D01*
X1512009Y22358939D01*
X1509842Y22339070D01*
X1509842Y22279658D01*
X1885000Y22279658D01*
X1885000Y22059046D01*
X904120Y22059046D01*
X904120Y22379431D01*
X1069412Y22379431D01*
X1069412Y22279658D01*
X1343147Y22279658D01*
X1343147Y22375279D01*
X1338239Y22421023D01*
X1324396Y22458459D01*
X1301992Y22489402D01*
X1271773Y22513743D01*
X1237668Y22528171D01*
X1198372Y22533121D01*
X1151362Y22526798D01*
X1117049Y22509478D01*
X1092127Y22481365D01*
X1075676Y22439714D01*
X1069412Y22379431D01*
X904120Y22379431D01*
X904120Y22408801D01*
X909688Y22504360D01*
X924840Y22579815D01*
X947748Y22638839D01*
X977342Y22684505D01*
X1013409Y22719138D01*
X1056623Y22744134D01*
X1108467Y22759816D01*
X1171078Y22765396D01*
X1221017Y22761357D01*
X1265844Y22749642D01*
X1307287Y22730639D01*
X1344246Y22705251D01*
X1376514Y22673810D01*
X1404452Y22635886D01*
X1426848Y22593408D01*
X1444141Y22545394D01*
X1446889Y22545394D01*
X1455713Y22566614D01*
X1469115Y22587709D01*
X1504958Y22627338D01*
X1549043Y22663913D01*
X1595205Y22695665D01*
X1885000Y22880801D01*
X1885000Y22627399D01*
G37*
X655000Y20707571D02*
X655000Y22760467D01*
G36*
X6845615Y19337998D02*
G01*
X6625491Y19337998D01*
X6670187Y19400387D01*
X6701695Y19467080D01*
X6720814Y19537508D01*
X6727096Y19607825D01*
X6725101Y19648148D01*
X6719647Y19680610D01*
X6710338Y19709988D01*
X6698825Y19732511D01*
X6683993Y19751033D01*
X6667501Y19763591D01*
X6648704Y19771274D01*
X6628300Y19773849D01*
X6601104Y19769716D01*
X6577131Y19757424D01*
X6556001Y19738637D01*
X6535488Y19712667D01*
X6498668Y19645378D01*
X6462459Y19561419D01*
X6426065Y19487582D01*
X6387086Y19431552D01*
X6345772Y19390266D01*
X6297213Y19359234D01*
X6242287Y19340419D01*
X6179260Y19333907D01*
X6129067Y19337563D01*
X6085636Y19347972D01*
X6047857Y19364621D01*
X5997837Y19400876D01*
X5957426Y19448335D01*
X5927014Y19504573D01*
X5905219Y19570945D01*
X5892758Y19641919D01*
X5888489Y19718528D01*
X5890931Y19792882D01*
X5897648Y19854083D01*
X5909466Y19911661D01*
X5925797Y19963077D01*
X6128457Y19963077D01*
X6099270Y19909404D01*
X6078326Y19849626D01*
X6066053Y19788504D01*
X6062023Y19730802D01*
X6063889Y19694186D01*
X6069167Y19662475D01*
X6078073Y19633344D01*
X6089256Y19610573D01*
X6103764Y19591487D01*
X6120275Y19577783D01*
X6139334Y19569115D01*
X6160819Y19566182D01*
X6184231Y19569457D01*
X6204844Y19579127D01*
X6223204Y19594298D01*
X6241664Y19616007D01*
X6275797Y19674076D01*
X6310296Y19751318D01*
X6336166Y19808165D01*
X6362503Y19856831D01*
X6392363Y19900911D01*
X6424907Y19937126D01*
X6462212Y19966672D01*
X6504469Y19988356D01*
X6551445Y20001442D01*
X6608517Y20006124D01*
X6662381Y20002352D01*
X6707741Y19991751D01*
X6746025Y19975044D01*
X6796389Y19938390D01*
X6836151Y19890659D01*
X6865333Y19834051D01*
X6885610Y19766705D01*
X6896798Y19694794D01*
X6900631Y19617412D01*
X6897109Y19537967D01*
X6886831Y19464027D01*
X6869098Y19394458D01*
X6845615Y19337998D01*
G37*
G36*
X6885000Y21015336D02*
G01*
X6885000Y20794052D01*
X6484808Y20794052D01*
X6484808Y20388242D01*
X6885000Y20388242D01*
X6885000Y20167630D01*
X5904120Y20167630D01*
X5904120Y20388242D01*
X6294909Y20388242D01*
X6294909Y20794052D01*
X5904120Y20794052D01*
X5904120Y21015336D01*
X6885000Y21015336D01*
G37*
G36*
X6848607Y21941627D02*
G01*
X6876033Y21868234D01*
X6894050Y21776202D01*
X6900631Y21661541D01*
X6894749Y21570782D01*
X6877974Y21491494D01*
X6851196Y21421975D01*
X6814719Y21360814D01*
X6768251Y21306962D01*
X6713193Y21261485D01*
X6651466Y21225864D01*
X6582130Y21199805D01*
X6503936Y21183552D01*
X6415382Y21177879D01*
X6321615Y21184150D01*
X6238020Y21202205D01*
X6163084Y21231340D01*
X6095564Y21271448D01*
X6034546Y21323021D01*
X5982506Y21383807D01*
X5942132Y21450842D01*
X5912868Y21525005D01*
X5894767Y21607506D01*
X5888489Y21699826D01*
X5892996Y21795205D01*
X5905536Y21875053D01*
X5924881Y21941627D01*
X6138593Y21941627D01*
X6105455Y21873833D01*
X6085307Y21799632D01*
X6078387Y21717534D01*
X6084189Y21649710D01*
X6100782Y21591028D01*
X6127613Y21539812D01*
X6165033Y21494846D01*
X6210703Y21458726D01*
X6263975Y21432444D01*
X6326321Y21415972D01*
X6399689Y21410154D01*
X6470085Y21415640D01*
X6530114Y21431189D01*
X6581579Y21456005D01*
X6625858Y21490083D01*
X6662088Y21532606D01*
X6688163Y21581704D01*
X6704367Y21638663D01*
X6710061Y21705261D01*
X6702891Y21789610D01*
X6681770Y21867963D01*
X6646618Y21941627D01*
X6848607Y21941627D01*
G37*
G36*
X6289265Y22821716D02*
G01*
X6352028Y22801715D01*
X6407452Y22768938D01*
X6456781Y22722410D01*
X6495500Y22667180D01*
X6523959Y22602698D01*
X6541901Y22527233D01*
X6548250Y22438600D01*
X6548250Y22333392D01*
X6885000Y22333392D01*
X6885000Y22112780D01*
X5904120Y22112780D01*
X5904120Y22420160D01*
X6073564Y22420160D01*
X6073564Y22333392D01*
X6380882Y22333392D01*
X6380882Y22420160D01*
X6375664Y22478846D01*
X6361677Y22522316D01*
X6340408Y22554176D01*
X6311836Y22576844D01*
X6274444Y22591203D01*
X6225483Y22596442D01*
X6177864Y22591262D01*
X6141394Y22577035D01*
X6113420Y22554496D01*
X6092512Y22522686D01*
X6078719Y22479125D01*
X6073564Y22420160D01*
X5904120Y22420160D01*
X5904120Y22458445D01*
X5910292Y22555089D01*
X5927189Y22632127D01*
X5952988Y22693156D01*
X5986772Y22741113D01*
X6028617Y22778109D01*
X6079584Y22805240D01*
X6141603Y22822476D01*
X6217301Y22828656D01*
X6289265Y22821716D01*
G37*
D11*
G36*
X-11418887Y-2208059D02*
G01*
X-11418887Y-1892290D01*
X-11321659Y-1943859D01*
X-11227645Y-1979228D01*
X-11133162Y-2000944D01*
X-11047504Y-2007804D01*
X-10950294Y-1999965D01*
X-10884618Y-1979887D01*
X-10850419Y-1957038D01*
X-10831382Y-1929272D01*
X-10824938Y-1894928D01*
X-10831708Y-1861244D01*
X-10851975Y-1833708D01*
X-10881806Y-1811391D01*
X-10921438Y-1790844D01*
X-11014311Y-1757761D01*
X-11111471Y-1724678D01*
X-11243692Y-1664118D01*
X-11297021Y-1628400D01*
X-11339643Y-1588720D01*
X-11373615Y-1542717D01*
X-11398664Y-1489582D01*
X-11413496Y-1430182D01*
X-11418887Y-1356042D01*
X-11406877Y-1256151D01*
X-11372835Y-1174802D01*
X-11319167Y-1105912D01*
X-11249847Y-1050495D01*
X-11168600Y-1008962D01*
X-11073992Y-979383D01*
X-10973624Y-962473D01*
X-10868022Y-956742D01*
X-10698322Y-969711D01*
X-10528622Y-1007300D01*
X-10528622Y-1308452D01*
X-10604865Y-1270263D01*
X-10686672Y-1242946D01*
X-10770795Y-1226449D01*
X-10851975Y-1221074D01*
X-10923966Y-1227778D01*
X-10983647Y-1247122D01*
X-11024203Y-1279875D01*
X-11035225Y-1301178D01*
X-11038931Y-1325378D01*
X-11033354Y-1357368D01*
X-11016839Y-1384179D01*
X-10959027Y-1426494D01*
X-10879673Y-1458258D01*
X-10792954Y-1487054D01*
X-10652820Y-1545856D01*
X-10593698Y-1581064D01*
X-10545219Y-1620594D01*
X-10505532Y-1667115D01*
X-10476305Y-1721051D01*
X-10458714Y-1782008D01*
X-10452345Y-1858218D01*
X-10465059Y-1963759D01*
X-10500925Y-2048691D01*
X-10557334Y-2120130D01*
X-10630069Y-2177285D01*
X-10715309Y-2219545D01*
X-10815815Y-2249495D01*
X-10922224Y-2266406D01*
X-11033985Y-2272136D01*
X-11171392Y-2264769D01*
X-11299299Y-2243229D01*
X-11418887Y-2208059D01*
G37*
G36*
X-9455533Y-968932D02*
G01*
X-9324373Y-1003299D01*
X-9213463Y-1057858D01*
X-9119475Y-1132487D01*
X-9042680Y-1225620D01*
X-8987452Y-1332229D01*
X-8953202Y-1454930D01*
X-8941203Y-1597293D01*
X-8953801Y-1751833D01*
X-8989484Y-1882985D01*
X-9046503Y-1994961D01*
X-9125081Y-2090896D01*
X-9222000Y-2168014D01*
X-9335824Y-2224266D01*
X-9469858Y-2259619D01*
X-9628465Y-2272136D01*
X-9784870Y-2259956D01*
X-9916776Y-2225599D01*
X-10028515Y-2171033D01*
X-10123387Y-2096391D01*
X-10200517Y-2003237D01*
X-10256355Y-1894844D01*
X-10291232Y-1768236D01*
X-10303528Y-1619385D01*
X-10303115Y-1614439D01*
X-9908844Y-1614439D01*
X-9898639Y-1736386D01*
X-9871466Y-1825864D01*
X-9830608Y-1890592D01*
X-9776500Y-1935965D01*
X-9706663Y-1964340D01*
X-9616155Y-1974612D01*
X-9531361Y-1964460D01*
X-9465300Y-1936206D01*
X-9413456Y-1890472D01*
X-9373797Y-1824332D01*
X-9347158Y-1731817D01*
X-9337096Y-1604657D01*
X-9346963Y-1485752D01*
X-9373215Y-1398618D01*
X-9412630Y-1335696D01*
X-9464724Y-1291679D01*
X-9531834Y-1264202D01*
X-9618683Y-1254266D01*
X-9706016Y-1265359D01*
X-9775969Y-1296713D01*
X-9832677Y-1348349D01*
X-9873037Y-1415151D01*
X-9899227Y-1501988D01*
X-9908844Y-1614439D01*
X-10303115Y-1614439D01*
X-10290695Y-1465594D01*
X-10254423Y-1335947D01*
X-10196526Y-1225997D01*
X-10116682Y-1132487D01*
X-10018572Y-1057764D01*
X-9903921Y-1003176D01*
X-9769548Y-968872D01*
X-9611319Y-956742D01*
X-9455533Y-968932D01*
G37*
G36*
X-8299552Y-2244000D02*
G01*
X-8688081Y-2244000D01*
X-8688081Y-379938D01*
X-8299552Y-379938D01*
X-8299552Y-2244000D01*
G37*
G36*
X-6740269Y-2244000D02*
G01*
X-7128798Y-2244000D01*
X-7128798Y-2068145D01*
X-7133744Y-2068145D01*
X-7192380Y-2142160D01*
X-7259299Y-2198341D01*
X-7335467Y-2238579D01*
X-7422694Y-2263445D01*
X-7523483Y-2272136D01*
X-7638499Y-2261223D01*
X-7738311Y-2229856D01*
X-7825944Y-2178630D01*
X-7903439Y-2106173D01*
X-7963615Y-2020000D01*
X-8008432Y-1916438D01*
X-8037065Y-1792053D01*
X-8047310Y-1642576D01*
X-8046531Y-1631585D01*
X-7652626Y-1631585D01*
X-7643725Y-1739459D01*
X-7619583Y-1822266D01*
X-7582614Y-1885475D01*
X-7530341Y-1934669D01*
X-7466764Y-1964231D01*
X-7388294Y-1974612D01*
X-7314102Y-1964066D01*
X-7250914Y-1933279D01*
X-7195843Y-1880639D01*
X-7155831Y-1814169D01*
X-7130519Y-1732450D01*
X-7121435Y-1631585D01*
X-7121435Y-1537503D01*
X-7129785Y-1458808D01*
X-7153667Y-1392109D01*
X-7192766Y-1334830D01*
X-7244880Y-1290207D01*
X-7305826Y-1263529D01*
X-7378402Y-1254266D01*
X-7459350Y-1265816D01*
X-7525339Y-1298989D01*
X-7580086Y-1355053D01*
X-7618532Y-1425797D01*
X-7643495Y-1516267D01*
X-7652626Y-1631585D01*
X-8046531Y-1631585D01*
X-8036309Y-1487312D01*
X-8005199Y-1354854D01*
X-7955842Y-1241459D01*
X-7888711Y-1144137D01*
X-7802985Y-1061943D01*
X-7706750Y-1004160D01*
X-7597855Y-968951D01*
X-7473034Y-956742D01*
X-7354350Y-969004D01*
X-7261778Y-1002848D01*
X-7189405Y-1056393D01*
X-7133744Y-1131278D01*
X-7128798Y-1131278D01*
X-7128798Y-379938D01*
X-6740269Y-379938D01*
X-6740269Y-2244000D01*
G37*
G36*
X-5721559Y-968015D02*
G01*
X-5607727Y-999735D01*
X-5512239Y-1050116D01*
X-5432019Y-1119298D01*
X-5368107Y-1204400D01*
X-5321281Y-1304249D01*
X-5291782Y-1421683D01*
X-5281333Y-1560364D01*
X-5281333Y-1722810D01*
X-6102685Y-1722810D01*
X-6087231Y-1807753D01*
X-6056476Y-1873568D01*
X-6011125Y-1924436D01*
X-5949251Y-1962483D01*
X-5866603Y-1987446D01*
X-5757131Y-1996704D01*
X-5621369Y-1985401D01*
X-5500527Y-1952710D01*
X-5391902Y-1899324D01*
X-5391902Y-2178933D01*
X-5511995Y-2228312D01*
X-5661129Y-2260458D01*
X-5845608Y-2272136D01*
X-5997418Y-2260354D01*
X-6124107Y-2227272D01*
X-6230187Y-2174988D01*
X-6319097Y-2103755D01*
X-6390477Y-2014870D01*
X-6442749Y-1909332D01*
X-6475747Y-1783830D01*
X-6487478Y-1634003D01*
X-6475407Y-1484307D01*
X-6105103Y-1484307D01*
X-5641506Y-1484307D01*
X-5652228Y-1379740D01*
X-5680328Y-1307684D01*
X-5722757Y-1259229D01*
X-5780951Y-1229488D01*
X-5860445Y-1218656D01*
X-5919423Y-1226956D01*
X-5972686Y-1251712D01*
X-6022122Y-1294713D01*
X-6061150Y-1348660D01*
X-6088850Y-1411279D01*
X-6105103Y-1484307D01*
X-6475407Y-1484307D01*
X-6475013Y-1479421D01*
X-6439697Y-1348029D01*
X-6383275Y-1235690D01*
X-6305578Y-1139301D01*
X-6208946Y-1059162D01*
X-6103525Y-1002736D01*
X-5987409Y-968508D01*
X-5857917Y-956742D01*
X-5721559Y-968015D01*
G37*
G36*
X-4228293Y-1332412D02*
G01*
X-4302628Y-1304270D01*
X-4391838Y-1294383D01*
X-4471656Y-1305177D01*
X-4536418Y-1335987D01*
X-4589784Y-1387476D01*
X-4627809Y-1453184D01*
X-4652240Y-1536166D01*
X-4661115Y-1640927D01*
X-4661115Y-2244000D01*
X-5049645Y-2244000D01*
X-5049645Y-984879D01*
X-4661115Y-984879D01*
X-4661115Y-1215688D01*
X-4656169Y-1215688D01*
X-4610255Y-1117226D01*
X-4554890Y-1046014D01*
X-4490166Y-996898D01*
X-4414374Y-967136D01*
X-4324243Y-956742D01*
X-4266353Y-960987D01*
X-4228293Y-971690D01*
X-4228293Y-1332412D01*
G37*
G36*
X-3773708Y-1378794D02*
G01*
X-3835293Y-1371960D01*
X-3887897Y-1352311D01*
X-3933516Y-1319882D01*
X-3969242Y-1277203D01*
X-3990288Y-1229243D01*
X-3997483Y-1174143D01*
X-3990014Y-1117633D01*
X-3968345Y-1069574D01*
X-3931757Y-1027853D01*
X-3885065Y-996568D01*
X-3830997Y-977475D01*
X-3767553Y-970810D01*
X-3703327Y-977626D01*
X-3649759Y-996993D01*
X-3604557Y-1028513D01*
X-3569341Y-1070363D01*
X-3548445Y-1118242D01*
X-3541250Y-1174143D01*
X-3548652Y-1231606D01*
X-3570025Y-1280080D01*
X-3605876Y-1321751D01*
X-3651846Y-1352772D01*
X-3706973Y-1371990D01*
X-3773708Y-1378794D01*
G37*
G36*
X-3773708Y-2272136D02*
G01*
X-3835264Y-2265259D01*
X-3887866Y-2245472D01*
X-3933516Y-2212785D01*
X-3969276Y-2169843D01*
X-3990307Y-2121834D01*
X-3997483Y-2066936D01*
X-3990016Y-2010580D01*
X-3968350Y-1962667D01*
X-3931757Y-1921086D01*
X-3885072Y-1889865D01*
X-3831004Y-1870806D01*
X-3767553Y-1864153D01*
X-3703311Y-1870947D01*
X-3649743Y-1890244D01*
X-3604557Y-1921636D01*
X-3569333Y-1963414D01*
X-3548441Y-2011185D01*
X-3541250Y-2066936D01*
X-3548634Y-2124196D01*
X-3569992Y-2172723D01*
X-3605876Y-2214654D01*
X-3651878Y-2245930D01*
X-3707004Y-2265287D01*
X-3773708Y-2272136D01*
G37*
G36*
X-2876189Y-1176780D02*
G01*
X-2871243Y-1176780D01*
X-2807600Y-1096287D01*
X-2736138Y-1035586D01*
X-2655967Y-992425D01*
X-2565346Y-965944D01*
X-2461831Y-956742D01*
X-2342729Y-968010D01*
X-2242856Y-999933D01*
X-2158370Y-1051348D01*
X-2086710Y-1123364D01*
X-2031774Y-1209107D01*
X-1990737Y-1311407D01*
X-1964515Y-1433411D01*
X-1955149Y-1578938D01*
X-1965856Y-1735813D01*
X-1996108Y-1869651D01*
X-2044000Y-1984156D01*
X-2108912Y-2082323D01*
X-2192432Y-2165554D01*
X-2287013Y-2224042D01*
X-2394893Y-2259730D01*
X-2519533Y-2272136D01*
X-2632012Y-2260343D01*
X-2725720Y-2226868D01*
X-2804665Y-2172488D01*
X-2871243Y-2095182D01*
X-2876189Y-2095182D01*
X-2876189Y-2244000D01*
X-3264718Y-2244000D01*
X-3264718Y-1566848D01*
X-2882343Y-1566848D01*
X-2882343Y-1695003D01*
X-2874130Y-1772950D01*
X-2850670Y-1838844D01*
X-2812331Y-1895257D01*
X-2761157Y-1939378D01*
X-2702150Y-1965573D01*
X-2632740Y-1974612D01*
X-2549373Y-1962858D01*
X-2482033Y-1929252D01*
X-2426770Y-1872726D01*
X-2388276Y-1800967D01*
X-2362941Y-1706726D01*
X-2353570Y-1583884D01*
X-2361998Y-1482504D01*
X-2385038Y-1403320D01*
X-2420615Y-1341644D01*
X-2470902Y-1293617D01*
X-2533362Y-1264552D01*
X-2611857Y-1254266D01*
X-2685796Y-1264055D01*
X-2749473Y-1292595D01*
X-2805517Y-1340985D01*
X-2847281Y-1402725D01*
X-2873171Y-1476900D01*
X-2882343Y-1566848D01*
X-3264718Y-1566848D01*
X-3264718Y-379938D01*
X-2876189Y-379938D01*
X-2876189Y-1176780D01*
G37*
G36*
X-1506389Y-780887D02*
G01*
X-1569657Y-774001D01*
X-1622616Y-754379D01*
X-1667516Y-722306D01*
X-1702528Y-679960D01*
X-1723133Y-632634D01*
X-1730164Y-578544D01*
X-1722998Y-522962D01*
X-1702288Y-475959D01*
X-1667516Y-435442D01*
X-1622839Y-405165D01*
X-1569872Y-386510D01*
X-1506389Y-379938D01*
X-1442107Y-386552D01*
X-1389006Y-405242D01*
X-1344713Y-435442D01*
X-1310271Y-475918D01*
X-1289728Y-522922D01*
X-1282614Y-578544D01*
X-1289733Y-635014D01*
X-1310291Y-682865D01*
X-1344713Y-724174D01*
X-1389094Y-755077D01*
X-1442193Y-774149D01*
X-1506389Y-780887D01*
G37*
G36*
X-1314597Y-2244000D02*
G01*
X-1703127Y-2244000D01*
X-1703127Y-984879D01*
X-1314597Y-984879D01*
X-1314597Y-2244000D01*
G37*
G36*
X-226276Y-2229272D02*
G01*
X-285589Y-2251086D01*
X-369664Y-2266304D01*
X-485662Y-2272136D01*
X-601045Y-2262302D01*
X-691760Y-2235313D01*
X-762988Y-2193416D01*
X-818394Y-2136658D01*
X-859723Y-2062889D01*
X-886565Y-1968045D01*
X-896393Y-1846568D01*
X-896393Y-1271412D01*
X-1100494Y-1271412D01*
X-1100494Y-984879D01*
X-896393Y-984879D01*
X-896393Y-714942D01*
X-509072Y-605032D01*
X-509072Y-984879D01*
X-226276Y-984879D01*
X-226276Y-1271412D01*
X-509072Y-1271412D01*
X-509072Y-1778644D01*
X-501308Y-1856289D01*
X-481034Y-1909528D01*
X-450610Y-1945083D01*
X-409177Y-1966754D01*
X-352891Y-1974612D01*
X-291894Y-1966697D01*
X-226276Y-1941529D01*
X-226276Y-2229272D01*
G37*
D10*
G36*
X8973881Y22019011D02*
G01*
X9054847Y22001202D01*
X9126741Y21972566D01*
X9190880Y21933249D01*
X9248224Y21882764D01*
X9296336Y21823675D01*
X9334077Y21757362D01*
X9361720Y21682807D01*
X9378974Y21598667D01*
X9385000Y21503333D01*
X9385000Y21156325D01*
X8404120Y21156325D01*
X8404120Y21484893D01*
X8583761Y21484893D01*
X8583761Y21376937D01*
X9206031Y21376937D01*
X9206031Y21486236D01*
X9200118Y21557145D01*
X9183394Y21617045D01*
X9156677Y21667959D01*
X9119813Y21711367D01*
X9074516Y21746031D01*
X9021367Y21771391D01*
X8958844Y21787352D01*
X8884973Y21793005D01*
X8815427Y21787425D01*
X8756665Y21771657D01*
X8706753Y21746539D01*
X8664239Y21712038D01*
X8630195Y21669339D01*
X8605204Y21618428D01*
X8589392Y21557662D01*
X8583761Y21484893D01*
X8404120Y21484893D01*
X8404120Y21503333D01*
X8410005Y21612708D01*
X8426434Y21704466D01*
X8451940Y21781236D01*
X8485605Y21845292D01*
X8527109Y21898472D01*
X8576751Y21942089D01*
X8635430Y21976849D01*
X8704584Y22002802D01*
X8786098Y22019337D01*
X8882226Y22025219D01*
X8973881Y22019011D01*
G37*
G36*
X9345615Y22142883D02*
G01*
X9125491Y22142883D01*
X9170187Y22205272D01*
X9201695Y22271965D01*
X9220814Y22342392D01*
X9227096Y22412710D01*
X9225101Y22453033D01*
X9219647Y22485494D01*
X9210338Y22514873D01*
X9198825Y22537396D01*
X9183993Y22555918D01*
X9167501Y22568476D01*
X9148704Y22576159D01*
X9128300Y22578734D01*
X9101104Y22574600D01*
X9077131Y22562309D01*
X9056001Y22543522D01*
X9035488Y22517551D01*
X8998668Y22450262D01*
X8962459Y22366304D01*
X8926065Y22292467D01*
X8887086Y22236437D01*
X8845772Y22195151D01*
X8797213Y22164119D01*
X8742287Y22145304D01*
X8679260Y22138792D01*
X8629067Y22142448D01*
X8585636Y22152857D01*
X8547857Y22169505D01*
X8497837Y22205761D01*
X8457426Y22253220D01*
X8427014Y22309458D01*
X8405219Y22375829D01*
X8392758Y22446804D01*
X8388489Y22523413D01*
X8390931Y22597767D01*
X8397648Y22658968D01*
X8409466Y22716546D01*
X8425797Y22767961D01*
X8628457Y22767961D01*
X8599270Y22714289D01*
X8578326Y22654511D01*
X8566053Y22593389D01*
X8562023Y22535686D01*
X8563889Y22499071D01*
X8569167Y22467359D01*
X8578073Y22438229D01*
X8589256Y22415458D01*
X8603764Y22396372D01*
X8620275Y22382668D01*
X8639334Y22374000D01*
X8660819Y22371067D01*
X8684231Y22374342D01*
X8704844Y22384012D01*
X8723204Y22399183D01*
X8741664Y22420892D01*
X8775797Y22478961D01*
X8810296Y22556203D01*
X8836166Y22613050D01*
X8862503Y22661716D01*
X8892363Y22705796D01*
X8924907Y22742011D01*
X8962212Y22771557D01*
X9004469Y22793240D01*
X9051445Y22806327D01*
X9108517Y22811009D01*
X9162381Y22807237D01*
X9207741Y22796636D01*
X9246025Y22779929D01*
X9296389Y22743275D01*
X9336151Y22695543D01*
X9365333Y22638936D01*
X9385610Y22571590D01*
X9396798Y22499679D01*
X9400631Y22422297D01*
X9397109Y22342851D01*
X9386831Y22268912D01*
X9369098Y22199343D01*
X9345615Y22142883D01*
G37*
D12*
G36*
X4618473Y-1125918D02*
G01*
X4681674Y-1150741D01*
X4733793Y-1191388D01*
X4774548Y-1247241D01*
X4774548Y-1810306D01*
X4733907Y-1865297D01*
X4681674Y-1906257D01*
X4618126Y-1931424D01*
X4533517Y-1940659D01*
X4464548Y-1932659D01*
X4408110Y-1909994D01*
X4360063Y-1873754D01*
X4320842Y-1825803D01*
X4291363Y-1768842D01*
X4269844Y-1700397D01*
X4257527Y-1626704D01*
X4253248Y-1544765D01*
X4253248Y-1518937D01*
X4257650Y-1436883D01*
X4270394Y-1362206D01*
X4292552Y-1292455D01*
X4322601Y-1234272D01*
X4362416Y-1185094D01*
X4410528Y-1148213D01*
X4467103Y-1125046D01*
X4536045Y-1116889D01*
X4618473Y-1125918D01*
G37*
G36*
X3101690Y-1121012D02*
G01*
X3153935Y-1136013D01*
X3200340Y-1160250D01*
X3238126Y-1191297D01*
X3268388Y-1229275D01*
X3290992Y-1274279D01*
X3305379Y-1323413D01*
X3311875Y-1376274D01*
X3311875Y-1403312D01*
X2751228Y-1403312D01*
X2766887Y-1340258D01*
X2788047Y-1285270D01*
X2815969Y-1235533D01*
X2848937Y-1194375D01*
X2888180Y-1160673D01*
X2933128Y-1136013D01*
X2982935Y-1120892D01*
X3038970Y-1115680D01*
X3101690Y-1121012D01*
G37*
G36*
X7633469Y-1121012D02*
G01*
X7685715Y-1136013D01*
X7732120Y-1160250D01*
X7769905Y-1191297D01*
X7800168Y-1229275D01*
X7822772Y-1274279D01*
X7837158Y-1323413D01*
X7843654Y-1376274D01*
X7843654Y-1403312D01*
X7283007Y-1403312D01*
X7298666Y-1340258D01*
X7319827Y-1285270D01*
X7347749Y-1235533D01*
X7380717Y-1194375D01*
X7419960Y-1160673D01*
X7464907Y-1136013D01*
X7514714Y-1120892D01*
X7570750Y-1115680D01*
X7633469Y-1121012D01*
G37*
G36*
X11368630Y-2917827D02*
G01*
X659469Y-2917827D01*
X659469Y-1638188D01*
X859469Y-1638188D01*
X866602Y-1733796D01*
X887056Y-1817780D01*
X920275Y-1895178D01*
X963333Y-1962860D01*
X1016220Y-2022620D01*
X1078299Y-2074748D01*
X1147155Y-2118606D01*
X1221510Y-2154652D01*
X1300002Y-2182410D01*
X1382637Y-2202023D01*
X1467080Y-2213571D01*
X1551678Y-2217410D01*
X1684956Y-2209014D01*
X1803700Y-2184877D01*
X1913001Y-2143759D01*
X2002965Y-2088926D01*
X2077659Y-2018299D01*
X2133867Y-1933954D01*
X2168996Y-1837446D01*
X2181238Y-1724247D01*
X2170657Y-1617311D01*
X2141024Y-1526301D01*
X2398309Y-1526301D01*
X2398309Y-1575540D01*
X2410609Y-1706198D01*
X2446889Y-1827012D01*
X2505898Y-1936954D01*
X2585155Y-2031114D01*
X2682801Y-2108011D01*
X2800357Y-2168171D01*
X2930631Y-2205602D01*
X3079527Y-2218619D01*
X3175863Y-2213215D01*
X3262745Y-2197627D01*
X3344948Y-2173103D01*
X3417058Y-2143002D01*
X3482970Y-2106017D01*
X3537519Y-2065516D01*
X3584831Y-2020323D01*
X3620500Y-1976379D01*
X3449591Y-1791951D01*
X3380788Y-1858337D01*
X3295938Y-1905707D01*
X3200647Y-1934614D01*
X3100409Y-1944396D01*
X3030998Y-1938728D01*
X2968848Y-1922304D01*
X2911758Y-1895373D01*
X2861906Y-1859546D01*
X2819444Y-1815303D01*
X2784970Y-1763045D01*
X2760118Y-1704717D01*
X2745073Y-1639397D01*
X3647648Y-1639397D01*
X3647648Y-1518937D01*
X3910111Y-1518937D01*
X3910111Y-1544765D01*
X3919751Y-1686409D01*
X3947590Y-1813494D01*
X3994123Y-1930251D01*
X4055191Y-2026827D01*
X4132741Y-2107059D01*
X4224232Y-2167621D01*
X4328052Y-2205524D01*
X4447458Y-2218619D01*
X4548955Y-2208974D01*
X4633754Y-2181690D01*
X4709137Y-2137467D01*
X4774548Y-2078375D01*
X4774548Y-2154652D01*
X4764715Y-2245600D01*
X4737457Y-2316857D01*
X4693984Y-2372932D01*
X4635875Y-2414274D01*
X4562545Y-2440348D01*
X4469659Y-2449758D01*
X4376524Y-2439936D01*
X4291277Y-2410960D01*
X4213952Y-2364048D01*
X4143778Y-2298523D01*
X3990015Y-2506362D01*
X4037198Y-2557625D01*
X4093330Y-2601543D01*
X4155395Y-2638003D01*
X4221154Y-2667379D01*
X4357662Y-2705517D01*
X4486805Y-2717827D01*
X4623239Y-2708103D01*
X4743224Y-2680238D01*
X4852347Y-2633302D01*
X4942379Y-2570219D01*
X5015771Y-2489873D01*
X5071413Y-2391946D01*
X5105571Y-2281213D01*
X5117575Y-2150915D01*
X5117575Y-863548D01*
X5373993Y-863548D01*
X5373993Y-2194000D01*
X5685146Y-2194000D01*
X5685146Y-1198002D01*
X5701719Y-1164087D01*
X5722625Y-1138980D01*
X5749663Y-1122684D01*
X5785933Y-1116889D01*
X5822752Y-1122384D01*
X5852868Y-1141508D01*
X5873201Y-1179647D01*
X5880565Y-1242295D01*
X5880565Y-2194000D01*
X6181826Y-2194000D01*
X6181826Y-1178328D01*
X6198246Y-1152846D01*
X6219965Y-1133485D01*
X6246641Y-1121231D01*
X6280195Y-1116889D01*
X6316465Y-1122384D01*
X6347899Y-1142058D01*
X6369331Y-1180856D01*
X6377355Y-1243504D01*
X6377355Y-2194000D01*
X6688508Y-2194000D01*
X6688508Y-1526301D01*
X6930088Y-1526301D01*
X6930088Y-1575540D01*
X6942389Y-1706198D01*
X6978668Y-1827012D01*
X7037677Y-1936954D01*
X7116934Y-2031114D01*
X7214580Y-2108011D01*
X7332137Y-2168171D01*
X7462411Y-2205602D01*
X7611306Y-2218619D01*
X7707642Y-2213215D01*
X7794525Y-2197627D01*
X7876728Y-2173103D01*
X7948838Y-2143002D01*
X8014749Y-2106017D01*
X8069298Y-2065516D01*
X8116610Y-2020323D01*
X8152280Y-1976379D01*
X7981371Y-1791951D01*
X7912568Y-1858337D01*
X7827718Y-1905707D01*
X7732426Y-1934614D01*
X7632189Y-1944396D01*
X7562777Y-1938728D01*
X7500628Y-1922304D01*
X7443538Y-1895373D01*
X7393686Y-1859546D01*
X7351224Y-1815303D01*
X7316749Y-1763045D01*
X7291897Y-1704717D01*
X7276852Y-1639397D01*
X8179427Y-1639397D01*
X8179427Y-1494317D01*
X8168916Y-1352075D01*
X8138761Y-1226908D01*
X8088120Y-1113357D01*
X8020059Y-1019729D01*
X7933975Y-943748D01*
X7829476Y-886299D01*
X7753072Y-863548D01*
X8476292Y-863548D01*
X8476292Y-2194000D01*
X8819429Y-2194000D01*
X8819429Y-1248450D01*
X8863540Y-1193408D01*
X8919007Y-1151950D01*
X8984946Y-1126129D01*
X9067824Y-1116889D01*
X9173557Y-1128539D01*
X9217280Y-1144871D01*
X9253461Y-1169755D01*
X9282166Y-1203619D01*
X9304459Y-1250318D01*
X9317359Y-1305030D01*
X9322264Y-1380011D01*
X9322264Y-2194000D01*
X9664192Y-2194000D01*
X9664192Y-1375065D01*
X9655038Y-1235981D01*
X9630340Y-1128539D01*
X9588612Y-1034382D01*
X9535598Y-962576D01*
X9469099Y-906739D01*
X9391177Y-868494D01*
X9371683Y-863548D01*
X9968531Y-863548D01*
X9968531Y-1115680D01*
X10272210Y-1115680D01*
X10272210Y-1720620D01*
X10281429Y-1846787D01*
X10306612Y-1946264D01*
X10349037Y-2033308D01*
X10404321Y-2101236D01*
X10473565Y-2153692D01*
X10556875Y-2190922D01*
X10649163Y-2212317D01*
X10755481Y-2219828D01*
X10870336Y-2214223D01*
X10982883Y-2198836D01*
X11084989Y-2173776D01*
X11168630Y-2137396D01*
X11135437Y-1902630D01*
X11079384Y-1914830D01*
X11009371Y-1926590D01*
X10930676Y-1935823D01*
X10850113Y-1939450D01*
X10797554Y-1936233D01*
X10752404Y-1927140D01*
X10711651Y-1910524D01*
X10677995Y-1886034D01*
X10651350Y-1853160D01*
X10630624Y-1808548D01*
X10618564Y-1756727D01*
X10614028Y-1687428D01*
X10614028Y-1115680D01*
X11110818Y-1115680D01*
X11110818Y-863548D01*
X10614028Y-863548D01*
X10614028Y-537667D01*
X10272210Y-537667D01*
X10272210Y-863548D01*
X9968531Y-863548D01*
X9371683Y-863548D01*
X9304704Y-846554D01*
X9206749Y-838928D01*
X9125347Y-845176D01*
X9050299Y-863479D01*
X8980446Y-893663D01*
X8886717Y-959075D01*
X8807119Y-1047975D01*
X8786236Y-863548D01*
X8476292Y-863548D01*
X7753072Y-863548D01*
X7711816Y-851263D01*
X7573168Y-838928D01*
X7438223Y-851785D01*
X7316200Y-889376D01*
X7205848Y-950175D01*
X7112098Y-1030830D01*
X7036160Y-1129527D01*
X6978009Y-1247790D01*
X6942433Y-1378348D01*
X6940350Y-1403312D01*
X6930088Y-1526301D01*
X6688508Y-1526301D01*
X6688508Y-1244713D01*
X6682646Y-1138455D01*
X6666966Y-1057208D01*
X6640141Y-985446D01*
X6606625Y-931801D01*
X6564027Y-889454D01*
X6515621Y-861130D01*
X6461817Y-844560D01*
X6403183Y-838928D01*
X6321710Y-848768D01*
X6256235Y-876517D01*
X6201202Y-920736D01*
X6155997Y-980381D01*
X6124033Y-917947D01*
X6079987Y-875050D01*
X6022074Y-848523D01*
X5945741Y-838928D01*
X5855691Y-851838D01*
X5782855Y-888827D01*
X5723821Y-946675D01*
X5677672Y-1024675D01*
X5667890Y-863548D01*
X5373993Y-863548D01*
X5117575Y-863548D01*
X4806531Y-863548D01*
X4793012Y-990163D01*
X4727735Y-925842D01*
X4650350Y-878275D01*
X4561405Y-849357D01*
X4449986Y-838928D01*
X4329255Y-851613D01*
X4224891Y-888167D01*
X4132944Y-947246D01*
X4055191Y-1027093D01*
X3994219Y-1123931D01*
X3947590Y-1242295D01*
X3919823Y-1371661D01*
X3910111Y-1518937D01*
X3647648Y-1518937D01*
X3647648Y-1494317D01*
X3637137Y-1352075D01*
X3606981Y-1226908D01*
X3556340Y-1113357D01*
X3488279Y-1019729D01*
X3402195Y-943748D01*
X3297697Y-886299D01*
X3180036Y-851263D01*
X3041388Y-838928D01*
X2906443Y-851785D01*
X2784420Y-889376D01*
X2674069Y-950175D01*
X2580319Y-1030830D01*
X2504380Y-1129527D01*
X2446229Y-1247790D01*
X2410654Y-1378348D01*
X2408571Y-1403312D01*
X2398309Y-1526301D01*
X2141024Y-1526301D01*
X2140022Y-1523223D01*
X2090824Y-1438121D01*
X2024508Y-1362206D01*
X1944157Y-1297119D01*
X1846784Y-1239877D01*
X1740110Y-1192775D01*
X1620591Y-1152499D01*
X1466278Y-1102161D01*
X1401279Y-1072738D01*
X1349994Y-1042480D01*
X1306870Y-1006961D01*
X1276905Y-969280D01*
X1258114Y-926563D01*
X1251735Y-878275D01*
X1256552Y-831736D01*
X1270750Y-789139D01*
X1294077Y-750910D01*
X1326693Y-717808D01*
X1366843Y-691541D01*
X1417039Y-671096D01*
X1472780Y-658870D01*
X1539368Y-654500D01*
X1611599Y-659890D01*
X1670380Y-674833D01*
X1722467Y-699529D01*
X1763803Y-731327D01*
X1796551Y-770966D01*
X1820296Y-818045D01*
X1835123Y-870184D01*
X1841948Y-928724D01*
X2178820Y-928724D01*
X2166909Y-812084D01*
X2132109Y-707476D01*
X2076157Y-613521D01*
X2001756Y-533490D01*
X1911228Y-469162D01*
X1801941Y-419734D01*
X1681820Y-389565D01*
X1545523Y-379068D01*
X1413489Y-388077D01*
X1294710Y-414129D01*
X1185278Y-457472D01*
X1094235Y-514366D01*
X1018448Y-586568D01*
X961465Y-671756D01*
X925776Y-768122D01*
X913545Y-877066D01*
X926100Y-988871D01*
X962124Y-1083696D01*
X1018561Y-1167550D01*
X1091817Y-1241086D01*
X1178169Y-1303088D01*
X1279323Y-1356711D01*
X1387826Y-1400441D01*
X1502548Y-1436505D01*
X1594036Y-1464656D01*
X1662906Y-1492558D01*
X1723252Y-1525428D01*
X1767430Y-1558944D01*
X1802233Y-1597488D01*
X1824033Y-1636979D01*
X1836413Y-1679948D01*
X1840629Y-1726775D01*
X1835623Y-1773106D01*
X1820956Y-1814703D01*
X1797126Y-1851524D01*
X1764352Y-1882956D01*
X1724411Y-1907633D01*
X1674007Y-1927250D01*
X1618382Y-1938982D01*
X1551678Y-1943187D01*
X1476106Y-1938710D01*
X1409675Y-1925931D01*
X1348907Y-1903372D01*
X1298996Y-1871855D01*
X1258303Y-1830131D01*
X1227116Y-1777224D01*
X1207572Y-1715777D01*
X1198759Y-1638188D01*
X859469Y-1638188D01*
X659469Y-1638188D01*
X659469Y-179068D01*
X11368630Y-179068D01*
X11368630Y-2917827D01*
G37*
D10*
G36*
X4345615Y19638905D02*
G01*
X4125491Y19638905D01*
X4170187Y19701294D01*
X4201695Y19767987D01*
X4220814Y19838415D01*
X4227096Y19908732D01*
X4225101Y19949055D01*
X4219647Y19981517D01*
X4210338Y20010895D01*
X4198825Y20033418D01*
X4183993Y20051940D01*
X4167501Y20064498D01*
X4148704Y20072181D01*
X4128300Y20074756D01*
X4101104Y20070623D01*
X4077131Y20058331D01*
X4056001Y20039544D01*
X4035488Y20013574D01*
X3998668Y19946285D01*
X3962459Y19862326D01*
X3926065Y19788489D01*
X3887086Y19732459D01*
X3845772Y19691173D01*
X3797213Y19660141D01*
X3742287Y19641326D01*
X3679260Y19634814D01*
X3629067Y19638470D01*
X3585636Y19648879D01*
X3547857Y19665528D01*
X3497837Y19701783D01*
X3457426Y19749242D01*
X3427014Y19805480D01*
X3405219Y19871852D01*
X3392758Y19942826D01*
X3388489Y20019435D01*
X3390931Y20093789D01*
X3397648Y20154990D01*
X3409466Y20212568D01*
X3425797Y20263984D01*
X3628457Y20263984D01*
X3599270Y20210311D01*
X3578326Y20150533D01*
X3566053Y20089411D01*
X3562023Y20031709D01*
X3563889Y19995093D01*
X3569167Y19963382D01*
X3578073Y19934251D01*
X3589256Y19911480D01*
X3603764Y19892394D01*
X3620275Y19878690D01*
X3639334Y19870022D01*
X3660819Y19867089D01*
X3684231Y19870364D01*
X3704844Y19880034D01*
X3723204Y19895205D01*
X3741664Y19916914D01*
X3775797Y19974983D01*
X3810296Y20052225D01*
X3836166Y20109072D01*
X3862503Y20157738D01*
X3892363Y20201818D01*
X3924907Y20238033D01*
X3962212Y20267579D01*
X4004469Y20289263D01*
X4051445Y20302349D01*
X4108517Y20307031D01*
X4162381Y20303259D01*
X4207741Y20292658D01*
X4246025Y20275951D01*
X4296389Y20239297D01*
X4336151Y20191566D01*
X4365333Y20134958D01*
X4385610Y20067612D01*
X4396798Y19995701D01*
X4400631Y19918319D01*
X4397109Y19838874D01*
X4386831Y19764934D01*
X4369098Y19695365D01*
X4345615Y19638905D01*
G37*
G36*
X3583761Y21156447D02*
G01*
X3583761Y20877033D01*
X4385000Y20877033D01*
X4385000Y20655688D01*
X3583761Y20655688D01*
X3583761Y20377679D01*
X3404120Y20377679D01*
X3404120Y21156447D01*
X3583761Y21156447D01*
G37*
G36*
X4348607Y21941627D02*
G01*
X4376033Y21868234D01*
X4394050Y21776202D01*
X4400631Y21661541D01*
X4394749Y21570781D01*
X4377974Y21491494D01*
X4351196Y21421975D01*
X4314719Y21360814D01*
X4268251Y21306962D01*
X4213193Y21261485D01*
X4151466Y21225864D01*
X4082130Y21199805D01*
X4003936Y21183552D01*
X3915382Y21177879D01*
X3821615Y21184150D01*
X3738020Y21202205D01*
X3663084Y21231340D01*
X3595564Y21271448D01*
X3534546Y21323021D01*
X3482506Y21383807D01*
X3442132Y21450841D01*
X3412868Y21525004D01*
X3394767Y21607506D01*
X3388489Y21699826D01*
X3392996Y21795205D01*
X3405536Y21875053D01*
X3424881Y21941627D01*
X3638593Y21941627D01*
X3605455Y21873833D01*
X3585307Y21799632D01*
X3578387Y21717534D01*
X3584189Y21649710D01*
X3600782Y21591028D01*
X3627613Y21539812D01*
X3665033Y21494845D01*
X3710703Y21458726D01*
X3763975Y21432444D01*
X3826321Y21415972D01*
X3899689Y21410154D01*
X3970085Y21415640D01*
X4030114Y21431189D01*
X4081579Y21456004D01*
X4125858Y21490083D01*
X4162088Y21532606D01*
X4188163Y21581704D01*
X4204367Y21638663D01*
X4210061Y21705261D01*
X4202891Y21789609D01*
X4181770Y21867963D01*
X4146618Y21941627D01*
X4348607Y21941627D01*
G37*
G36*
X3789265Y22821715D02*
G01*
X3852028Y22801715D01*
X3907452Y22768938D01*
X3956781Y22722410D01*
X3995500Y22667179D01*
X4023959Y22602698D01*
X4041901Y22527233D01*
X4048250Y22438600D01*
X4048250Y22333392D01*
X4385000Y22333392D01*
X4385000Y22112780D01*
X3404120Y22112780D01*
X3404120Y22420159D01*
X3573564Y22420159D01*
X3573564Y22333392D01*
X3880882Y22333392D01*
X3880882Y22420159D01*
X3875664Y22478846D01*
X3861677Y22522316D01*
X3840408Y22554176D01*
X3811836Y22576843D01*
X3774444Y22591203D01*
X3725483Y22596442D01*
X3677864Y22591262D01*
X3641394Y22577035D01*
X3613420Y22554496D01*
X3592512Y22522686D01*
X3578719Y22479125D01*
X3573564Y22420159D01*
X3404120Y22420159D01*
X3404120Y22458444D01*
X3410292Y22555089D01*
X3427189Y22632127D01*
X3452988Y22693155D01*
X3486772Y22741113D01*
X3528617Y22778109D01*
X3579584Y22805240D01*
X3641603Y22822476D01*
X3717301Y22828656D01*
X3789265Y22821715D01*
G37*
G36*
X-6845880Y21177696D02*
G01*
X-5865000Y20840213D01*
X-5865000Y20590231D01*
X-6845880Y20256839D01*
X-6845880Y20494549D01*
X-6163221Y20698797D01*
X-6109104Y20712366D01*
X-6065402Y20718641D01*
X-6065402Y20722733D01*
X-6112053Y20730114D01*
X-6165969Y20743921D01*
X-6845880Y20946825D01*
X-6845880Y21177696D01*
G37*
G36*
X-5901393Y21969959D02*
G01*
X-5873967Y21896566D01*
X-5855950Y21804534D01*
X-5849369Y21689873D01*
X-5855251Y21599113D01*
X-5872026Y21519826D01*
X-5898804Y21450307D01*
X-5935281Y21389146D01*
X-5981749Y21335294D01*
X-6036807Y21289817D01*
X-6098534Y21254196D01*
X-6167870Y21228137D01*
X-6246064Y21211884D01*
X-6334618Y21206211D01*
X-6428385Y21212482D01*
X-6511980Y21230537D01*
X-6586916Y21259672D01*
X-6654436Y21299780D01*
X-6715454Y21351353D01*
X-6767494Y21412139D01*
X-6807868Y21479173D01*
X-6837132Y21553336D01*
X-6855233Y21635838D01*
X-6861511Y21728158D01*
X-6857004Y21823537D01*
X-6844464Y21903385D01*
X-6825119Y21969959D01*
X-6611407Y21969959D01*
X-6644545Y21902165D01*
X-6664693Y21827964D01*
X-6671613Y21745866D01*
X-6665811Y21678042D01*
X-6649218Y21619360D01*
X-6622387Y21568144D01*
X-6584967Y21523177D01*
X-6539297Y21487058D01*
X-6486025Y21460776D01*
X-6423679Y21444304D01*
X-6350311Y21438486D01*
X-6279915Y21443972D01*
X-6219886Y21459521D01*
X-6168421Y21484336D01*
X-6124142Y21518415D01*
X-6087912Y21560938D01*
X-6061837Y21610036D01*
X-6045633Y21666995D01*
X-6039939Y21733593D01*
X-6047109Y21817941D01*
X-6068230Y21896295D01*
X-6103382Y21969959D01*
X-5901393Y21969959D01*
G37*
G36*
X-5901393Y22801361D02*
G01*
X-5873967Y22727968D01*
X-5855950Y22635936D01*
X-5849369Y22521276D01*
X-5855251Y22430516D01*
X-5872026Y22351229D01*
X-5898804Y22281709D01*
X-5935281Y22220548D01*
X-5981749Y22166696D01*
X-6036807Y22121220D01*
X-6098534Y22085599D01*
X-6167870Y22059539D01*
X-6246064Y22043287D01*
X-6334618Y22037614D01*
X-6428385Y22043885D01*
X-6511980Y22061939D01*
X-6586916Y22091075D01*
X-6654436Y22131182D01*
X-6715454Y22182755D01*
X-6767494Y22243542D01*
X-6807868Y22310576D01*
X-6837132Y22384739D01*
X-6855233Y22467241D01*
X-6861511Y22559561D01*
X-6857004Y22654940D01*
X-6844464Y22734787D01*
X-6825119Y22801361D01*
X-6611407Y22801361D01*
X-6644545Y22733567D01*
X-6664693Y22659367D01*
X-6671613Y22577268D01*
X-6665811Y22509444D01*
X-6649218Y22450762D01*
X-6622387Y22399547D01*
X-6584967Y22354580D01*
X-6539297Y22318461D01*
X-6486025Y22292179D01*
X-6423679Y22275706D01*
X-6350311Y22269889D01*
X-6279915Y22275375D01*
X-6219886Y22290923D01*
X-6168421Y22315739D01*
X-6124142Y22349817D01*
X-6087912Y22392340D01*
X-6061837Y22441438D01*
X-6045633Y22498398D01*
X-6039939Y22564995D01*
X-6047109Y22649344D01*
X-6068230Y22727698D01*
X-6103382Y22801361D01*
X-5901393Y22801361D01*
G37*
G36*
X-8431923Y20644330D02*
G01*
X-8397175Y20571779D01*
X-8371364Y20489212D01*
X-8355088Y20395111D01*
X-8349369Y20287736D01*
X-8355222Y20192189D01*
X-8371896Y20108747D01*
X-8398440Y20035676D01*
X-8434440Y19971516D01*
X-8480039Y19915143D01*
X-8534657Y19867259D01*
X-8596722Y19829709D01*
X-8667303Y19802160D01*
X-8747848Y19784906D01*
X-8840114Y19778856D01*
X-8931847Y19785224D01*
X-9013987Y19803607D01*
X-9088005Y19833384D01*
X-9155099Y19874563D01*
X-9216126Y19927783D01*
X-9267377Y19989718D01*
X-9307501Y20059092D01*
X-9336840Y20136954D01*
X-9355129Y20224699D01*
X-9361511Y20324006D01*
X-9356373Y20427200D01*
X-9341721Y20518225D01*
X-9318464Y20598596D01*
X-9111407Y20598596D01*
X-9139180Y20541139D01*
X-9159690Y20476503D01*
X-9172550Y20403619D01*
X-9177047Y20321258D01*
X-9171147Y20253928D01*
X-9154200Y20195191D01*
X-9126651Y20143443D01*
X-9088020Y20097532D01*
X-9041105Y20060563D01*
X-8986864Y20033758D01*
X-8923889Y20017021D01*
X-8850311Y20011131D01*
X-8774863Y20016624D01*
X-8712254Y20031982D01*
X-8660223Y20056083D01*
X-8616998Y20088617D01*
X-8581500Y20129918D01*
X-8555959Y20177668D01*
X-8540084Y20233129D01*
X-8534505Y20298055D01*
X-8540776Y20372597D01*
X-8556975Y20423718D01*
X-8747607Y20423718D01*
X-8747607Y20227652D01*
X-8923828Y20227652D01*
X-8923828Y20644330D01*
X-8431923Y20644330D01*
G37*
G36*
X-8365000Y21716129D02*
G01*
X-8365000Y21493441D01*
X-8981286Y21089646D01*
X-9062680Y21040492D01*
X-9062680Y21037744D01*
X-8903983Y21043240D01*
X-8365000Y21043240D01*
X-8365000Y20834901D01*
X-9345880Y20834901D01*
X-9345880Y21072610D01*
X-8748767Y21461323D01*
X-8668716Y21510476D01*
X-8668716Y21513224D01*
X-8711141Y21509477D01*
X-8803477Y21507729D01*
X-9345880Y21507729D01*
X-9345880Y21716129D01*
X-8365000Y21716129D01*
G37*
G36*
X-8776119Y22803518D02*
G01*
X-8695153Y22785710D01*
X-8623259Y22757074D01*
X-8559120Y22717757D01*
X-8501776Y22667272D01*
X-8453664Y22608182D01*
X-8415923Y22541870D01*
X-8388280Y22467315D01*
X-8371026Y22383175D01*
X-8365000Y22287840D01*
X-8365000Y21940832D01*
X-9345880Y21940832D01*
X-9345880Y22269400D01*
X-9166239Y22269400D01*
X-9166239Y22161445D01*
X-8543969Y22161445D01*
X-8543969Y22270743D01*
X-8549882Y22341652D01*
X-8566606Y22401553D01*
X-8593323Y22452466D01*
X-8630187Y22495874D01*
X-8675484Y22530539D01*
X-8728633Y22555898D01*
X-8791156Y22571860D01*
X-8865027Y22577512D01*
X-8934573Y22571932D01*
X-8993335Y22556164D01*
X-9043247Y22531046D01*
X-9085761Y22496546D01*
X-9119805Y22453847D01*
X-9144796Y22402935D01*
X-9160608Y22342170D01*
X-9166239Y22269400D01*
X-9345880Y22269400D01*
X-9345880Y22287840D01*
X-9339995Y22397216D01*
X-9323566Y22488973D01*
X-9298060Y22565743D01*
X-9264395Y22629800D01*
X-9222891Y22682980D01*
X-9173249Y22726597D01*
X-9114570Y22761356D01*
X-9045416Y22787309D01*
X-8963902Y22803844D01*
X-8867774Y22809726D01*
X-8776119Y22803518D01*
G37*
D13*
G36*
X-4804013Y-4685181D02*
G01*
X-4845632Y-4626588D01*
X-4906473Y-4571730D01*
X-4978421Y-4526477D01*
X-5060224Y-4490519D01*
X-5147085Y-4463784D01*
X-5238521Y-4444724D01*
X-5418861Y-4406453D01*
X-5590078Y-4346891D01*
X-5753507Y-4265694D01*
X-5772940Y-4250485D01*
X-5797226Y-4219288D01*
X-5815009Y-4183317D01*
X-5820429Y-4151022D01*
X-5810495Y-4031423D01*
X-5780129Y-3909832D01*
X-5732078Y-3798182D01*
X-5677059Y-3720544D01*
X-5602170Y-3655370D01*
X-5485308Y-3589083D01*
X-5313015Y-3522585D01*
X-5135707Y-3476585D01*
X-4939045Y-3447832D01*
X-4720604Y-3437833D01*
X-4535090Y-3446499D01*
X-4416644Y-3467875D01*
X-4351074Y-3495154D01*
X-4319159Y-3525827D01*
X-4309421Y-3560687D01*
X-4317392Y-3656775D01*
X-4337509Y-3719323D01*
X-4368614Y-3768431D01*
X-4397593Y-3793695D01*
X-4510311Y-3843520D01*
X-4659910Y-3906535D01*
X-4768475Y-3969305D01*
X-4824529Y-3999347D01*
X-4835028Y-3996399D01*
X-4838207Y-3988356D01*
X-4829325Y-3964109D01*
X-4789725Y-3918014D01*
X-4736722Y-3874601D01*
X-4670168Y-3835338D01*
X-4605215Y-3796806D01*
X-4594941Y-3784780D01*
X-4607239Y-3773792D01*
X-4678350Y-3767072D01*
X-4925713Y-3778749D01*
X-5145586Y-3812135D01*
X-5287646Y-3848138D01*
X-5398620Y-3888171D01*
X-5483741Y-3931081D01*
X-5559223Y-3986947D01*
X-5596384Y-4036031D01*
X-5607328Y-4081290D01*
X-5595033Y-4121473D01*
X-5556159Y-4148946D01*
X-5329990Y-4215258D01*
X-5160535Y-4266379D01*
X-5017115Y-4321748D01*
X-4886980Y-4384086D01*
X-4791291Y-4442844D01*
X-4723413Y-4498091D01*
X-4668899Y-4563675D01*
X-4637981Y-4631229D01*
X-4627792Y-4702889D01*
X-4636936Y-4779900D01*
X-4665405Y-4859448D01*
X-4710846Y-4933708D01*
X-4775314Y-5003551D01*
X-4852634Y-5062935D01*
X-4942010Y-5111385D01*
X-5028260Y-5143023D01*
X-5144854Y-5175621D01*
X-5269928Y-5202011D01*
X-5409979Y-5222759D01*
X-5551290Y-5235695D01*
X-5682432Y-5239856D01*
X-5909556Y-5227206D01*
X-6067115Y-5194794D01*
X-6155195Y-5154831D01*
X-6198975Y-5109781D01*
X-6212561Y-5058140D01*
X-6202987Y-5012991D01*
X-6163468Y-4930401D01*
X-6107509Y-4855561D01*
X-6047331Y-4813653D01*
X-5988501Y-4795061D01*
X-5933880Y-4786908D01*
X-5888130Y-4789891D01*
X-5879170Y-4799975D01*
X-5883322Y-4808157D01*
X-5892970Y-4814996D01*
X-5903838Y-4820369D01*
X-5948291Y-4837588D01*
X-5975524Y-4849801D01*
X-5985782Y-4866898D01*
X-5974378Y-4877266D01*
X-5907474Y-4889153D01*
X-5702949Y-4895596D01*
X-5468271Y-4890669D01*
X-5299948Y-4877889D01*
X-5148354Y-4852057D01*
X-5022610Y-4813653D01*
X-4907714Y-4758211D01*
X-4804013Y-4685181D01*
G37*
G36*
X-3388748Y-4649521D02*
G01*
X-3388748Y-4735617D01*
X-3594400Y-4934431D01*
X-3679797Y-5005402D01*
X-3746075Y-5051301D01*
X-3809771Y-5082304D01*
X-3855984Y-5090868D01*
X-3902819Y-5082910D01*
X-3934377Y-5061117D01*
X-3954633Y-5024086D01*
X-3962474Y-4965083D01*
X-3947559Y-4861875D01*
X-3896284Y-4730854D01*
X-3820155Y-4593571D01*
X-3705653Y-4417247D01*
X-3821912Y-4495893D01*
X-3918877Y-4588705D01*
X-3989829Y-4671381D01*
X-4160677Y-4875690D01*
X-4271319Y-5011612D01*
X-4301144Y-5036168D01*
X-4325907Y-5042997D01*
X-4365667Y-5031634D01*
X-4397637Y-4994945D01*
X-4422092Y-4919099D01*
X-4432519Y-4780680D01*
X-4426408Y-4692838D01*
X-4406630Y-4590781D01*
X-4364541Y-4481797D01*
X-4267167Y-4316130D01*
X-4035004Y-3976071D01*
X-3858060Y-3730802D01*
X-3692749Y-3519157D01*
X-3575960Y-3386542D01*
X-3468712Y-3289794D01*
X-3425628Y-3272358D01*
X-3380498Y-3279648D01*
X-3348448Y-3291531D01*
X-3325268Y-3308899D01*
X-3319016Y-3325603D01*
X-3327957Y-3363794D01*
X-3366155Y-3438321D01*
X-3528088Y-3683541D01*
X-3704309Y-3931570D01*
X-3859404Y-4135146D01*
X-4047959Y-4370108D01*
X-4242621Y-4593468D01*
X-4242621Y-4757477D01*
X-3925716Y-4424085D01*
X-3795033Y-4304150D01*
X-3698936Y-4228080D01*
X-3609806Y-4174394D01*
X-3562282Y-4161769D01*
X-3524619Y-4172661D01*
X-3485712Y-4210251D01*
X-3457585Y-4257926D01*
X-3450175Y-4290240D01*
X-3463852Y-4324312D01*
X-3620290Y-4519096D01*
X-3709805Y-4657093D01*
X-3734243Y-4716613D01*
X-3741190Y-4761507D01*
X-3733848Y-4798244D01*
X-3714375Y-4818348D01*
X-3679763Y-4825743D01*
X-3636711Y-4814615D01*
X-3549098Y-4765934D01*
X-3388748Y-4649521D01*
G37*
G36*
X-2828577Y-4042700D02*
G01*
X-2861241Y-4036494D01*
X-2893545Y-4016810D01*
X-2916567Y-3987341D01*
X-2924198Y-3951231D01*
X-2911471Y-3891525D01*
X-2866801Y-3817264D01*
X-2824801Y-3773594D01*
X-2785770Y-3750628D01*
X-2747977Y-3743503D01*
X-2709959Y-3749984D01*
X-2679711Y-3768782D01*
X-2659655Y-3798504D01*
X-2652355Y-3841933D01*
X-2664811Y-3900052D01*
X-2708409Y-3971748D01*
X-2749326Y-4013305D01*
X-2788856Y-4035632D01*
X-2828577Y-4042700D01*
G37*
G36*
X-2735642Y-4653429D02*
G01*
X-2735642Y-4753203D01*
X-2870356Y-4909821D01*
X-2982938Y-5010757D01*
X-3063029Y-5062955D01*
X-3126838Y-5089643D01*
X-3178332Y-5097463D01*
X-3245725Y-5084786D01*
X-3300205Y-5047324D01*
X-3345028Y-4979982D01*
X-3385722Y-4858165D01*
X-3399616Y-4723039D01*
X-3388748Y-4621311D01*
X-3362736Y-4541444D01*
X-3306682Y-4443014D01*
X-3194911Y-4290942D01*
X-3101159Y-4200649D01*
X-3021588Y-4154780D01*
X-2951553Y-4141130D01*
X-2902252Y-4149495D01*
X-2876991Y-4170458D01*
X-2868266Y-4205244D01*
X-2878753Y-4253347D01*
X-2922244Y-4341898D01*
X-2977076Y-4426725D01*
X-3018475Y-4474399D01*
X-3173570Y-4634256D01*
X-3200695Y-4682445D01*
X-3209718Y-4736716D01*
X-3200506Y-4781821D01*
X-3172837Y-4818782D01*
X-3131565Y-4842955D01*
X-3077216Y-4851510D01*
X-3012884Y-4840751D01*
X-2935799Y-4804371D01*
X-2854306Y-4748419D01*
X-2735642Y-4653429D01*
G37*
G36*
X-1943245Y-3406994D02*
G01*
X-1922680Y-3433925D01*
X-1909724Y-3471231D01*
X-1904850Y-3522829D01*
X-1908587Y-3588390D01*
X-1919261Y-3646172D01*
X-1960293Y-3759134D01*
X-2034055Y-3895300D01*
X-2092062Y-3993852D01*
X-2246424Y-4260931D01*
X-2382467Y-4492351D01*
X-2454152Y-4619602D01*
X-2337404Y-4730366D01*
X-2297759Y-4780396D01*
X-2262788Y-4841008D01*
X-2178158Y-4798754D01*
X-2088032Y-4731099D01*
X-1986916Y-4651109D01*
X-1986916Y-4745631D01*
X-2111235Y-4864699D01*
X-2158399Y-4900080D01*
X-2227373Y-4940048D01*
X-2230736Y-5060039D01*
X-2239707Y-5152173D01*
X-2258860Y-5240018D01*
X-2294295Y-5336332D01*
X-2345512Y-5433059D01*
X-2425454Y-5547969D01*
X-2515821Y-5652010D01*
X-2597645Y-5722480D01*
X-2679901Y-5771199D01*
X-2730147Y-5783419D01*
X-2761218Y-5775599D01*
X-2793413Y-5749275D01*
X-2828455Y-5695736D01*
X-2861432Y-5601426D01*
X-2873517Y-5478115D01*
X-2864371Y-5365519D01*
X-2702792Y-5365519D01*
X-2696033Y-5445182D01*
X-2677512Y-5507669D01*
X-2647298Y-5554259D01*
X-2618039Y-5566409D01*
X-2583026Y-5554125D01*
X-2528524Y-5503517D01*
X-2480921Y-5431122D01*
X-2434979Y-5317770D01*
X-2406173Y-5187248D01*
X-2395412Y-5015764D01*
X-2398099Y-4987065D01*
X-2459648Y-4989141D01*
X-2513626Y-4977540D01*
X-2561375Y-4959832D01*
X-2598988Y-4943346D01*
X-2660644Y-5116410D01*
X-2693142Y-5255048D01*
X-2702792Y-5365519D01*
X-2864371Y-5365519D01*
X-2863312Y-5352476D01*
X-2831141Y-5215188D01*
X-2781137Y-5067437D01*
X-2699983Y-4857861D01*
X-2738595Y-4796875D01*
X-2760137Y-4739392D01*
X-2767027Y-4683960D01*
X-2757403Y-4620184D01*
X-2731490Y-4577226D01*
X-2690693Y-4543441D01*
X-2630374Y-4510059D01*
X-2539515Y-4382076D01*
X-2422645Y-4241636D01*
X-2268669Y-3895968D01*
X-2089376Y-3557023D01*
X-2012806Y-3431849D01*
X-1987472Y-3406762D01*
X-1963591Y-3399609D01*
X-1943245Y-3406994D01*
G37*
G36*
X-1510154Y-3942194D02*
G01*
X-1451413Y-3942194D01*
X-1377097Y-3823980D01*
X-1320255Y-3758401D01*
X-1256906Y-3717711D01*
X-1186410Y-3704424D01*
X-1138433Y-3709786D01*
X-1117311Y-3721698D01*
X-1111183Y-3738251D01*
X-1120223Y-3759515D01*
X-1170046Y-3826301D01*
X-1258828Y-3946713D01*
X-1176152Y-3956727D01*
X-1119487Y-3963932D01*
X-1205296Y-4109916D01*
X-1314759Y-4265083D01*
X-1379117Y-4260443D01*
X-1431630Y-4256290D01*
X-1496476Y-4251528D01*
X-1620185Y-4463286D01*
X-1665486Y-4555417D01*
X-1696633Y-4634012D01*
X-1716874Y-4711070D01*
X-1723256Y-4781046D01*
X-1713603Y-4836310D01*
X-1689179Y-4864952D01*
X-1648151Y-4874958D01*
X-1594166Y-4863516D01*
X-1512230Y-4819881D01*
X-1287526Y-4650376D01*
X-1287526Y-4741479D01*
X-1496968Y-4949802D01*
X-1648354Y-5068531D01*
X-1755987Y-5124972D01*
X-1832554Y-5140327D01*
X-1888212Y-5128376D01*
X-1931717Y-5092700D01*
X-1959321Y-5039917D01*
X-1969208Y-4970212D01*
X-1964425Y-4918021D01*
X-1948081Y-4850533D01*
X-1872244Y-4640973D01*
X-1908514Y-4672969D01*
X-1939899Y-4701545D01*
X-1970674Y-4728778D01*
X-2003402Y-4757965D01*
X-2003402Y-4664176D01*
X-1913347Y-4577575D01*
X-1799336Y-4442192D01*
X-1656333Y-4243712D01*
X-1694679Y-4238827D01*
X-1736933Y-4237240D01*
X-1812419Y-4240482D01*
X-1857223Y-4248230D01*
X-1887997Y-4257023D01*
X-1907781Y-4261786D01*
X-1913154Y-4253604D01*
X-1902166Y-4204803D01*
X-1857223Y-4118415D01*
X-1810613Y-4048163D01*
X-1771860Y-4004965D01*
X-1727645Y-3974328D01*
X-1673552Y-3955139D01*
X-1609544Y-3945921D01*
X-1510154Y-3942194D01*
G37*
G36*
X1294609Y-3358576D02*
G01*
X1294609Y-3451388D01*
X1287718Y-3501863D01*
X1272017Y-3523806D01*
X1106786Y-3604406D01*
X967066Y-3675738D01*
X832868Y-3758890D01*
X884176Y-3691122D01*
X925070Y-3649591D01*
X1037788Y-3560687D01*
X969926Y-3543120D01*
X866940Y-3536140D01*
X754981Y-3543092D01*
X633607Y-3564844D01*
X501430Y-3603063D01*
X315309Y-3678803D01*
X168161Y-3762920D01*
X81016Y-3831770D01*
X41415Y-3881625D01*
X30896Y-3918747D01*
X40287Y-3947241D01*
X72540Y-3972725D01*
X120912Y-3989981D01*
X206385Y-4005453D01*
X436584Y-4021207D01*
X776814Y-4025237D01*
X911437Y-4028852D01*
X966713Y-4036228D01*
X998802Y-4054672D01*
X1009089Y-4086786D01*
X998155Y-4137251D01*
X959141Y-4202313D01*
X901396Y-4253936D01*
X827372Y-4279371D01*
X625139Y-4314298D01*
X446842Y-4362780D01*
X341973Y-4402707D01*
X217987Y-4461088D01*
X44225Y-4565089D01*
X-74372Y-4660635D01*
X-138224Y-4732880D01*
X-170205Y-4791172D01*
X-179519Y-4839542D01*
X-171664Y-4879828D01*
X-147920Y-4914135D01*
X-104414Y-4944200D01*
X-20233Y-4970985D01*
X111497Y-4981692D01*
X264545Y-4970901D01*
X420386Y-4937994D01*
X580471Y-4881559D01*
X746164Y-4799419D01*
X918708Y-4688687D01*
X1099215Y-4545840D01*
X1092859Y-4675098D01*
X1069906Y-4781535D01*
X1023173Y-4878111D01*
X939358Y-4976196D01*
X845156Y-5048165D01*
X699633Y-5125062D01*
X536801Y-5188251D01*
X355251Y-5238513D01*
X170973Y-5270708D01*
X4885Y-5280889D01*
X-118825Y-5269984D01*
X-222263Y-5239212D01*
X-309334Y-5190031D01*
X-379099Y-5121913D01*
X-419725Y-5042817D01*
X-433653Y-4948841D01*
X-419083Y-4841550D01*
X-373570Y-4731709D01*
X-300295Y-4629324D01*
X-189044Y-4524713D01*
X-53580Y-4433293D01*
X125785Y-4344951D01*
X325183Y-4274566D01*
X565056Y-4217944D01*
X593919Y-4207567D01*
X600593Y-4196085D01*
X592984Y-4184473D01*
X558827Y-4176301D01*
X405809Y-4171538D01*
X209804Y-4161891D01*
X124320Y-4149235D01*
X30896Y-4126353D01*
X-55943Y-4084369D01*
X-118702Y-4021207D01*
X-158190Y-3941880D01*
X-171337Y-3854511D01*
X-162546Y-3778646D01*
X-135227Y-3700459D01*
X-86706Y-3618206D01*
X-25001Y-3544119D01*
X53891Y-3472626D01*
X152407Y-3403639D01*
X258159Y-3346146D01*
X381950Y-3294708D01*
X526099Y-3250010D01*
X673411Y-3218305D01*
X833049Y-3198652D01*
X1006280Y-3191880D01*
X1145284Y-3197162D01*
X1215963Y-3208977D01*
X1266365Y-3231137D01*
X1284961Y-3254040D01*
X1294609Y-3358576D01*
G37*
G36*
X2479741Y-3476817D02*
G01*
X2507153Y-3499382D01*
X2526189Y-3530787D01*
X2532432Y-3565572D01*
X2524636Y-3612137D01*
X2494319Y-3688961D01*
X2428506Y-3809448D01*
X2223587Y-4146259D01*
X2128578Y-4310974D01*
X2050052Y-4469392D01*
X2008367Y-4577412D01*
X1985018Y-4674932D01*
X1977634Y-4763705D01*
X1988705Y-4838449D01*
X2015272Y-4874796D01*
X2056891Y-4886681D01*
X2105817Y-4875389D01*
X2177180Y-4832704D01*
X2383444Y-4651720D01*
X2383444Y-4751493D01*
X2213996Y-4950665D01*
X2088714Y-5063883D01*
X1996868Y-5117803D01*
X1928541Y-5132634D01*
X1872546Y-5119901D01*
X1836217Y-5083419D01*
X1816288Y-5027536D01*
X1808252Y-4937240D01*
X1816112Y-4804015D01*
X1841102Y-4654406D01*
X1625802Y-4886681D01*
X1471441Y-5029441D01*
X1415131Y-5068304D01*
X1390230Y-5076580D01*
X1356378Y-5064941D01*
X1310241Y-5019305D01*
X1270409Y-4956537D01*
X1234403Y-4873126D01*
X1213018Y-4791671D01*
X1382048Y-4791671D01*
X1395603Y-4830017D01*
X1410969Y-4841273D01*
X1429797Y-4845038D01*
X1473517Y-4828674D01*
X1552041Y-4764438D01*
X1622505Y-4702889D01*
X1725575Y-4614839D01*
X1842446Y-4508960D01*
X1905216Y-4423475D01*
X1927292Y-4374310D01*
X1942219Y-4319061D01*
X1817038Y-4369227D01*
X1656577Y-4450830D01*
X1509843Y-4537330D01*
X1458496Y-4575882D01*
X1432523Y-4610753D01*
X1405251Y-4678342D01*
X1386822Y-4749406D01*
X1382048Y-4791671D01*
X1213018Y-4791671D01*
X1210807Y-4783251D01*
X1203018Y-4692752D01*
X1215785Y-4608965D01*
X1256411Y-4520967D01*
X1331368Y-4425673D01*
X1468661Y-4302568D01*
X1623726Y-4202313D01*
X1737126Y-4147341D01*
X1816161Y-4120679D01*
X1869801Y-4113408D01*
X1910786Y-4121455D01*
X1953823Y-4147677D01*
X2000959Y-4198161D01*
X2200994Y-3807494D01*
X2294382Y-3648905D01*
X2360241Y-3553360D01*
X2423213Y-3483962D01*
X2451832Y-3469951D01*
X2479741Y-3476817D01*
G37*
G36*
X2943370Y-4042700D02*
G01*
X2910706Y-4036494D01*
X2878402Y-4016810D01*
X2855380Y-3987341D01*
X2847749Y-3951231D01*
X2860476Y-3891525D01*
X2905146Y-3817264D01*
X2947146Y-3773594D01*
X2986177Y-3750628D01*
X3023970Y-3743503D01*
X3061987Y-3749984D01*
X3092236Y-3768782D01*
X3112292Y-3798504D01*
X3119592Y-3841933D01*
X3107136Y-3900052D01*
X3063538Y-3971748D01*
X3022621Y-4013305D01*
X2983091Y-4035632D01*
X2943370Y-4042700D01*
G37*
G36*
X3036305Y-4653429D02*
G01*
X3036305Y-4753203D01*
X2901591Y-4909821D01*
X2789009Y-5010757D01*
X2708918Y-5062955D01*
X2645109Y-5089643D01*
X2593615Y-5097463D01*
X2526222Y-5084786D01*
X2471742Y-5047324D01*
X2426919Y-4979982D01*
X2386225Y-4858165D01*
X2372331Y-4723039D01*
X2383199Y-4621311D01*
X2409211Y-4541444D01*
X2465265Y-4443014D01*
X2577036Y-4290942D01*
X2670788Y-4200649D01*
X2750359Y-4154780D01*
X2820394Y-4141130D01*
X2869695Y-4149495D01*
X2894956Y-4170458D01*
X2903681Y-4205244D01*
X2893194Y-4253347D01*
X2849703Y-4341898D01*
X2794871Y-4426725D01*
X2753471Y-4474399D01*
X2598377Y-4634256D01*
X2571252Y-4682445D01*
X2562229Y-4736716D01*
X2571441Y-4781821D01*
X2599110Y-4818782D01*
X2640381Y-4842955D01*
X2694731Y-4851510D01*
X2759063Y-4840751D01*
X2836148Y-4804371D01*
X2917641Y-4748419D01*
X3036305Y-4653429D01*
G37*
G36*
X3503663Y-3942194D02*
G01*
X3562404Y-3942194D01*
X3636720Y-3823980D01*
X3693562Y-3758401D01*
X3756911Y-3717711D01*
X3827407Y-3704424D01*
X3875384Y-3709786D01*
X3896506Y-3721698D01*
X3902634Y-3738251D01*
X3893594Y-3759515D01*
X3843772Y-3826301D01*
X3754989Y-3946713D01*
X3837665Y-3956727D01*
X3894330Y-3963932D01*
X3808521Y-4109916D01*
X3699058Y-4265083D01*
X3634700Y-4260443D01*
X3582187Y-4256290D01*
X3517341Y-4251528D01*
X3393632Y-4463286D01*
X3348331Y-4555417D01*
X3317184Y-4634012D01*
X3296944Y-4711070D01*
X3290562Y-4781046D01*
X3300214Y-4836310D01*
X3324638Y-4864952D01*
X3365666Y-4874958D01*
X3419651Y-4863516D01*
X3501587Y-4819881D01*
X3726291Y-4650376D01*
X3726291Y-4741479D01*
X3516849Y-4949802D01*
X3365463Y-5068531D01*
X3257830Y-5124972D01*
X3181263Y-5140327D01*
X3125605Y-5128376D01*
X3082100Y-5092700D01*
X3054496Y-5039917D01*
X3044609Y-4970212D01*
X3049392Y-4918021D01*
X3065736Y-4850533D01*
X3141573Y-4640973D01*
X3105303Y-4672969D01*
X3073918Y-4701545D01*
X3043144Y-4728778D01*
X3010415Y-4757965D01*
X3010415Y-4664176D01*
X3100471Y-4577575D01*
X3214481Y-4442192D01*
X3357484Y-4243712D01*
X3319138Y-4238827D01*
X3276884Y-4237240D01*
X3201398Y-4240482D01*
X3156594Y-4248230D01*
X3125820Y-4257023D01*
X3106036Y-4261786D01*
X3100663Y-4253604D01*
X3111651Y-4204803D01*
X3156594Y-4118415D01*
X3203205Y-4048163D01*
X3241957Y-4004965D01*
X3286172Y-3974328D01*
X3340265Y-3955139D01*
X3404273Y-3945921D01*
X3503663Y-3942194D01*
G37*
G36*
X4283775Y-4042700D02*
G01*
X4251111Y-4036494D01*
X4218806Y-4016810D01*
X4195785Y-3987341D01*
X4188154Y-3951231D01*
X4200881Y-3891525D01*
X4245551Y-3817264D01*
X4287550Y-3773594D01*
X4326582Y-3750628D01*
X4364375Y-3743503D01*
X4402392Y-3749984D01*
X4432641Y-3768782D01*
X4452697Y-3798504D01*
X4459996Y-3841933D01*
X4447541Y-3900052D01*
X4403943Y-3971748D01*
X4363026Y-4013305D01*
X4323496Y-4035632D01*
X4283775Y-4042700D01*
G37*
G36*
X4376709Y-4653429D02*
G01*
X4376709Y-4753203D01*
X4241996Y-4909821D01*
X4129414Y-5010757D01*
X4049322Y-5062955D01*
X3985514Y-5089643D01*
X3934019Y-5097463D01*
X3866627Y-5084786D01*
X3812147Y-5047324D01*
X3767324Y-4979982D01*
X3726630Y-4858165D01*
X3712735Y-4723039D01*
X3723604Y-4621311D01*
X3749616Y-4541444D01*
X3805670Y-4443014D01*
X3917440Y-4290942D01*
X4011193Y-4200649D01*
X4090764Y-4154780D01*
X4160799Y-4141130D01*
X4210100Y-4149495D01*
X4235361Y-4170458D01*
X4244086Y-4205244D01*
X4233598Y-4253347D01*
X4190108Y-4341898D01*
X4135276Y-4426725D01*
X4093876Y-4474399D01*
X3938782Y-4634256D01*
X3911656Y-4682445D01*
X3902634Y-4736716D01*
X3911846Y-4781821D01*
X3939515Y-4818782D01*
X3980786Y-4842955D01*
X4035136Y-4851510D01*
X4099468Y-4840751D01*
X4176552Y-4804371D01*
X4258046Y-4748419D01*
X4376709Y-4653429D01*
G37*
G36*
X5012149Y-4100731D02*
G01*
X5053018Y-4114996D01*
X5081193Y-4139360D01*
X5090021Y-4170317D01*
X5083268Y-4197398D01*
X5058513Y-4233210D01*
X5104638Y-4248941D01*
X5129588Y-4269357D01*
X5142955Y-4300541D01*
X5148761Y-4361681D01*
X5141985Y-4430752D01*
X5117987Y-4527034D01*
X5081501Y-4623840D01*
X5033967Y-4714124D01*
X5058513Y-4738670D01*
X5079030Y-4738670D01*
X5124703Y-4727069D01*
X5165003Y-4702522D01*
X5243039Y-4644392D01*
X5243039Y-4735983D01*
X5155332Y-4809009D01*
X5098081Y-4845282D01*
X5036890Y-4863631D01*
X4941033Y-4867142D01*
X4841813Y-4971293D01*
X4758876Y-5034713D01*
X4688848Y-5067656D01*
X4628157Y-5077557D01*
X4555574Y-5065090D01*
X4488817Y-5026999D01*
X4433285Y-4968642D01*
X4388311Y-4889002D01*
X4361926Y-4802662D01*
X4521668Y-4802662D01*
X4534420Y-4850937D01*
X4572143Y-4880700D01*
X4647331Y-4892787D01*
X4712433Y-4874123D01*
X4844068Y-4791671D01*
X4826452Y-4727760D01*
X4820865Y-4668817D01*
X4829506Y-4583077D01*
X4856402Y-4493206D01*
X4898136Y-4401596D01*
X4961549Y-4287554D01*
X4767498Y-4411263D01*
X4691205Y-4468423D01*
X4630844Y-4523248D01*
X4582790Y-4582106D01*
X4555739Y-4637309D01*
X4521668Y-4802662D01*
X4361926Y-4802662D01*
X4360488Y-4797958D01*
X4350820Y-4693607D01*
X4364117Y-4605512D01*
X4408827Y-4499678D01*
X4474826Y-4397529D01*
X4559159Y-4300865D01*
X4655654Y-4216751D01*
X4756507Y-4151999D01*
X4861555Y-4108400D01*
X4952023Y-4095212D01*
X5012149Y-4100731D01*
G37*
G36*
X6160659Y-4399539D02*
G01*
X6004891Y-4590248D01*
X5936839Y-4705701D01*
X5920202Y-4772254D01*
X5926309Y-4806719D01*
X5941835Y-4824683D01*
X5968074Y-4830994D01*
X6009173Y-4822321D01*
X6071144Y-4789351D01*
X6269958Y-4641095D01*
X6269958Y-4735251D01*
X6085898Y-4911400D01*
X5972104Y-5011001D01*
X5899174Y-5062840D01*
X5844309Y-5088405D01*
X5802721Y-5095631D01*
X5754560Y-5086779D01*
X5721311Y-5062025D01*
X5699374Y-5018736D01*
X5690736Y-4948230D01*
X5704414Y-4862257D01*
X5741905Y-4774207D01*
X5815056Y-4643171D01*
X5928506Y-4449975D01*
X5848821Y-4502575D01*
X5733112Y-4607023D01*
X5603297Y-4747219D01*
X5489236Y-4894741D01*
X5400331Y-5004040D01*
X5370982Y-5025594D01*
X5343667Y-5032006D01*
X5319227Y-5024529D01*
X5292866Y-4997960D01*
X5263067Y-4940537D01*
X5235900Y-4844248D01*
X5226186Y-4727313D01*
X5231043Y-4656549D01*
X5243283Y-4609832D01*
X5310938Y-4489542D01*
X5404669Y-4356282D01*
X5473360Y-4277295D01*
X5544085Y-4224788D01*
X5604640Y-4209762D01*
X5645718Y-4213876D01*
X5674982Y-4224783D01*
X5694901Y-4243811D01*
X5701605Y-4271189D01*
X5693423Y-4299888D01*
X5674982Y-4327121D01*
X5631873Y-4374870D01*
X5488589Y-4546120D01*
X5429446Y-4639169D01*
X5416085Y-4684937D01*
X5423517Y-4716027D01*
X5442097Y-4724626D01*
X5460362Y-4716020D01*
X5505600Y-4671992D01*
X5627111Y-4533995D01*
X5706149Y-4449062D01*
X5803332Y-4355819D01*
X5910354Y-4266122D01*
X6034996Y-4177034D01*
X6106171Y-4137126D01*
X6155286Y-4126475D01*
X6173632Y-4137207D01*
X6198273Y-4186559D01*
X6214164Y-4247244D01*
X6219400Y-4308070D01*
X6208529Y-4339726D01*
X6160659Y-4399539D01*
G37*
D10*
G36*
X-1019956Y22059456D02*
G01*
X-937817Y22042585D01*
X-864664Y22015491D01*
X-799243Y21978416D01*
X-740602Y21931063D01*
X-690112Y21874583D01*
X-651073Y21812315D01*
X-622847Y21743443D01*
X-605413Y21666815D01*
X-599369Y21581001D01*
X-605213Y21497381D01*
X-622087Y21422494D01*
X-649432Y21354992D01*
X-687269Y21293783D01*
X-736206Y21238085D01*
X-793194Y21191121D01*
X-856342Y21154510D01*
X-926514Y21127864D01*
X-1004867Y21111329D01*
X-1092801Y21105583D01*
X-1185980Y21111467D01*
X-1268754Y21128364D01*
X-1342606Y21155516D01*
X-1408774Y21192684D01*
X-1468202Y21240161D01*
X-1519261Y21296785D01*
X-1558841Y21359700D01*
X-1587543Y21429788D01*
X-1605328Y21508294D01*
X-1611080Y21590588D01*
X-1421613Y21590588D01*
X-1415926Y21534361D01*
X-1399582Y21485862D01*
X-1372787Y21443478D01*
X-1334601Y21406185D01*
X-1289757Y21377393D01*
X-1237404Y21356099D01*
X-1176176Y21342629D01*
X-1104402Y21337858D01*
X-1031444Y21342688D01*
X-970001Y21356247D01*
X-918200Y21377546D01*
X-874509Y21406185D01*
X-837218Y21443357D01*
X-811180Y21484883D01*
X-795396Y21531673D01*
X-789939Y21585154D01*
X-795357Y21640616D01*
X-810887Y21688307D01*
X-836227Y21729803D01*
X-872127Y21766138D01*
X-914541Y21794058D01*
X-965533Y21814948D01*
X-1026776Y21828329D01*
X-1100311Y21833121D01*
X-1177286Y21828420D01*
X-1240997Y21815350D01*
X-1293622Y21795078D01*
X-1336982Y21768214D01*
X-1374088Y21732675D01*
X-1400143Y21692006D01*
X-1416062Y21645185D01*
X-1421613Y21590588D01*
X-1611080Y21590588D01*
X-1611511Y21596755D01*
X-1605630Y21680142D01*
X-1588677Y21754482D01*
X-1561249Y21821185D01*
X-1523332Y21881386D01*
X-1474308Y21935886D01*
X-1417450Y21981481D01*
X-1353924Y22017219D01*
X-1282797Y22043362D01*
X-1202839Y22059654D01*
X-1112584Y22065335D01*
X-1019956Y22059456D01*
G37*
G36*
X-615000Y22815527D02*
G01*
X-615000Y22228062D01*
X-1595880Y22228062D01*
X-1595880Y22792996D01*
X-1416239Y22792996D01*
X-1416239Y22448674D01*
X-1197275Y22448674D01*
X-1197275Y22769060D01*
X-1018307Y22769060D01*
X-1018307Y22448674D01*
X-793969Y22448674D01*
X-793969Y22815527D01*
X-615000Y22815527D01*
G37*
X-1845000Y21155024D02*
X-1845000Y22760467D01*
G36*
X-3074046Y21231551D02*
G01*
X-3068001Y21137640D01*
X-3073620Y21072539D01*
X-3089922Y21014297D01*
X-3115649Y20959506D01*
X-3149823Y20906342D01*
X-3190575Y20856120D01*
X-3239154Y20805958D01*
X-3349369Y20704536D01*
X-3355405Y20638479D01*
X-3369396Y20577923D01*
X-3391073Y20522087D01*
X-3420292Y20469780D01*
X-3455208Y20423274D01*
X-3496037Y20382075D01*
X-3542082Y20346624D01*
X-3593526Y20316694D01*
X-3650948Y20292254D01*
X-3710958Y20274775D01*
X-3774391Y20264126D01*
X-3841763Y20260503D01*
X-3935485Y20266377D01*
X-4018579Y20283229D01*
X-4092553Y20310274D01*
X-4158670Y20347246D01*
X-4217897Y20394409D01*
X-4268991Y20451015D01*
X-4308643Y20514093D01*
X-4337433Y20584551D01*
X-4355294Y20663667D01*
X-4360988Y20745508D01*
X-4170025Y20745508D01*
X-4164364Y20689639D01*
X-4148063Y20641230D01*
X-4121287Y20598717D01*
X-4083074Y20561105D01*
X-4038552Y20532317D01*
X-3986514Y20511024D01*
X-3925590Y20497551D01*
X-3854097Y20492778D01*
X-3781779Y20497546D01*
X-3720659Y20510953D01*
X-3668931Y20532044D01*
X-3625119Y20560433D01*
X-3588021Y20597552D01*
X-3562070Y20639160D01*
X-3546311Y20686184D01*
X-3540855Y20740074D01*
X-3546259Y20795943D01*
X-3561711Y20843751D01*
X-3586851Y20885120D01*
X-3622371Y20921119D01*
X-3665151Y20949083D01*
X-3716231Y20969951D01*
X-3777203Y20983280D01*
X-3850006Y20988041D01*
X-3925950Y20983402D01*
X-3988988Y20970486D01*
X-4041225Y20950424D01*
X-4084418Y20923805D01*
X-4121904Y20888557D01*
X-4148253Y20847910D01*
X-4164386Y20800796D01*
X-4170025Y20745508D01*
X-4360988Y20745508D01*
X-4361511Y20753018D01*
X-4355609Y20835766D01*
X-4338584Y20909629D01*
X-4311006Y20976004D01*
X-4272829Y21036012D01*
X-4223392Y21090440D01*
X-4166667Y21136150D01*
X-4103215Y21171984D01*
X-4032090Y21198205D01*
X-3952049Y21214553D01*
X-3861607Y21220255D01*
X-3773916Y21214943D01*
X-3695086Y21199620D01*
X-3623908Y21174905D01*
X-3559357Y21140998D01*
X-3501185Y21097332D01*
X-3452825Y21046462D01*
X-3413490Y20987809D01*
X-3382891Y20920386D01*
X-3345792Y20956222D01*
X-3317984Y20987980D01*
X-3294888Y21020740D01*
X-3277806Y21052521D01*
X-3265234Y21085545D01*
X-3257350Y21119138D01*
X-3251672Y21193633D01*
X-3252710Y21217507D01*
X-3256129Y21243824D01*
X-3261625Y21269409D01*
X-3268769Y21292001D01*
X-3086075Y21292001D01*
X-3074046Y21231551D01*
G37*
G36*
X-4246168Y22018257D02*
G01*
X-3365000Y21672593D01*
X-3365000Y21444470D01*
X-4166117Y21792821D01*
X-4166117Y21336515D01*
X-4345880Y21336515D01*
X-4345880Y22018257D01*
X-4246168Y22018257D01*
G37*
G36*
X-3404385Y22142882D02*
G01*
X-3624509Y22142882D01*
X-3579813Y22205272D01*
X-3548305Y22271965D01*
X-3529186Y22342392D01*
X-3522904Y22412710D01*
X-3524899Y22453032D01*
X-3530353Y22485494D01*
X-3539662Y22514872D01*
X-3551175Y22537396D01*
X-3566007Y22555918D01*
X-3582499Y22568476D01*
X-3601296Y22576159D01*
X-3621700Y22578734D01*
X-3648896Y22574600D01*
X-3672869Y22562308D01*
X-3693999Y22543521D01*
X-3714512Y22517551D01*
X-3751332Y22450262D01*
X-3787541Y22366304D01*
X-3823935Y22292467D01*
X-3862914Y22236437D01*
X-3904228Y22195150D01*
X-3952787Y22164119D01*
X-4007713Y22145304D01*
X-4070740Y22138791D01*
X-4120933Y22142447D01*
X-4164364Y22152856D01*
X-4202143Y22169505D01*
X-4252163Y22205761D01*
X-4292574Y22253219D01*
X-4322986Y22309457D01*
X-4344781Y22375829D01*
X-4357242Y22446803D01*
X-4361511Y22523413D01*
X-4359069Y22597767D01*
X-4352352Y22658968D01*
X-4340534Y22716545D01*
X-4324203Y22767961D01*
X-4121543Y22767961D01*
X-4150730Y22714289D01*
X-4171674Y22654510D01*
X-4183947Y22593388D01*
X-4187977Y22535686D01*
X-4186111Y22499070D01*
X-4180833Y22467359D01*
X-4171927Y22438229D01*
X-4160744Y22415457D01*
X-4146236Y22396371D01*
X-4129725Y22382668D01*
X-4110666Y22373999D01*
X-4089181Y22371066D01*
X-4065769Y22374342D01*
X-4045156Y22384011D01*
X-4026796Y22399182D01*
X-4008336Y22420892D01*
X-3974203Y22478961D01*
X-3939704Y22556202D01*
X-3913834Y22613050D01*
X-3887497Y22661715D01*
X-3857637Y22705795D01*
X-3825093Y22742010D01*
X-3787788Y22771556D01*
X-3745531Y22793240D01*
X-3698555Y22806326D01*
X-3641483Y22811009D01*
X-3587619Y22807237D01*
X-3542259Y22796636D01*
X-3503975Y22779929D01*
X-3453611Y22743274D01*
X-3413849Y22695543D01*
X-3384667Y22638935D01*
X-3364390Y22571590D01*
X-3353202Y22499678D01*
X-3349369Y22422296D01*
X-3352891Y22342851D01*
X-3363169Y22268912D01*
X-3380902Y22199343D01*
X-3404385Y22142882D01*
G37*
D13*
X9833333Y-10822319D02*
X9500000Y-10346128D01*
X9261905Y-10822319D02*
X9261905Y-9822319D01*
X9261905Y-9822319D02*
X9642857Y-9822319D01*
X9642857Y-9822319D02*
X9738095Y-9869938D01*
X9738095Y-9869938D02*
X9785714Y-9917557D01*
X9785714Y-9917557D02*
X9833333Y-10012795D01*
X9833333Y-10012795D02*
X9833333Y-10155652D01*
X9833333Y-10155652D02*
X9785714Y-10250890D01*
X9785714Y-10250890D02*
X9738095Y-10298509D01*
X9738095Y-10298509D02*
X9642857Y-10346128D01*
X9642857Y-10346128D02*
X9261905Y-10346128D01*
X10166667Y-9822319D02*
X10833333Y-9822319D01*
X10833333Y-9822319D02*
X10404762Y-10822319D01*
X-10166667Y-14887319D02*
X-10500000Y-14411128D01*
X-10738095Y-14887319D02*
X-10738095Y-13887319D01*
X-10738095Y-13887319D02*
X-10357143Y-13887319D01*
X-10357143Y-13887319D02*
X-10261905Y-13934938D01*
X-10261905Y-13934938D02*
X-10214286Y-13982557D01*
X-10214286Y-13982557D02*
X-10166667Y-14077795D01*
X-10166667Y-14077795D02*
X-10166667Y-14220652D01*
X-10166667Y-14220652D02*
X-10214286Y-14315890D01*
X-10214286Y-14315890D02*
X-10261905Y-14363509D01*
X-10261905Y-14363509D02*
X-10357143Y-14411128D01*
X-10357143Y-14411128D02*
X-10738095Y-14411128D01*
X-9309524Y-14220652D02*
X-9309524Y-14887319D01*
X-9547619Y-13839700D02*
X-9785714Y-14553985D01*
X-9785714Y-14553985D02*
X-9166667Y-14553985D01*
X9833333Y-14822319D02*
X9500000Y-14346128D01*
X9261905Y-14822319D02*
X9261905Y-13822319D01*
X9261905Y-13822319D02*
X9642857Y-13822319D01*
X9642857Y-13822319D02*
X9738095Y-13869938D01*
X9738095Y-13869938D02*
X9785714Y-13917557D01*
X9785714Y-13917557D02*
X9833333Y-14012795D01*
X9833333Y-14012795D02*
X9833333Y-14155652D01*
X9833333Y-14155652D02*
X9785714Y-14250890D01*
X9785714Y-14250890D02*
X9738095Y-14298509D01*
X9738095Y-14298509D02*
X9642857Y-14346128D01*
X9642857Y-14346128D02*
X9261905Y-14346128D01*
X10404762Y-14250890D02*
X10309524Y-14203271D01*
X10309524Y-14203271D02*
X10261905Y-14155652D01*
X10261905Y-14155652D02*
X10214286Y-14060414D01*
X10214286Y-14060414D02*
X10214286Y-14012795D01*
X10214286Y-14012795D02*
X10261905Y-13917557D01*
X10261905Y-13917557D02*
X10309524Y-13869938D01*
X10309524Y-13869938D02*
X10404762Y-13822319D01*
X10404762Y-13822319D02*
X10595238Y-13822319D01*
X10595238Y-13822319D02*
X10690476Y-13869938D01*
X10690476Y-13869938D02*
X10738095Y-13917557D01*
X10738095Y-13917557D02*
X10785714Y-14012795D01*
X10785714Y-14012795D02*
X10785714Y-14060414D01*
X10785714Y-14060414D02*
X10738095Y-14155652D01*
X10738095Y-14155652D02*
X10690476Y-14203271D01*
X10690476Y-14203271D02*
X10595238Y-14250890D01*
X10595238Y-14250890D02*
X10404762Y-14250890D01*
X10404762Y-14250890D02*
X10309524Y-14298509D01*
X10309524Y-14298509D02*
X10261905Y-14346128D01*
X10261905Y-14346128D02*
X10214286Y-14441366D01*
X10214286Y-14441366D02*
X10214286Y-14631842D01*
X10214286Y-14631842D02*
X10261905Y-14727080D01*
X10261905Y-14727080D02*
X10309524Y-14774700D01*
X10309524Y-14774700D02*
X10404762Y-14822319D01*
X10404762Y-14822319D02*
X10595238Y-14822319D01*
X10595238Y-14822319D02*
X10690476Y-14774700D01*
X10690476Y-14774700D02*
X10738095Y-14727080D01*
X10738095Y-14727080D02*
X10785714Y-14631842D01*
X10785714Y-14631842D02*
X10785714Y-14441366D01*
X10785714Y-14441366D02*
X10738095Y-14346128D01*
X10738095Y-14346128D02*
X10690476Y-14298509D01*
X10690476Y-14298509D02*
X10595238Y-14250890D01*
X-10166667Y-10887319D02*
X-10500000Y-10411128D01*
X-10738095Y-10887319D02*
X-10738095Y-9887319D01*
X-10738095Y-9887319D02*
X-10357143Y-9887319D01*
X-10357143Y-9887319D02*
X-10261905Y-9934938D01*
X-10261905Y-9934938D02*
X-10214286Y-9982557D01*
X-10214286Y-9982557D02*
X-10166667Y-10077795D01*
X-10166667Y-10077795D02*
X-10166667Y-10220652D01*
X-10166667Y-10220652D02*
X-10214286Y-10315890D01*
X-10214286Y-10315890D02*
X-10261905Y-10363509D01*
X-10261905Y-10363509D02*
X-10357143Y-10411128D01*
X-10357143Y-10411128D02*
X-10738095Y-10411128D01*
X-9833333Y-9887319D02*
X-9214286Y-9887319D01*
X-9214286Y-9887319D02*
X-9547619Y-10268271D01*
X-9547619Y-10268271D02*
X-9404762Y-10268271D01*
X-9404762Y-10268271D02*
X-9309524Y-10315890D01*
X-9309524Y-10315890D02*
X-9261905Y-10363509D01*
X-9261905Y-10363509D02*
X-9214286Y-10458747D01*
X-9214286Y-10458747D02*
X-9214286Y-10696842D01*
X-9214286Y-10696842D02*
X-9261905Y-10792080D01*
X-9261905Y-10792080D02*
X-9309524Y-10839700D01*
X-9309524Y-10839700D02*
X-9404762Y-10887319D01*
X-9404762Y-10887319D02*
X-9690476Y-10887319D01*
X-9690476Y-10887319D02*
X-9785714Y-10839700D01*
X-9785714Y-10839700D02*
X-9833333Y-10792080D01*
X-10166667Y-18887319D02*
X-10500000Y-18411128D01*
X-10738095Y-18887319D02*
X-10738095Y-17887319D01*
X-10738095Y-17887319D02*
X-10357143Y-17887319D01*
X-10357143Y-17887319D02*
X-10261905Y-17934938D01*
X-10261905Y-17934938D02*
X-10214286Y-17982557D01*
X-10214286Y-17982557D02*
X-10166667Y-18077795D01*
X-10166667Y-18077795D02*
X-10166667Y-18220652D01*
X-10166667Y-18220652D02*
X-10214286Y-18315890D01*
X-10214286Y-18315890D02*
X-10261905Y-18363509D01*
X-10261905Y-18363509D02*
X-10357143Y-18411128D01*
X-10357143Y-18411128D02*
X-10738095Y-18411128D01*
X-9261905Y-17887319D02*
X-9738095Y-17887319D01*
X-9738095Y-17887319D02*
X-9785714Y-18363509D01*
X-9785714Y-18363509D02*
X-9738095Y-18315890D01*
X-9738095Y-18315890D02*
X-9642857Y-18268271D01*
X-9642857Y-18268271D02*
X-9404762Y-18268271D01*
X-9404762Y-18268271D02*
X-9309524Y-18315890D01*
X-9309524Y-18315890D02*
X-9261905Y-18363509D01*
X-9261905Y-18363509D02*
X-9214286Y-18458747D01*
X-9214286Y-18458747D02*
X-9214286Y-18696842D01*
X-9214286Y-18696842D02*
X-9261905Y-18792080D01*
X-9261905Y-18792080D02*
X-9309524Y-18839700D01*
X-9309524Y-18839700D02*
X-9404762Y-18887319D01*
X-9404762Y-18887319D02*
X-9642857Y-18887319D01*
X-9642857Y-18887319D02*
X-9738095Y-18839700D01*
X-9738095Y-18839700D02*
X-9785714Y-18792080D01*
X-7166667Y16140420D02*
X-7214286Y16092800D01*
X-7214286Y16092800D02*
X-7357143Y16045181D01*
X-7357143Y16045181D02*
X-7452381Y16045181D01*
X-7452381Y16045181D02*
X-7595238Y16092800D01*
X-7595238Y16092800D02*
X-7690476Y16188039D01*
X-7690476Y16188039D02*
X-7738095Y16283277D01*
X-7738095Y16283277D02*
X-7785714Y16473753D01*
X-7785714Y16473753D02*
X-7785714Y16616610D01*
X-7785714Y16616610D02*
X-7738095Y16807086D01*
X-7738095Y16807086D02*
X-7690476Y16902324D01*
X-7690476Y16902324D02*
X-7595238Y16997562D01*
X-7595238Y16997562D02*
X-7452381Y17045181D01*
X-7452381Y17045181D02*
X-7357143Y17045181D01*
X-7357143Y17045181D02*
X-7214286Y16997562D01*
X-7214286Y16997562D02*
X-7166667Y16949943D01*
X-6214286Y16045181D02*
X-6785714Y16045181D01*
X-6500000Y16045181D02*
X-6500000Y17045181D01*
X-6500000Y17045181D02*
X-6595238Y16902324D01*
X-6595238Y16902324D02*
X-6690476Y16807086D01*
X-6690476Y16807086D02*
X-6785714Y16759467D01*
X9833333Y-18822319D02*
X9500000Y-18346128D01*
X9261905Y-18822319D02*
X9261905Y-17822319D01*
X9261905Y-17822319D02*
X9642857Y-17822319D01*
X9642857Y-17822319D02*
X9738095Y-17869938D01*
X9738095Y-17869938D02*
X9785714Y-17917557D01*
X9785714Y-17917557D02*
X9833333Y-18012795D01*
X9833333Y-18012795D02*
X9833333Y-18155652D01*
X9833333Y-18155652D02*
X9785714Y-18250890D01*
X9785714Y-18250890D02*
X9738095Y-18298509D01*
X9738095Y-18298509D02*
X9642857Y-18346128D01*
X9642857Y-18346128D02*
X9261905Y-18346128D01*
X10309524Y-18822319D02*
X10500000Y-18822319D01*
X10500000Y-18822319D02*
X10595238Y-18774700D01*
X10595238Y-18774700D02*
X10642857Y-18727080D01*
X10642857Y-18727080D02*
X10738095Y-18584223D01*
X10738095Y-18584223D02*
X10785714Y-18393747D01*
X10785714Y-18393747D02*
X10785714Y-18012795D01*
X10785714Y-18012795D02*
X10738095Y-17917557D01*
X10738095Y-17917557D02*
X10690476Y-17869938D01*
X10690476Y-17869938D02*
X10595238Y-17822319D01*
X10595238Y-17822319D02*
X10404762Y-17822319D01*
X10404762Y-17822319D02*
X10309524Y-17869938D01*
X10309524Y-17869938D02*
X10261905Y-17917557D01*
X10261905Y-17917557D02*
X10214286Y-18012795D01*
X10214286Y-18012795D02*
X10214286Y-18250890D01*
X10214286Y-18250890D02*
X10261905Y-18346128D01*
X10261905Y-18346128D02*
X10309524Y-18393747D01*
X10309524Y-18393747D02*
X10404762Y-18441366D01*
X10404762Y-18441366D02*
X10595238Y-18441366D01*
X10595238Y-18441366D02*
X10690476Y-18393747D01*
X10690476Y-18393747D02*
X10738095Y-18346128D01*
X10738095Y-18346128D02*
X10785714Y-18250890D01*
X6833333Y16045181D02*
X6500000Y16521372D01*
X6261905Y16045181D02*
X6261905Y17045181D01*
X6261905Y17045181D02*
X6642857Y17045181D01*
X6642857Y17045181D02*
X6738095Y16997562D01*
X6738095Y16997562D02*
X6785714Y16949943D01*
X6785714Y16949943D02*
X6833333Y16854705D01*
X6833333Y16854705D02*
X6833333Y16711848D01*
X6833333Y16711848D02*
X6785714Y16616610D01*
X6785714Y16616610D02*
X6738095Y16568991D01*
X6738095Y16568991D02*
X6642857Y16521372D01*
X6642857Y16521372D02*
X6261905Y16521372D01*
X7214286Y16949943D02*
X7261905Y16997562D01*
X7261905Y16997562D02*
X7357143Y17045181D01*
X7357143Y17045181D02*
X7595238Y17045181D01*
X7595238Y17045181D02*
X7690476Y16997562D01*
X7690476Y16997562D02*
X7738095Y16949943D01*
X7738095Y16949943D02*
X7785714Y16854705D01*
X7785714Y16854705D02*
X7785714Y16759467D01*
X7785714Y16759467D02*
X7738095Y16616610D01*
X7738095Y16616610D02*
X7166667Y16045181D01*
X7166667Y16045181D02*
X7785714Y16045181D01*
X7238095Y6735181D02*
X7238095Y5925658D01*
X7238095Y5925658D02*
X7285714Y5830420D01*
X7285714Y5830420D02*
X7333333Y5782800D01*
X7333333Y5782800D02*
X7428571Y5735181D01*
X7428571Y5735181D02*
X7619047Y5735181D01*
X7619047Y5735181D02*
X7714285Y5782800D01*
X7714285Y5782800D02*
X7761904Y5830420D01*
X7761904Y5830420D02*
X7809523Y5925658D01*
X7809523Y5925658D02*
X7809523Y6735181D01*
X8238095Y6639943D02*
X8285714Y6687562D01*
X8285714Y6687562D02*
X8380952Y6735181D01*
X8380952Y6735181D02*
X8619047Y6735181D01*
X8619047Y6735181D02*
X8714285Y6687562D01*
X8714285Y6687562D02*
X8761904Y6639943D01*
X8761904Y6639943D02*
X8809523Y6544705D01*
X8809523Y6544705D02*
X8809523Y6449467D01*
X8809523Y6449467D02*
X8761904Y6306610D01*
X8761904Y6306610D02*
X8190476Y5735181D01*
X8190476Y5735181D02*
X8809523Y5735181D01*
X-166667Y16045181D02*
X-500000Y16521372D01*
X-738095Y16045181D02*
X-738095Y17045181D01*
X-738095Y17045181D02*
X-357143Y17045181D01*
X-357143Y17045181D02*
X-261905Y16997562D01*
X-261905Y16997562D02*
X-214286Y16949943D01*
X-214286Y16949943D02*
X-166667Y16854705D01*
X-166667Y16854705D02*
X-166667Y16711848D01*
X-166667Y16711848D02*
X-214286Y16616610D01*
X-214286Y16616610D02*
X-261905Y16568991D01*
X-261905Y16568991D02*
X-357143Y16521372D01*
X-357143Y16521372D02*
X-738095Y16521372D01*
X785714Y16045181D02*
X214286Y16045181D01*
X500000Y16045181D02*
X500000Y17045181D01*
X500000Y17045181D02*
X404762Y16902324D01*
X404762Y16902324D02*
X309524Y16807086D01*
X309524Y16807086D02*
X214286Y16759467D01*
X-10166667Y-22954819D02*
X-10500000Y-22478628D01*
X-10738095Y-22954819D02*
X-10738095Y-21954819D01*
X-10738095Y-21954819D02*
X-10357143Y-21954819D01*
X-10357143Y-21954819D02*
X-10261905Y-22002438D01*
X-10261905Y-22002438D02*
X-10214286Y-22050057D01*
X-10214286Y-22050057D02*
X-10166667Y-22145295D01*
X-10166667Y-22145295D02*
X-10166667Y-22288152D01*
X-10166667Y-22288152D02*
X-10214286Y-22383390D01*
X-10214286Y-22383390D02*
X-10261905Y-22431009D01*
X-10261905Y-22431009D02*
X-10357143Y-22478628D01*
X-10357143Y-22478628D02*
X-10738095Y-22478628D01*
X-9309524Y-21954819D02*
X-9500000Y-21954819D01*
X-9500000Y-21954819D02*
X-9595238Y-22002438D01*
X-9595238Y-22002438D02*
X-9642857Y-22050057D01*
X-9642857Y-22050057D02*
X-9738095Y-22192914D01*
X-9738095Y-22192914D02*
X-9785714Y-22383390D01*
X-9785714Y-22383390D02*
X-9785714Y-22764342D01*
X-9785714Y-22764342D02*
X-9738095Y-22859580D01*
X-9738095Y-22859580D02*
X-9690476Y-22907200D01*
X-9690476Y-22907200D02*
X-9595238Y-22954819D01*
X-9595238Y-22954819D02*
X-9404762Y-22954819D01*
X-9404762Y-22954819D02*
X-9309524Y-22907200D01*
X-9309524Y-22907200D02*
X-9261905Y-22859580D01*
X-9261905Y-22859580D02*
X-9214286Y-22764342D01*
X-9214286Y-22764342D02*
X-9214286Y-22526247D01*
X-9214286Y-22526247D02*
X-9261905Y-22431009D01*
X-9261905Y-22431009D02*
X-9309524Y-22383390D01*
X-9309524Y-22383390D02*
X-9404762Y-22335771D01*
X-9404762Y-22335771D02*
X-9595238Y-22335771D01*
X-9595238Y-22335771D02*
X-9690476Y-22383390D01*
X-9690476Y-22383390D02*
X-9738095Y-22431009D01*
X-9738095Y-22431009D02*
X-9785714Y-22526247D01*
X9582142Y-22822319D02*
X9365475Y-22346128D01*
X9210713Y-22822319D02*
X9210713Y-21822319D01*
X9210713Y-21822319D02*
X9458332Y-21822319D01*
X9458332Y-21822319D02*
X9520237Y-21869938D01*
X9520237Y-21869938D02*
X9551190Y-21917557D01*
X9551190Y-21917557D02*
X9582142Y-22012795D01*
X9582142Y-22012795D02*
X9582142Y-22155652D01*
X9582142Y-22155652D02*
X9551190Y-22250890D01*
X9551190Y-22250890D02*
X9520237Y-22298509D01*
X9520237Y-22298509D02*
X9458332Y-22346128D01*
X9458332Y-22346128D02*
X9210713Y-22346128D01*
X10201190Y-22822319D02*
X9829761Y-22822319D01*
X10015475Y-22822319D02*
X10015475Y-21822319D01*
X10015475Y-21822319D02*
X9953571Y-21965176D01*
X9953571Y-21965176D02*
X9891666Y-22060414D01*
X9891666Y-22060414D02*
X9829761Y-22108033D01*
X10603571Y-21822319D02*
X10665476Y-21822319D01*
X10665476Y-21822319D02*
X10727380Y-21869938D01*
X10727380Y-21869938D02*
X10758333Y-21917557D01*
X10758333Y-21917557D02*
X10789285Y-22012795D01*
X10789285Y-22012795D02*
X10820238Y-22203271D01*
X10820238Y-22203271D02*
X10820238Y-22441366D01*
X10820238Y-22441366D02*
X10789285Y-22631842D01*
X10789285Y-22631842D02*
X10758333Y-22727080D01*
X10758333Y-22727080D02*
X10727380Y-22774700D01*
X10727380Y-22774700D02*
X10665476Y-22822319D01*
X10665476Y-22822319D02*
X10603571Y-22822319D01*
X10603571Y-22822319D02*
X10541666Y-22774700D01*
X10541666Y-22774700D02*
X10510714Y-22727080D01*
X10510714Y-22727080D02*
X10479761Y-22631842D01*
X10479761Y-22631842D02*
X10448809Y-22441366D01*
X10448809Y-22441366D02*
X10448809Y-22203271D01*
X10448809Y-22203271D02*
X10479761Y-22012795D01*
X10479761Y-22012795D02*
X10510714Y-21917557D01*
X10510714Y-21917557D02*
X10541666Y-21869938D01*
X10541666Y-21869938D02*
X10603571Y-21822319D01*
X5738095Y13545181D02*
X5738095Y12735658D01*
X5738095Y12735658D02*
X5785714Y12640420D01*
X5785714Y12640420D02*
X5833333Y12592800D01*
X5833333Y12592800D02*
X5928571Y12545181D01*
X5928571Y12545181D02*
X6119047Y12545181D01*
X6119047Y12545181D02*
X6214285Y12592800D01*
X6214285Y12592800D02*
X6261904Y12640420D01*
X6261904Y12640420D02*
X6309523Y12735658D01*
X6309523Y12735658D02*
X6309523Y13545181D01*
X7309523Y12545181D02*
X6738095Y12545181D01*
X7023809Y12545181D02*
X7023809Y13545181D01*
X7023809Y13545181D02*
X6928571Y13402324D01*
X6928571Y13402324D02*
X6833333Y13307086D01*
X6833333Y13307086D02*
X6738095Y13259467D01*
X-964286Y-14204819D02*
X-964286Y-13204819D01*
X-964286Y-13204819D02*
X-726191Y-13204819D01*
X-726191Y-13204819D02*
X-583334Y-13252438D01*
X-583334Y-13252438D02*
X-488096Y-13347676D01*
X-488096Y-13347676D02*
X-440477Y-13442914D01*
X-440477Y-13442914D02*
X-392858Y-13633390D01*
X-392858Y-13633390D02*
X-392858Y-13776247D01*
X-392858Y-13776247D02*
X-440477Y-13966723D01*
X-440477Y-13966723D02*
X-488096Y-14061961D01*
X-488096Y-14061961D02*
X-583334Y-14157200D01*
X-583334Y-14157200D02*
X-726191Y-14204819D01*
X-726191Y-14204819D02*
X-964286Y-14204819D01*
X-11905Y-14157200D02*
X130952Y-14204819D01*
X130952Y-14204819D02*
X369047Y-14204819D01*
X369047Y-14204819D02*
X464285Y-14157200D01*
X464285Y-14157200D02*
X511904Y-14109580D01*
X511904Y-14109580D02*
X559523Y-14014342D01*
X559523Y-14014342D02*
X559523Y-13919104D01*
X559523Y-13919104D02*
X511904Y-13823866D01*
X511904Y-13823866D02*
X464285Y-13776247D01*
X464285Y-13776247D02*
X369047Y-13728628D01*
X369047Y-13728628D02*
X178571Y-13681009D01*
X178571Y-13681009D02*
X83333Y-13633390D01*
X83333Y-13633390D02*
X35714Y-13585771D01*
X35714Y-13585771D02*
X-11905Y-13490533D01*
X-11905Y-13490533D02*
X-11905Y-13395295D01*
X-11905Y-13395295D02*
X35714Y-13300057D01*
X35714Y-13300057D02*
X83333Y-13252438D01*
X83333Y-13252438D02*
X178571Y-13204819D01*
X178571Y-13204819D02*
X416666Y-13204819D01*
X416666Y-13204819D02*
X559523Y-13252438D01*
X1511904Y-14204819D02*
X940476Y-14204819D01*
X1226190Y-14204819D02*
X1226190Y-13204819D01*
X1226190Y-13204819D02*
X1130952Y-13347676D01*
X1130952Y-13347676D02*
X1035714Y-13442914D01*
X1035714Y-13442914D02*
X940476Y-13490533D01*
D14*
%TO.C,R7*%
X10727064Y-9457500D02*
X9272936Y-9457500D01*
X10727064Y-11277500D02*
X9272936Y-11277500D01*
%TO.C,R4*%
X-10727064Y-13522500D02*
X-9272936Y-13522500D01*
X-10727064Y-15342500D02*
X-9272936Y-15342500D01*
%TO.C,R8*%
X10727064Y-13457500D02*
X9272936Y-13457500D01*
X10727064Y-15277500D02*
X9272936Y-15277500D01*
%TO.C,R3*%
X-10727064Y-9522500D02*
X-9272936Y-9522500D01*
X-10727064Y-11342500D02*
X-9272936Y-11342500D01*
%TO.C,R5*%
X-10727064Y-17522500D02*
X-9272936Y-17522500D01*
X-10727064Y-19342500D02*
X-9272936Y-19342500D01*
%TO.C,C1*%
X-6288748Y17410000D02*
X-7711252Y17410000D01*
X-6288748Y15590000D02*
X-7711252Y15590000D01*
X-6272936Y17410000D02*
X-7727064Y17410000D01*
X-6272936Y15590000D02*
X-7727064Y15590000D01*
%TO.C,R9*%
X10727064Y-17457500D02*
X9272936Y-17457500D01*
X10727064Y-19277500D02*
X9272936Y-19277500D01*
%TO.C,R2*%
X6272936Y17410000D02*
X7727064Y17410000D01*
X6272936Y15590000D02*
X7727064Y15590000D01*
%TO.C,U2*%
X-10220000Y8440000D02*
X-10220000Y7190000D01*
X-10220000Y5190000D02*
X-10220000Y3940000D01*
X-10220000Y3940000D02*
X10220000Y3940000D01*
X10220000Y8440000D02*
X-10220000Y8440000D01*
X10220000Y3940000D02*
X10220000Y8440000D01*
X-10220000Y7190000D02*
G75*
G02*
X-10220000Y5190000I0J-1000000D01*
G01*
%TO.C,R1*%
X727064Y17410000D02*
X-727064Y17410000D01*
X727064Y15590000D02*
X-727064Y15590000D01*
%TO.C,R6*%
X-10727064Y-21522500D02*
X-9272936Y-21522500D01*
X-10727064Y-23342500D02*
X-9272936Y-23342500D01*
%TO.C,R10*%
X10727064Y-21457500D02*
X9272936Y-21457500D01*
X10727064Y-23277500D02*
X9272936Y-23277500D01*
%TO.C,U1*%
X-5060000Y12060000D02*
X-5005000Y12060000D01*
X-5060000Y7940000D02*
X-5060000Y12060000D01*
X-5005000Y7940000D02*
X-5060000Y7940000D01*
X5005000Y12060000D02*
X5060000Y12060000D01*
X5060000Y12060000D02*
X5060000Y7940000D01*
X5060000Y7940000D02*
X5005000Y7940000D01*
X-5010000Y7150000D02*
X-5340000Y6910000D01*
X-5340000Y7390000D01*
X-5010000Y7150000D01*
G36*
X-5010000Y7150000D02*
G01*
X-5340000Y6910000D01*
X-5340000Y7390000D01*
X-5010000Y7150000D01*
G37*
D13*
%TO.C,DS1*%
X-6350000Y-22500000D02*
X-6350000Y-9500000D01*
X6350000Y-9500000D02*
X6350000Y-22500000D01*
D15*
G36*
X1309382Y-19935563D02*
G01*
X1407498Y-20053767D01*
X1496575Y-20162512D01*
X1571948Y-20255989D01*
X1628953Y-20328387D01*
X1662925Y-20373898D01*
X1669478Y-20384099D01*
X1680114Y-20411019D01*
X1678708Y-20438262D01*
X1660999Y-20470960D01*
X1622725Y-20514244D01*
X1559625Y-20573244D01*
X1467437Y-20653093D01*
X1395742Y-20713688D01*
X1176179Y-20898441D01*
X-940706Y-20898870D01*
X-3057591Y-20899300D01*
X-3247522Y-20678167D01*
X-3330022Y-20578118D01*
X-3390061Y-20496879D01*
X-3424046Y-20439616D01*
X-3425246Y-20434969D01*
X-3203415Y-20434969D01*
X-3189810Y-20458265D01*
X-3153998Y-20507181D01*
X-3103304Y-20571779D01*
X-3095433Y-20581511D01*
X-2987565Y-20714405D01*
X-938110Y-20714405D01*
X1111345Y-20714405D01*
X1288830Y-20562966D01*
X1466316Y-20411527D01*
X1309691Y-20221053D01*
X1226369Y-20119713D01*
X1136624Y-20010545D01*
X1055147Y-19911420D01*
X1025951Y-19875895D01*
X898836Y-19721210D01*
X-734677Y-19720901D01*
X-2368190Y-19720592D01*
X-2785860Y-20070957D01*
X-2903430Y-20170139D01*
X-3008187Y-20259580D01*
X-3095225Y-20335005D01*
X-3159639Y-20392136D01*
X-3196522Y-20426697D01*
X-3203415Y-20434969D01*
X-3425246Y-20434969D01*
X-3430273Y-20415507D01*
X-3411262Y-20390359D01*
X-3361158Y-20340025D01*
X-3284561Y-20268686D01*
X-3186075Y-20180525D01*
X-3070301Y-20079722D01*
X-2941842Y-19970458D01*
X-2923243Y-19954838D01*
X-2423393Y-19535697D01*
X-724030Y-19535697D01*
X975333Y-19535697D01*
X1309382Y-19935563D01*
G37*
G36*
X3534656Y-19543774D02*
G01*
X3614246Y-19556671D01*
X3620474Y-19557879D01*
X3753915Y-19593784D01*
X3861525Y-19648855D01*
X3960455Y-19733049D01*
X4004984Y-19781126D01*
X4099747Y-19919968D01*
X4153244Y-20076128D01*
X4167414Y-20238949D01*
X4157975Y-20367299D01*
X4128681Y-20471190D01*
X4072557Y-20568807D01*
X4011389Y-20645682D01*
X3914392Y-20743933D01*
X3815241Y-20809842D01*
X3700803Y-20849454D01*
X3557949Y-20868811D01*
X3522038Y-20870921D01*
X3421962Y-20874377D01*
X3351745Y-20871103D01*
X3295187Y-20858231D01*
X3236086Y-20832890D01*
X3198565Y-20813620D01*
X3061080Y-20717130D01*
X2954136Y-20592814D01*
X2880172Y-20448442D01*
X2841628Y-20291788D01*
X2841478Y-20256461D01*
X3014826Y-20256461D01*
X3047408Y-20382296D01*
X3082188Y-20451929D01*
X3175805Y-20573622D01*
X3292637Y-20658019D01*
X3426668Y-20702573D01*
X3571879Y-20704733D01*
X3644008Y-20689903D01*
X3762181Y-20634323D01*
X3861383Y-20543377D01*
X3935169Y-20426194D01*
X3977095Y-20291902D01*
X3984277Y-20207916D01*
X3967154Y-20069299D01*
X3912813Y-19952579D01*
X3816799Y-19848195D01*
X3816487Y-19847928D01*
X3691641Y-19768223D01*
X3558502Y-19730484D01*
X3424543Y-19733222D01*
X3297233Y-19774949D01*
X3184043Y-19854179D01*
X3092443Y-19969423D01*
X3078257Y-19994960D01*
X3025134Y-20130214D01*
X3014826Y-20256461D01*
X2841478Y-20256461D01*
X2840943Y-20130623D01*
X2880557Y-19972719D01*
X2912891Y-19903488D01*
X3007117Y-19768864D01*
X3127853Y-19667116D01*
X3281737Y-19592938D01*
X3315481Y-19581454D01*
X3405207Y-19554625D01*
X3471620Y-19542578D01*
X3534656Y-19543774D01*
G37*
G36*
X1992511Y-15566224D02*
G01*
X2079156Y-15671832D01*
X2152892Y-15766832D01*
X2208997Y-15844748D01*
X2242748Y-15899105D01*
X2250559Y-15920113D01*
X2233241Y-15964960D01*
X2190394Y-16012206D01*
X2183016Y-16017944D01*
X2143278Y-16049262D01*
X2075720Y-16104579D01*
X1987637Y-16177837D01*
X1886324Y-16262977D01*
X1802143Y-16334301D01*
X1489137Y-16600483D01*
X-227397Y-16600000D01*
X-1943931Y-16599518D01*
X-2186606Y-16307353D01*
X-2284920Y-16188793D01*
X-2357211Y-16100525D01*
X-2407028Y-16037312D01*
X-2437917Y-15993916D01*
X-2449032Y-15973262D01*
X-2211447Y-15973262D01*
X-2207357Y-15990843D01*
X-2203155Y-15996549D01*
X-2175925Y-16029046D01*
X-2126587Y-16088175D01*
X-2062577Y-16165017D01*
X-2003125Y-16236470D01*
X-1834950Y-16438699D01*
X-213826Y-16438380D01*
X1407298Y-16438061D01*
X1719309Y-16173460D01*
X1819520Y-16087157D01*
X1905518Y-16010564D01*
X1971802Y-15948790D01*
X2012872Y-15906945D01*
X2023788Y-15890659D01*
X2006829Y-15866713D01*
X1966234Y-15814995D01*
X1908094Y-15743130D01*
X1838893Y-15659212D01*
X1661529Y-15445967D01*
X20583Y-15445843D01*
X-1620364Y-15445720D01*
X-1927686Y-15702289D01*
X-2039289Y-15796157D01*
X-2119180Y-15865609D01*
X-2171645Y-15915224D01*
X-2200972Y-15949582D01*
X-2211447Y-15973262D01*
X-2449032Y-15973262D01*
X-2453424Y-15965102D01*
X-2457099Y-15945631D01*
X-2452486Y-15930267D01*
X-2447763Y-15921773D01*
X-2425143Y-15898033D01*
X-2372452Y-15849667D01*
X-2295220Y-15781534D01*
X-2198975Y-15698492D01*
X-2089248Y-15605398D01*
X-2053164Y-15575094D01*
X-1677048Y-15259992D01*
X28870Y-15259992D01*
X1734787Y-15259992D01*
X1992511Y-15566224D01*
G37*
G36*
X1058691Y-10983692D02*
G01*
X1355038Y-10983837D01*
X1634754Y-10984102D01*
X1894610Y-10984477D01*
X2131372Y-10984953D01*
X2341811Y-10985523D01*
X2522695Y-10986175D01*
X2670792Y-10986903D01*
X2782871Y-10987696D01*
X2855700Y-10988545D01*
X2886049Y-10989443D01*
X2886745Y-10989589D01*
X2902584Y-11008765D01*
X2942018Y-11056440D01*
X2999168Y-11125507D01*
X3068155Y-11208860D01*
X3070743Y-11211987D01*
X3149506Y-11309554D01*
X3200361Y-11379215D01*
X3226949Y-11426844D01*
X3232910Y-11458320D01*
X3229841Y-11468764D01*
X3206675Y-11495329D01*
X3153394Y-11546122D01*
X3075643Y-11616086D01*
X2979069Y-11700166D01*
X2869320Y-11793304D01*
X2840237Y-11817619D01*
X2720473Y-11917613D01*
X2604920Y-12014402D01*
X2501198Y-12101581D01*
X2416923Y-12172745D01*
X2359714Y-12221490D01*
X2355283Y-12225309D01*
X2240121Y-12324778D01*
X535398Y-12324778D01*
X-1169325Y-12324778D01*
X-1225054Y-12261220D01*
X-1313222Y-12159436D01*
X-1408862Y-12046943D01*
X-1507014Y-11929802D01*
X-1602718Y-11814073D01*
X-1691015Y-11705819D01*
X-1766946Y-11611100D01*
X-1825550Y-11535977D01*
X-1861868Y-11486512D01*
X-1870647Y-11472226D01*
X-1872432Y-11467163D01*
X-1650305Y-11467163D01*
X-1633958Y-11488968D01*
X-1592629Y-11540295D01*
X-1531108Y-11615308D01*
X-1454181Y-11708168D01*
X-1368161Y-11811219D01*
X-1092846Y-12139882D01*
X544675Y-12139882D01*
X2182196Y-12139882D01*
X2597886Y-11790391D01*
X2715086Y-11691392D01*
X2819492Y-11602311D01*
X2906197Y-11527411D01*
X2970292Y-11470951D01*
X3006870Y-11437191D01*
X3013576Y-11429517D01*
X2999511Y-11407904D01*
X2962232Y-11360866D01*
X2909118Y-11297629D01*
X2895730Y-11282102D01*
X2777883Y-11146070D01*
X738800Y-11146070D01*
X-1300284Y-11146070D01*
X-1478709Y-11298921D01*
X-1552576Y-11364151D01*
X-1610121Y-11418715D01*
X-1644209Y-11455615D01*
X-1650305Y-11467163D01*
X-1872432Y-11467163D01*
X-1879012Y-11448495D01*
X-1877694Y-11424675D01*
X-1862486Y-11396172D01*
X-1829177Y-11358389D01*
X-1773559Y-11306731D01*
X-1691422Y-11236602D01*
X-1578558Y-11143405D01*
X-1542287Y-11113705D01*
X-1383766Y-10984014D01*
X748946Y-10983675D01*
X1058691Y-10983692D01*
G37*
G36*
X3362922Y-11577523D02*
G01*
X3407980Y-11613780D01*
X3416439Y-11623194D01*
X3545249Y-11776340D01*
X3642143Y-11896403D01*
X3707277Y-11983588D01*
X3740806Y-12038101D01*
X3745359Y-12057534D01*
X3739718Y-12084206D01*
X3726735Y-12152615D01*
X3707096Y-12258975D01*
X3681481Y-12399501D01*
X3650576Y-12570410D01*
X3615062Y-12767914D01*
X3575624Y-12988229D01*
X3532945Y-13227570D01*
X3487708Y-13482152D01*
X3462016Y-13627122D01*
X3188759Y-15170425D01*
X2811390Y-15492551D01*
X2697780Y-15587884D01*
X2593827Y-15672018D01*
X2505312Y-15740521D01*
X2438019Y-15788960D01*
X2397728Y-15812904D01*
X2391152Y-15814678D01*
X2359382Y-15796819D01*
X2302828Y-15745397D01*
X2224687Y-15663640D01*
X2128154Y-15554778D01*
X2091576Y-15512003D01*
X1986330Y-15385387D01*
X1910730Y-15288267D01*
X1862201Y-15216999D01*
X1838167Y-15167936D01*
X1834434Y-15147991D01*
X1835719Y-15136914D01*
X2011615Y-15136914D01*
X2203462Y-15361203D01*
X2277131Y-15445066D01*
X2341015Y-15513566D01*
X2388831Y-15560265D01*
X2414296Y-15578724D01*
X2415716Y-15578690D01*
X2439462Y-15562142D01*
X2491981Y-15520773D01*
X2566883Y-15459766D01*
X2657778Y-15384303D01*
X2723221Y-15329270D01*
X2820633Y-15246099D01*
X2905175Y-15172303D01*
X2970654Y-15113416D01*
X3010875Y-15074975D01*
X3020557Y-15063540D01*
X3026268Y-15037338D01*
X3039313Y-14969483D01*
X3058989Y-14863843D01*
X3084593Y-14724285D01*
X3115425Y-14554678D01*
X3150781Y-14358888D01*
X3189959Y-14140784D01*
X3232258Y-13904232D01*
X3276974Y-13653101D01*
X3292162Y-13567572D01*
X3345212Y-13269350D01*
X3390807Y-13013169D01*
X3429194Y-12795496D01*
X3460621Y-12612796D01*
X3485336Y-12461532D01*
X3503586Y-12338171D01*
X3515619Y-12239178D01*
X3521684Y-12161016D01*
X3522027Y-12100152D01*
X3516896Y-12053049D01*
X3506540Y-12016174D01*
X3491205Y-11985991D01*
X3471140Y-11958965D01*
X3446592Y-11931561D01*
X3417809Y-11900244D01*
X3409653Y-11891013D01*
X3323610Y-11792371D01*
X2908584Y-12140531D01*
X2789905Y-12241648D01*
X2683091Y-12335627D01*
X2593368Y-12417626D01*
X2525963Y-12482805D01*
X2486104Y-12526321D01*
X2477696Y-12539627D01*
X2470804Y-12571391D01*
X2456698Y-12644386D01*
X2436161Y-12754318D01*
X2409975Y-12896891D01*
X2378921Y-13067811D01*
X2343780Y-13262781D01*
X2305335Y-13477507D01*
X2264367Y-13707693D01*
X2236725Y-13863739D01*
X2011615Y-15136914D01*
X1835719Y-15136914D01*
X1838316Y-15114524D01*
X1849648Y-15039779D01*
X1867714Y-14927978D01*
X1891800Y-14783338D01*
X1921190Y-14610081D01*
X1955170Y-14412427D01*
X1993024Y-14194594D01*
X2034037Y-13960803D01*
X2071331Y-13749966D01*
X2308663Y-12413279D01*
X2802065Y-11997639D01*
X2931828Y-11888842D01*
X3051135Y-11789792D01*
X3155129Y-11704440D01*
X3238958Y-11636740D01*
X3297766Y-11590644D01*
X3326700Y-11570104D01*
X3327798Y-11569594D01*
X3362922Y-11577523D01*
G37*
G36*
X2394751Y-16058822D02*
G01*
X2402517Y-16063485D01*
X2429491Y-16089530D01*
X2477711Y-16142959D01*
X2541272Y-16216592D01*
X2614270Y-16303250D01*
X2690799Y-16395753D01*
X2764954Y-16486922D01*
X2830829Y-16569576D01*
X2882521Y-16636538D01*
X2914123Y-16680626D01*
X2921129Y-16694020D01*
X2917237Y-16720315D01*
X2905992Y-16788414D01*
X2888033Y-16894590D01*
X2864005Y-17035122D01*
X2834548Y-17206283D01*
X2800304Y-17404351D01*
X2761917Y-17625601D01*
X2720027Y-17866308D01*
X2675277Y-18122749D01*
X2643199Y-18306166D01*
X2365269Y-19893931D01*
X2279186Y-19969998D01*
X2162260Y-20070857D01*
X2053139Y-20160381D01*
X1957635Y-20234166D01*
X1881556Y-20287810D01*
X1830713Y-20316911D01*
X1816163Y-20320882D01*
X1788936Y-20303672D01*
X1738419Y-20256438D01*
X1670354Y-20185127D01*
X1590484Y-20095685D01*
X1529135Y-20023690D01*
X1436360Y-19912597D01*
X1344715Y-19802636D01*
X1262323Y-19703569D01*
X1197310Y-19625160D01*
X1173301Y-19596074D01*
X1065419Y-19465031D01*
X1082690Y-19365902D01*
X1268579Y-19365902D01*
X1271676Y-19393040D01*
X1292523Y-19435211D01*
X1334147Y-19496729D01*
X1399577Y-19581912D01*
X1491841Y-19695073D01*
X1540312Y-19753162D01*
X1641297Y-19871153D01*
X1726754Y-19966101D01*
X1793244Y-20034423D01*
X1837324Y-20072539D01*
X1853557Y-20079168D01*
X1884654Y-20059784D01*
X1940477Y-20018461D01*
X2010461Y-19963112D01*
X2031203Y-19946139D01*
X2101156Y-19885582D01*
X2156387Y-19832401D01*
X2187416Y-19795893D01*
X2190475Y-19789928D01*
X2196409Y-19761659D01*
X2209533Y-19691763D01*
X2229153Y-19584159D01*
X2254568Y-19442763D01*
X2285083Y-19271496D01*
X2320000Y-19074275D01*
X2358622Y-18855018D01*
X2400250Y-18617645D01*
X2444189Y-18366073D01*
X2457849Y-18287653D01*
X2502363Y-18032169D01*
X2544732Y-17789391D01*
X2584260Y-17563277D01*
X2620252Y-17357786D01*
X2652012Y-17176875D01*
X2678847Y-17024504D01*
X2700060Y-16904631D01*
X2714955Y-16821214D01*
X2722839Y-16778211D01*
X2723725Y-16773822D01*
X2716932Y-16737974D01*
X2683423Y-16679748D01*
X2620889Y-16595633D01*
X2548999Y-16508035D01*
X2476770Y-16424227D01*
X2414251Y-16355169D01*
X2367831Y-16307678D01*
X2343899Y-16288571D01*
X2343192Y-16288472D01*
X2320443Y-16302375D01*
X2269647Y-16340127D01*
X2198105Y-16395796D01*
X2113119Y-16463445D01*
X2021992Y-16537143D01*
X1932024Y-16610954D01*
X1850518Y-16678944D01*
X1784776Y-16735180D01*
X1742100Y-16773728D01*
X1729976Y-16786816D01*
X1724151Y-16812120D01*
X1711172Y-16878787D01*
X1691795Y-16982641D01*
X1666775Y-17119501D01*
X1636868Y-17285190D01*
X1602830Y-17475531D01*
X1565416Y-17686343D01*
X1525383Y-17913450D01*
X1499701Y-18059907D01*
X1458298Y-18296222D01*
X1419034Y-18519824D01*
X1382676Y-18726392D01*
X1349987Y-18911602D01*
X1321733Y-19071130D01*
X1298679Y-19200653D01*
X1281590Y-19295850D01*
X1271230Y-19352395D01*
X1268579Y-19365902D01*
X1082690Y-19365902D01*
X1303887Y-18096315D01*
X1361984Y-17765477D01*
X1413134Y-17479779D01*
X1457443Y-17238680D01*
X1495017Y-17041637D01*
X1525961Y-16888107D01*
X1550381Y-16777549D01*
X1568382Y-16709421D01*
X1578831Y-16684327D01*
X1612922Y-16650057D01*
X1673539Y-16595123D01*
X1754245Y-16524849D01*
X1848601Y-16444559D01*
X1950171Y-16359576D01*
X2052516Y-16275225D01*
X2149199Y-16196828D01*
X2233781Y-16129709D01*
X2299826Y-16079192D01*
X2340896Y-16050601D01*
X2350550Y-16046151D01*
X2394751Y-16058822D01*
G37*
G36*
X-2006659Y-11542309D02*
G01*
X-1984206Y-11554839D01*
X-1953819Y-11580340D01*
X-1911948Y-11622588D01*
X-1855045Y-11685363D01*
X-1779561Y-11772441D01*
X-1681946Y-11887602D01*
X-1558652Y-12034621D01*
X-1555098Y-12038871D01*
X-1262722Y-12388543D01*
X-1506298Y-13772265D01*
X-1560460Y-14078356D01*
X-1607634Y-14341350D01*
X-1648322Y-14563763D01*
X-1683024Y-14748111D01*
X-1712241Y-14896910D01*
X-1736473Y-15012677D01*
X-1756221Y-15097927D01*
X-1771985Y-15155178D01*
X-1784266Y-15186944D01*
X-1789123Y-15193930D01*
X-1856807Y-15256647D01*
X-1943469Y-15332941D01*
X-2042725Y-15417628D01*
X-2148192Y-15505523D01*
X-2253486Y-15591443D01*
X-2352223Y-15670203D01*
X-2438019Y-15736620D01*
X-2504492Y-15785510D01*
X-2545257Y-15811688D01*
X-2553519Y-15814678D01*
X-2584663Y-15796721D01*
X-2640302Y-15745053D01*
X-2717244Y-15662974D01*
X-2812293Y-15553784D01*
X-2853452Y-15504720D01*
X-2937603Y-15401464D01*
X-3010237Y-15308497D01*
X-3066506Y-15232339D01*
X-3101564Y-15179507D01*
X-3111083Y-15158234D01*
X-3108084Y-15137404D01*
X-2916092Y-15137404D01*
X-2897240Y-15166539D01*
X-2854769Y-15222793D01*
X-2794983Y-15298053D01*
X-2724485Y-15383856D01*
X-2648676Y-15473947D01*
X-2595972Y-15533146D01*
X-2560187Y-15566323D01*
X-2535139Y-15578347D01*
X-2514643Y-15574088D01*
X-2497660Y-15562456D01*
X-2463857Y-15534986D01*
X-2402321Y-15483864D01*
X-2320548Y-15415360D01*
X-2226037Y-15335745D01*
X-2179871Y-15296713D01*
X-2086415Y-15216680D01*
X-2006932Y-15146851D01*
X-1947507Y-15092711D01*
X-1914224Y-15059749D01*
X-1909263Y-15052702D01*
X-1905392Y-15027763D01*
X-1894263Y-14961479D01*
X-1876598Y-14858035D01*
X-1853120Y-14721614D01*
X-1824551Y-14556402D01*
X-1791616Y-14366583D01*
X-1755037Y-14156342D01*
X-1715537Y-13929862D01*
X-1691283Y-13791049D01*
X-1650142Y-13555585D01*
X-1611271Y-13332784D01*
X-1575423Y-13126994D01*
X-1543353Y-12942564D01*
X-1515817Y-12783843D01*
X-1493569Y-12655177D01*
X-1477364Y-12560917D01*
X-1467957Y-12505409D01*
X-1465941Y-12492885D01*
X-1472639Y-12461514D01*
X-1500878Y-12410358D01*
X-1553146Y-12335860D01*
X-1631933Y-12234463D01*
X-1735923Y-12107197D01*
X-1824132Y-12002128D01*
X-1903054Y-11910448D01*
X-1967725Y-11837738D01*
X-2013180Y-11789576D01*
X-2034456Y-11771542D01*
X-2034585Y-11771528D01*
X-2060878Y-11785300D01*
X-2114207Y-11824107D01*
X-2187214Y-11882101D01*
X-2272545Y-11953436D01*
X-2362840Y-12032262D01*
X-2364795Y-12034007D01*
X-2373316Y-12060334D01*
X-2388714Y-12127668D01*
X-2410177Y-12231434D01*
X-2436892Y-12367059D01*
X-2468046Y-12529970D01*
X-2502828Y-12715594D01*
X-2540424Y-12919356D01*
X-2580023Y-13136684D01*
X-2620811Y-13363003D01*
X-2661977Y-13593741D01*
X-2702708Y-13824324D01*
X-2742191Y-14050178D01*
X-2779614Y-14266730D01*
X-2814165Y-14469406D01*
X-2845031Y-14653633D01*
X-2871400Y-14814838D01*
X-2892459Y-14948446D01*
X-2907396Y-15049885D01*
X-2915398Y-15114581D01*
X-2916092Y-15137404D01*
X-3108084Y-15137404D01*
X-3107217Y-15131385D01*
X-3096147Y-15063551D01*
X-3078661Y-14959271D01*
X-3055548Y-14823088D01*
X-3027597Y-14659542D01*
X-2995595Y-14473175D01*
X-2960333Y-14268529D01*
X-2922599Y-14050143D01*
X-2883181Y-13822561D01*
X-2842868Y-13590322D01*
X-2802450Y-13357969D01*
X-2762714Y-13130042D01*
X-2724450Y-12911083D01*
X-2688447Y-12705633D01*
X-2655492Y-12518233D01*
X-2626375Y-12353425D01*
X-2601885Y-12215750D01*
X-2582811Y-12109748D01*
X-2569940Y-12039962D01*
X-2565732Y-12018373D01*
X-2544435Y-11975816D01*
X-2492937Y-11915648D01*
X-2408441Y-11834929D01*
X-2307218Y-11746808D01*
X-2215397Y-11671213D01*
X-2133641Y-11607908D01*
X-2069454Y-11562413D01*
X-2030338Y-11540248D01*
X-2024727Y-11538972D01*
X-2006659Y-11542309D01*
G37*
G36*
X-2534797Y-16059135D02*
G01*
X-2479272Y-16120102D01*
X-2410270Y-16199970D01*
X-2333471Y-16291669D01*
X-2254551Y-16388134D01*
X-2179191Y-16482296D01*
X-2113069Y-16567087D01*
X-2061863Y-16635441D01*
X-2031253Y-16680288D01*
X-2025090Y-16693509D01*
X-2029007Y-16726649D01*
X-2040356Y-16799510D01*
X-2058268Y-16907295D01*
X-2081874Y-17045207D01*
X-2110304Y-17208448D01*
X-2142689Y-17392221D01*
X-2178160Y-17591729D01*
X-2215848Y-17802175D01*
X-2254883Y-18018761D01*
X-2294397Y-18236691D01*
X-2333520Y-18451166D01*
X-2371383Y-18657390D01*
X-2407117Y-18850565D01*
X-2439852Y-19025894D01*
X-2468719Y-19178580D01*
X-2492849Y-19303826D01*
X-2511373Y-19396834D01*
X-2523422Y-19452808D01*
X-2527739Y-19467651D01*
X-2608377Y-19536385D01*
X-2707577Y-19620098D01*
X-2819576Y-19714014D01*
X-2938612Y-19813356D01*
X-3058922Y-19913349D01*
X-3174744Y-20009216D01*
X-3280315Y-20096182D01*
X-3369873Y-20169469D01*
X-3437655Y-20224302D01*
X-3477900Y-20255905D01*
X-3484565Y-20260695D01*
X-3532103Y-20284290D01*
X-3566696Y-20276948D01*
X-3577013Y-20269376D01*
X-3605618Y-20240487D01*
X-3655888Y-20184415D01*
X-3720241Y-20109773D01*
X-3778193Y-20040764D01*
X-3944075Y-19840918D01*
X-3925443Y-19735967D01*
X-3746549Y-19735967D01*
X-3742417Y-19776853D01*
X-3711508Y-19834376D01*
X-3650158Y-19915113D01*
X-3639599Y-19927844D01*
X-3580371Y-19997786D01*
X-3542159Y-20037224D01*
X-3516411Y-20051184D01*
X-3494577Y-20044692D01*
X-3472089Y-20026301D01*
X-3439878Y-19998673D01*
X-3378318Y-19946654D01*
X-3293580Y-19875429D01*
X-3191837Y-19790184D01*
X-3079261Y-19696105D01*
X-3053303Y-19674445D01*
X-2942758Y-19582290D01*
X-2844987Y-19500900D01*
X-2765273Y-19434663D01*
X-2708899Y-19387969D01*
X-2681150Y-19365207D01*
X-2679200Y-19363702D01*
X-2674474Y-19341192D01*
X-2662394Y-19277191D01*
X-2643688Y-19175719D01*
X-2619086Y-19040796D01*
X-2589316Y-18876442D01*
X-2555106Y-18686678D01*
X-2517186Y-18475523D01*
X-2476283Y-18246999D01*
X-2440874Y-18048607D01*
X-2390487Y-17764997D01*
X-2348001Y-17523507D01*
X-2312915Y-17320805D01*
X-2284725Y-17153558D01*
X-2262929Y-17018432D01*
X-2247024Y-16912094D01*
X-2236507Y-16831212D01*
X-2230875Y-16772453D01*
X-2229625Y-16732483D01*
X-2232256Y-16707970D01*
X-2236991Y-16697020D01*
X-2279868Y-16643555D01*
X-2337115Y-16574430D01*
X-2401758Y-16497776D01*
X-2466828Y-16421723D01*
X-2525354Y-16354401D01*
X-2570363Y-16303939D01*
X-2594886Y-16278468D01*
X-2597202Y-16276916D01*
X-2618028Y-16290931D01*
X-2666799Y-16329087D01*
X-2736541Y-16385545D01*
X-2820283Y-16454471D01*
X-2911052Y-16530026D01*
X-3001876Y-16606375D01*
X-3085782Y-16677681D01*
X-3155799Y-16738108D01*
X-3204954Y-16781819D01*
X-3226275Y-16802978D01*
X-3226642Y-16803823D01*
X-3230563Y-16828515D01*
X-3241775Y-16894042D01*
X-3259449Y-16995733D01*
X-3282757Y-17128919D01*
X-3310871Y-17288928D01*
X-3342963Y-17471091D01*
X-3378204Y-17670737D01*
X-3415768Y-17883196D01*
X-3454825Y-18103796D01*
X-3494547Y-18327869D01*
X-3534107Y-18550744D01*
X-3572676Y-18767749D01*
X-3609426Y-18974216D01*
X-3643528Y-19165472D01*
X-3674156Y-19336849D01*
X-3700481Y-19483676D01*
X-3721674Y-19601282D01*
X-3736907Y-19684996D01*
X-3745353Y-19730150D01*
X-3746549Y-19735967D01*
X-3925443Y-19735967D01*
X-3666250Y-18275937D01*
X-3619657Y-18013370D01*
X-3575515Y-17764402D01*
X-3534476Y-17532730D01*
X-3497195Y-17322052D01*
X-3464323Y-17136065D01*
X-3436516Y-16978468D01*
X-3414424Y-16852957D01*
X-3398703Y-16763231D01*
X-3390005Y-16712987D01*
X-3388426Y-16703269D01*
X-3371418Y-16684609D01*
X-3324631Y-16642353D01*
X-3254416Y-16581733D01*
X-3167126Y-16507980D01*
X-3069113Y-16426328D01*
X-2966730Y-16342009D01*
X-2866329Y-16260254D01*
X-2774262Y-16186296D01*
X-2696882Y-16125368D01*
X-2640541Y-16082702D01*
X-2611899Y-16063666D01*
X-2558990Y-16050515D01*
X-2534797Y-16059135D01*
G37*
%TD*%
M02*
