M48
; DRILL file {KiCad 9.0.7} date 2026-04-21T17:40:31+0100
; FORMAT={-:-/ absolute / metric / decimal}
; #@! TF.CreationDate,2026-04-21T17:40:31+01:00
; #@! TF.GenerationSoftware,Kicad,Pcbnew,9.0.7
; #@! TF.FileFunction,Plated,1,2,PTH
FMAT,2
METRIC
; #@! TA.AperFunction,Plated,PTH,ViaDrill
T1C0.300
; #@! TA.AperFunction,Plated,PTH,ComponentDrill
T2C0.800
; #@! TA.AperFunction,Plated,PTH,ComponentDrill
T3C1.000
%
G90
G05
T1
X-12.75Y3.0
X-12.75Y-1.0
X-12.75Y-5.5
X-11.5Y19.5
X-11.5Y17.0
X-11.5Y14.5
X-9.5Y0.0
X-8.0Y13.5
X-8.0Y6.0
X-8.0Y-7.0
X-8.0Y-12.75
X-7.0Y16.5
X-6.2Y14.3
X-5.5Y20.0
X-5.25Y5.0
X-5.25Y0.0
X-4.5Y-15.5
X-4.0Y20.0
X-4.0Y-11.0
X-3.9Y18.2
X-2.75Y5.0
X-1.0Y20.0
X-1.0Y-17.5
X1.8Y18.2
X3.0Y4.75
X3.25Y-18.75
X4.0Y18.25
X5.0Y-16.0
X6.5Y18.25
X8.0Y-20.5
X8.25Y-12.0
X8.75Y-6.25
X10.9Y-6.9
X11.0Y-4.0
X11.1Y-12.0
X11.9Y-6.8
X11.9Y-16.6
X12.0Y17.0
X12.0Y14.0
X12.0Y11.0
X12.0Y8.0
X12.0Y5.0
T2
X-8.89Y10.0
X-8.89Y2.38
X-6.35Y10.0
X-6.35Y2.38
X-3.81Y10.0
X-3.81Y2.38
X-1.27Y10.0
X-1.27Y2.38
X1.27Y10.0
X1.27Y2.38
X3.81Y10.0
X3.81Y2.38
X6.35Y10.0
X6.35Y2.38
X8.89Y10.0
X8.89Y2.38
T3
X-8.89Y25.0
X-6.35Y25.0
X-5.08Y-8.38
X-5.08Y-23.59
X-3.81Y25.0
X-2.54Y-8.38
X-2.54Y-23.62
X-1.27Y25.0
X0.0Y-8.38
X0.0Y-23.62
X1.27Y25.0
X2.54Y-8.38
X2.54Y-23.62
X3.81Y25.0
X5.08Y-8.38
X5.08Y-23.62
X6.35Y25.0
X8.89Y25.0
M30
