%TF.GenerationSoftware,KiCad,Pcbnew,9.0.7*%
%TF.CreationDate,2026-04-21T17:40:21+01:00*%
%TF.ProjectId,solderbit-segment-shift-edition,736f6c64-6572-4626-9974-2d7365676d65,v0.1*%
%TF.SameCoordinates,PX8583b00PY4e33880*%
%TF.FileFunction,Soldermask,Bot*%
%TF.FilePolarity,Negative*%
%FSLAX46Y46*%
G04 Gerber Fmt 4.6, Leading zero omitted, Abs format (unit mm)*
G04 Created by KiCad (PCBNEW 9.0.7) date 2026-04-21 17:40:21*
%MOMM*%
%LPD*%
G01*
G04 APERTURE LIST*
G04 Aperture macros list*
%AMRoundRect*
0 Rectangle with rounded corners*
0 $1 Rounding radius*
0 $2 $3 $4 $5 $6 $7 $8 $9 X,Y pos of 4 corners*
0 Add a 4 corners polygon primitive as box body*
4,1,4,$2,$3,$4,$5,$6,$7,$8,$9,$2,$3,0*
0 Add four circle primitives for the rounded corners*
1,1,$1+$1,$2,$3*
1,1,$1+$1,$4,$5*
1,1,$1+$1,$6,$7*
1,1,$1+$1,$8,$9*
0 Add four rect primitives between the rounded corners*
20,1,$1+$1,$2,$3,$4,$5,0*
20,1,$1+$1,$4,$5,$6,$7,0*
20,1,$1+$1,$6,$7,$8,$9,0*
20,1,$1+$1,$8,$9,$2,$3,0*%
G04 Aperture macros list end*
%ADD10C,0.000000*%
%ADD11RoundRect,0.250000X0.550000X-1.150000X0.550000X1.150000X-0.550000X1.150000X-0.550000X-1.150000X0*%
%ADD12O,1.600000X2.800000*%
G04 APERTURE END LIST*
D10*
%TO.C,G\u002A\u002A\u002A*%
G36*
X418901Y-2336594D02*
G01*
X429882Y-2336630D01*
X438702Y-2336708D01*
X445682Y-2336845D01*
X451143Y-2337055D01*
X455407Y-2337355D01*
X458794Y-2337761D01*
X461625Y-2338288D01*
X464223Y-2338952D01*
X466908Y-2339769D01*
X474929Y-2342830D01*
X487513Y-2349963D01*
X498596Y-2359292D01*
X507909Y-2370527D01*
X515182Y-2383375D01*
X520149Y-2397546D01*
X520183Y-2397684D01*
X520834Y-2400753D01*
X521360Y-2404415D01*
X521775Y-2408998D01*
X522094Y-2414825D01*
X522330Y-2422221D01*
X522497Y-2431512D01*
X522608Y-2443022D01*
X522677Y-2457076D01*
X522851Y-2507281D01*
X517721Y-2518039D01*
X514329Y-2524492D01*
X505574Y-2537051D01*
X495051Y-2547613D01*
X483018Y-2555986D01*
X469727Y-2561974D01*
X455432Y-2565387D01*
X453107Y-2565596D01*
X447766Y-2565841D01*
X440258Y-2566040D01*
X430986Y-2566186D01*
X420354Y-2566273D01*
X408765Y-2566296D01*
X396621Y-2566249D01*
X386343Y-2566175D01*
X374870Y-2566070D01*
X365679Y-2565942D01*
X358435Y-2565767D01*
X352804Y-2565529D01*
X348449Y-2565204D01*
X345036Y-2564775D01*
X342228Y-2564219D01*
X339692Y-2563517D01*
X337092Y-2562649D01*
X328410Y-2559109D01*
X315949Y-2551752D01*
X305102Y-2542159D01*
X295600Y-2530117D01*
X292890Y-2525990D01*
X289881Y-2521019D01*
X287483Y-2516281D01*
X285620Y-2511389D01*
X284216Y-2505955D01*
X283197Y-2499591D01*
X282489Y-2491908D01*
X282015Y-2482519D01*
X281701Y-2471038D01*
X281473Y-2457076D01*
X281341Y-2444296D01*
X281344Y-2429751D01*
X281548Y-2418068D01*
X281952Y-2409246D01*
X282560Y-2403285D01*
X282948Y-2401027D01*
X286971Y-2387031D01*
X293469Y-2374140D01*
X302193Y-2362633D01*
X312896Y-2352791D01*
X325329Y-2344893D01*
X339243Y-2339221D01*
X340231Y-2338929D01*
X342761Y-2338297D01*
X345655Y-2337788D01*
X349222Y-2337390D01*
X353779Y-2337089D01*
X359637Y-2336873D01*
X367111Y-2336726D01*
X376513Y-2336639D01*
X388158Y-2336595D01*
X402358Y-2336584D01*
X405437Y-2336584D01*
X418901Y-2336594D01*
G37*
G36*
X7916632Y-3043947D02*
G01*
X7916632Y-3677438D01*
X7878261Y-3676673D01*
X7868147Y-3676449D01*
X7856897Y-3676100D01*
X7847753Y-3675628D01*
X7840276Y-3674965D01*
X7834030Y-3674043D01*
X7828580Y-3672793D01*
X7823489Y-3671146D01*
X7818319Y-3669036D01*
X7812636Y-3666392D01*
X7806931Y-3663335D01*
X7800202Y-3659163D01*
X7794569Y-3655115D01*
X7792630Y-3653554D01*
X7790557Y-3651837D01*
X7788567Y-3650070D01*
X7786594Y-3648139D01*
X7784579Y-3645929D01*
X7782458Y-3643326D01*
X7780172Y-3640215D01*
X7777656Y-3636483D01*
X7774849Y-3632014D01*
X7771690Y-3626696D01*
X7768115Y-3620412D01*
X7764064Y-3613049D01*
X7759473Y-3604491D01*
X7754281Y-3594628D01*
X7748427Y-3583340D01*
X7741848Y-3570517D01*
X7734481Y-3556041D01*
X7726266Y-3539801D01*
X7717140Y-3521681D01*
X7707041Y-3501566D01*
X7695907Y-3479344D01*
X7683677Y-3454898D01*
X7670288Y-3428114D01*
X7655678Y-3398880D01*
X7652041Y-3391602D01*
X7640052Y-3367588D01*
X7628364Y-3344148D01*
X7617048Y-3321424D01*
X7606174Y-3299559D01*
X7595810Y-3278693D01*
X7586029Y-3258971D01*
X7576901Y-3240534D01*
X7568496Y-3223524D01*
X7560883Y-3208083D01*
X7554134Y-3194354D01*
X7548318Y-3182479D01*
X7543506Y-3172599D01*
X7539769Y-3164858D01*
X7537176Y-3159398D01*
X7535798Y-3156360D01*
X7533703Y-3151313D01*
X7524857Y-3128274D01*
X7517931Y-3106803D01*
X7512874Y-3086491D01*
X7509631Y-3066921D01*
X7508147Y-3047681D01*
X7508370Y-3028359D01*
X7510243Y-3008541D01*
X7513714Y-2987816D01*
X7513892Y-2986922D01*
X7514743Y-2982703D01*
X7515592Y-2978702D01*
X7516490Y-2974795D01*
X7517497Y-2970863D01*
X7518669Y-2966785D01*
X7520058Y-2962439D01*
X7521723Y-2957704D01*
X7523720Y-2952460D01*
X7526104Y-2946586D01*
X7528930Y-2939960D01*
X7532254Y-2932461D01*
X7536133Y-2923968D01*
X7540622Y-2914360D01*
X7545778Y-2903517D01*
X7551655Y-2891316D01*
X7558310Y-2877638D01*
X7565799Y-2862360D01*
X7574177Y-2845363D01*
X7583500Y-2826524D01*
X7593825Y-2805723D01*
X7605205Y-2782840D01*
X7617700Y-2757752D01*
X7631362Y-2730338D01*
X7646249Y-2700478D01*
X7653833Y-2685274D01*
X7665886Y-2661138D01*
X7677614Y-2637688D01*
X7688949Y-2615058D01*
X7699822Y-2593383D01*
X7710166Y-2572799D01*
X7719912Y-2553436D01*
X7728993Y-2535433D01*
X7737342Y-2518923D01*
X7744888Y-2504041D01*
X7751567Y-2490920D01*
X7757308Y-2479696D01*
X7762043Y-2470503D01*
X7765706Y-2463474D01*
X7768227Y-2458746D01*
X7769540Y-2456453D01*
X7772186Y-2452663D01*
X7783002Y-2440135D01*
X7795552Y-2429563D01*
X7809393Y-2421341D01*
X7811908Y-2420145D01*
X7818372Y-2417312D01*
X7824543Y-2415080D01*
X7830874Y-2413381D01*
X7837815Y-2412144D01*
X7845817Y-2411303D01*
X7855334Y-2410787D01*
X7866815Y-2410528D01*
X7880711Y-2410456D01*
X7916632Y-2410456D01*
X7916632Y-3043947D01*
G37*
G36*
X-4138845Y-2949962D02*
G01*
X-4119660Y-2949993D01*
X-4102404Y-2950046D01*
X-4086967Y-2950121D01*
X-4073236Y-2950224D01*
X-4061098Y-2950357D01*
X-4050442Y-2950521D01*
X-4041155Y-2950720D01*
X-4033126Y-2950957D01*
X-4026241Y-2951233D01*
X-4020389Y-2951553D01*
X-4015457Y-2951916D01*
X-4011333Y-2952330D01*
X-4007905Y-2952793D01*
X-4005062Y-2953310D01*
X-4002689Y-2953882D01*
X-4000676Y-2954513D01*
X-3998909Y-2955206D01*
X-3997277Y-2955962D01*
X-3995668Y-2956786D01*
X-3993969Y-2957679D01*
X-3992069Y-2958644D01*
X-3990015Y-2959704D01*
X-3979256Y-2967018D01*
X-3969579Y-2976510D01*
X-3961385Y-2987652D01*
X-3955074Y-2999918D01*
X-3951047Y-3012775D01*
X-3950582Y-3015921D01*
X-3950064Y-3022167D01*
X-3949643Y-3030423D01*
X-3949320Y-3040208D01*
X-3949097Y-3051038D01*
X-3948977Y-3062431D01*
X-3948963Y-3073904D01*
X-3949056Y-3084975D01*
X-3949259Y-3095159D01*
X-3949576Y-3103976D01*
X-3950006Y-3110942D01*
X-3950553Y-3115575D01*
X-3953416Y-3126602D01*
X-3959306Y-3139912D01*
X-3967401Y-3151885D01*
X-3977411Y-3162235D01*
X-3989052Y-3170678D01*
X-4002033Y-3176928D01*
X-4016069Y-3180698D01*
X-4016305Y-3180728D01*
X-4019134Y-3180866D01*
X-4024642Y-3180996D01*
X-4032670Y-3181117D01*
X-4043059Y-3181232D01*
X-4055652Y-3181337D01*
X-4070290Y-3181436D01*
X-4086815Y-3181526D01*
X-4105069Y-3181608D01*
X-4124892Y-3181682D01*
X-4146129Y-3181749D01*
X-4168619Y-3181807D01*
X-4192205Y-3181858D01*
X-4216728Y-3181900D01*
X-4242030Y-3181934D01*
X-4267954Y-3181960D01*
X-4294340Y-3181980D01*
X-4321031Y-3181990D01*
X-4347867Y-3181993D01*
X-4374692Y-3181988D01*
X-4401346Y-3181974D01*
X-4427672Y-3181953D01*
X-4453512Y-3181925D01*
X-4478706Y-3181887D01*
X-4503096Y-3181842D01*
X-4526526Y-3181790D01*
X-4548835Y-3181729D01*
X-4569867Y-3181660D01*
X-4589462Y-3181584D01*
X-4607464Y-3181500D01*
X-4623711Y-3181407D01*
X-4638048Y-3181307D01*
X-4650316Y-3181199D01*
X-4660357Y-3181082D01*
X-4668012Y-3180959D01*
X-4673122Y-3180827D01*
X-4675531Y-3180688D01*
X-4681053Y-3179644D01*
X-4693888Y-3175271D01*
X-4706032Y-3168473D01*
X-4717070Y-3159565D01*
X-4726587Y-3148857D01*
X-4734167Y-3136661D01*
X-4736075Y-3132741D01*
X-4737784Y-3128725D01*
X-4739146Y-3124634D01*
X-4740199Y-3120120D01*
X-4740982Y-3114833D01*
X-4741537Y-3108424D01*
X-4741900Y-3100544D01*
X-4742110Y-3090843D01*
X-4742208Y-3078973D01*
X-4742232Y-3064582D01*
X-4742226Y-3055697D01*
X-4742186Y-3043981D01*
X-4742095Y-3034563D01*
X-4741936Y-3027095D01*
X-4741694Y-3021230D01*
X-4741353Y-3016619D01*
X-4740896Y-3012917D01*
X-4740307Y-3009773D01*
X-4739571Y-3006843D01*
X-4735540Y-2995930D01*
X-4728322Y-2983898D01*
X-4718564Y-2973174D01*
X-4715175Y-2970174D01*
X-4706876Y-2963793D01*
X-4698196Y-2958730D01*
X-4687895Y-2954219D01*
X-4678400Y-2950521D01*
X-4350297Y-2950138D01*
X-4336622Y-2950121D01*
X-4300781Y-2950077D01*
X-4267657Y-2950036D01*
X-4237136Y-2950000D01*
X-4209107Y-2949972D01*
X-4183456Y-2949955D01*
X-4160073Y-2949950D01*
X-4138845Y-2949962D01*
G37*
G36*
X517762Y-2748984D02*
G01*
X536483Y-2748997D01*
X552833Y-2749033D01*
X566997Y-2749102D01*
X579162Y-2749215D01*
X589515Y-2749383D01*
X598243Y-2749616D01*
X605531Y-2749924D01*
X611568Y-2750319D01*
X616538Y-2750810D01*
X620630Y-2751409D01*
X624028Y-2752127D01*
X626920Y-2752972D01*
X629493Y-2753957D01*
X631935Y-2755091D01*
X634429Y-2756387D01*
X637164Y-2757852D01*
X641898Y-2760748D01*
X647972Y-2765183D01*
X653290Y-2769753D01*
X654349Y-2770788D01*
X664314Y-2782563D01*
X671844Y-2795516D01*
X676879Y-2809329D01*
X679365Y-2823689D01*
X679242Y-2838282D01*
X676455Y-2852792D01*
X670946Y-2866905D01*
X669890Y-2868867D01*
X664925Y-2876147D01*
X658406Y-2883770D01*
X651051Y-2891017D01*
X643576Y-2897159D01*
X636699Y-2901477D01*
X636291Y-2901681D01*
X632863Y-2903381D01*
X629744Y-2904837D01*
X626692Y-2906067D01*
X623460Y-2907094D01*
X619806Y-2907938D01*
X615483Y-2908620D01*
X610248Y-2909160D01*
X603856Y-2909578D01*
X596062Y-2909896D01*
X586623Y-2910134D01*
X575292Y-2910312D01*
X561827Y-2910453D01*
X545982Y-2910575D01*
X527512Y-2910700D01*
X441805Y-2911274D01*
X441805Y-3206666D01*
X441805Y-3502058D01*
X525456Y-3502058D01*
X538255Y-3502070D01*
X556859Y-3502133D01*
X573212Y-3502251D01*
X587212Y-3502423D01*
X598756Y-3502645D01*
X607740Y-3502916D01*
X614062Y-3503236D01*
X617618Y-3503601D01*
X626161Y-3505925D01*
X635913Y-3509978D01*
X645263Y-3515115D01*
X653043Y-3520775D01*
X658610Y-3526250D01*
X665904Y-3535310D01*
X672197Y-3545236D01*
X676723Y-3554923D01*
X676855Y-3555286D01*
X679473Y-3565218D01*
X680932Y-3576541D01*
X681140Y-3588035D01*
X680006Y-3598476D01*
X676447Y-3610908D01*
X670164Y-3623636D01*
X661717Y-3635013D01*
X651417Y-3644751D01*
X639574Y-3652563D01*
X626500Y-3658157D01*
X612503Y-3661246D01*
X612249Y-3661270D01*
X609283Y-3661389D01*
X603631Y-3661502D01*
X595449Y-3661609D01*
X584889Y-3661708D01*
X572105Y-3661800D01*
X557249Y-3661884D01*
X540478Y-3661959D01*
X521943Y-3662025D01*
X501799Y-3662081D01*
X480199Y-3662127D01*
X457297Y-3662162D01*
X433245Y-3662185D01*
X408200Y-3662196D01*
X382313Y-3662194D01*
X355739Y-3662180D01*
X349293Y-3662175D01*
X318346Y-3662147D01*
X290115Y-3662118D01*
X264474Y-3662084D01*
X241296Y-3662044D01*
X220455Y-3661999D01*
X201822Y-3661946D01*
X185271Y-3661884D01*
X170677Y-3661812D01*
X157910Y-3661728D01*
X146845Y-3661633D01*
X137354Y-3661523D01*
X129310Y-3661399D01*
X122587Y-3661258D01*
X117059Y-3661100D01*
X112596Y-3660923D01*
X109074Y-3660726D01*
X106365Y-3660509D01*
X104341Y-3660268D01*
X102877Y-3660004D01*
X101844Y-3659715D01*
X95416Y-3657208D01*
X81420Y-3649772D01*
X69263Y-3640376D01*
X59143Y-3629219D01*
X51253Y-3616504D01*
X45792Y-3602431D01*
X44499Y-3595672D01*
X43881Y-3586442D01*
X44115Y-3576478D01*
X45173Y-3566829D01*
X47022Y-3558546D01*
X48773Y-3553563D01*
X55194Y-3540992D01*
X63971Y-3529554D01*
X74783Y-3519626D01*
X87305Y-3511584D01*
X89813Y-3510279D01*
X93289Y-3508570D01*
X96683Y-3507119D01*
X100243Y-3505901D01*
X104214Y-3504899D01*
X108842Y-3504091D01*
X114373Y-3503455D01*
X121052Y-3502971D01*
X129126Y-3502617D01*
X138839Y-3502375D01*
X150438Y-3502220D01*
X164169Y-3502134D01*
X180276Y-3502096D01*
X199007Y-3502083D01*
X281108Y-3502058D01*
X281486Y-3158153D01*
X281865Y-2814250D01*
X285073Y-2804822D01*
X289965Y-2793576D01*
X297449Y-2781879D01*
X306680Y-2771390D01*
X317231Y-2762524D01*
X328670Y-2755696D01*
X340565Y-2751321D01*
X341462Y-2751110D01*
X343486Y-2750732D01*
X345998Y-2750399D01*
X349181Y-2750112D01*
X353220Y-2749865D01*
X358296Y-2749656D01*
X364593Y-2749482D01*
X372293Y-2749340D01*
X381580Y-2749227D01*
X392637Y-2749140D01*
X405648Y-2749076D01*
X420795Y-2749030D01*
X438262Y-2749002D01*
X458232Y-2748987D01*
X480886Y-2748983D01*
X496481Y-2748982D01*
X517762Y-2748984D01*
G37*
G36*
X1237457Y-2752350D02*
G01*
X1250835Y-2756300D01*
X1263344Y-2762440D01*
X1274673Y-2770639D01*
X1284508Y-2780762D01*
X1292539Y-2792679D01*
X1298454Y-2806257D01*
X1298797Y-2807312D01*
X1299461Y-2809569D01*
X1300017Y-2811975D01*
X1300478Y-2814804D01*
X1300859Y-2818326D01*
X1301173Y-2822815D01*
X1301432Y-2828542D01*
X1301652Y-2835778D01*
X1301845Y-2844795D01*
X1302026Y-2855866D01*
X1302207Y-2869262D01*
X1302403Y-2885254D01*
X1303231Y-2954823D01*
X1420595Y-3223779D01*
X1427664Y-3239975D01*
X1439013Y-3265971D01*
X1450030Y-3291194D01*
X1460658Y-3315518D01*
X1470846Y-3338820D01*
X1480537Y-3360977D01*
X1489679Y-3381865D01*
X1498216Y-3401360D01*
X1506095Y-3419338D01*
X1513260Y-3435677D01*
X1519659Y-3450250D01*
X1525237Y-3462937D01*
X1529939Y-3473612D01*
X1533712Y-3482152D01*
X1536501Y-3488433D01*
X1538252Y-3492332D01*
X1538911Y-3493725D01*
X1539259Y-3493153D01*
X1540698Y-3490187D01*
X1543199Y-3484800D01*
X1546707Y-3477116D01*
X1551169Y-3467257D01*
X1556528Y-3455342D01*
X1562732Y-3441496D01*
X1569726Y-3425840D01*
X1577457Y-3408495D01*
X1585868Y-3389582D01*
X1594907Y-3369225D01*
X1604520Y-3347544D01*
X1614651Y-3324661D01*
X1625247Y-3300699D01*
X1636253Y-3275778D01*
X1647616Y-3250021D01*
X1659279Y-3223550D01*
X1778696Y-2952386D01*
X1778721Y-2887621D01*
X1778734Y-2876090D01*
X1778785Y-2861527D01*
X1778884Y-2849389D01*
X1779035Y-2839416D01*
X1779248Y-2831344D01*
X1779529Y-2824910D01*
X1779886Y-2819853D01*
X1780326Y-2815908D01*
X1780857Y-2812816D01*
X1785074Y-2799151D01*
X1791652Y-2786638D01*
X1800248Y-2775691D01*
X1810565Y-2766491D01*
X1822309Y-2759222D01*
X1835182Y-2754067D01*
X1848890Y-2751207D01*
X1863136Y-2750824D01*
X1877625Y-2753103D01*
X1877807Y-2753149D01*
X1891803Y-2758157D01*
X1904383Y-2765643D01*
X1915461Y-2775544D01*
X1924950Y-2787797D01*
X1926071Y-2789553D01*
X1928440Y-2793514D01*
X1930471Y-2797454D01*
X1932190Y-2801616D01*
X1933623Y-2806238D01*
X1934796Y-2811562D01*
X1935733Y-2817829D01*
X1936463Y-2825279D01*
X1937009Y-2834154D01*
X1937399Y-2844693D01*
X1937658Y-2857138D01*
X1937812Y-2871731D01*
X1937886Y-2888710D01*
X1937907Y-2908316D01*
X1937918Y-2982301D01*
X1801540Y-3295611D01*
X1790564Y-3320821D01*
X1778331Y-3348902D01*
X1766416Y-3376241D01*
X1754870Y-3402722D01*
X1743741Y-3428224D01*
X1733086Y-3452631D01*
X1722954Y-3475825D01*
X1713396Y-3497686D01*
X1704465Y-3518097D01*
X1696213Y-3536941D01*
X1688690Y-3554099D01*
X1681950Y-3569452D01*
X1676043Y-3582882D01*
X1671021Y-3594273D01*
X1666936Y-3603505D01*
X1663841Y-3610460D01*
X1661784Y-3615020D01*
X1660820Y-3617068D01*
X1659167Y-3620042D01*
X1650275Y-3632836D01*
X1639647Y-3643711D01*
X1627580Y-3652444D01*
X1614375Y-3658807D01*
X1600329Y-3662579D01*
X1599765Y-3662662D01*
X1595512Y-3663014D01*
X1588905Y-3663313D01*
X1580348Y-3663556D01*
X1570244Y-3663744D01*
X1558991Y-3663877D01*
X1546994Y-3663955D01*
X1534651Y-3663978D01*
X1522366Y-3663946D01*
X1510540Y-3663859D01*
X1499575Y-3663716D01*
X1489871Y-3663517D01*
X1481832Y-3663264D01*
X1475857Y-3662954D01*
X1472350Y-3662590D01*
X1461495Y-3659312D01*
X1450464Y-3653290D01*
X1440036Y-3644842D01*
X1430488Y-3634190D01*
X1422095Y-3621563D01*
X1421115Y-3619619D01*
X1418953Y-3615004D01*
X1415747Y-3607981D01*
X1411548Y-3598670D01*
X1406410Y-3587192D01*
X1400386Y-3573666D01*
X1393531Y-3558214D01*
X1385896Y-3540954D01*
X1377535Y-3522008D01*
X1368500Y-3501497D01*
X1358845Y-3479539D01*
X1348624Y-3456256D01*
X1337887Y-3431769D01*
X1326690Y-3406196D01*
X1315083Y-3379660D01*
X1303123Y-3352280D01*
X1290860Y-3324176D01*
X1278348Y-3295469D01*
X1141808Y-2982015D01*
X1141829Y-2901001D01*
X1141833Y-2891294D01*
X1141855Y-2874203D01*
X1141912Y-2859607D01*
X1142026Y-2847259D01*
X1142216Y-2836911D01*
X1142503Y-2828313D01*
X1142909Y-2821220D01*
X1143453Y-2815384D01*
X1144155Y-2810556D01*
X1145037Y-2806488D01*
X1146118Y-2802933D01*
X1147420Y-2799643D01*
X1148962Y-2796370D01*
X1150765Y-2792867D01*
X1152447Y-2789903D01*
X1159159Y-2780676D01*
X1167578Y-2771861D01*
X1176889Y-2764243D01*
X1186276Y-2758612D01*
X1195221Y-2754965D01*
X1209338Y-2751549D01*
X1223520Y-2750721D01*
X1237457Y-2752350D01*
G37*
G36*
X-5422892Y-2406389D02*
G01*
X-5397767Y-2406455D01*
X-5267952Y-2406871D01*
X-5258627Y-2410190D01*
X-5250655Y-2413503D01*
X-5237803Y-2421228D01*
X-5226550Y-2431331D01*
X-5216920Y-2443792D01*
X-5211855Y-2452749D01*
X-5208052Y-2462794D01*
X-5205937Y-2473760D01*
X-5205283Y-2486482D01*
X-5205762Y-2496730D01*
X-5208317Y-2510572D01*
X-5213203Y-2523003D01*
X-5220564Y-2534354D01*
X-5230542Y-2544955D01*
X-5233897Y-2547923D01*
X-5241928Y-2554045D01*
X-5250236Y-2558732D01*
X-5260062Y-2562729D01*
X-5260818Y-2562996D01*
X-5262741Y-2563642D01*
X-5264695Y-2564192D01*
X-5266915Y-2564654D01*
X-5269637Y-2565037D01*
X-5273099Y-2565353D01*
X-5277538Y-2565608D01*
X-5283189Y-2565814D01*
X-5290290Y-2565979D01*
X-5299075Y-2566113D01*
X-5309784Y-2566225D01*
X-5322651Y-2566324D01*
X-5337915Y-2566420D01*
X-5355810Y-2566523D01*
X-5442235Y-2567009D01*
X-5442235Y-3034532D01*
X-5442235Y-3502058D01*
X-5360735Y-3502058D01*
X-5349729Y-3502067D01*
X-5331284Y-3502127D01*
X-5315039Y-3502245D01*
X-5301107Y-3502415D01*
X-5289599Y-3502638D01*
X-5280624Y-3502912D01*
X-5274296Y-3503233D01*
X-5270725Y-3503601D01*
X-5264531Y-3505058D01*
X-5252069Y-3510008D01*
X-5240375Y-3517262D01*
X-5229849Y-3526444D01*
X-5220887Y-3537178D01*
X-5213887Y-3549086D01*
X-5209247Y-3561794D01*
X-5208686Y-3564259D01*
X-5207423Y-3573710D01*
X-5207083Y-3584161D01*
X-5207668Y-3594374D01*
X-5209180Y-3603111D01*
X-5210219Y-3606710D01*
X-5215690Y-3619702D01*
X-5223391Y-3631666D01*
X-5232946Y-3642239D01*
X-5243990Y-3651058D01*
X-5256153Y-3657760D01*
X-5269064Y-3661982D01*
X-5269558Y-3662062D01*
X-5273055Y-3662330D01*
X-5279184Y-3662580D01*
X-5287762Y-3662814D01*
X-5298606Y-3663029D01*
X-5311532Y-3663228D01*
X-5326358Y-3663408D01*
X-5342900Y-3663570D01*
X-5360974Y-3663716D01*
X-5380398Y-3663843D01*
X-5400987Y-3663953D01*
X-5422560Y-3664045D01*
X-5444931Y-3664119D01*
X-5467919Y-3664175D01*
X-5491340Y-3664213D01*
X-5515009Y-3664233D01*
X-5538745Y-3664236D01*
X-5562365Y-3664220D01*
X-5585683Y-3664186D01*
X-5608517Y-3664134D01*
X-5630684Y-3664064D01*
X-5652001Y-3663976D01*
X-5672284Y-3663870D01*
X-5691350Y-3663745D01*
X-5709017Y-3663602D01*
X-5725099Y-3663440D01*
X-5739413Y-3663261D01*
X-5751779Y-3663063D01*
X-5762009Y-3662846D01*
X-5769923Y-3662612D01*
X-5775337Y-3662358D01*
X-5778067Y-3662086D01*
X-5784442Y-3660460D01*
X-5795765Y-3655897D01*
X-5806295Y-3649171D01*
X-5816622Y-3639941D01*
X-5826037Y-3628660D01*
X-5833489Y-3615789D01*
X-5838429Y-3602142D01*
X-5840806Y-3588025D01*
X-5840570Y-3573747D01*
X-5837669Y-3559617D01*
X-5832054Y-3545942D01*
X-5831377Y-3544706D01*
X-5826344Y-3537338D01*
X-5819640Y-3529533D01*
X-5812007Y-3522031D01*
X-5804188Y-3515575D01*
X-5796927Y-3510906D01*
X-5794925Y-3509869D01*
X-5791629Y-3508261D01*
X-5788370Y-3506892D01*
X-5784907Y-3505743D01*
X-5780997Y-3504794D01*
X-5776397Y-3504025D01*
X-5770866Y-3503418D01*
X-5764162Y-3502954D01*
X-5756042Y-3502614D01*
X-5746264Y-3502376D01*
X-5734587Y-3502223D01*
X-5720766Y-3502137D01*
X-5704561Y-3502097D01*
X-5685730Y-3502083D01*
X-5602892Y-3502058D01*
X-5602870Y-2989609D01*
X-5602869Y-2960886D01*
X-5602871Y-2916558D01*
X-5602872Y-2874957D01*
X-5602874Y-2835992D01*
X-5602874Y-2799574D01*
X-5602871Y-2765617D01*
X-5602862Y-2734029D01*
X-5602848Y-2704723D01*
X-5602826Y-2677610D01*
X-5602795Y-2652602D01*
X-5602753Y-2629609D01*
X-5602701Y-2608543D01*
X-5602634Y-2589314D01*
X-5602553Y-2571835D01*
X-5602455Y-2556017D01*
X-5602340Y-2541769D01*
X-5602206Y-2529006D01*
X-5602050Y-2517637D01*
X-5601874Y-2507573D01*
X-5601674Y-2498725D01*
X-5601448Y-2491007D01*
X-5601196Y-2484327D01*
X-5600917Y-2478598D01*
X-5600609Y-2473730D01*
X-5600270Y-2469637D01*
X-5599898Y-2466226D01*
X-5599494Y-2463413D01*
X-5599054Y-2461106D01*
X-5598578Y-2459217D01*
X-5598064Y-2457658D01*
X-5597510Y-2456338D01*
X-5596915Y-2455171D01*
X-5596280Y-2454068D01*
X-5595600Y-2452938D01*
X-5594875Y-2451695D01*
X-5594103Y-2450247D01*
X-5589854Y-2443313D01*
X-5582986Y-2434844D01*
X-5574800Y-2426724D01*
X-5566040Y-2419677D01*
X-5557448Y-2414432D01*
X-5551544Y-2411860D01*
X-5544048Y-2409294D01*
X-5537366Y-2407678D01*
X-5536302Y-2407535D01*
X-5532528Y-2407242D01*
X-5526779Y-2406992D01*
X-5518955Y-2406784D01*
X-5508957Y-2406619D01*
X-5496688Y-2406495D01*
X-5482046Y-2406410D01*
X-5464931Y-2406366D01*
X-5445247Y-2406358D01*
X-5422892Y-2406389D01*
G37*
G36*
X-948022Y-2750186D02*
G01*
X-926985Y-2750219D01*
X-906221Y-2750279D01*
X-885943Y-2750364D01*
X-866358Y-2750475D01*
X-847677Y-2750613D01*
X-830110Y-2750776D01*
X-813867Y-2750964D01*
X-799155Y-2751179D01*
X-786187Y-2751418D01*
X-775171Y-2751684D01*
X-766315Y-2751976D01*
X-759832Y-2752292D01*
X-755931Y-2752634D01*
X-742992Y-2754828D01*
X-720775Y-2760571D01*
X-699265Y-2768787D01*
X-678147Y-2779606D01*
X-657109Y-2793155D01*
X-654454Y-2795161D01*
X-649431Y-2799192D01*
X-642676Y-2804766D01*
X-634417Y-2811687D01*
X-624881Y-2819758D01*
X-614297Y-2828778D01*
X-602892Y-2838551D01*
X-590895Y-2848880D01*
X-578532Y-2859566D01*
X-566034Y-2870412D01*
X-553627Y-2881218D01*
X-541538Y-2891788D01*
X-529997Y-2901925D01*
X-519232Y-2911428D01*
X-509469Y-2920102D01*
X-500939Y-2927748D01*
X-493866Y-2934168D01*
X-488481Y-2939164D01*
X-485011Y-2942539D01*
X-479235Y-2948631D01*
X-463048Y-2967959D01*
X-449529Y-2987981D01*
X-438537Y-3008944D01*
X-429938Y-3031098D01*
X-423594Y-3054695D01*
X-423450Y-3055378D01*
X-423026Y-3057622D01*
X-422654Y-3060112D01*
X-422330Y-3063035D01*
X-422051Y-3066579D01*
X-421813Y-3070931D01*
X-421615Y-3076278D01*
X-421451Y-3082809D01*
X-421319Y-3090709D01*
X-421215Y-3100166D01*
X-421137Y-3111369D01*
X-421080Y-3124503D01*
X-421042Y-3139758D01*
X-421019Y-3157319D01*
X-421007Y-3177374D01*
X-421005Y-3200110D01*
X-421005Y-3205087D01*
X-421007Y-3227931D01*
X-421021Y-3248144D01*
X-421054Y-3265929D01*
X-421114Y-3281484D01*
X-421210Y-3295009D01*
X-421350Y-3306701D01*
X-421544Y-3316763D01*
X-421799Y-3325392D01*
X-422124Y-3332789D01*
X-422526Y-3339153D01*
X-423015Y-3344684D01*
X-423599Y-3349579D01*
X-424286Y-3354040D01*
X-425085Y-3358266D01*
X-426003Y-3362455D01*
X-427051Y-3366808D01*
X-428235Y-3371525D01*
X-435222Y-3393810D01*
X-444729Y-3414995D01*
X-456727Y-3434824D01*
X-471274Y-3453393D01*
X-488422Y-3470793D01*
X-490056Y-3472271D01*
X-494641Y-3476376D01*
X-500943Y-3481977D01*
X-508734Y-3488877D01*
X-517786Y-3496873D01*
X-527872Y-3505767D01*
X-538764Y-3515360D01*
X-550235Y-3525451D01*
X-562058Y-3535841D01*
X-574004Y-3546329D01*
X-585846Y-3556718D01*
X-597358Y-3566806D01*
X-608311Y-3576394D01*
X-618477Y-3585281D01*
X-627629Y-3593269D01*
X-635541Y-3600159D01*
X-641984Y-3605749D01*
X-646731Y-3609840D01*
X-649554Y-3612234D01*
X-656229Y-3617551D01*
X-676976Y-3631659D01*
X-699062Y-3643248D01*
X-722396Y-3652282D01*
X-746886Y-3658723D01*
X-772440Y-3662533D01*
X-774905Y-3662667D01*
X-780280Y-3662822D01*
X-788172Y-3662971D01*
X-798392Y-3663115D01*
X-810752Y-3663252D01*
X-825060Y-3663381D01*
X-841131Y-3663500D01*
X-858772Y-3663607D01*
X-877796Y-3663702D01*
X-898013Y-3663784D01*
X-919236Y-3663850D01*
X-941273Y-3663899D01*
X-963937Y-3663930D01*
X-980756Y-3663947D01*
X-1006218Y-3663971D01*
X-1029061Y-3663987D01*
X-1049444Y-3663988D01*
X-1067520Y-3663966D01*
X-1083449Y-3663916D01*
X-1097383Y-3663832D01*
X-1109481Y-3663708D01*
X-1119898Y-3663536D01*
X-1128791Y-3663310D01*
X-1136316Y-3663025D01*
X-1142628Y-3662672D01*
X-1147885Y-3662247D01*
X-1152242Y-3661744D01*
X-1155856Y-3661153D01*
X-1158882Y-3660471D01*
X-1161477Y-3659691D01*
X-1163797Y-3658806D01*
X-1165999Y-3657809D01*
X-1168238Y-3656695D01*
X-1170671Y-3655456D01*
X-1170701Y-3655440D01*
X-1181509Y-3648519D01*
X-1191456Y-3639353D01*
X-1200069Y-3628535D01*
X-1206872Y-3616662D01*
X-1211392Y-3604329D01*
X-1212223Y-3600397D01*
X-1213229Y-3591235D01*
X-1213414Y-3581156D01*
X-1212782Y-3571367D01*
X-1211332Y-3563082D01*
X-1208590Y-3554742D01*
X-1202123Y-3542166D01*
X-1193354Y-3530795D01*
X-1182576Y-3520927D01*
X-1170077Y-3512859D01*
X-1156152Y-3506887D01*
X-1155937Y-3506817D01*
X-1154624Y-3506438D01*
X-1153060Y-3506096D01*
X-1151092Y-3505789D01*
X-1148563Y-3505515D01*
X-1145323Y-3505270D01*
X-1141215Y-3505051D01*
X-1136085Y-3504858D01*
X-1129781Y-3504683D01*
X-1122148Y-3504528D01*
X-1113033Y-3504388D01*
X-1102280Y-3504261D01*
X-1089736Y-3504144D01*
X-1075247Y-3504033D01*
X-1058660Y-3503928D01*
X-1039819Y-3503823D01*
X-1018572Y-3503718D01*
X-994764Y-3503608D01*
X-968240Y-3503492D01*
X-947451Y-3503401D01*
X-922975Y-3503288D01*
X-901095Y-3503180D01*
X-881657Y-3503073D01*
X-864507Y-3502965D01*
X-849492Y-3502852D01*
X-836458Y-3502733D01*
X-825250Y-3502604D01*
X-815716Y-3502464D01*
X-807699Y-3502308D01*
X-801049Y-3502134D01*
X-795609Y-3501941D01*
X-791226Y-3501725D01*
X-787748Y-3501483D01*
X-785019Y-3501213D01*
X-782886Y-3500912D01*
X-781194Y-3500577D01*
X-779790Y-3500206D01*
X-778095Y-3499695D01*
X-774344Y-3498488D01*
X-770773Y-3497162D01*
X-767203Y-3495582D01*
X-763452Y-3493613D01*
X-759338Y-3491119D01*
X-754683Y-3487966D01*
X-749304Y-3484018D01*
X-743021Y-3479140D01*
X-735653Y-3473197D01*
X-727019Y-3466053D01*
X-716939Y-3457574D01*
X-705230Y-3447624D01*
X-691713Y-3436068D01*
X-676208Y-3422771D01*
X-670837Y-3418161D01*
X-655906Y-3405324D01*
X-642952Y-3394142D01*
X-631822Y-3384459D01*
X-622356Y-3376122D01*
X-614400Y-3368978D01*
X-607796Y-3362873D01*
X-602390Y-3357651D01*
X-598025Y-3353162D01*
X-594542Y-3349250D01*
X-591787Y-3345761D01*
X-589605Y-3342542D01*
X-587837Y-3339439D01*
X-586328Y-3336298D01*
X-584921Y-3332966D01*
X-581660Y-3324906D01*
X-581260Y-3214207D01*
X-581242Y-3209315D01*
X-581169Y-3188334D01*
X-581120Y-3169969D01*
X-581111Y-3154012D01*
X-581154Y-3140253D01*
X-581263Y-3128488D01*
X-581453Y-3118504D01*
X-581739Y-3110097D01*
X-582131Y-3103057D01*
X-582647Y-3097177D01*
X-583299Y-3092247D01*
X-584102Y-3088061D01*
X-585069Y-3084410D01*
X-586214Y-3081085D01*
X-587552Y-3077879D01*
X-589095Y-3074584D01*
X-590859Y-3070992D01*
X-591286Y-3070136D01*
X-595494Y-3062749D01*
X-600457Y-3056166D01*
X-607024Y-3049246D01*
X-609330Y-3047053D01*
X-614378Y-3042434D01*
X-621034Y-3036484D01*
X-629064Y-3029404D01*
X-638232Y-3021395D01*
X-648300Y-3012657D01*
X-659036Y-3003393D01*
X-670202Y-2993804D01*
X-681562Y-2984088D01*
X-692880Y-2974449D01*
X-703923Y-2965086D01*
X-714452Y-2956201D01*
X-724233Y-2947996D01*
X-733030Y-2940670D01*
X-740608Y-2934426D01*
X-746730Y-2929463D01*
X-751161Y-2925985D01*
X-753666Y-2924189D01*
X-757608Y-2921940D01*
X-764302Y-2918488D01*
X-770606Y-2915586D01*
X-779612Y-2911791D01*
X-965371Y-2911030D01*
X-979387Y-2910972D01*
X-1004947Y-2910864D01*
X-1027867Y-2910760D01*
X-1048298Y-2910659D01*
X-1066391Y-2910559D01*
X-1082297Y-2910454D01*
X-1096169Y-2910345D01*
X-1108157Y-2910227D01*
X-1118413Y-2910100D01*
X-1127088Y-2909958D01*
X-1134334Y-2909801D01*
X-1140303Y-2909624D01*
X-1145144Y-2909427D01*
X-1149012Y-2909205D01*
X-1152055Y-2908957D01*
X-1154425Y-2908679D01*
X-1156276Y-2908369D01*
X-1157756Y-2908026D01*
X-1159020Y-2907644D01*
X-1163508Y-2906026D01*
X-1177417Y-2899187D01*
X-1189486Y-2890291D01*
X-1199545Y-2879508D01*
X-1207422Y-2867013D01*
X-1212947Y-2852980D01*
X-1214230Y-2847193D01*
X-1215273Y-2837476D01*
X-1215402Y-2827031D01*
X-1214619Y-2817008D01*
X-1212925Y-2808555D01*
X-1209257Y-2798440D01*
X-1202047Y-2785259D01*
X-1192732Y-2773898D01*
X-1181497Y-2764536D01*
X-1168525Y-2757345D01*
X-1153999Y-2752501D01*
X-1151137Y-2752163D01*
X-1145604Y-2751850D01*
X-1137621Y-2751565D01*
X-1127396Y-2751306D01*
X-1115141Y-2751074D01*
X-1101063Y-2750869D01*
X-1085374Y-2750691D01*
X-1068282Y-2750540D01*
X-1049998Y-2750415D01*
X-1030730Y-2750316D01*
X-1010689Y-2750244D01*
X-990085Y-2750198D01*
X-969125Y-2750179D01*
X-948022Y-2750186D01*
G37*
G36*
X-3243650Y-2750587D02*
G01*
X-3219831Y-2750632D01*
X-3193451Y-2750696D01*
X-3164357Y-2750774D01*
X-3151540Y-2750810D01*
X-3124704Y-2750888D01*
X-3100523Y-2750966D01*
X-3078848Y-2751045D01*
X-3059530Y-2751127D01*
X-3042422Y-2751214D01*
X-3027374Y-2751310D01*
X-3014238Y-2751413D01*
X-3002866Y-2751530D01*
X-2993110Y-2751659D01*
X-2984820Y-2751805D01*
X-2977848Y-2751969D01*
X-2972047Y-2752153D01*
X-2967267Y-2752359D01*
X-2963360Y-2752591D01*
X-2960178Y-2752848D01*
X-2957572Y-2753135D01*
X-2955394Y-2753452D01*
X-2953495Y-2753802D01*
X-2952633Y-2753980D01*
X-2936030Y-2758292D01*
X-2919089Y-2764217D01*
X-2903289Y-2771240D01*
X-2899797Y-2773049D01*
X-2881775Y-2784132D01*
X-2864490Y-2797638D01*
X-2848287Y-2813212D01*
X-2833509Y-2830495D01*
X-2820499Y-2849129D01*
X-2809602Y-2868758D01*
X-2802536Y-2885376D01*
X-2795923Y-2906934D01*
X-2791569Y-2929415D01*
X-2789546Y-2952276D01*
X-2789926Y-2974964D01*
X-2792780Y-2996933D01*
X-2794486Y-3004428D01*
X-2798899Y-3018710D01*
X-2804839Y-3033823D01*
X-2811970Y-3049019D01*
X-2819960Y-3063548D01*
X-2828474Y-3076665D01*
X-2839181Y-3090197D01*
X-2854550Y-3105966D01*
X-2872096Y-3120581D01*
X-2891471Y-3133725D01*
X-2893878Y-3135002D01*
X-2898790Y-3137416D01*
X-2906031Y-3140881D01*
X-2915457Y-3145331D01*
X-2926923Y-3150700D01*
X-2940285Y-3156920D01*
X-2955399Y-3163926D01*
X-2972121Y-3171649D01*
X-2990305Y-3180024D01*
X-3009810Y-3188984D01*
X-3030490Y-3198463D01*
X-3052200Y-3208395D01*
X-3074797Y-3218710D01*
X-3098136Y-3229344D01*
X-3122072Y-3240231D01*
X-3145747Y-3250995D01*
X-3169032Y-3261597D01*
X-3191555Y-3271866D01*
X-3213176Y-3281737D01*
X-3233751Y-3291145D01*
X-3253138Y-3300025D01*
X-3271194Y-3308309D01*
X-3287777Y-3315934D01*
X-3302744Y-3322834D01*
X-3315953Y-3328942D01*
X-3327262Y-3334195D01*
X-3336527Y-3338525D01*
X-3343606Y-3341868D01*
X-3348357Y-3344157D01*
X-3350637Y-3345330D01*
X-3353285Y-3346961D01*
X-3365183Y-3356176D01*
X-3375022Y-3367149D01*
X-3382584Y-3379588D01*
X-3387640Y-3393203D01*
X-3388244Y-3395717D01*
X-3389870Y-3407470D01*
X-3390033Y-3420245D01*
X-3388767Y-3432895D01*
X-3386105Y-3444271D01*
X-3385536Y-3445974D01*
X-3379572Y-3459495D01*
X-3371613Y-3471771D01*
X-3361989Y-3482482D01*
X-3351033Y-3491308D01*
X-3339075Y-3497925D01*
X-3326447Y-3502015D01*
X-3325086Y-3502213D01*
X-3321822Y-3502463D01*
X-3316883Y-3502680D01*
X-3310160Y-3502864D01*
X-3301542Y-3503018D01*
X-3290923Y-3503141D01*
X-3278195Y-3503233D01*
X-3263248Y-3503297D01*
X-3245975Y-3503332D01*
X-3226266Y-3503339D01*
X-3204015Y-3503321D01*
X-3179111Y-3503274D01*
X-3151447Y-3503203D01*
X-2984335Y-3502722D01*
X-2972143Y-3499411D01*
X-2966601Y-3497791D01*
X-2948718Y-3490798D01*
X-2932461Y-3481500D01*
X-2917634Y-3469793D01*
X-2907490Y-3460915D01*
X-2896194Y-3452185D01*
X-2885733Y-3445566D01*
X-2875749Y-3440866D01*
X-2865892Y-3437895D01*
X-2855805Y-3436462D01*
X-2847469Y-3436331D01*
X-2833164Y-3438241D01*
X-2819543Y-3442706D01*
X-2806938Y-3449525D01*
X-2795683Y-3458505D01*
X-2786112Y-3469446D01*
X-2778559Y-3482151D01*
X-2774257Y-3492941D01*
X-2771155Y-3507017D01*
X-2770916Y-3521052D01*
X-2773542Y-3535049D01*
X-2779033Y-3549009D01*
X-2787391Y-3562936D01*
X-2798616Y-3576833D01*
X-2812708Y-3590702D01*
X-2819870Y-3596909D01*
X-2842739Y-3614450D01*
X-2866581Y-3629422D01*
X-2891276Y-3641770D01*
X-2916704Y-3651441D01*
X-2942743Y-3658376D01*
X-2969273Y-3662522D01*
X-2971027Y-3662643D01*
X-2976044Y-3662827D01*
X-2983567Y-3662997D01*
X-2993372Y-3663152D01*
X-3005237Y-3663294D01*
X-3018936Y-3663421D01*
X-3034246Y-3663533D01*
X-3050944Y-3663631D01*
X-3068806Y-3663715D01*
X-3087609Y-3663783D01*
X-3107128Y-3663836D01*
X-3127139Y-3663873D01*
X-3147419Y-3663896D01*
X-3167746Y-3663903D01*
X-3187893Y-3663895D01*
X-3207639Y-3663870D01*
X-3226758Y-3663830D01*
X-3245029Y-3663774D01*
X-3262226Y-3663702D01*
X-3278126Y-3663614D01*
X-3292505Y-3663509D01*
X-3305140Y-3663388D01*
X-3315806Y-3663250D01*
X-3324281Y-3663095D01*
X-3330339Y-3662924D01*
X-3333760Y-3662736D01*
X-3345332Y-3661326D01*
X-3368623Y-3656620D01*
X-3390951Y-3649459D01*
X-3412486Y-3639758D01*
X-3433395Y-3627438D01*
X-3453848Y-3612414D01*
X-3474013Y-3594607D01*
X-3478160Y-3590549D01*
X-3495668Y-3571134D01*
X-3510645Y-3550422D01*
X-3523126Y-3528348D01*
X-3533143Y-3504846D01*
X-3540731Y-3479848D01*
X-3545923Y-3453287D01*
X-3546661Y-3446498D01*
X-3547226Y-3436429D01*
X-3547459Y-3424960D01*
X-3547367Y-3412880D01*
X-3546955Y-3400976D01*
X-3546234Y-3390036D01*
X-3545210Y-3380849D01*
X-3544601Y-3376868D01*
X-3539028Y-3350750D01*
X-3530891Y-3325853D01*
X-3520158Y-3302116D01*
X-3506799Y-3279482D01*
X-3490786Y-3257891D01*
X-3472087Y-3237283D01*
X-3461155Y-3226840D01*
X-3444600Y-3213123D01*
X-3427603Y-3201618D01*
X-3409644Y-3191950D01*
X-3408895Y-3191599D01*
X-3405224Y-3189918D01*
X-3399148Y-3187162D01*
X-3390814Y-3183400D01*
X-3380377Y-3178700D01*
X-3367989Y-3173129D01*
X-3353802Y-3166756D01*
X-3337967Y-3159650D01*
X-3320636Y-3151878D01*
X-3301961Y-3143509D01*
X-3282096Y-3134611D01*
X-3261191Y-3125253D01*
X-3239400Y-3115501D01*
X-3216872Y-3105426D01*
X-3193762Y-3095094D01*
X-3184100Y-3090775D01*
X-3161285Y-3080572D01*
X-3139149Y-3070668D01*
X-3117842Y-3061130D01*
X-3097513Y-3052026D01*
X-3078311Y-3043421D01*
X-3060386Y-3035382D01*
X-3043886Y-3027978D01*
X-3028962Y-3021274D01*
X-3015761Y-3015338D01*
X-3004434Y-3010237D01*
X-2995130Y-3006037D01*
X-2987997Y-3002807D01*
X-2983186Y-3000611D01*
X-2980844Y-2999520D01*
X-2973619Y-2995273D01*
X-2965359Y-2988664D01*
X-2958408Y-2981156D01*
X-2953523Y-2973472D01*
X-2952798Y-2971887D01*
X-2951149Y-2967120D01*
X-2950306Y-2961817D01*
X-2950055Y-2954823D01*
X-2950055Y-2954226D01*
X-2950299Y-2947833D01*
X-2950898Y-2941862D01*
X-2951735Y-2937534D01*
X-2952954Y-2934318D01*
X-2957483Y-2927209D01*
X-2963978Y-2920820D01*
X-2971822Y-2915822D01*
X-2980032Y-2911791D01*
X-3174727Y-2911407D01*
X-3179702Y-2911398D01*
X-3206756Y-2911344D01*
X-3231116Y-2911300D01*
X-3252929Y-2911265D01*
X-3272346Y-2911242D01*
X-3289515Y-2911232D01*
X-3304584Y-2911239D01*
X-3317703Y-2911263D01*
X-3329019Y-2911306D01*
X-3338683Y-2911371D01*
X-3346842Y-2911458D01*
X-3353646Y-2911571D01*
X-3359243Y-2911711D01*
X-3363781Y-2911881D01*
X-3367410Y-2912082D01*
X-3370278Y-2912315D01*
X-3372535Y-2912584D01*
X-3374329Y-2912888D01*
X-3375808Y-2913232D01*
X-3377120Y-2913616D01*
X-3378416Y-2914044D01*
X-3379819Y-2914528D01*
X-3387550Y-2917729D01*
X-3395060Y-2921889D01*
X-3402833Y-2927341D01*
X-3411356Y-2934419D01*
X-3421113Y-2943459D01*
X-3424123Y-2946315D01*
X-3430540Y-2952178D01*
X-3436649Y-2957488D01*
X-3441876Y-2961753D01*
X-3445650Y-2964481D01*
X-3456295Y-2970350D01*
X-3470546Y-2975664D01*
X-3484795Y-2978128D01*
X-3498940Y-2977748D01*
X-3512880Y-2974528D01*
X-3526514Y-2968474D01*
X-3539742Y-2959592D01*
X-3543883Y-2956071D01*
X-3553379Y-2945537D01*
X-3560428Y-2933526D01*
X-3564995Y-2920103D01*
X-3567047Y-2905336D01*
X-3567149Y-2902427D01*
X-3566267Y-2888548D01*
X-3563039Y-2875004D01*
X-3557371Y-2861611D01*
X-3549172Y-2848182D01*
X-3538350Y-2834533D01*
X-3524812Y-2820480D01*
X-3520076Y-2816041D01*
X-3499428Y-2798921D01*
X-3477636Y-2784290D01*
X-3454850Y-2772231D01*
X-3431219Y-2762825D01*
X-3406894Y-2756154D01*
X-3405801Y-2755920D01*
X-3401981Y-2755133D01*
X-3398216Y-2754422D01*
X-3394351Y-2753784D01*
X-3390234Y-2753215D01*
X-3385708Y-2752712D01*
X-3380623Y-2752272D01*
X-3374823Y-2751891D01*
X-3368153Y-2751566D01*
X-3360461Y-2751293D01*
X-3351593Y-2751069D01*
X-3341394Y-2750891D01*
X-3329710Y-2750755D01*
X-3316390Y-2750658D01*
X-3301277Y-2750596D01*
X-3284218Y-2750565D01*
X-3265061Y-2750564D01*
X-3243650Y-2750587D01*
G37*
G36*
X3114151Y-3177601D02*
G01*
X3114152Y-3204893D01*
X3114150Y-3217575D01*
X3114129Y-3248256D01*
X3114084Y-3276319D01*
X3114016Y-3301738D01*
X3113924Y-3324488D01*
X3113810Y-3344546D01*
X3113672Y-3361884D01*
X3113511Y-3376479D01*
X3113329Y-3388306D01*
X3113122Y-3397339D01*
X3112895Y-3403553D01*
X3112646Y-3406924D01*
X3109770Y-3422623D01*
X3104489Y-3441718D01*
X3097402Y-3461043D01*
X3088795Y-3479983D01*
X3078949Y-3497925D01*
X3068150Y-3514254D01*
X3056679Y-3528355D01*
X3054369Y-3530739D01*
X3049628Y-3535339D01*
X3043278Y-3541304D01*
X3035630Y-3548356D01*
X3026993Y-3556220D01*
X3017677Y-3564622D01*
X3007991Y-3573284D01*
X2998246Y-3581932D01*
X2988750Y-3590289D01*
X2979816Y-3598080D01*
X2971751Y-3605028D01*
X2964865Y-3610860D01*
X2959469Y-3615299D01*
X2955873Y-3618067D01*
X2951214Y-3621131D01*
X2942610Y-3626087D01*
X2932350Y-3631412D01*
X2921068Y-3636806D01*
X2909399Y-3641968D01*
X2897978Y-3646600D01*
X2887438Y-3650400D01*
X2874751Y-3654390D01*
X2860737Y-3658099D01*
X2847391Y-3660751D01*
X2833721Y-3662570D01*
X2833453Y-3662594D01*
X2830241Y-3662732D01*
X2824357Y-3662868D01*
X2815966Y-3663001D01*
X2805239Y-3663128D01*
X2792344Y-3663250D01*
X2777447Y-3663366D01*
X2760716Y-3663474D01*
X2742320Y-3663575D01*
X2722426Y-3663665D01*
X2701202Y-3663744D01*
X2678816Y-3663812D01*
X2655435Y-3663868D01*
X2631229Y-3663910D01*
X2606363Y-3663937D01*
X2604914Y-3663938D01*
X2575288Y-3663964D01*
X2548382Y-3663988D01*
X2524058Y-3664006D01*
X2502173Y-3664011D01*
X2482585Y-3663998D01*
X2465154Y-3663962D01*
X2449740Y-3663898D01*
X2436202Y-3663800D01*
X2424397Y-3663662D01*
X2414184Y-3663480D01*
X2405425Y-3663247D01*
X2397976Y-3662960D01*
X2391697Y-3662611D01*
X2386448Y-3662196D01*
X2382086Y-3661709D01*
X2378471Y-3661145D01*
X2375463Y-3660498D01*
X2372919Y-3659764D01*
X2370699Y-3658935D01*
X2368661Y-3658010D01*
X2366666Y-3656979D01*
X2364572Y-3655838D01*
X2362238Y-3654583D01*
X2357410Y-3651714D01*
X2348908Y-3645306D01*
X2340729Y-3637638D01*
X2333654Y-3629474D01*
X2328470Y-3621585D01*
X2323417Y-3610033D01*
X2319821Y-3595865D01*
X2318790Y-3581512D01*
X2320310Y-3567363D01*
X2324370Y-3553812D01*
X2330955Y-3541249D01*
X2339526Y-3530449D01*
X2349975Y-3521020D01*
X2361711Y-3513395D01*
X2374197Y-3507921D01*
X2386896Y-3504949D01*
X2387198Y-3504916D01*
X2390555Y-3504738D01*
X2396629Y-3504568D01*
X2405289Y-3504408D01*
X2416406Y-3504257D01*
X2429851Y-3504119D01*
X2445494Y-3503992D01*
X2463204Y-3503878D01*
X2482854Y-3503779D01*
X2504312Y-3503693D01*
X2527451Y-3503623D01*
X2552139Y-3503570D01*
X2578248Y-3503534D01*
X2605646Y-3503515D01*
X2616650Y-3503513D01*
X2644728Y-3503506D01*
X2670136Y-3503498D01*
X2693018Y-3503484D01*
X2713520Y-3503458D01*
X2731786Y-3503416D01*
X2747962Y-3503350D01*
X2762191Y-3503259D01*
X2774621Y-3503134D01*
X2785394Y-3502971D01*
X2794658Y-3502766D01*
X2802555Y-3502512D01*
X2809233Y-3502205D01*
X2814833Y-3501838D01*
X2819505Y-3501409D01*
X2823391Y-3500910D01*
X2826635Y-3500336D01*
X2829385Y-3499684D01*
X2831785Y-3498946D01*
X2833979Y-3498119D01*
X2836111Y-3497196D01*
X2838329Y-3496172D01*
X2840777Y-3495043D01*
X2841155Y-3494871D01*
X2847426Y-3491796D01*
X2853717Y-3488235D01*
X2860374Y-3483942D01*
X2867741Y-3478671D01*
X2876162Y-3472173D01*
X2885985Y-3464205D01*
X2897553Y-3454520D01*
X2899694Y-3452706D01*
X2909997Y-3443886D01*
X2918382Y-3436506D01*
X2925123Y-3430275D01*
X2930500Y-3424907D01*
X2934789Y-3420109D01*
X2938269Y-3415596D01*
X2941216Y-3411078D01*
X2943908Y-3406264D01*
X2944098Y-3405903D01*
X2947103Y-3399719D01*
X2949405Y-3393781D01*
X2951096Y-3387571D01*
X2952260Y-3380572D01*
X2952986Y-3372264D01*
X2953363Y-3362130D01*
X2953475Y-3349650D01*
X2953495Y-3321320D01*
X2670983Y-3321320D01*
X2647523Y-3321318D01*
X2612163Y-3321305D01*
X2579576Y-3321280D01*
X2549700Y-3321243D01*
X2522476Y-3321194D01*
X2497843Y-3321132D01*
X2475742Y-3321057D01*
X2456113Y-3320968D01*
X2438895Y-3320866D01*
X2424030Y-3320748D01*
X2411456Y-3320618D01*
X2401114Y-3320472D01*
X2392945Y-3320311D01*
X2386888Y-3320135D01*
X2382883Y-3319943D01*
X2380870Y-3319734D01*
X2378642Y-3319224D01*
X2366433Y-3314808D01*
X2354755Y-3307996D01*
X2344039Y-3299192D01*
X2334716Y-3288794D01*
X2327217Y-3277207D01*
X2321972Y-3264832D01*
X2318760Y-3254618D01*
X2318760Y-3159229D01*
X2474082Y-3159229D01*
X2713148Y-3159229D01*
X2952214Y-3159229D01*
X2951737Y-3090018D01*
X2951656Y-3078593D01*
X2951547Y-3064539D01*
X2951432Y-3052898D01*
X2951300Y-3043399D01*
X2951136Y-3035776D01*
X2950929Y-3029758D01*
X2950667Y-3025077D01*
X2950335Y-3021463D01*
X2949922Y-3018649D01*
X2949415Y-3016366D01*
X2948802Y-3014344D01*
X2948068Y-3012316D01*
X2946564Y-3008446D01*
X2944509Y-3003771D01*
X2942201Y-2999474D01*
X2939395Y-2995278D01*
X2935841Y-2990911D01*
X2931296Y-2986100D01*
X2925512Y-2980569D01*
X2918244Y-2974047D01*
X2909245Y-2966258D01*
X2898270Y-2956930D01*
X2892079Y-2951721D01*
X2881764Y-2943231D01*
X2873003Y-2936344D01*
X2865443Y-2930819D01*
X2858734Y-2926421D01*
X2852526Y-2922911D01*
X2846463Y-2920050D01*
X2840199Y-2917600D01*
X2827984Y-2913225D01*
X2712511Y-2913225D01*
X2597039Y-2913225D01*
X2586079Y-2917673D01*
X2581280Y-2919748D01*
X2574542Y-2923156D01*
X2567616Y-2927320D01*
X2560136Y-2932496D01*
X2551735Y-2938940D01*
X2542049Y-2946912D01*
X2530713Y-2956668D01*
X2522732Y-2963679D01*
X2512690Y-2972683D01*
X2504478Y-2980378D01*
X2497861Y-2987059D01*
X2492605Y-2993024D01*
X2488471Y-2998570D01*
X2485227Y-3003993D01*
X2482634Y-3009593D01*
X2480458Y-3015666D01*
X2478462Y-3022507D01*
X2478069Y-3023994D01*
X2477397Y-3026851D01*
X2476841Y-3029885D01*
X2476385Y-3033398D01*
X2476016Y-3037688D01*
X2475715Y-3043053D01*
X2475472Y-3049793D01*
X2475268Y-3058205D01*
X2475092Y-3068590D01*
X2474925Y-3081246D01*
X2474754Y-3096472D01*
X2474082Y-3159229D01*
X2318760Y-3159229D01*
X2318760Y-3139864D01*
X2318760Y-3135244D01*
X2318770Y-3113535D01*
X2318800Y-3094427D01*
X2318861Y-3077704D01*
X2318960Y-3063142D01*
X2319108Y-3050521D01*
X2319314Y-3039621D01*
X2319586Y-3030219D01*
X2319933Y-3022096D01*
X2320364Y-3015029D01*
X2320891Y-3008798D01*
X2321519Y-3003182D01*
X2322259Y-2997963D01*
X2323121Y-2992913D01*
X2324112Y-2987815D01*
X2325243Y-2982448D01*
X2325468Y-2981423D01*
X2331431Y-2959475D01*
X2339318Y-2938692D01*
X2348925Y-2919537D01*
X2360054Y-2902467D01*
X2363330Y-2898491D01*
X2368451Y-2892828D01*
X2375095Y-2885802D01*
X2382965Y-2877704D01*
X2391767Y-2868824D01*
X2401201Y-2859452D01*
X2410974Y-2849879D01*
X2420787Y-2840396D01*
X2430343Y-2831294D01*
X2439347Y-2822862D01*
X2447504Y-2815389D01*
X2454515Y-2809169D01*
X2460083Y-2804490D01*
X2474038Y-2793894D01*
X2494876Y-2780359D01*
X2516092Y-2769368D01*
X2538061Y-2760734D01*
X2561162Y-2754268D01*
X2562721Y-2753919D01*
X2565041Y-2753448D01*
X2567513Y-2753036D01*
X2570330Y-2752676D01*
X2573687Y-2752366D01*
X2577778Y-2752098D01*
X2582797Y-2751871D01*
X2588938Y-2751677D01*
X2596396Y-2751512D01*
X2605363Y-2751372D01*
X2616035Y-2751251D01*
X2628605Y-2751146D01*
X2643269Y-2751050D01*
X2660218Y-2750959D01*
X2679648Y-2750868D01*
X2701753Y-2750772D01*
X2715076Y-2750719D01*
X2737181Y-2750642D01*
X2756724Y-2750597D01*
X2773901Y-2750591D01*
X2788911Y-2750630D01*
X2801951Y-2750718D01*
X2813217Y-2750861D01*
X2822908Y-2751067D01*
X2831222Y-2751339D01*
X2838355Y-2751684D01*
X2844506Y-2752109D01*
X2849872Y-2752617D01*
X2854650Y-2753215D01*
X2859037Y-2753911D01*
X2863231Y-2754707D01*
X2867430Y-2755611D01*
X2876096Y-2757793D01*
X2892057Y-2762861D01*
X2908054Y-2769143D01*
X2923118Y-2776244D01*
X2936283Y-2783769D01*
X2941719Y-2787437D01*
X2949218Y-2792814D01*
X2958174Y-2799457D01*
X2968211Y-2807070D01*
X2978950Y-2815354D01*
X2990017Y-2824014D01*
X3001034Y-2832752D01*
X3011625Y-2841273D01*
X3021413Y-2849277D01*
X3030022Y-2856472D01*
X3037074Y-2862556D01*
X3042194Y-2867236D01*
X3048172Y-2873353D01*
X3060021Y-2887594D01*
X3071359Y-2903954D01*
X3081926Y-2921932D01*
X3091463Y-2941029D01*
X3099709Y-2960743D01*
X3106404Y-2980573D01*
X3111286Y-3000022D01*
X3111433Y-3000748D01*
X3111829Y-3002824D01*
X3112184Y-3004986D01*
X3112501Y-3007392D01*
X3112782Y-3010194D01*
X3113029Y-3013547D01*
X3113244Y-3017606D01*
X3113431Y-3022525D01*
X3113589Y-3028459D01*
X3113724Y-3035562D01*
X3113834Y-3043988D01*
X3113924Y-3053894D01*
X3113996Y-3065431D01*
X3114050Y-3078757D01*
X3114090Y-3094024D01*
X3114118Y-3111387D01*
X3114137Y-3131001D01*
X3114147Y-3153021D01*
X3114149Y-3159229D01*
X3114151Y-3177601D01*
G37*
G36*
X-1593948Y-3200828D02*
G01*
X-1593947Y-3201156D01*
X-1593885Y-3229848D01*
X-1593828Y-3255826D01*
X-1593785Y-3279247D01*
X-1593761Y-3300265D01*
X-1593763Y-3319034D01*
X-1593798Y-3335709D01*
X-1593870Y-3350445D01*
X-1593988Y-3363396D01*
X-1594157Y-3374717D01*
X-1594382Y-3384562D01*
X-1594671Y-3393088D01*
X-1595030Y-3400447D01*
X-1595466Y-3406794D01*
X-1595983Y-3412284D01*
X-1596590Y-3417073D01*
X-1597291Y-3421313D01*
X-1598095Y-3425162D01*
X-1599006Y-3428771D01*
X-1600031Y-3432296D01*
X-1601176Y-3435894D01*
X-1602448Y-3439716D01*
X-1603853Y-3443919D01*
X-1604967Y-3447206D01*
X-1612234Y-3465856D01*
X-1620803Y-3483875D01*
X-1630360Y-3500703D01*
X-1640590Y-3515782D01*
X-1651185Y-3528550D01*
X-1652371Y-3529799D01*
X-1657698Y-3535098D01*
X-1665094Y-3542127D01*
X-1674466Y-3550795D01*
X-1685715Y-3561014D01*
X-1698744Y-3572695D01*
X-1713456Y-3585752D01*
X-1729753Y-3600095D01*
X-1734011Y-3603751D01*
X-1741581Y-3609947D01*
X-1749082Y-3615758D01*
X-1755837Y-3620662D01*
X-1761165Y-3624140D01*
X-1761948Y-3624600D01*
X-1779299Y-3633844D01*
X-1798116Y-3642243D01*
X-1817700Y-3649558D01*
X-1837355Y-3655552D01*
X-1856382Y-3659986D01*
X-1874085Y-3662624D01*
X-1874310Y-3662644D01*
X-1877458Y-3662775D01*
X-1883283Y-3662904D01*
X-1891617Y-3663030D01*
X-1902289Y-3663151D01*
X-1915135Y-3663269D01*
X-1929983Y-3663379D01*
X-1946667Y-3663483D01*
X-1965018Y-3663578D01*
X-1984869Y-3663665D01*
X-2006051Y-3663741D01*
X-2028395Y-3663808D01*
X-2051735Y-3663861D01*
X-2075900Y-3663902D01*
X-2100725Y-3663929D01*
X-2120619Y-3663945D01*
X-2148576Y-3663968D01*
X-2173897Y-3663986D01*
X-2196723Y-3663992D01*
X-2217196Y-3663983D01*
X-2235454Y-3663953D01*
X-2251640Y-3663898D01*
X-2265895Y-3663812D01*
X-2278359Y-3663692D01*
X-2289172Y-3663532D01*
X-2298476Y-3663328D01*
X-2306411Y-3663075D01*
X-2313117Y-3662767D01*
X-2318737Y-3662401D01*
X-2323411Y-3661972D01*
X-2327278Y-3661473D01*
X-2330481Y-3660901D01*
X-2333159Y-3660252D01*
X-2335453Y-3659520D01*
X-2337505Y-3658701D01*
X-2339455Y-3657789D01*
X-2341443Y-3656780D01*
X-2343612Y-3655668D01*
X-2345657Y-3654584D01*
X-2355906Y-3647659D01*
X-2365566Y-3638806D01*
X-2374083Y-3628665D01*
X-2380905Y-3617877D01*
X-2385480Y-3607083D01*
X-2387057Y-3600176D01*
X-2388133Y-3590466D01*
X-2388332Y-3580167D01*
X-2387638Y-3570379D01*
X-2386040Y-3562206D01*
X-2384193Y-3556685D01*
X-2377717Y-3543409D01*
X-2368918Y-3531551D01*
X-2358031Y-3521350D01*
X-2345296Y-3513045D01*
X-2330951Y-3506875D01*
X-2330765Y-3506813D01*
X-2329572Y-3506466D01*
X-2328151Y-3506149D01*
X-2326361Y-3505861D01*
X-2324065Y-3505602D01*
X-2321124Y-3505368D01*
X-2317398Y-3505158D01*
X-2312748Y-3504969D01*
X-2307035Y-3504799D01*
X-2300121Y-3504646D01*
X-2291866Y-3504507D01*
X-2282132Y-3504383D01*
X-2270780Y-3504269D01*
X-2257670Y-3504164D01*
X-2242665Y-3504065D01*
X-2225624Y-3503973D01*
X-2206408Y-3503882D01*
X-2184880Y-3503791D01*
X-2160900Y-3503699D01*
X-2134329Y-3503603D01*
X-2105028Y-3503503D01*
X-2085007Y-3503436D01*
X-2057224Y-3503350D01*
X-2032073Y-3503273D01*
X-2009412Y-3503198D01*
X-1989101Y-3503120D01*
X-1970994Y-3503031D01*
X-1954952Y-3502924D01*
X-1940833Y-3502793D01*
X-1928493Y-3502631D01*
X-1917792Y-3502431D01*
X-1908587Y-3502187D01*
X-1900736Y-3501891D01*
X-1894097Y-3501537D01*
X-1888529Y-3501119D01*
X-1883888Y-3500630D01*
X-1880034Y-3500062D01*
X-1876823Y-3499409D01*
X-1874115Y-3498664D01*
X-1871767Y-3497821D01*
X-1869637Y-3496873D01*
X-1867583Y-3495814D01*
X-1865463Y-3494635D01*
X-1863135Y-3493331D01*
X-1860457Y-3491894D01*
X-1854855Y-3488810D01*
X-1849022Y-3485194D01*
X-1842692Y-3480836D01*
X-1835543Y-3475492D01*
X-1827254Y-3468923D01*
X-1817500Y-3460889D01*
X-1805962Y-3451148D01*
X-1799592Y-3445677D01*
X-1789657Y-3436870D01*
X-1781626Y-3429296D01*
X-1775231Y-3422668D01*
X-1770200Y-3416698D01*
X-1766263Y-3411096D01*
X-1763148Y-3405576D01*
X-1762561Y-3404394D01*
X-1759871Y-3398511D01*
X-1757824Y-3392888D01*
X-1756337Y-3387002D01*
X-1755324Y-3380333D01*
X-1754705Y-3372361D01*
X-1754394Y-3362565D01*
X-1754309Y-3350424D01*
X-1754309Y-3321320D01*
X-2037308Y-3321320D01*
X-2066498Y-3321319D01*
X-2098115Y-3321312D01*
X-2127080Y-3321301D01*
X-2153511Y-3321283D01*
X-2177525Y-3321258D01*
X-2199238Y-3321225D01*
X-2218767Y-3321183D01*
X-2236231Y-3321132D01*
X-2251746Y-3321070D01*
X-2265428Y-3320996D01*
X-2277394Y-3320910D01*
X-2287764Y-3320810D01*
X-2296653Y-3320697D01*
X-2304178Y-3320570D01*
X-2310457Y-3320425D01*
X-2315606Y-3320265D01*
X-2319742Y-3320088D01*
X-2322984Y-3319891D01*
X-2325447Y-3319676D01*
X-2327249Y-3319440D01*
X-2328508Y-3319184D01*
X-2337494Y-3316227D01*
X-2350426Y-3309600D01*
X-2362020Y-3300703D01*
X-2371985Y-3289819D01*
X-2380029Y-3277232D01*
X-2385864Y-3263225D01*
X-2386081Y-3262540D01*
X-2386634Y-3260713D01*
X-2387113Y-3258857D01*
X-2387525Y-3256771D01*
X-2387873Y-3254250D01*
X-2388164Y-3251093D01*
X-2388403Y-3247097D01*
X-2388593Y-3242058D01*
X-2388742Y-3235774D01*
X-2388854Y-3228041D01*
X-2388934Y-3218657D01*
X-2388988Y-3207419D01*
X-2389021Y-3194123D01*
X-2389038Y-3178567D01*
X-2389044Y-3160549D01*
X-2389044Y-3159229D01*
X-2231975Y-3159229D01*
X-1993860Y-3159229D01*
X-1755744Y-3159229D01*
X-1755765Y-3093604D01*
X-1755775Y-3081926D01*
X-1755821Y-3066943D01*
X-1755928Y-3054361D01*
X-1756117Y-3043900D01*
X-1756414Y-3035283D01*
X-1756842Y-3028229D01*
X-1757425Y-3022461D01*
X-1758186Y-3017700D01*
X-1759151Y-3013666D01*
X-1760342Y-3010081D01*
X-1761783Y-3006666D01*
X-1763498Y-3003142D01*
X-1765420Y-2999687D01*
X-1768144Y-2995665D01*
X-1771655Y-2991351D01*
X-1776199Y-2986501D01*
X-1782019Y-2980867D01*
X-1789362Y-2974201D01*
X-1798473Y-2966259D01*
X-1809595Y-2956795D01*
X-1811872Y-2954874D01*
X-1822541Y-2945979D01*
X-1831496Y-2938740D01*
X-1839077Y-2932924D01*
X-1845627Y-2928303D01*
X-1851487Y-2924645D01*
X-1857000Y-2921721D01*
X-1862505Y-2919298D01*
X-1868346Y-2917146D01*
X-1879822Y-2913225D01*
X-1990916Y-2912824D01*
X-2009669Y-2912768D01*
X-2031789Y-2912738D01*
X-2051093Y-2912760D01*
X-2067610Y-2912831D01*
X-2081370Y-2912954D01*
X-2092403Y-2913128D01*
X-2100736Y-2913355D01*
X-2106402Y-2913632D01*
X-2109428Y-2913962D01*
X-2111506Y-2914460D01*
X-2119253Y-2917077D01*
X-2128086Y-2920962D01*
X-2137138Y-2925708D01*
X-2145538Y-2930906D01*
X-2148855Y-2933347D01*
X-2154250Y-2937635D01*
X-2160972Y-2943184D01*
X-2168604Y-2949634D01*
X-2176729Y-2956621D01*
X-2184929Y-2963783D01*
X-2192787Y-2970759D01*
X-2199885Y-2977187D01*
X-2205806Y-2982704D01*
X-2210135Y-2986949D01*
X-2213796Y-2991163D01*
X-2218744Y-2998054D01*
X-2222704Y-3004898D01*
X-2223907Y-3007378D01*
X-2225790Y-3011552D01*
X-2227354Y-3015635D01*
X-2228628Y-3019927D01*
X-2229643Y-3024720D01*
X-2230427Y-3030312D01*
X-2231010Y-3036997D01*
X-2231422Y-3045073D01*
X-2231692Y-3054834D01*
X-2231850Y-3066577D01*
X-2231927Y-3080597D01*
X-2231950Y-3097190D01*
X-2231975Y-3159229D01*
X-2389044Y-3159229D01*
X-2389046Y-3139864D01*
X-2389043Y-3129994D01*
X-2389019Y-3108233D01*
X-2388964Y-3089114D01*
X-2388877Y-3072480D01*
X-2388757Y-3058169D01*
X-2388601Y-3046024D01*
X-2388404Y-3035885D01*
X-2388168Y-3027592D01*
X-2387888Y-3020987D01*
X-2387562Y-3015909D01*
X-2387188Y-3012200D01*
X-2386278Y-3005540D01*
X-2382524Y-2983853D01*
X-2377765Y-2964366D01*
X-2371842Y-2946650D01*
X-2364595Y-2930276D01*
X-2355864Y-2914815D01*
X-2345490Y-2899834D01*
X-2343136Y-2897007D01*
X-2338685Y-2892131D01*
X-2332688Y-2885837D01*
X-2325435Y-2878418D01*
X-2317226Y-2870162D01*
X-2308354Y-2861362D01*
X-2299116Y-2852309D01*
X-2289807Y-2843293D01*
X-2280722Y-2834607D01*
X-2272157Y-2826541D01*
X-2264407Y-2819386D01*
X-2257769Y-2813433D01*
X-2247875Y-2805036D01*
X-2228461Y-2790355D01*
X-2209036Y-2778154D01*
X-2189192Y-2768218D01*
X-2168524Y-2760332D01*
X-2146626Y-2754278D01*
X-2144832Y-2753876D01*
X-2142526Y-2753411D01*
X-2140054Y-2753005D01*
X-2137222Y-2752651D01*
X-2133839Y-2752345D01*
X-2129709Y-2752082D01*
X-2124643Y-2751858D01*
X-2118443Y-2751668D01*
X-2110921Y-2751507D01*
X-2101880Y-2751370D01*
X-2091130Y-2751252D01*
X-2078476Y-2751150D01*
X-2063724Y-2751057D01*
X-2046684Y-2750970D01*
X-2027160Y-2750883D01*
X-2004962Y-2750792D01*
X-1991520Y-2750740D01*
X-1970238Y-2750668D01*
X-1951520Y-2750623D01*
X-1935172Y-2750606D01*
X-1920999Y-2750619D01*
X-1908805Y-2750664D01*
X-1898398Y-2750745D01*
X-1889583Y-2750863D01*
X-1882166Y-2751021D01*
X-1875952Y-2751221D01*
X-1870748Y-2751464D01*
X-1866360Y-2751754D01*
X-1862592Y-2752092D01*
X-1859251Y-2752482D01*
X-1857850Y-2752668D01*
X-1833206Y-2757467D01*
X-1809387Y-2764992D01*
X-1786574Y-2775176D01*
X-1764945Y-2787950D01*
X-1762640Y-2789528D01*
X-1755993Y-2794309D01*
X-1747874Y-2800393D01*
X-1738623Y-2807500D01*
X-1728582Y-2815355D01*
X-1718093Y-2823685D01*
X-1707497Y-2832210D01*
X-1697137Y-2840657D01*
X-1687353Y-2848748D01*
X-1678487Y-2856208D01*
X-1670882Y-2862762D01*
X-1664878Y-2868133D01*
X-1660819Y-2872045D01*
X-1657298Y-2875852D01*
X-1650939Y-2883291D01*
X-1644767Y-2891101D01*
X-1639731Y-2898109D01*
X-1635465Y-2904779D01*
X-1626615Y-2920300D01*
X-1618077Y-2937401D01*
X-1610241Y-2955221D01*
X-1603499Y-2972900D01*
X-1598241Y-2989575D01*
X-1594370Y-3003593D01*
X-1594038Y-3159229D01*
X-1593948Y-3200828D01*
G37*
G36*
X-6298903Y-3408029D02*
G01*
X-6299181Y-3420935D01*
X-6299565Y-3432094D01*
X-6300053Y-3440944D01*
X-6300535Y-3446881D01*
X-6303815Y-3471354D01*
X-6309135Y-3494170D01*
X-6316639Y-3515752D01*
X-6326466Y-3536525D01*
X-6338759Y-3556913D01*
X-6345646Y-3566727D01*
X-6362289Y-3586991D01*
X-6380681Y-3605083D01*
X-6400675Y-3620917D01*
X-6422120Y-3634407D01*
X-6444873Y-3645465D01*
X-6468784Y-3654005D01*
X-6493707Y-3659942D01*
X-6519494Y-3663186D01*
X-6520038Y-3663212D01*
X-6523388Y-3663281D01*
X-6529323Y-3663352D01*
X-6537634Y-3663423D01*
X-6548115Y-3663495D01*
X-6560557Y-3663564D01*
X-6574754Y-3663632D01*
X-6590497Y-3663696D01*
X-6607579Y-3663757D01*
X-6625794Y-3663810D01*
X-6644933Y-3663859D01*
X-6664789Y-3663898D01*
X-6803630Y-3664149D01*
X-6869702Y-3624702D01*
X-6876094Y-3620888D01*
X-6888260Y-3613637D01*
X-6899557Y-3606915D01*
X-6909757Y-3600858D01*
X-6918634Y-3595600D01*
X-6925958Y-3591276D01*
X-6931503Y-3588022D01*
X-6935041Y-3585969D01*
X-6936345Y-3585256D01*
X-6936520Y-3585576D01*
X-6936802Y-3587928D01*
X-6936913Y-3591816D01*
X-6937355Y-3596624D01*
X-6939113Y-3604333D01*
X-6941906Y-3612726D01*
X-6945403Y-3620846D01*
X-6949276Y-3627732D01*
X-6954699Y-3634928D01*
X-6964980Y-3644988D01*
X-6976856Y-3653081D01*
X-6989916Y-3659034D01*
X-7003745Y-3662676D01*
X-7017928Y-3663834D01*
X-7032055Y-3662334D01*
X-7038030Y-3660911D01*
X-7050630Y-3656317D01*
X-7061870Y-3649640D01*
X-7072475Y-3640484D01*
X-7078735Y-3633663D01*
X-7086617Y-3622418D01*
X-7092025Y-3610385D01*
X-7095138Y-3597120D01*
X-7096136Y-3582179D01*
X-7096131Y-3581285D01*
X-7096050Y-3576771D01*
X-7095877Y-3569628D01*
X-7095618Y-3560028D01*
X-7095278Y-3548141D01*
X-7094864Y-3534142D01*
X-7094380Y-3518201D01*
X-7093833Y-3500489D01*
X-7093228Y-3481179D01*
X-7092571Y-3460442D01*
X-7091868Y-3438451D01*
X-7091125Y-3415376D01*
X-7090386Y-3392579D01*
X-6929851Y-3392579D01*
X-6929829Y-3396004D01*
X-6929599Y-3398221D01*
X-6929159Y-3399566D01*
X-6928505Y-3400377D01*
X-6927633Y-3400992D01*
X-6927109Y-3401313D01*
X-6924291Y-3402999D01*
X-6919314Y-3405956D01*
X-6912390Y-3410060D01*
X-6903730Y-3415183D01*
X-6893546Y-3421204D01*
X-6882051Y-3427995D01*
X-6869454Y-3435431D01*
X-6855968Y-3443388D01*
X-6841804Y-3451740D01*
X-6758887Y-3500625D01*
X-6644569Y-3500510D01*
X-6623868Y-3500487D01*
X-6604713Y-3500455D01*
X-6588035Y-3500401D01*
X-6573631Y-3500318D01*
X-6561301Y-3500192D01*
X-6550843Y-3500013D01*
X-6542057Y-3499771D01*
X-6534740Y-3499455D01*
X-6528691Y-3499053D01*
X-6523711Y-3498554D01*
X-6519596Y-3497949D01*
X-6516146Y-3497225D01*
X-6513160Y-3496371D01*
X-6510436Y-3495377D01*
X-6507772Y-3494232D01*
X-6504970Y-3492924D01*
X-6501223Y-3490974D01*
X-6490983Y-3483898D01*
X-6481379Y-3474851D01*
X-6473041Y-3464481D01*
X-6466602Y-3453439D01*
X-6465857Y-3451832D01*
X-6464164Y-3447803D01*
X-6462776Y-3443690D01*
X-6461668Y-3439185D01*
X-6460814Y-3433977D01*
X-6460187Y-3427757D01*
X-6459760Y-3420218D01*
X-6459508Y-3411047D01*
X-6459404Y-3399937D01*
X-6459421Y-3386577D01*
X-6459533Y-3370659D01*
X-6459564Y-3367005D01*
X-6459691Y-3353682D01*
X-6459822Y-3342832D01*
X-6459977Y-3334139D01*
X-6460174Y-3327284D01*
X-6460432Y-3321950D01*
X-6460771Y-3317819D01*
X-6461209Y-3314573D01*
X-6461765Y-3311896D01*
X-6462457Y-3309470D01*
X-6463305Y-3306976D01*
X-6467619Y-3297109D01*
X-6475237Y-3285211D01*
X-6484746Y-3274740D01*
X-6495746Y-3266056D01*
X-6507843Y-3259514D01*
X-6520640Y-3255467D01*
X-6520956Y-3255411D01*
X-6523988Y-3255141D01*
X-6529407Y-3254900D01*
X-6537262Y-3254686D01*
X-6547600Y-3254499D01*
X-6560469Y-3254338D01*
X-6575918Y-3254203D01*
X-6593996Y-3254093D01*
X-6614749Y-3254009D01*
X-6638227Y-3253949D01*
X-6664476Y-3253914D01*
X-6693546Y-3253902D01*
X-6715227Y-3253900D01*
X-6738846Y-3253900D01*
X-6759896Y-3253908D01*
X-6778541Y-3253931D01*
X-6794947Y-3253975D01*
X-6809276Y-3254050D01*
X-6821694Y-3254159D01*
X-6832363Y-3254313D01*
X-6841451Y-3254516D01*
X-6849117Y-3254777D01*
X-6855528Y-3255104D01*
X-6860848Y-3255502D01*
X-6865241Y-3255978D01*
X-6868872Y-3256539D01*
X-6871904Y-3257194D01*
X-6874499Y-3257949D01*
X-6876826Y-3258810D01*
X-6879046Y-3259786D01*
X-6881323Y-3260883D01*
X-6883823Y-3262108D01*
X-6884063Y-3262225D01*
X-6891109Y-3266659D01*
X-6898604Y-3272941D01*
X-6905825Y-3280339D01*
X-6912057Y-3288118D01*
X-6916580Y-3295545D01*
X-6916687Y-3295766D01*
X-6919002Y-3300884D01*
X-6920921Y-3306083D01*
X-6922514Y-3311765D01*
X-6923851Y-3318323D01*
X-6925000Y-3326158D01*
X-6926030Y-3335667D01*
X-6927010Y-3347248D01*
X-6928010Y-3361299D01*
X-6928702Y-3371679D01*
X-6929285Y-3380754D01*
X-6929668Y-3387609D01*
X-6929851Y-3392579D01*
X-7090386Y-3392579D01*
X-7090347Y-3391390D01*
X-7089539Y-3366665D01*
X-7088709Y-3341372D01*
X-7087861Y-3315682D01*
X-7087000Y-3289769D01*
X-7086135Y-3263803D01*
X-7085268Y-3237957D01*
X-7084407Y-3212400D01*
X-7083556Y-3187308D01*
X-7082722Y-3162848D01*
X-7081912Y-3139197D01*
X-7081129Y-3116522D01*
X-7080380Y-3094998D01*
X-7079671Y-3074795D01*
X-7079007Y-3056085D01*
X-7078394Y-3039041D01*
X-7077838Y-3023833D01*
X-7077345Y-3010634D01*
X-7076920Y-2999617D01*
X-7076568Y-2990951D01*
X-7076297Y-2984808D01*
X-7076112Y-2981360D01*
X-7075629Y-2974965D01*
X-7073770Y-2957278D01*
X-7071164Y-2941361D01*
X-7067636Y-2926424D01*
X-7063006Y-2911678D01*
X-7057101Y-2896332D01*
X-7052408Y-2885865D01*
X-7040810Y-2864834D01*
X-7026894Y-2844856D01*
X-7010941Y-2826184D01*
X-6993225Y-2809079D01*
X-6974028Y-2793793D01*
X-6953628Y-2780584D01*
X-6932305Y-2769707D01*
X-6910335Y-2761420D01*
X-6909598Y-2761191D01*
X-6904450Y-2759616D01*
X-6899580Y-2758201D01*
X-6894809Y-2756941D01*
X-6889966Y-2755824D01*
X-6884873Y-2754842D01*
X-6879358Y-2753987D01*
X-6873246Y-2753250D01*
X-6866361Y-2752622D01*
X-6858529Y-2752095D01*
X-6849574Y-2751660D01*
X-6839324Y-2751307D01*
X-6827602Y-2751030D01*
X-6814234Y-2750818D01*
X-6799047Y-2750664D01*
X-6781863Y-2750557D01*
X-6762509Y-2750490D01*
X-6740811Y-2750455D01*
X-6716592Y-2750442D01*
X-6689681Y-2750443D01*
X-6676659Y-2750446D01*
X-6652517Y-2750461D01*
X-6631011Y-2750488D01*
X-6611986Y-2750530D01*
X-6595289Y-2750588D01*
X-6580763Y-2750664D01*
X-6568255Y-2750761D01*
X-6557608Y-2750879D01*
X-6548667Y-2751021D01*
X-6541279Y-2751189D01*
X-6535288Y-2751384D01*
X-6530538Y-2751610D01*
X-6526874Y-2751866D01*
X-6524143Y-2752156D01*
X-6522188Y-2752480D01*
X-6519386Y-2753129D01*
X-6506830Y-2757571D01*
X-6495231Y-2764429D01*
X-6484191Y-2773926D01*
X-6480798Y-2777483D01*
X-6471837Y-2789179D01*
X-6465569Y-2801665D01*
X-6461886Y-2815197D01*
X-6460682Y-2830028D01*
X-6460923Y-2836990D01*
X-6463130Y-2850886D01*
X-6467763Y-2863574D01*
X-6474968Y-2875394D01*
X-6484890Y-2886688D01*
X-6490113Y-2891535D01*
X-6497694Y-2897539D01*
X-6504432Y-2901626D01*
X-6504917Y-2901863D01*
X-6507469Y-2903140D01*
X-6509741Y-2904281D01*
X-6511896Y-2905294D01*
X-6514105Y-2906187D01*
X-6516529Y-2906969D01*
X-6519336Y-2907649D01*
X-6522691Y-2908234D01*
X-6526761Y-2908733D01*
X-6531711Y-2909155D01*
X-6537706Y-2909506D01*
X-6544912Y-2909796D01*
X-6553495Y-2910034D01*
X-6563621Y-2910227D01*
X-6575456Y-2910384D01*
X-6589165Y-2910512D01*
X-6604913Y-2910622D01*
X-6622869Y-2910720D01*
X-6643195Y-2910815D01*
X-6666059Y-2910916D01*
X-6691625Y-2911030D01*
X-6705882Y-2911095D01*
X-6729670Y-2911207D01*
X-6750838Y-2911310D01*
X-6769552Y-2911410D01*
X-6785969Y-2911510D01*
X-6800254Y-2911613D01*
X-6812568Y-2911722D01*
X-6823072Y-2911842D01*
X-6831928Y-2911977D01*
X-6839299Y-2912128D01*
X-6845345Y-2912301D01*
X-6850229Y-2912498D01*
X-6854112Y-2912725D01*
X-6857156Y-2912982D01*
X-6859522Y-2913275D01*
X-6861372Y-2913607D01*
X-6862869Y-2913983D01*
X-6864174Y-2914403D01*
X-6865449Y-2914873D01*
X-6871970Y-2917701D01*
X-6884265Y-2925218D01*
X-6894982Y-2934797D01*
X-6903814Y-2946082D01*
X-6910459Y-2958720D01*
X-6914610Y-2972350D01*
X-6914883Y-2974169D01*
X-6915330Y-2979043D01*
X-6915765Y-2985936D01*
X-6916183Y-2994497D01*
X-6916574Y-3004378D01*
X-6916932Y-3015230D01*
X-6917251Y-3026705D01*
X-6917523Y-3038454D01*
X-6917742Y-3050128D01*
X-6917900Y-3061376D01*
X-6917991Y-3071851D01*
X-6918006Y-3081205D01*
X-6917940Y-3089087D01*
X-6917785Y-3095149D01*
X-6917535Y-3099042D01*
X-6917181Y-3100417D01*
X-6916259Y-3100302D01*
X-6912930Y-3099710D01*
X-6907893Y-3098728D01*
X-6901818Y-3097487D01*
X-6897783Y-3096642D01*
X-6893154Y-3095688D01*
X-6888807Y-3094835D01*
X-6884566Y-3094080D01*
X-6880257Y-3093416D01*
X-6875704Y-3092836D01*
X-6870733Y-3092336D01*
X-6865168Y-3091908D01*
X-6858836Y-3091549D01*
X-6851559Y-3091251D01*
X-6843163Y-3091010D01*
X-6833474Y-3090817D01*
X-6822316Y-3090670D01*
X-6809515Y-3090561D01*
X-6794895Y-3090483D01*
X-6778281Y-3090433D01*
X-6759499Y-3090404D01*
X-6738373Y-3090391D01*
X-6714728Y-3090386D01*
X-6688389Y-3090385D01*
X-6672529Y-3090384D01*
X-6647395Y-3090386D01*
X-6624863Y-3090398D01*
X-6604764Y-3090425D01*
X-6586931Y-3090472D01*
X-6571192Y-3090547D01*
X-6557381Y-3090653D01*
X-6545328Y-3090797D01*
X-6534867Y-3090985D01*
X-6525824Y-3091221D01*
X-6518034Y-3091513D01*
X-6511328Y-3091865D01*
X-6505537Y-3092285D01*
X-6500492Y-3092775D01*
X-6496023Y-3093344D01*
X-6491964Y-3093996D01*
X-6488144Y-3094738D01*
X-6484395Y-3095574D01*
X-6480548Y-3096511D01*
X-6476435Y-3097555D01*
X-6475713Y-3097741D01*
X-6452208Y-3105306D01*
X-6429647Y-3115567D01*
X-6408076Y-3128500D01*
X-6387536Y-3144079D01*
X-6368072Y-3162277D01*
X-6355394Y-3176194D01*
X-6339747Y-3196480D01*
X-6326784Y-3217558D01*
X-6316419Y-3239617D01*
X-6308566Y-3262851D01*
X-6303140Y-3287450D01*
X-6300052Y-3313608D01*
X-6299914Y-3315656D01*
X-6299453Y-3325157D01*
X-6299097Y-3336823D01*
X-6298848Y-3350090D01*
X-6298704Y-3364404D01*
X-6298664Y-3379205D01*
X-6298732Y-3393933D01*
X-6298805Y-3399937D01*
X-6298903Y-3408029D01*
G37*
G36*
X4294032Y-3277458D02*
G01*
X4293942Y-3296846D01*
X4293829Y-3315287D01*
X4293691Y-3332566D01*
X4293531Y-3348471D01*
X4293347Y-3362789D01*
X4293140Y-3375304D01*
X4292908Y-3385805D01*
X4292653Y-3394077D01*
X4292375Y-3399907D01*
X4292073Y-3403082D01*
X4289442Y-3416089D01*
X4284647Y-3434620D01*
X4278721Y-3453188D01*
X4271867Y-3471308D01*
X4264286Y-3488496D01*
X4256182Y-3504268D01*
X4247754Y-3518141D01*
X4239207Y-3529630D01*
X4237329Y-3531638D01*
X4233116Y-3535713D01*
X4227227Y-3541142D01*
X4219972Y-3547663D01*
X4211659Y-3555004D01*
X4202598Y-3562901D01*
X4193095Y-3571086D01*
X4183459Y-3579293D01*
X4173998Y-3587255D01*
X4165023Y-3594706D01*
X4156840Y-3601377D01*
X4149758Y-3607003D01*
X4133340Y-3619030D01*
X4111709Y-3632620D01*
X4089867Y-3643884D01*
X4068060Y-3652713D01*
X4046533Y-3658996D01*
X4025530Y-3662624D01*
X4023136Y-3662793D01*
X4017663Y-3662997D01*
X4009844Y-3663175D01*
X3999975Y-3663324D01*
X3988358Y-3663440D01*
X3975287Y-3663522D01*
X3961063Y-3663567D01*
X3945983Y-3663571D01*
X3930344Y-3663532D01*
X3918884Y-3663486D01*
X3902857Y-3663413D01*
X3889284Y-3663332D01*
X3877910Y-3663232D01*
X3868482Y-3663107D01*
X3860744Y-3662946D01*
X3854441Y-3662741D01*
X3849320Y-3662482D01*
X3845125Y-3662162D01*
X3841602Y-3661770D01*
X3838495Y-3661298D01*
X3835552Y-3660736D01*
X3832518Y-3660077D01*
X3811169Y-3654115D01*
X3788189Y-3645278D01*
X3764868Y-3633930D01*
X3741430Y-3620205D01*
X3718094Y-3604232D01*
X3695085Y-3586140D01*
X3672621Y-3566062D01*
X3670820Y-3564354D01*
X3665748Y-3559599D01*
X3661569Y-3555762D01*
X3658676Y-3553198D01*
X3657459Y-3552264D01*
X3657283Y-3552911D01*
X3656972Y-3555954D01*
X3656624Y-3561063D01*
X3656270Y-3567761D01*
X3655942Y-3575573D01*
X3655676Y-3581626D01*
X3654929Y-3592504D01*
X3653934Y-3600959D01*
X3652716Y-3606773D01*
X3647644Y-3619691D01*
X3640173Y-3631927D01*
X3630888Y-3642377D01*
X3620087Y-3650913D01*
X3608071Y-3657405D01*
X3595140Y-3661729D01*
X3581593Y-3663754D01*
X3567729Y-3663353D01*
X3553848Y-3660399D01*
X3540250Y-3654764D01*
X3530935Y-3648780D01*
X3521357Y-3640443D01*
X3512928Y-3630889D01*
X3506482Y-3620948D01*
X3506301Y-3620610D01*
X3505524Y-3619254D01*
X3504793Y-3618084D01*
X3504106Y-3617016D01*
X3503462Y-3615964D01*
X3502858Y-3614844D01*
X3502294Y-3613573D01*
X3501769Y-3612061D01*
X3501280Y-3610228D01*
X3500827Y-3607986D01*
X3500409Y-3605253D01*
X3500024Y-3601942D01*
X3499671Y-3597969D01*
X3499348Y-3593248D01*
X3499053Y-3587695D01*
X3498787Y-3581226D01*
X3498546Y-3573755D01*
X3498332Y-3565197D01*
X3498140Y-3555467D01*
X3497971Y-3544482D01*
X3497822Y-3532155D01*
X3497693Y-3518402D01*
X3497582Y-3503138D01*
X3497489Y-3486278D01*
X3497410Y-3467737D01*
X3497346Y-3447432D01*
X3497295Y-3425275D01*
X3497256Y-3401183D01*
X3497226Y-3375071D01*
X3497206Y-3346854D01*
X3497192Y-3316447D01*
X3497185Y-3283765D01*
X3497183Y-3248723D01*
X3497183Y-3224419D01*
X3656284Y-3224419D01*
X3656303Y-3240090D01*
X3656362Y-3255223D01*
X3656462Y-3269527D01*
X3656605Y-3282708D01*
X3656790Y-3294478D01*
X3657017Y-3304544D01*
X3657289Y-3312615D01*
X3657604Y-3318400D01*
X3657964Y-3321608D01*
X3660298Y-3329656D01*
X3664379Y-3339410D01*
X3669481Y-3348901D01*
X3675039Y-3356958D01*
X3675117Y-3357053D01*
X3677259Y-3359201D01*
X3681361Y-3362966D01*
X3687194Y-3368155D01*
X3694525Y-3374570D01*
X3703121Y-3382016D01*
X3712755Y-3390296D01*
X3723192Y-3399217D01*
X3734203Y-3408583D01*
X3745554Y-3418197D01*
X3757017Y-3427865D01*
X3768357Y-3437389D01*
X3779345Y-3446576D01*
X3789750Y-3455230D01*
X3799340Y-3463154D01*
X3807881Y-3470154D01*
X3815147Y-3476034D01*
X3820902Y-3480598D01*
X3824916Y-3483650D01*
X3829614Y-3486821D01*
X3837211Y-3491271D01*
X3845193Y-3495337D01*
X3852670Y-3498571D01*
X3858745Y-3500528D01*
X3859249Y-3500626D01*
X3863129Y-3501016D01*
X3869441Y-3501341D01*
X3877832Y-3501600D01*
X3887948Y-3501798D01*
X3899437Y-3501934D01*
X3911945Y-3502009D01*
X3925117Y-3502027D01*
X3938601Y-3501988D01*
X3952045Y-3501894D01*
X3965094Y-3501747D01*
X3977393Y-3501547D01*
X3988591Y-3501298D01*
X3998336Y-3500999D01*
X4006271Y-3500653D01*
X4012045Y-3500262D01*
X4015302Y-3499828D01*
X4017060Y-3499392D01*
X4021354Y-3498195D01*
X4025367Y-3496781D01*
X4029368Y-3494961D01*
X4033627Y-3492550D01*
X4038415Y-3489359D01*
X4044000Y-3485202D01*
X4050654Y-3479891D01*
X4058645Y-3473241D01*
X4068245Y-3465063D01*
X4079722Y-3455170D01*
X4079966Y-3454959D01*
X4091231Y-3445092D01*
X4100460Y-3436708D01*
X4107892Y-3429557D01*
X4113768Y-3423387D01*
X4118327Y-3417945D01*
X4121808Y-3412981D01*
X4124452Y-3408244D01*
X4125035Y-3407064D01*
X4126160Y-3404804D01*
X4127169Y-3402684D01*
X4128065Y-3400546D01*
X4128858Y-3398231D01*
X4129552Y-3395582D01*
X4130155Y-3392439D01*
X4130674Y-3388645D01*
X4131113Y-3384040D01*
X4131481Y-3378468D01*
X4131782Y-3371768D01*
X4132024Y-3363784D01*
X4132214Y-3354357D01*
X4132357Y-3343326D01*
X4132460Y-3330536D01*
X4132530Y-3315828D01*
X4132571Y-3299042D01*
X4132593Y-3280021D01*
X4132602Y-3258606D01*
X4132601Y-3234639D01*
X4132599Y-3207962D01*
X4132596Y-3191679D01*
X4132574Y-3163113D01*
X4132528Y-3137345D01*
X4132459Y-3114327D01*
X4132367Y-3094013D01*
X4132252Y-3076357D01*
X4132111Y-3061312D01*
X4131946Y-3048831D01*
X4131756Y-3038867D01*
X4131541Y-3031374D01*
X4131300Y-3026306D01*
X4131033Y-3023615D01*
X4130370Y-3020562D01*
X4127132Y-3010603D01*
X4122502Y-3000587D01*
X4117075Y-2991866D01*
X4116826Y-2991542D01*
X4114102Y-2988546D01*
X4109564Y-2984029D01*
X4103533Y-2978282D01*
X4096326Y-2971596D01*
X4088262Y-2964261D01*
X4079663Y-2956568D01*
X4070845Y-2948809D01*
X4062129Y-2941274D01*
X4053834Y-2934253D01*
X4041828Y-2925381D01*
X4028545Y-2918062D01*
X4015362Y-2913326D01*
X4013082Y-2912912D01*
X4007492Y-2912358D01*
X3999638Y-2911890D01*
X3989883Y-2911505D01*
X3978591Y-2911205D01*
X3966125Y-2910990D01*
X3952848Y-2910858D01*
X3939124Y-2910810D01*
X3925315Y-2910844D01*
X3911785Y-2910963D01*
X3898896Y-2911165D01*
X3887013Y-2911450D01*
X3876498Y-2911817D01*
X3867715Y-2912267D01*
X3861026Y-2912799D01*
X3856795Y-2913412D01*
X3854657Y-2913915D01*
X3844010Y-2917061D01*
X3834973Y-2921076D01*
X3826490Y-2926411D01*
X3826116Y-2926688D01*
X3823066Y-2929107D01*
X3818160Y-2933154D01*
X3811638Y-2938622D01*
X3803737Y-2945310D01*
X3794693Y-2953009D01*
X3784744Y-2961515D01*
X3774128Y-2970623D01*
X3763083Y-2980127D01*
X3751846Y-2989823D01*
X3740655Y-2999505D01*
X3729747Y-3008968D01*
X3719359Y-3018006D01*
X3709730Y-3026416D01*
X3701098Y-3033992D01*
X3693698Y-3040526D01*
X3687770Y-3045817D01*
X3683550Y-3049657D01*
X3681276Y-3051842D01*
X3676844Y-3056970D01*
X3668733Y-3069504D01*
X3662569Y-3084029D01*
X3658416Y-3100417D01*
X3658194Y-3102143D01*
X3657840Y-3107183D01*
X3657521Y-3114599D01*
X3657237Y-3124096D01*
X3656989Y-3135385D01*
X3656777Y-3148173D01*
X3656602Y-3162169D01*
X3656464Y-3177084D01*
X3656365Y-3192624D01*
X3656305Y-3208500D01*
X3656284Y-3224419D01*
X3497183Y-3224419D01*
X3497183Y-3211237D01*
X3497187Y-3171222D01*
X3497191Y-3128592D01*
X3497194Y-3083263D01*
X3497196Y-3035151D01*
X3497194Y-2987467D01*
X3497192Y-2942156D01*
X3497189Y-2899545D01*
X3497186Y-2859549D01*
X3497186Y-2822082D01*
X3497189Y-2787060D01*
X3497197Y-2754397D01*
X3497211Y-2724010D01*
X3497233Y-2695812D01*
X3497262Y-2669720D01*
X3497302Y-2645648D01*
X3497351Y-2623510D01*
X3497414Y-2603223D01*
X3497489Y-2584699D01*
X3497580Y-2567858D01*
X3497686Y-2552610D01*
X3497809Y-2538873D01*
X3497951Y-2526562D01*
X3498113Y-2515591D01*
X3498295Y-2505875D01*
X3498501Y-2497330D01*
X3498729Y-2489869D01*
X3498981Y-2483409D01*
X3499260Y-2477865D01*
X3499567Y-2473151D01*
X3499902Y-2469184D01*
X3500266Y-2465876D01*
X3500661Y-2463144D01*
X3501089Y-2460903D01*
X3501550Y-2459068D01*
X3502045Y-2457553D01*
X3502578Y-2456275D01*
X3503146Y-2455148D01*
X3503754Y-2454085D01*
X3504401Y-2453005D01*
X3505089Y-2451820D01*
X3505820Y-2450446D01*
X3510254Y-2443257D01*
X3517061Y-2434919D01*
X3525110Y-2426946D01*
X3533648Y-2420074D01*
X3541919Y-2415045D01*
X3551699Y-2410942D01*
X3566118Y-2407278D01*
X3580462Y-2406343D01*
X3594476Y-2408098D01*
X3607904Y-2412503D01*
X3620491Y-2419519D01*
X3631982Y-2429104D01*
X3639178Y-2437247D01*
X3647371Y-2450105D01*
X3653060Y-2464365D01*
X3653246Y-2465028D01*
X3653589Y-2466510D01*
X3653899Y-2468341D01*
X3654178Y-2470669D01*
X3654428Y-2473644D01*
X3654654Y-2477412D01*
X3654855Y-2482124D01*
X3655036Y-2487925D01*
X3655198Y-2494966D01*
X3655345Y-2503393D01*
X3655477Y-2513355D01*
X3655599Y-2525001D01*
X3655711Y-2538477D01*
X3655816Y-2553934D01*
X3655918Y-2571519D01*
X3656018Y-2591379D01*
X3656119Y-2613664D01*
X3656223Y-2638521D01*
X3656332Y-2666099D01*
X3657085Y-2859343D01*
X3680753Y-2839120D01*
X3686974Y-2833818D01*
X3700321Y-2822570D01*
X3711990Y-2812961D01*
X3722283Y-2804773D01*
X3731500Y-2797791D01*
X3739945Y-2791796D01*
X3747916Y-2786572D01*
X3755717Y-2781901D01*
X3763647Y-2777568D01*
X3772009Y-2773352D01*
X3786499Y-2766781D01*
X3804741Y-2760058D01*
X3823540Y-2754967D01*
X3843966Y-2751181D01*
X3848421Y-2750698D01*
X3855907Y-2750211D01*
X3865588Y-2749797D01*
X3877102Y-2749457D01*
X3890092Y-2749188D01*
X3904196Y-2748994D01*
X3919055Y-2748872D01*
X3934310Y-2748824D01*
X3949599Y-2748851D01*
X3964564Y-2748950D01*
X3978846Y-2749123D01*
X3992083Y-2749372D01*
X4003917Y-2749694D01*
X4013987Y-2750091D01*
X4021933Y-2750562D01*
X4027396Y-2751107D01*
X4030929Y-2751634D01*
X4057083Y-2757130D01*
X4082145Y-2765267D01*
X4106039Y-2776011D01*
X4128688Y-2789326D01*
X4150015Y-2805179D01*
X4159124Y-2812792D01*
X4169729Y-2821786D01*
X4180441Y-2830995D01*
X4190974Y-2840162D01*
X4201036Y-2849032D01*
X4210339Y-2857345D01*
X4218596Y-2864849D01*
X4225515Y-2871285D01*
X4230810Y-2876396D01*
X4234190Y-2879927D01*
X4237544Y-2883871D01*
X4250273Y-2901148D01*
X4261824Y-2920554D01*
X4271986Y-2941618D01*
X4280550Y-2963869D01*
X4287307Y-2986837D01*
X4292047Y-3010048D01*
X4292292Y-3012553D01*
X4292575Y-3018073D01*
X4292836Y-3026059D01*
X4293073Y-3036301D01*
X4293287Y-3048583D01*
X4293478Y-3062693D01*
X4293645Y-3078417D01*
X4293789Y-3095542D01*
X4293910Y-3113852D01*
X4294007Y-3133136D01*
X4294081Y-3153182D01*
X4294132Y-3173772D01*
X4294158Y-3194698D01*
X4294162Y-3215742D01*
X4294143Y-3236692D01*
X4294098Y-3257335D01*
X4294095Y-3258606D01*
X4294032Y-3277458D01*
G37*
G36*
X-7483457Y-3238515D02*
G01*
X-7483463Y-3273578D01*
X-7483471Y-3306267D01*
X-7483482Y-3336666D01*
X-7483497Y-3364863D01*
X-7483516Y-3390944D01*
X-7483539Y-3414992D01*
X-7483567Y-3437094D01*
X-7483600Y-3457336D01*
X-7483640Y-3475805D01*
X-7483684Y-3492584D01*
X-7483737Y-3507759D01*
X-7483796Y-3521419D01*
X-7483862Y-3533645D01*
X-7483936Y-3544527D01*
X-7484018Y-3554149D01*
X-7484109Y-3562596D01*
X-7484210Y-3569954D01*
X-7484320Y-3576309D01*
X-7484439Y-3581748D01*
X-7484570Y-3586355D01*
X-7484711Y-3590215D01*
X-7484863Y-3593416D01*
X-7485027Y-3596042D01*
X-7485203Y-3598180D01*
X-7485391Y-3599915D01*
X-7485593Y-3601333D01*
X-7485808Y-3602518D01*
X-7486037Y-3603558D01*
X-7486280Y-3604538D01*
X-7487509Y-3608911D01*
X-7492168Y-3620573D01*
X-7498751Y-3631074D01*
X-7507715Y-3641198D01*
X-7518979Y-3650493D01*
X-7531735Y-3657540D01*
X-7545472Y-3661974D01*
X-7546283Y-3662145D01*
X-7561099Y-3663832D01*
X-7575505Y-3662822D01*
X-7589220Y-3659276D01*
X-7601963Y-3653356D01*
X-7613455Y-3645221D01*
X-7623412Y-3635032D01*
X-7631557Y-3622952D01*
X-7637606Y-3609141D01*
X-7638939Y-3604937D01*
X-7639953Y-3600882D01*
X-7640616Y-3596617D01*
X-7640999Y-3591476D01*
X-7641177Y-3584797D01*
X-7641220Y-3575914D01*
X-7641220Y-3553453D01*
X-7653771Y-3564757D01*
X-7662404Y-3572424D01*
X-7682448Y-3589293D01*
X-7701653Y-3604040D01*
X-7720408Y-3616939D01*
X-7739102Y-3628266D01*
X-7758125Y-3638294D01*
X-7768211Y-3643102D01*
X-7780027Y-3648236D01*
X-7791273Y-3652434D01*
X-7802972Y-3656066D01*
X-7816152Y-3659507D01*
X-7831282Y-3663192D01*
X-7912327Y-3663791D01*
X-7924362Y-3663874D01*
X-7941941Y-3663967D01*
X-7957080Y-3663995D01*
X-7970045Y-3663942D01*
X-7981102Y-3663796D01*
X-7990516Y-3663542D01*
X-7998555Y-3663168D01*
X-8005482Y-3662661D01*
X-8011567Y-3662005D01*
X-8017073Y-3661187D01*
X-8022266Y-3660194D01*
X-8027414Y-3659013D01*
X-8032782Y-3657629D01*
X-8035337Y-3656930D01*
X-8053307Y-3651262D01*
X-8071582Y-3644283D01*
X-8089528Y-3636290D01*
X-8106512Y-3627586D01*
X-8121899Y-3618468D01*
X-8135057Y-3609236D01*
X-8135503Y-3608881D01*
X-8138728Y-3606113D01*
X-8143682Y-3601668D01*
X-8150088Y-3595802D01*
X-8157669Y-3588773D01*
X-8166148Y-3580836D01*
X-8175246Y-3572249D01*
X-8184688Y-3563270D01*
X-8191983Y-3556289D01*
X-8201775Y-3546851D01*
X-8209843Y-3538960D01*
X-8216420Y-3532369D01*
X-8221739Y-3526838D01*
X-8226033Y-3522119D01*
X-8229536Y-3517970D01*
X-8232480Y-3514144D01*
X-8235098Y-3510400D01*
X-8239708Y-3503151D01*
X-8249765Y-3484669D01*
X-8258760Y-3464341D01*
X-8266449Y-3442816D01*
X-8272588Y-3420745D01*
X-8276932Y-3398779D01*
X-8277107Y-3397465D01*
X-8277381Y-3394447D01*
X-8277628Y-3390332D01*
X-8277846Y-3384986D01*
X-8278037Y-3378271D01*
X-8278206Y-3370052D01*
X-8278349Y-3360191D01*
X-8278472Y-3348552D01*
X-8278574Y-3334999D01*
X-8278656Y-3319395D01*
X-8278720Y-3301606D01*
X-8278767Y-3281492D01*
X-8278801Y-3258919D01*
X-8278818Y-3233749D01*
X-8278824Y-3208000D01*
X-8118850Y-3208000D01*
X-8118849Y-3213064D01*
X-8118848Y-3239469D01*
X-8118841Y-3263189D01*
X-8118822Y-3284382D01*
X-8118786Y-3303204D01*
X-8118726Y-3319809D01*
X-8118636Y-3334355D01*
X-8118508Y-3346999D01*
X-8118338Y-3357897D01*
X-8118117Y-3367205D01*
X-8117840Y-3375079D01*
X-8117500Y-3381676D01*
X-8117091Y-3387150D01*
X-8116605Y-3391661D01*
X-8116039Y-3395364D01*
X-8115384Y-3398415D01*
X-8114632Y-3400970D01*
X-8113782Y-3403184D01*
X-8112822Y-3405217D01*
X-8111748Y-3407222D01*
X-8110552Y-3409357D01*
X-8110171Y-3410005D01*
X-8108160Y-3412803D01*
X-8105051Y-3416405D01*
X-8100665Y-3420991D01*
X-8094823Y-3426740D01*
X-8087344Y-3433827D01*
X-8078051Y-3442432D01*
X-8066763Y-3452730D01*
X-8066669Y-3452816D01*
X-8055105Y-3463262D01*
X-8045359Y-3471925D01*
X-8037167Y-3478997D01*
X-8030263Y-3484667D01*
X-8024385Y-3489124D01*
X-8019267Y-3492557D01*
X-8014647Y-3495157D01*
X-8010259Y-3497112D01*
X-8005842Y-3498613D01*
X-8001129Y-3499849D01*
X-8000874Y-3499906D01*
X-7996804Y-3500437D01*
X-7990264Y-3500894D01*
X-7981610Y-3501280D01*
X-7971198Y-3501594D01*
X-7959383Y-3501835D01*
X-7946523Y-3502005D01*
X-7932971Y-3502103D01*
X-7919085Y-3502129D01*
X-7905220Y-3502084D01*
X-7891732Y-3501968D01*
X-7878976Y-3501781D01*
X-7867310Y-3501522D01*
X-7857087Y-3501193D01*
X-7848665Y-3500794D01*
X-7842400Y-3500323D01*
X-7838647Y-3499782D01*
X-7837437Y-3499488D01*
X-7834727Y-3498786D01*
X-7832116Y-3497993D01*
X-7829474Y-3497005D01*
X-7826666Y-3495718D01*
X-7823556Y-3494027D01*
X-7820011Y-3491826D01*
X-7815897Y-3489014D01*
X-7811080Y-3485484D01*
X-7805425Y-3481132D01*
X-7798799Y-3475855D01*
X-7791066Y-3469546D01*
X-7782094Y-3462103D01*
X-7771747Y-3453421D01*
X-7759892Y-3443394D01*
X-7746394Y-3431920D01*
X-7731119Y-3418893D01*
X-7713934Y-3404209D01*
X-7694704Y-3387764D01*
X-7684651Y-3379090D01*
X-7675948Y-3371357D01*
X-7668958Y-3364818D01*
X-7663405Y-3359171D01*
X-7659009Y-3354117D01*
X-7655494Y-3349357D01*
X-7652583Y-3344590D01*
X-7649996Y-3339518D01*
X-7649607Y-3338693D01*
X-7648175Y-3335598D01*
X-7646934Y-3332667D01*
X-7645869Y-3329683D01*
X-7644967Y-3326427D01*
X-7644215Y-3322686D01*
X-7643599Y-3318242D01*
X-7643105Y-3312878D01*
X-7642721Y-3306378D01*
X-7642431Y-3298525D01*
X-7642224Y-3289102D01*
X-7642084Y-3277894D01*
X-7641999Y-3264682D01*
X-7641956Y-3249252D01*
X-7641940Y-3231387D01*
X-7641937Y-3210869D01*
X-7641937Y-3207538D01*
X-7641944Y-3188114D01*
X-7641964Y-3171305D01*
X-7642004Y-3156890D01*
X-7642066Y-3144651D01*
X-7642158Y-3134366D01*
X-7642283Y-3125818D01*
X-7642447Y-3118785D01*
X-7642655Y-3113048D01*
X-7642910Y-3108387D01*
X-7643219Y-3104583D01*
X-7643586Y-3101416D01*
X-7644016Y-3098666D01*
X-7644515Y-3096114D01*
X-7646561Y-3088109D01*
X-7650886Y-3076288D01*
X-7656324Y-3065720D01*
X-7662506Y-3057200D01*
X-7664201Y-3055492D01*
X-7668071Y-3051886D01*
X-7673709Y-3046786D01*
X-7680886Y-3040389D01*
X-7689374Y-3032893D01*
X-7698942Y-3024499D01*
X-7709359Y-3015401D01*
X-7720399Y-3005801D01*
X-7731830Y-2995896D01*
X-7743424Y-2985884D01*
X-7754950Y-2975961D01*
X-7766178Y-2966329D01*
X-7776881Y-2957184D01*
X-7786827Y-2948725D01*
X-7795787Y-2941149D01*
X-7803532Y-2934656D01*
X-7809834Y-2929442D01*
X-7814460Y-2925707D01*
X-7817183Y-2923649D01*
X-7821422Y-2921075D01*
X-7828165Y-2917680D01*
X-7834619Y-2915074D01*
X-7834774Y-2915022D01*
X-7836978Y-2914310D01*
X-7839161Y-2913712D01*
X-7841583Y-2913214D01*
X-7844509Y-2912807D01*
X-7848202Y-2912479D01*
X-7852923Y-2912217D01*
X-7858936Y-2912010D01*
X-7866505Y-2911847D01*
X-7875890Y-2911715D01*
X-7887356Y-2911603D01*
X-7901166Y-2911500D01*
X-7917581Y-2911393D01*
X-7927836Y-2911331D01*
X-7943017Y-2911258D01*
X-7955741Y-2911229D01*
X-7966264Y-2911248D01*
X-7974845Y-2911323D01*
X-7981739Y-2911459D01*
X-7987207Y-2911661D01*
X-7991505Y-2911938D01*
X-7994891Y-2912292D01*
X-7997623Y-2912731D01*
X-7999958Y-2913259D01*
X-8006667Y-2915310D01*
X-8018814Y-2920685D01*
X-8031385Y-2928433D01*
X-8033808Y-2930180D01*
X-8039418Y-2934501D01*
X-8046237Y-2940003D01*
X-8053921Y-2946387D01*
X-8062129Y-2953353D01*
X-8070516Y-2960600D01*
X-8078740Y-2967830D01*
X-8086459Y-2974742D01*
X-8093330Y-2981036D01*
X-8099009Y-2986412D01*
X-8103155Y-2990570D01*
X-8105424Y-2993210D01*
X-8109018Y-2999189D01*
X-8114139Y-3011308D01*
X-8117400Y-3024698D01*
X-8117452Y-3025077D01*
X-8117689Y-3028630D01*
X-8117905Y-3034979D01*
X-8118100Y-3044065D01*
X-8118274Y-3055825D01*
X-8118427Y-3070202D01*
X-8118556Y-3087133D01*
X-8118662Y-3106558D01*
X-8118746Y-3128418D01*
X-8118804Y-3152652D01*
X-8118840Y-3179199D01*
X-8118850Y-3208000D01*
X-8278824Y-3208000D01*
X-8278825Y-3205848D01*
X-8278824Y-3182655D01*
X-8278816Y-3158333D01*
X-8278801Y-3136584D01*
X-8278778Y-3117248D01*
X-8278742Y-3100167D01*
X-8278693Y-3085180D01*
X-8278627Y-3072129D01*
X-8278544Y-3060855D01*
X-8278441Y-3051199D01*
X-8278315Y-3043001D01*
X-8278166Y-3036102D01*
X-8277990Y-3030343D01*
X-8277785Y-3025566D01*
X-8277550Y-3021610D01*
X-8277283Y-3018318D01*
X-8276981Y-3015530D01*
X-8276642Y-3013085D01*
X-8276264Y-3010827D01*
X-8273396Y-2996545D01*
X-8267438Y-2973493D01*
X-8260105Y-2951513D01*
X-8251549Y-2930951D01*
X-8241919Y-2912153D01*
X-8231366Y-2895466D01*
X-8220038Y-2881232D01*
X-8219961Y-2881149D01*
X-8217272Y-2878459D01*
X-8212683Y-2874149D01*
X-8206460Y-2868451D01*
X-8198867Y-2861601D01*
X-8190169Y-2853834D01*
X-8180633Y-2845385D01*
X-8170523Y-2836488D01*
X-8160103Y-2827380D01*
X-8149641Y-2818293D01*
X-8139399Y-2809465D01*
X-8129643Y-2801128D01*
X-8114711Y-2789374D01*
X-8093957Y-2775974D01*
X-8072320Y-2765274D01*
X-8049707Y-2757229D01*
X-8026022Y-2751793D01*
X-8024369Y-2751516D01*
X-8020847Y-2750978D01*
X-8017217Y-2750521D01*
X-8013227Y-2750140D01*
X-8008625Y-2749826D01*
X-8003162Y-2749575D01*
X-7996585Y-2749378D01*
X-7988646Y-2749231D01*
X-7979092Y-2749124D01*
X-7967673Y-2749054D01*
X-7954139Y-2749011D01*
X-7938236Y-2748992D01*
X-7919716Y-2748987D01*
X-7918850Y-2748987D01*
X-7899950Y-2748999D01*
X-7883675Y-2749034D01*
X-7869794Y-2749098D01*
X-7858074Y-2749195D01*
X-7848282Y-2749331D01*
X-7840187Y-2749509D01*
X-7833554Y-2749737D01*
X-7828152Y-2750019D01*
X-7823747Y-2750360D01*
X-7820108Y-2750765D01*
X-7817002Y-2751239D01*
X-7796902Y-2755964D01*
X-7775975Y-2763320D01*
X-7755479Y-2772942D01*
X-7736028Y-2784578D01*
X-7733069Y-2786657D01*
X-7727585Y-2790712D01*
X-7720507Y-2796089D01*
X-7712191Y-2802514D01*
X-7702989Y-2809711D01*
X-7693257Y-2817409D01*
X-7683349Y-2825332D01*
X-7674077Y-2832773D01*
X-7665475Y-2839646D01*
X-7657837Y-2845719D01*
X-7651416Y-2850791D01*
X-7646468Y-2854663D01*
X-7643244Y-2857132D01*
X-7641998Y-2858000D01*
X-7641946Y-2857510D01*
X-7641854Y-2854495D01*
X-7641760Y-2848873D01*
X-7641667Y-2840804D01*
X-7641573Y-2830458D01*
X-7641480Y-2817995D01*
X-7641390Y-2803581D01*
X-7641301Y-2787380D01*
X-7641216Y-2769556D01*
X-7641138Y-2750274D01*
X-7641063Y-2729696D01*
X-7640996Y-2707989D01*
X-7640938Y-2685316D01*
X-7640887Y-2661841D01*
X-7640502Y-2465682D01*
X-7637286Y-2457794D01*
X-7636562Y-2456078D01*
X-7629630Y-2443448D01*
X-7620561Y-2432007D01*
X-7609846Y-2422288D01*
X-7597968Y-2414826D01*
X-7589858Y-2411308D01*
X-7575920Y-2407571D01*
X-7561860Y-2406465D01*
X-7547995Y-2407885D01*
X-7534649Y-2411724D01*
X-7522141Y-2417880D01*
X-7510791Y-2426247D01*
X-7500921Y-2436720D01*
X-7492852Y-2449192D01*
X-7492626Y-2449615D01*
X-7491846Y-2450970D01*
X-7491112Y-2452140D01*
X-7490421Y-2453211D01*
X-7489773Y-2454268D01*
X-7489166Y-2455394D01*
X-7488600Y-2456676D01*
X-7488072Y-2458197D01*
X-7487581Y-2460044D01*
X-7487126Y-2462299D01*
X-7486706Y-2465049D01*
X-7486319Y-2468378D01*
X-7485964Y-2472370D01*
X-7485639Y-2477112D01*
X-7485343Y-2482686D01*
X-7485075Y-2489179D01*
X-7484833Y-2496675D01*
X-7484618Y-2505258D01*
X-7484425Y-2515016D01*
X-7484255Y-2526029D01*
X-7484105Y-2538386D01*
X-7483975Y-2552170D01*
X-7483864Y-2567465D01*
X-7483769Y-2584357D01*
X-7483690Y-2602931D01*
X-7483625Y-2623272D01*
X-7483572Y-2645463D01*
X-7483532Y-2669590D01*
X-7483502Y-2695738D01*
X-7483479Y-2723992D01*
X-7483465Y-2754435D01*
X-7483456Y-2787155D01*
X-7483453Y-2822234D01*
X-7483453Y-2859758D01*
X-7483454Y-2899811D01*
X-7483456Y-2942480D01*
X-7483457Y-2987848D01*
X-7483456Y-3035998D01*
X-7483456Y-3072804D01*
X-7483454Y-3118222D01*
X-7483453Y-3160923D01*
X-7483455Y-3200992D01*
X-7483456Y-3207538D01*
X-7483457Y-3238515D01*
G37*
G36*
X9090253Y-3808200D02*
G01*
X9090193Y-3822705D01*
X9090128Y-3835933D01*
X9090059Y-3847950D01*
X9089985Y-3858825D01*
X9089905Y-3868624D01*
X9089819Y-3877418D01*
X9089727Y-3885272D01*
X9089629Y-3892254D01*
X9089526Y-3898434D01*
X9089416Y-3903878D01*
X9089299Y-3908653D01*
X9089176Y-3912829D01*
X9089045Y-3916473D01*
X9088908Y-3919652D01*
X9088762Y-3922434D01*
X9088610Y-3924888D01*
X9088449Y-3927080D01*
X9088282Y-3929079D01*
X9088105Y-3930953D01*
X9086732Y-3944049D01*
X9080378Y-3990510D01*
X9071840Y-4035359D01*
X9061044Y-4078875D01*
X9047912Y-4121337D01*
X9032370Y-4163023D01*
X9014343Y-4204213D01*
X8995404Y-4241883D01*
X8971805Y-4282938D01*
X8945958Y-4322342D01*
X8917962Y-4360019D01*
X8887920Y-4395894D01*
X8855930Y-4429894D01*
X8822093Y-4461944D01*
X8786507Y-4491969D01*
X8749275Y-4519895D01*
X8710494Y-4545648D01*
X8670266Y-4569151D01*
X8628692Y-4590332D01*
X8585870Y-4609116D01*
X8541900Y-4625430D01*
X8496883Y-4639195D01*
X8450919Y-4650340D01*
X8404108Y-4658790D01*
X8395011Y-4660069D01*
X8381396Y-4661749D01*
X8366811Y-4663334D01*
X8352015Y-4664751D01*
X8337769Y-4665929D01*
X8324833Y-4666795D01*
X8313969Y-4667278D01*
X8313556Y-4667281D01*
X8310572Y-4667289D01*
X8304755Y-4667295D01*
X8296133Y-4667302D01*
X8284729Y-4667309D01*
X8270568Y-4667316D01*
X8253677Y-4667323D01*
X8234080Y-4667329D01*
X8211802Y-4667335D01*
X8186869Y-4667342D01*
X8159307Y-4667348D01*
X8129139Y-4667355D01*
X8096393Y-4667362D01*
X8061092Y-4667368D01*
X8023263Y-4667374D01*
X7982930Y-4667380D01*
X7940119Y-4667386D01*
X7894855Y-4667392D01*
X7847163Y-4667397D01*
X7797070Y-4667403D01*
X7744599Y-4667409D01*
X7689775Y-4667414D01*
X7632626Y-4667420D01*
X7573176Y-4667425D01*
X7511449Y-4667431D01*
X7447472Y-4667437D01*
X7381269Y-4667441D01*
X7312866Y-4667447D01*
X7242288Y-4667451D01*
X7169560Y-4667456D01*
X7094709Y-4667460D01*
X7017758Y-4667465D01*
X6938733Y-4667471D01*
X6857659Y-4667475D01*
X6774563Y-4667479D01*
X6689469Y-4667484D01*
X6602402Y-4667488D01*
X6513387Y-4667492D01*
X6422451Y-4667496D01*
X6329617Y-4667500D01*
X6234912Y-4667505D01*
X6138360Y-4667508D01*
X6039988Y-4667511D01*
X5939821Y-4667515D01*
X5837882Y-4667518D01*
X5734198Y-4667522D01*
X5628795Y-4667525D01*
X5521696Y-4667528D01*
X5412928Y-4667532D01*
X5302516Y-4667534D01*
X5190485Y-4667537D01*
X5076862Y-4667540D01*
X4961669Y-4667542D01*
X4844933Y-4667545D01*
X4726680Y-4667548D01*
X4606935Y-4667550D01*
X4485722Y-4667552D01*
X4363067Y-4667554D01*
X4238996Y-4667556D01*
X4113534Y-4667558D01*
X3986705Y-4667560D01*
X3858535Y-4667561D01*
X3729051Y-4667562D01*
X3598276Y-4667564D01*
X3466236Y-4667566D01*
X3332956Y-4667567D01*
X3198462Y-4667567D01*
X3062778Y-4667569D01*
X2925932Y-4667569D01*
X2787945Y-4667570D01*
X2648846Y-4667571D01*
X2508660Y-4667571D01*
X2367409Y-4667572D01*
X2225122Y-4667572D01*
X2081823Y-4667572D01*
X1937536Y-4667572D01*
X1792288Y-4667572D01*
X1646104Y-4667571D01*
X1499009Y-4667571D01*
X1351027Y-4667570D01*
X1202185Y-4667569D01*
X1052508Y-4667568D01*
X902020Y-4667567D01*
X750749Y-4667566D01*
X598717Y-4667565D01*
X445952Y-4667563D01*
X292479Y-4667562D01*
X138320Y-4667561D01*
X-16495Y-4667559D01*
X-8333333Y-4667458D01*
X-8361305Y-4664358D01*
X-8363404Y-4664124D01*
X-8395168Y-4660127D01*
X-8424861Y-4655459D01*
X-8453187Y-4649974D01*
X-8480852Y-4643521D01*
X-8508562Y-4635949D01*
X-8537023Y-4627111D01*
X-8576162Y-4613132D01*
X-8619560Y-4594816D01*
X-8661704Y-4574006D01*
X-8702491Y-4550792D01*
X-8741819Y-4525264D01*
X-8779585Y-4497513D01*
X-8815687Y-4467630D01*
X-8850021Y-4435705D01*
X-8882486Y-4401829D01*
X-8912978Y-4366095D01*
X-8941396Y-4328589D01*
X-8967635Y-4289406D01*
X-8991594Y-4248634D01*
X-9013171Y-4206365D01*
X-9019586Y-4192497D01*
X-9036922Y-4151167D01*
X-9051784Y-4109324D01*
X-9064252Y-4066675D01*
X-9074407Y-4022927D01*
X-9082327Y-3977784D01*
X-9088093Y-3930953D01*
X-9088188Y-3929972D01*
X-9088361Y-3928045D01*
X-9088525Y-3925963D01*
X-9088682Y-3923656D01*
X-9088831Y-3921058D01*
X-9088973Y-3918100D01*
X-9089107Y-3914715D01*
X-9089235Y-3910835D01*
X-9089355Y-3906391D01*
X-9089469Y-3901316D01*
X-9089576Y-3895543D01*
X-9089677Y-3889003D01*
X-9089771Y-3881629D01*
X-9089860Y-3873353D01*
X-9089943Y-3864107D01*
X-9090021Y-3853822D01*
X-9090092Y-3842433D01*
X-9090160Y-3829870D01*
X-9090222Y-3816066D01*
X-9090279Y-3800952D01*
X-9090331Y-3784462D01*
X-9090380Y-3766527D01*
X-9090424Y-3747080D01*
X-9090464Y-3726052D01*
X-9090500Y-3703377D01*
X-9090533Y-3678985D01*
X-9090562Y-3652809D01*
X-9090588Y-3624782D01*
X-9090610Y-3594836D01*
X-9090630Y-3562902D01*
X-9090647Y-3528913D01*
X-9090662Y-3492801D01*
X-9090674Y-3454499D01*
X-9090684Y-3413938D01*
X-9090693Y-3371051D01*
X-9090699Y-3325769D01*
X-9090704Y-3278027D01*
X-9090708Y-3227753D01*
X-9090711Y-3174882D01*
X-9090712Y-3119347D01*
X-9090714Y-3061078D01*
X-9090714Y-3014805D01*
X-8910178Y-3014805D01*
X-8910175Y-3059586D01*
X-8910166Y-3104241D01*
X-8910153Y-3148674D01*
X-8910136Y-3192794D01*
X-8910114Y-3236504D01*
X-8910088Y-3279710D01*
X-8910057Y-3322317D01*
X-8910022Y-3364230D01*
X-8909983Y-3405357D01*
X-8909938Y-3445599D01*
X-8909889Y-3484866D01*
X-8909836Y-3523059D01*
X-8909779Y-3560088D01*
X-8909716Y-3595855D01*
X-8909649Y-3630267D01*
X-8909578Y-3663230D01*
X-8909502Y-3694646D01*
X-8909422Y-3724424D01*
X-8909337Y-3752469D01*
X-8909247Y-3778685D01*
X-8909154Y-3802978D01*
X-8909056Y-3825254D01*
X-8908952Y-3845418D01*
X-8908845Y-3863374D01*
X-8908733Y-3879030D01*
X-8908617Y-3892289D01*
X-8908496Y-3903059D01*
X-8908370Y-3911243D01*
X-8908240Y-3916747D01*
X-8908106Y-3919478D01*
X-8903945Y-3952281D01*
X-8896313Y-3994225D01*
X-8886201Y-4034790D01*
X-8873565Y-4074082D01*
X-8858363Y-4112206D01*
X-8840550Y-4149267D01*
X-8820085Y-4185373D01*
X-8796923Y-4220626D01*
X-8771023Y-4255136D01*
X-8767803Y-4259060D01*
X-8760031Y-4267988D01*
X-8750723Y-4278142D01*
X-8740306Y-4289099D01*
X-8729204Y-4300431D01*
X-8717843Y-4311715D01*
X-8706647Y-4322524D01*
X-8696044Y-4332431D01*
X-8686458Y-4341014D01*
X-8678314Y-4347844D01*
X-8649884Y-4369445D01*
X-8616290Y-4392162D01*
X-8581998Y-4412328D01*
X-8546810Y-4430021D01*
X-8510530Y-4445327D01*
X-8472961Y-4458325D01*
X-8433905Y-4469099D01*
X-8393166Y-4477730D01*
X-8350547Y-4484301D01*
X-8350239Y-4484335D01*
X-8349509Y-4484394D01*
X-8348515Y-4484453D01*
X-8347233Y-4484511D01*
X-8345640Y-4484568D01*
X-8343711Y-4484623D01*
X-8341423Y-4484677D01*
X-8338750Y-4484731D01*
X-8335669Y-4484784D01*
X-8332156Y-4484836D01*
X-8328186Y-4484887D01*
X-8323736Y-4484937D01*
X-8318782Y-4484986D01*
X-8313298Y-4485034D01*
X-8307262Y-4485082D01*
X-8300648Y-4485129D01*
X-8293434Y-4485174D01*
X-8285595Y-4485219D01*
X-8277105Y-4485263D01*
X-8267942Y-4485306D01*
X-8258082Y-4485349D01*
X-8247500Y-4485390D01*
X-8236172Y-4485431D01*
X-8224074Y-4485471D01*
X-8211182Y-4485510D01*
X-8197472Y-4485548D01*
X-8182919Y-4485587D01*
X-8167500Y-4485623D01*
X-8151189Y-4485660D01*
X-8133965Y-4485695D01*
X-8115802Y-4485730D01*
X-8096675Y-4485764D01*
X-8076562Y-4485798D01*
X-8055437Y-4485831D01*
X-8033276Y-4485863D01*
X-8010057Y-4485894D01*
X-7985753Y-4485925D01*
X-7960342Y-4485955D01*
X-7933799Y-4485984D01*
X-7906100Y-4486013D01*
X-7877221Y-4486041D01*
X-7847137Y-4486069D01*
X-7815826Y-4486097D01*
X-7783262Y-4486123D01*
X-7749421Y-4486149D01*
X-7714279Y-4486175D01*
X-7677812Y-4486200D01*
X-7639997Y-4486223D01*
X-7600807Y-4486247D01*
X-7560222Y-4486271D01*
X-7518215Y-4486293D01*
X-7474762Y-4486315D01*
X-7429839Y-4486337D01*
X-7383423Y-4486359D01*
X-7335488Y-4486380D01*
X-7286013Y-4486400D01*
X-7234971Y-4486420D01*
X-7182338Y-4486439D01*
X-7128092Y-4486458D01*
X-7072206Y-4486477D01*
X-7014658Y-4486495D01*
X-6955423Y-4486513D01*
X-6894478Y-4486530D01*
X-6831797Y-4486547D01*
X-6767358Y-4486564D01*
X-6701134Y-4486580D01*
X-6633104Y-4486596D01*
X-6563242Y-4486612D01*
X-6491524Y-4486628D01*
X-6417927Y-4486642D01*
X-6342427Y-4486658D01*
X-6264998Y-4486672D01*
X-6185616Y-4486686D01*
X-6104258Y-4486699D01*
X-6020901Y-4486713D01*
X-5935518Y-4486727D01*
X-5848087Y-4486740D01*
X-5758584Y-4486753D01*
X-5666983Y-4486765D01*
X-5573262Y-4486778D01*
X-5477395Y-4486789D01*
X-5379359Y-4486801D01*
X-5279129Y-4486813D01*
X-5176682Y-4486825D01*
X-5071995Y-4486836D01*
X-4965040Y-4486848D01*
X-4855796Y-4486859D01*
X-4744238Y-4486870D01*
X-4630342Y-4486881D01*
X-4514083Y-4486892D01*
X-4395439Y-4486902D01*
X-4274383Y-4486914D01*
X-4150894Y-4486924D01*
X-4024945Y-4486934D01*
X-3896513Y-4486944D01*
X-3765575Y-4486954D01*
X-3632106Y-4486965D01*
X-3496080Y-4486975D01*
X-3357477Y-4486985D01*
X-3216269Y-4486995D01*
X-3072433Y-4487005D01*
X-2925947Y-4487016D01*
X-2776783Y-4487026D01*
X-2624921Y-4487036D01*
X-2470333Y-4487047D01*
X-2312998Y-4487057D01*
X-2152891Y-4487067D01*
X-1989986Y-4487078D01*
X-1824262Y-4487089D01*
X-1655692Y-4487099D01*
X5020513Y-4487518D01*
X5020513Y-3812899D01*
X5617500Y-3812899D01*
X5619958Y-3831353D01*
X5620721Y-3834773D01*
X5626165Y-3851517D01*
X5634098Y-3867362D01*
X5644253Y-3882044D01*
X5656365Y-3895303D01*
X5670168Y-3906877D01*
X5685395Y-3916502D01*
X5701781Y-3923919D01*
X5719058Y-3928865D01*
X5720570Y-3929152D01*
X5727050Y-3930113D01*
X5734654Y-3930942D01*
X5742033Y-3931488D01*
X5743943Y-3931500D01*
X5748646Y-3931464D01*
X5755981Y-3931380D01*
X5765822Y-3931249D01*
X5778049Y-3931075D01*
X5792537Y-3930857D01*
X5809164Y-3930600D01*
X5827807Y-3930306D01*
X5848342Y-3929977D01*
X5870647Y-3929613D01*
X5894599Y-3929218D01*
X5920074Y-3928795D01*
X5946951Y-3928345D01*
X5975106Y-3927869D01*
X6004417Y-3927371D01*
X6034759Y-3926852D01*
X6066010Y-3926316D01*
X6098047Y-3925762D01*
X6130749Y-3925195D01*
X6163990Y-3924616D01*
X6197649Y-3924027D01*
X6231602Y-3923431D01*
X6265726Y-3922829D01*
X6299899Y-3922223D01*
X6333998Y-3921616D01*
X6367899Y-3921011D01*
X6401480Y-3920409D01*
X6434619Y-3919811D01*
X6467191Y-3919221D01*
X6499073Y-3918641D01*
X6530143Y-3918073D01*
X6560279Y-3917518D01*
X6589357Y-3916978D01*
X6617253Y-3916458D01*
X6643846Y-3915958D01*
X6669012Y-3915480D01*
X6692628Y-3915027D01*
X6714572Y-3914600D01*
X6734720Y-3914202D01*
X6752949Y-3913835D01*
X6757611Y-3913741D01*
X6757611Y-3088881D01*
X6757611Y-3066084D01*
X6757610Y-3051130D01*
X7254676Y-3051130D01*
X7254937Y-3066084D01*
X7254937Y-3066125D01*
X7255464Y-3080106D01*
X7256256Y-3092459D01*
X7257311Y-3102570D01*
X7260147Y-3121338D01*
X7267699Y-3158884D01*
X7277718Y-3195766D01*
X7290323Y-3232386D01*
X7305628Y-3269147D01*
X7306689Y-3271445D01*
X7309435Y-3277222D01*
X7313298Y-3285208D01*
X7318199Y-3295246D01*
X7324059Y-3307176D01*
X7330795Y-3320838D01*
X7338329Y-3336072D01*
X7346581Y-3352721D01*
X7355472Y-3370625D01*
X7364921Y-3389622D01*
X7374849Y-3409556D01*
X7385176Y-3430267D01*
X7395822Y-3451596D01*
X7406707Y-3473381D01*
X7417752Y-3495466D01*
X7428877Y-3517689D01*
X7440002Y-3539893D01*
X7451046Y-3561917D01*
X7461932Y-3583603D01*
X7472577Y-3604790D01*
X7482904Y-3625321D01*
X7492831Y-3645035D01*
X7502280Y-3663773D01*
X7511169Y-3681375D01*
X7519420Y-3697683D01*
X7526954Y-3712538D01*
X7533689Y-3725779D01*
X7539545Y-3737248D01*
X7544446Y-3746785D01*
X7548307Y-3754230D01*
X7551053Y-3759425D01*
X7552601Y-3762210D01*
X7562778Y-3778336D01*
X7573223Y-3793194D01*
X7584241Y-3807029D01*
X7596474Y-3820648D01*
X7610568Y-3834858D01*
X7628290Y-3850975D01*
X7653044Y-3870241D01*
X7679019Y-3886912D01*
X7706187Y-3900975D01*
X7734521Y-3912421D01*
X7763996Y-3921238D01*
X7794585Y-3927411D01*
X7826263Y-3930932D01*
X7826380Y-3930940D01*
X7830489Y-3931111D01*
X7837188Y-3931269D01*
X7846284Y-3931415D01*
X7857580Y-3931547D01*
X7870881Y-3931666D01*
X7885994Y-3931773D01*
X7902722Y-3931867D01*
X7920872Y-3931949D01*
X7940247Y-3932017D01*
X7960653Y-3932073D01*
X7981895Y-3932116D01*
X8003778Y-3932147D01*
X8026107Y-3932165D01*
X8048686Y-3932171D01*
X8071322Y-3932165D01*
X8093819Y-3932146D01*
X8115981Y-3932115D01*
X8137615Y-3932072D01*
X8158525Y-3932017D01*
X8178515Y-3931949D01*
X8197392Y-3931870D01*
X8214960Y-3931779D01*
X8231023Y-3931676D01*
X8245388Y-3931560D01*
X8257859Y-3931433D01*
X8268241Y-3931295D01*
X8276339Y-3931144D01*
X8281958Y-3930982D01*
X8284904Y-3930808D01*
X8285153Y-3930779D01*
X8301996Y-3927369D01*
X8318296Y-3921346D01*
X8333766Y-3912949D01*
X8348118Y-3902422D01*
X8361066Y-3890003D01*
X8372323Y-3875933D01*
X8381601Y-3860452D01*
X8388615Y-3843803D01*
X8390280Y-3838705D01*
X8391680Y-3833720D01*
X8392632Y-3828963D01*
X8393253Y-3823657D01*
X8393659Y-3817031D01*
X8393965Y-3808310D01*
X8394081Y-3798713D01*
X8393507Y-3786236D01*
X8391918Y-3775071D01*
X8389175Y-3764352D01*
X8385140Y-3753216D01*
X8378739Y-3740166D01*
X8369149Y-3725846D01*
X8357540Y-3712526D01*
X8344364Y-3700657D01*
X8330068Y-3690690D01*
X8315103Y-3683075D01*
X8311415Y-3681578D01*
X8306431Y-3679728D01*
X8301547Y-3678212D01*
X8296436Y-3677000D01*
X8290764Y-3676055D01*
X8284206Y-3675347D01*
X8276427Y-3674843D01*
X8267100Y-3674507D01*
X8255896Y-3674309D01*
X8242482Y-3674215D01*
X8226530Y-3674190D01*
X8170527Y-3674190D01*
X8170527Y-3042322D01*
X8170527Y-2410456D01*
X8216787Y-2410420D01*
X8223540Y-2410408D01*
X8240114Y-2410294D01*
X8254261Y-2410030D01*
X8266308Y-2409577D01*
X8276577Y-2408895D01*
X8285392Y-2407941D01*
X8293078Y-2406678D01*
X8299956Y-2405064D01*
X8306353Y-2403059D01*
X8312589Y-2400623D01*
X8318990Y-2397715D01*
X8332719Y-2389959D01*
X8347330Y-2378780D01*
X8360414Y-2365464D01*
X8371686Y-2350307D01*
X8380858Y-2333604D01*
X8382688Y-2329417D01*
X8388199Y-2312546D01*
X8391323Y-2294769D01*
X8392063Y-2276591D01*
X8390423Y-2258515D01*
X8386408Y-2241050D01*
X8380021Y-2224697D01*
X8373065Y-2212334D01*
X8362811Y-2198432D01*
X8350818Y-2185767D01*
X8337527Y-2174744D01*
X8323384Y-2165774D01*
X8308832Y-2159263D01*
X8308016Y-2158974D01*
X8305601Y-2158113D01*
X8303335Y-2157330D01*
X8301081Y-2156619D01*
X8298700Y-2155980D01*
X8296057Y-2155407D01*
X8293014Y-2154897D01*
X8289433Y-2154446D01*
X8285178Y-2154050D01*
X8280112Y-2153707D01*
X8274098Y-2153412D01*
X8266996Y-2153161D01*
X8258672Y-2152951D01*
X8248989Y-2152780D01*
X8237807Y-2152641D01*
X8224991Y-2152532D01*
X8210404Y-2152451D01*
X8193908Y-2152391D01*
X8175365Y-2152351D01*
X8154640Y-2152327D01*
X8131594Y-2152314D01*
X8106092Y-2152310D01*
X8077995Y-2152310D01*
X8047165Y-2152310D01*
X8041719Y-2152310D01*
X8011063Y-2152310D01*
X7983112Y-2152313D01*
X7957722Y-2152322D01*
X7934755Y-2152342D01*
X7914066Y-2152374D01*
X7895517Y-2152424D01*
X7878964Y-2152496D01*
X7864268Y-2152592D01*
X7851287Y-2152716D01*
X7839879Y-2152872D01*
X7829904Y-2153064D01*
X7821219Y-2153295D01*
X7813684Y-2153569D01*
X7807158Y-2153890D01*
X7801498Y-2154261D01*
X7796565Y-2154686D01*
X7792216Y-2155168D01*
X7788311Y-2155712D01*
X7784708Y-2156321D01*
X7781264Y-2156998D01*
X7777840Y-2157748D01*
X7774296Y-2158574D01*
X7770488Y-2159478D01*
X7760637Y-2161994D01*
X7732773Y-2171011D01*
X7705346Y-2182636D01*
X7678625Y-2196674D01*
X7652874Y-2212936D01*
X7628361Y-2231224D01*
X7605351Y-2251348D01*
X7584108Y-2273115D01*
X7564902Y-2296332D01*
X7547997Y-2320805D01*
X7547437Y-2321718D01*
X7544608Y-2326648D01*
X7540898Y-2333452D01*
X7536602Y-2341573D01*
X7532017Y-2350453D01*
X7527439Y-2359534D01*
X7525428Y-2363583D01*
X7520709Y-2373105D01*
X7515047Y-2384558D01*
X7508524Y-2397776D01*
X7501221Y-2412591D01*
X7493220Y-2428838D01*
X7484605Y-2446347D01*
X7475455Y-2464954D01*
X7465852Y-2484490D01*
X7455880Y-2504790D01*
X7445619Y-2525686D01*
X7435150Y-2547011D01*
X7424557Y-2568600D01*
X7413921Y-2590282D01*
X7403324Y-2611895D01*
X7392847Y-2633268D01*
X7382573Y-2654238D01*
X7372582Y-2674635D01*
X7362959Y-2694294D01*
X7353782Y-2713046D01*
X7345135Y-2730726D01*
X7337099Y-2747168D01*
X7329758Y-2762202D01*
X7323191Y-2775664D01*
X7317480Y-2787385D01*
X7312709Y-2797199D01*
X7308958Y-2804940D01*
X7306310Y-2810440D01*
X7304846Y-2813532D01*
X7298302Y-2828300D01*
X7284109Y-2865303D01*
X7272526Y-2903444D01*
X7263580Y-2942638D01*
X7257294Y-2982795D01*
X7256276Y-2993284D01*
X7255478Y-3006197D01*
X7254946Y-3020551D01*
X7254678Y-3035733D01*
X7254676Y-3051130D01*
X6757610Y-3051130D01*
X6757609Y-3008638D01*
X6757607Y-2953968D01*
X6757604Y-2902001D01*
X6757599Y-2852670D01*
X6757592Y-2805907D01*
X6757584Y-2761641D01*
X6757573Y-2719804D01*
X6757560Y-2680329D01*
X6757545Y-2643145D01*
X6757526Y-2608183D01*
X6757505Y-2575377D01*
X6757481Y-2544655D01*
X6757454Y-2515950D01*
X6757422Y-2489193D01*
X6757388Y-2464313D01*
X6757350Y-2441244D01*
X6757307Y-2419916D01*
X6757262Y-2400261D01*
X6757211Y-2382208D01*
X6757155Y-2365690D01*
X6757096Y-2350638D01*
X6757030Y-2336982D01*
X6756960Y-2324656D01*
X6756885Y-2313587D01*
X6756804Y-2303710D01*
X6756718Y-2294953D01*
X6756626Y-2287250D01*
X6756527Y-2280530D01*
X6756423Y-2274725D01*
X6756311Y-2269767D01*
X6756194Y-2265586D01*
X6756069Y-2262113D01*
X6755937Y-2259280D01*
X6755800Y-2257018D01*
X6755653Y-2255257D01*
X6755499Y-2253930D01*
X6755338Y-2252967D01*
X6754815Y-2250541D01*
X6749992Y-2234499D01*
X6742919Y-2219514D01*
X6733391Y-2205213D01*
X6721199Y-2191223D01*
X6707711Y-2178786D01*
X6693170Y-2168477D01*
X6677910Y-2160814D01*
X6661654Y-2155684D01*
X6644124Y-2152977D01*
X6625042Y-2152580D01*
X6616570Y-2152973D01*
X6610025Y-2153545D01*
X6604482Y-2154449D01*
X6599012Y-2155837D01*
X6592681Y-2157863D01*
X6591682Y-2158203D01*
X6581028Y-2162268D01*
X6571757Y-2166812D01*
X6562806Y-2172419D01*
X6553116Y-2179674D01*
X6548472Y-2183547D01*
X6535225Y-2196947D01*
X6524098Y-2212022D01*
X6515269Y-2228453D01*
X6508920Y-2245920D01*
X6505231Y-2264107D01*
X6505176Y-2264757D01*
X6505048Y-2267975D01*
X6504925Y-2273552D01*
X6504810Y-2281511D01*
X6504700Y-2291875D01*
X6504597Y-2304669D01*
X6504500Y-2319914D01*
X6504408Y-2337634D01*
X6504323Y-2357852D01*
X6504243Y-2380592D01*
X6504169Y-2405876D01*
X6504101Y-2433728D01*
X6504038Y-2464170D01*
X6503981Y-2497228D01*
X6503930Y-2532921D01*
X6503885Y-2571275D01*
X6503845Y-2612313D01*
X6503810Y-2656057D01*
X6503781Y-2702532D01*
X6503758Y-2751758D01*
X6503740Y-2803762D01*
X6503727Y-2858565D01*
X6503718Y-2916190D01*
X6503716Y-2976662D01*
X6503716Y-3000009D01*
X6503716Y-3677059D01*
X6117076Y-3677059D01*
X6083385Y-3677057D01*
X6045775Y-3677055D01*
X6010844Y-3677051D01*
X5978486Y-3677051D01*
X5948600Y-3677054D01*
X5921077Y-3677064D01*
X5895818Y-3677083D01*
X5872717Y-3677112D01*
X5851670Y-3677154D01*
X5832573Y-3677210D01*
X5815322Y-3677285D01*
X5799814Y-3677378D01*
X5785944Y-3677493D01*
X5773609Y-3677630D01*
X5762705Y-3677793D01*
X5753127Y-3677984D01*
X5744773Y-3678205D01*
X5737537Y-3678457D01*
X5731316Y-3678744D01*
X5726005Y-3679067D01*
X5721503Y-3679427D01*
X5717702Y-3679828D01*
X5714503Y-3680272D01*
X5711797Y-3680760D01*
X5709484Y-3681295D01*
X5707457Y-3681879D01*
X5705614Y-3682514D01*
X5703851Y-3683202D01*
X5702064Y-3683945D01*
X5700148Y-3684745D01*
X5698000Y-3685605D01*
X5689265Y-3689568D01*
X5676508Y-3697212D01*
X5663978Y-3706710D01*
X5652283Y-3717538D01*
X5642032Y-3729167D01*
X5633838Y-3741070D01*
X5632865Y-3742759D01*
X5625375Y-3758891D01*
X5620273Y-3776242D01*
X5617627Y-3794387D01*
X5617500Y-3812899D01*
X5020513Y-3812899D01*
X5020513Y-3000009D01*
X5020513Y-1512498D01*
X-1655692Y-1512917D01*
X-1782487Y-1512924D01*
X-1948897Y-1512934D01*
X-2112482Y-1512946D01*
X-2273262Y-1512956D01*
X-2431266Y-1512966D01*
X-2586515Y-1512976D01*
X-2739034Y-1512986D01*
X-2888846Y-1512997D01*
X-3035978Y-1513007D01*
X-3180450Y-1513017D01*
X-3322290Y-1513027D01*
X-3461521Y-1513037D01*
X-3598166Y-1513048D01*
X-3732250Y-1513058D01*
X-3863797Y-1513068D01*
X-3992831Y-1513079D01*
X-4119377Y-1513089D01*
X-4243458Y-1513099D01*
X-4365099Y-1513110D01*
X-4484323Y-1513121D01*
X-4601155Y-1513132D01*
X-4715618Y-1513142D01*
X-4827739Y-1513153D01*
X-4937540Y-1513165D01*
X-5045044Y-1513176D01*
X-5150278Y-1513187D01*
X-5253264Y-1513199D01*
X-5354026Y-1513210D01*
X-5452590Y-1513223D01*
X-5548979Y-1513235D01*
X-5643217Y-1513247D01*
X-5735328Y-1513259D01*
X-5825337Y-1513272D01*
X-5913267Y-1513285D01*
X-5999143Y-1513298D01*
X-6082989Y-1513312D01*
X-6164829Y-1513325D01*
X-6244687Y-1513339D01*
X-6322588Y-1513354D01*
X-6398554Y-1513368D01*
X-6472612Y-1513383D01*
X-6544784Y-1513399D01*
X-6615094Y-1513414D01*
X-6683568Y-1513430D01*
X-6750229Y-1513446D01*
X-6815101Y-1513462D01*
X-6878209Y-1513479D01*
X-6939575Y-1513496D01*
X-6999227Y-1513514D01*
X-7057185Y-1513533D01*
X-7113475Y-1513551D01*
X-7168122Y-1513570D01*
X-7221148Y-1513590D01*
X-7272579Y-1513609D01*
X-7322439Y-1513629D01*
X-7370751Y-1513650D01*
X-7417540Y-1513671D01*
X-7462829Y-1513693D01*
X-7506644Y-1513715D01*
X-7549008Y-1513737D01*
X-7589944Y-1513761D01*
X-7629479Y-1513784D01*
X-7667634Y-1513808D01*
X-7704436Y-1513833D01*
X-7739908Y-1513858D01*
X-7774073Y-1513884D01*
X-7806956Y-1513910D01*
X-7838582Y-1513937D01*
X-7868975Y-1513965D01*
X-7898157Y-1513993D01*
X-7926154Y-1514022D01*
X-7952990Y-1514051D01*
X-7978689Y-1514080D01*
X-8003275Y-1514111D01*
X-8026772Y-1514142D01*
X-8049205Y-1514175D01*
X-8070596Y-1514207D01*
X-8090972Y-1514240D01*
X-8110355Y-1514274D01*
X-8128770Y-1514309D01*
X-8146241Y-1514345D01*
X-8162792Y-1514380D01*
X-8178447Y-1514417D01*
X-8193231Y-1514454D01*
X-8207167Y-1514493D01*
X-8220281Y-1514532D01*
X-8232595Y-1514572D01*
X-8244133Y-1514612D01*
X-8254921Y-1514654D01*
X-8264981Y-1514696D01*
X-8274341Y-1514739D01*
X-8283020Y-1514783D01*
X-8291045Y-1514827D01*
X-8298441Y-1514872D01*
X-8305230Y-1514919D01*
X-8311437Y-1514967D01*
X-8317086Y-1515015D01*
X-8322202Y-1515064D01*
X-8326808Y-1515114D01*
X-8330929Y-1515164D01*
X-8334589Y-1515216D01*
X-8337810Y-1515269D01*
X-8340619Y-1515321D01*
X-8343040Y-1515376D01*
X-8345095Y-1515432D01*
X-8346810Y-1515488D01*
X-8348209Y-1515546D01*
X-8349315Y-1515603D01*
X-8350153Y-1515663D01*
X-8350746Y-1515723D01*
X-8388839Y-1521449D01*
X-8429544Y-1529769D01*
X-8468542Y-1540208D01*
X-8506041Y-1552850D01*
X-8542250Y-1567787D01*
X-8577373Y-1585099D01*
X-8611621Y-1604877D01*
X-8645198Y-1627206D01*
X-8678314Y-1652171D01*
X-8682239Y-1655392D01*
X-8691167Y-1663163D01*
X-8701322Y-1672471D01*
X-8712278Y-1682889D01*
X-8723611Y-1693991D01*
X-8734894Y-1705352D01*
X-8745702Y-1716547D01*
X-8755611Y-1727151D01*
X-8764192Y-1736737D01*
X-8771024Y-1744880D01*
X-8789549Y-1769124D01*
X-8813582Y-1804326D01*
X-8834917Y-1840436D01*
X-8853589Y-1877532D01*
X-8869630Y-1915693D01*
X-8883069Y-1954996D01*
X-8893940Y-1995519D01*
X-8902273Y-2037340D01*
X-8908102Y-2080537D01*
X-8908192Y-2082026D01*
X-8908323Y-2086599D01*
X-8908451Y-2093884D01*
X-8908573Y-2103786D01*
X-8908691Y-2116210D01*
X-8908804Y-2131063D01*
X-8908913Y-2148248D01*
X-8909018Y-2167673D01*
X-8909117Y-2189242D01*
X-8909213Y-2212861D01*
X-8909304Y-2238434D01*
X-8909391Y-2265868D01*
X-8909473Y-2295068D01*
X-8909550Y-2325939D01*
X-8909624Y-2358388D01*
X-8909692Y-2392317D01*
X-8909756Y-2427636D01*
X-8909815Y-2464246D01*
X-8909870Y-2502055D01*
X-8909921Y-2540968D01*
X-8909966Y-2580890D01*
X-8910008Y-2621726D01*
X-8910045Y-2663382D01*
X-8910077Y-2705765D01*
X-8910105Y-2748778D01*
X-8910129Y-2792327D01*
X-8910147Y-2836318D01*
X-8910162Y-2880656D01*
X-8910171Y-2925247D01*
X-8910177Y-2969994D01*
X-8910178Y-3014805D01*
X-9090714Y-3014805D01*
X-9090714Y-3000009D01*
X-9090714Y-2971541D01*
X-9090713Y-2911762D01*
X-9090711Y-2854754D01*
X-9090710Y-2800446D01*
X-9090707Y-2748773D01*
X-9090702Y-2699667D01*
X-9090697Y-2653060D01*
X-9090689Y-2608882D01*
X-9090680Y-2567068D01*
X-9090669Y-2527549D01*
X-9090655Y-2490258D01*
X-9090639Y-2455125D01*
X-9090620Y-2422086D01*
X-9090599Y-2391069D01*
X-9090575Y-2362010D01*
X-9090548Y-2334839D01*
X-9090517Y-2309487D01*
X-9090483Y-2285890D01*
X-9090444Y-2263976D01*
X-9090403Y-2243679D01*
X-9090357Y-2224933D01*
X-9090307Y-2207668D01*
X-9090251Y-2191816D01*
X-9090192Y-2177311D01*
X-9090127Y-2164083D01*
X-9090058Y-2152066D01*
X-9089984Y-2141191D01*
X-9089903Y-2131391D01*
X-9089817Y-2122598D01*
X-9089726Y-2114744D01*
X-9089628Y-2107761D01*
X-9089525Y-2101582D01*
X-9089414Y-2096138D01*
X-9089298Y-2091363D01*
X-9089174Y-2087187D01*
X-9089044Y-2083543D01*
X-9088906Y-2080364D01*
X-9088761Y-2077582D01*
X-9088608Y-2075128D01*
X-9088449Y-2072935D01*
X-9088280Y-2070936D01*
X-9088104Y-2069062D01*
X-9086685Y-2055469D01*
X-9082067Y-2019699D01*
X-9076271Y-1985623D01*
X-9069145Y-1952501D01*
X-9060535Y-1919597D01*
X-9050290Y-1886172D01*
X-9036310Y-1847033D01*
X-9017995Y-1803634D01*
X-8997185Y-1761491D01*
X-8973971Y-1720704D01*
X-8948443Y-1681376D01*
X-8920692Y-1643610D01*
X-8890808Y-1607508D01*
X-8858884Y-1573173D01*
X-8825009Y-1540709D01*
X-8789273Y-1510216D01*
X-8751769Y-1481799D01*
X-8712585Y-1455559D01*
X-8671813Y-1431600D01*
X-8629544Y-1410023D01*
X-8615677Y-1403609D01*
X-8574346Y-1386273D01*
X-8532503Y-1371411D01*
X-8489855Y-1358943D01*
X-8446106Y-1348788D01*
X-8400963Y-1340867D01*
X-8354133Y-1335101D01*
X-8353791Y-1335069D01*
X-8353079Y-1335010D01*
X-8352241Y-1334952D01*
X-8351255Y-1334895D01*
X-8350101Y-1334839D01*
X-8348756Y-1334785D01*
X-8347198Y-1334730D01*
X-8345404Y-1334677D01*
X-8343356Y-1334624D01*
X-8341028Y-1334572D01*
X-8338402Y-1334521D01*
X-8335453Y-1334472D01*
X-8332162Y-1334422D01*
X-8328505Y-1334373D01*
X-8324461Y-1334326D01*
X-8320009Y-1334280D01*
X-8315126Y-1334234D01*
X-8309791Y-1334188D01*
X-8303982Y-1334144D01*
X-8297677Y-1334100D01*
X-8290854Y-1334057D01*
X-8283493Y-1334015D01*
X-8275571Y-1333974D01*
X-8267065Y-1333933D01*
X-8257955Y-1333894D01*
X-8248218Y-1333854D01*
X-8237834Y-1333816D01*
X-8226779Y-1333778D01*
X-8215033Y-1333741D01*
X-8202573Y-1333705D01*
X-8189378Y-1333669D01*
X-8175426Y-1333635D01*
X-8160696Y-1333601D01*
X-8145164Y-1333567D01*
X-8128810Y-1333533D01*
X-8111612Y-1333502D01*
X-8093549Y-1333471D01*
X-8074597Y-1333439D01*
X-8054737Y-1333409D01*
X-8033945Y-1333380D01*
X-8012201Y-1333351D01*
X-7989481Y-1333323D01*
X-7965764Y-1333295D01*
X-7941030Y-1333268D01*
X-7915256Y-1333241D01*
X-7888420Y-1333216D01*
X-7860499Y-1333190D01*
X-7831475Y-1333165D01*
X-7801322Y-1333142D01*
X-7770021Y-1333118D01*
X-7737549Y-1333095D01*
X-7703885Y-1333073D01*
X-7669006Y-1333051D01*
X-7632892Y-1333029D01*
X-7595520Y-1333008D01*
X-7556868Y-1332989D01*
X-7516915Y-1332969D01*
X-7475639Y-1332949D01*
X-7433017Y-1332931D01*
X-7389030Y-1332912D01*
X-7343654Y-1332894D01*
X-7296868Y-1332877D01*
X-7248649Y-1332860D01*
X-7198978Y-1332844D01*
X-7147831Y-1332829D01*
X-7095186Y-1332814D01*
X-7041022Y-1332799D01*
X-6985317Y-1332784D01*
X-6928050Y-1332770D01*
X-6869199Y-1332757D01*
X-6808742Y-1332744D01*
X-6746656Y-1332731D01*
X-6682922Y-1332718D01*
X-6617516Y-1332706D01*
X-6550416Y-1332695D01*
X-6481601Y-1332683D01*
X-6411050Y-1332673D01*
X-6338740Y-1332663D01*
X-6264650Y-1332653D01*
X-6188758Y-1332644D01*
X-6111042Y-1332634D01*
X-6031481Y-1332626D01*
X-5950052Y-1332617D01*
X-5866734Y-1332609D01*
X-5781505Y-1332601D01*
X-5694343Y-1332593D01*
X-5605228Y-1332586D01*
X-5514135Y-1332579D01*
X-5421045Y-1332573D01*
X-5325935Y-1332566D01*
X-5228783Y-1332561D01*
X-5129568Y-1332554D01*
X-5028268Y-1332549D01*
X-4924861Y-1332544D01*
X-4819325Y-1332539D01*
X-4711640Y-1332535D01*
X-4601781Y-1332530D01*
X-4489729Y-1332526D01*
X-4375462Y-1332522D01*
X-4258957Y-1332519D01*
X-4140192Y-1332515D01*
X-4019146Y-1332512D01*
X-3895799Y-1332508D01*
X-3770126Y-1332506D01*
X-3642106Y-1332503D01*
X-3511719Y-1332501D01*
X-3378942Y-1332499D01*
X-3243753Y-1332496D01*
X-3106131Y-1332495D01*
X-2966053Y-1332493D01*
X-2823498Y-1332491D01*
X-2678446Y-1332490D01*
X-2530872Y-1332489D01*
X-2380756Y-1332487D01*
X-2228076Y-1332486D01*
X-2072810Y-1332485D01*
X-1914936Y-1332485D01*
X-1754433Y-1332484D01*
X-1591279Y-1332483D01*
X-1425452Y-1332483D01*
X-1256931Y-1332482D01*
X-1085693Y-1332482D01*
X-911715Y-1332482D01*
X-734980Y-1332481D01*
X-555461Y-1332481D01*
X-373139Y-1332481D01*
X-187992Y-1332481D01*
X0Y-1332481D01*
X64290Y-1332481D01*
X251324Y-1332481D01*
X435518Y-1332481D01*
X616895Y-1332481D01*
X795475Y-1332481D01*
X971281Y-1332482D01*
X1144333Y-1332482D01*
X1314655Y-1332483D01*
X1482269Y-1332483D01*
X1647195Y-1332483D01*
X1809456Y-1332484D01*
X1969072Y-1332485D01*
X2126066Y-1332486D01*
X2280461Y-1332486D01*
X2432276Y-1332488D01*
X2581535Y-1332489D01*
X2728260Y-1332491D01*
X2872471Y-1332492D01*
X3014190Y-1332493D01*
X3153440Y-1332496D01*
X3290242Y-1332497D01*
X3424619Y-1332500D01*
X3556591Y-1332502D01*
X3686179Y-1332504D01*
X3813407Y-1332507D01*
X3938297Y-1332510D01*
X4060869Y-1332513D01*
X4181145Y-1332517D01*
X4299148Y-1332520D01*
X4414900Y-1332524D01*
X4528420Y-1332528D01*
X4639732Y-1332532D01*
X4748858Y-1332537D01*
X4855819Y-1332542D01*
X4960636Y-1332547D01*
X5063332Y-1332552D01*
X5163929Y-1332558D01*
X5262448Y-1332564D01*
X5358910Y-1332570D01*
X5453339Y-1332576D01*
X5545756Y-1332582D01*
X5636180Y-1332589D01*
X5724637Y-1332597D01*
X5811146Y-1332604D01*
X5895730Y-1332612D01*
X5978410Y-1332621D01*
X6059208Y-1332629D01*
X6138146Y-1332638D01*
X6215245Y-1332648D01*
X6290529Y-1332657D01*
X6364018Y-1332667D01*
X6435732Y-1332678D01*
X6505696Y-1332689D01*
X6573931Y-1332700D01*
X6640457Y-1332712D01*
X6705298Y-1332724D01*
X6768474Y-1332736D01*
X6830008Y-1332749D01*
X6889921Y-1332763D01*
X6948236Y-1332776D01*
X7004973Y-1332791D01*
X7060155Y-1332805D01*
X7113803Y-1332819D01*
X7165939Y-1332836D01*
X7216585Y-1332852D01*
X7265763Y-1332868D01*
X7313496Y-1332885D01*
X7359802Y-1332902D01*
X7404705Y-1332921D01*
X7448227Y-1332938D01*
X7490391Y-1332958D01*
X7531215Y-1332977D01*
X7570725Y-1332996D01*
X7608940Y-1333018D01*
X7645883Y-1333038D01*
X7681575Y-1333060D01*
X7716039Y-1333082D01*
X7749295Y-1333105D01*
X7781366Y-1333128D01*
X7812273Y-1333152D01*
X7842038Y-1333176D01*
X7870684Y-1333200D01*
X7898231Y-1333227D01*
X7924702Y-1333252D01*
X7950118Y-1333278D01*
X7974501Y-1333306D01*
X7997873Y-1333335D01*
X8020255Y-1333363D01*
X8041670Y-1333392D01*
X8062139Y-1333421D01*
X8081685Y-1333452D01*
X8100327Y-1333483D01*
X8118089Y-1333515D01*
X8134992Y-1333547D01*
X8151058Y-1333580D01*
X8166309Y-1333614D01*
X8180766Y-1333649D01*
X8194452Y-1333683D01*
X8207387Y-1333720D01*
X8219595Y-1333756D01*
X8231096Y-1333793D01*
X8241912Y-1333831D01*
X8252066Y-1333870D01*
X8261578Y-1333909D01*
X8270471Y-1333949D01*
X8278767Y-1333990D01*
X8286486Y-1334032D01*
X8293651Y-1334074D01*
X8300284Y-1334117D01*
X8306408Y-1334161D01*
X8312042Y-1334206D01*
X8317209Y-1334251D01*
X8321930Y-1334298D01*
X8326229Y-1334344D01*
X8330125Y-1334392D01*
X8333642Y-1334441D01*
X8336800Y-1334491D01*
X8339622Y-1334541D01*
X8342131Y-1334592D01*
X8344345Y-1334644D01*
X8346290Y-1334696D01*
X8347983Y-1334751D01*
X8349451Y-1334805D01*
X8350711Y-1334859D01*
X8351788Y-1334916D01*
X8352704Y-1334973D01*
X8353478Y-1335031D01*
X8354134Y-1335091D01*
X8367727Y-1336509D01*
X8403496Y-1341127D01*
X8437573Y-1346924D01*
X8470695Y-1354050D01*
X8503598Y-1362660D01*
X8537024Y-1372905D01*
X8576163Y-1386884D01*
X8619561Y-1405199D01*
X8661704Y-1426010D01*
X8702492Y-1449224D01*
X8741820Y-1474752D01*
X8779586Y-1502503D01*
X8815688Y-1532386D01*
X8850023Y-1564310D01*
X8882487Y-1598186D01*
X8912980Y-1633921D01*
X8941397Y-1671426D01*
X8967636Y-1710610D01*
X8991596Y-1751382D01*
X9013173Y-1793651D01*
X9019587Y-1807518D01*
X9036922Y-1848849D01*
X9051785Y-1890691D01*
X9064253Y-1933340D01*
X9074407Y-1977089D01*
X9082329Y-2022231D01*
X9088095Y-2069062D01*
X9088190Y-2070043D01*
X9088363Y-2071970D01*
X9088527Y-2074053D01*
X9088683Y-2076359D01*
X9088833Y-2078957D01*
X9088975Y-2081915D01*
X9089108Y-2085301D01*
X9089236Y-2089181D01*
X9089356Y-2093625D01*
X9089469Y-2098700D01*
X9089577Y-2104473D01*
X9089678Y-2111012D01*
X9089773Y-2118386D01*
X9089861Y-2126663D01*
X9089945Y-2135910D01*
X9090022Y-2146193D01*
X9090094Y-2157582D01*
X9090161Y-2170145D01*
X9090223Y-2183950D01*
X9090280Y-2199063D01*
X9090333Y-2215553D01*
X9090381Y-2233488D01*
X9090425Y-2252935D01*
X9090465Y-2273963D01*
X9090501Y-2296639D01*
X9090534Y-2321030D01*
X9090563Y-2347206D01*
X9090589Y-2375233D01*
X9090611Y-2405179D01*
X9090631Y-2437113D01*
X9090648Y-2471102D01*
X9090663Y-2507213D01*
X9090676Y-2545516D01*
X9090686Y-2586077D01*
X9090694Y-2628964D01*
X9090701Y-2674245D01*
X9090706Y-2721989D01*
X9090710Y-2772262D01*
X9090712Y-2825133D01*
X9090714Y-2880669D01*
X9090715Y-2938939D01*
X9090715Y-3000009D01*
X9090715Y-3028473D01*
X9090715Y-3088252D01*
X9090713Y-3145262D01*
X9090711Y-3199569D01*
X9090708Y-3251241D01*
X9090704Y-3300348D01*
X9090698Y-3346956D01*
X9090690Y-3391133D01*
X9090682Y-3432948D01*
X9090670Y-3472466D01*
X9090656Y-3509758D01*
X9090641Y-3544889D01*
X9090621Y-3577929D01*
X9090601Y-3608945D01*
X9090576Y-3638006D01*
X9090549Y-3665178D01*
X9090518Y-3690528D01*
X9090484Y-3714127D01*
X9090446Y-3736040D01*
X9090404Y-3756336D01*
X9090358Y-3775083D01*
X9090308Y-3792348D01*
X9090285Y-3798713D01*
X9090253Y-3808200D01*
G37*
%TD*%
D11*
%TO.C,U2*%
X-8890000Y2380000D03*
D12*
X-6350000Y2380000D03*
X-3810000Y2380000D03*
X-1270000Y2380000D03*
X1270000Y2380000D03*
X3810000Y2380000D03*
X6350000Y2380000D03*
X8890000Y2380000D03*
X8890000Y10000000D03*
X6350000Y10000000D03*
X3810000Y10000000D03*
X1270000Y10000000D03*
X-1270000Y10000000D03*
X-3810000Y10000000D03*
X-6350000Y10000000D03*
X-8890000Y10000000D03*
%TD*%
%TO.C,DS1*%
X-5080000Y-23590000D03*
X-2540000Y-23620000D03*
X0Y-23620000D03*
X2540000Y-23620000D03*
X5080000Y-23620000D03*
X5080000Y-8380000D03*
X2540000Y-8380000D03*
X0Y-8380000D03*
X-2540000Y-8380000D03*
X-5080000Y-8380000D03*
%TD*%
%TO.C,J1*%
X8890000Y25000000D03*
X6350000Y25000000D03*
X3810000Y25000000D03*
X1270000Y25000000D03*
X-1270000Y25000000D03*
X-3810000Y25000000D03*
X-6350000Y25000000D03*
X-8890000Y25000000D03*
%TD*%
M02*
