%TF.GenerationSoftware,KiCad,Pcbnew,9.0.7*%
%TF.CreationDate,2026-04-21T17:40:31+01:00*%
%TF.ProjectId,solderbit-segment-shift-edition,736f6c64-6572-4626-9974-2d7365676d65,v0.1*%
%TF.SameCoordinates,PX8583b00PY4e33880*%
%TF.FileFunction,Drillmap*%
%TF.FilePolarity,Positive*%
%FSLAX45Y45*%
G04 Gerber Fmt 4.5, Leading zero omitted, Abs format (unit mm)*
G04 Created by KiCad (PCBNEW 9.0.7) date 2026-04-21 17:40:31*
%MOMM*%
%LPD*%
G01*
G04 APERTURE LIST*
%ADD10C,0.050000*%
%ADD11C,0.200000*%
%ADD12C,0.100000*%
G04 APERTURE END LIST*
D10*
X1100000Y-2600000D02*
X-1100000Y-2600000D01*
X-1100000Y-2600000D02*
G75*
G02*
X-1400000Y-2300000I0J300000D01*
G01*
X-1400000Y-2300000D02*
X-1400000Y2500000D01*
X-1100000Y2800000D02*
X1100000Y2800000D01*
X1400000Y-2300000D02*
G75*
G02*
X1100000Y-2600000I-300000J0D01*
G01*
X-1400000Y2500000D02*
G75*
G02*
X-1100000Y2800000I300000J0D01*
G01*
X1100000Y2800000D02*
G75*
G02*
X1400000Y2500000I0J-300000D01*
G01*
X1400000Y2500000D02*
X1400000Y-2300000D01*
D11*
D12*
X-1290000Y315000D02*
X-1260000Y285000D01*
X-1260000Y315000D02*
X-1290000Y285000D01*
X-1290000Y-85000D02*
X-1260000Y-115000D01*
X-1260000Y-85000D02*
X-1290000Y-115000D01*
X-1290000Y-535000D02*
X-1260000Y-565000D01*
X-1260000Y-535000D02*
X-1290000Y-565000D01*
X-1165000Y1965000D02*
X-1135000Y1935000D01*
X-1135000Y1965000D02*
X-1165000Y1935000D01*
X-1165000Y1715000D02*
X-1135000Y1685000D01*
X-1135000Y1715000D02*
X-1165000Y1685000D01*
X-1165000Y1465000D02*
X-1135000Y1435000D01*
X-1135000Y1465000D02*
X-1165000Y1435000D01*
X-965000Y15000D02*
X-935000Y-15000D01*
X-935000Y15000D02*
X-965000Y-15000D01*
X-815000Y1365000D02*
X-785000Y1335000D01*
X-785000Y1365000D02*
X-815000Y1335000D01*
X-815000Y615000D02*
X-785000Y585000D01*
X-785000Y615000D02*
X-815000Y585000D01*
X-815000Y-685000D02*
X-785000Y-715000D01*
X-785000Y-685000D02*
X-815000Y-715000D01*
X-815000Y-1260000D02*
X-785000Y-1290000D01*
X-785000Y-1260000D02*
X-815000Y-1290000D01*
X-715000Y1665000D02*
X-685000Y1635000D01*
X-685000Y1665000D02*
X-715000Y1635000D01*
X-635000Y1445000D02*
X-605000Y1415000D01*
X-605000Y1445000D02*
X-635000Y1415000D01*
X-565000Y2015000D02*
X-535000Y1985000D01*
X-535000Y2015000D02*
X-565000Y1985000D01*
X-540000Y515000D02*
X-510000Y485000D01*
X-510000Y515000D02*
X-540000Y485000D01*
X-540000Y15000D02*
X-510000Y-15000D01*
X-510000Y15000D02*
X-540000Y-15000D01*
X-465000Y-1535000D02*
X-435000Y-1565000D01*
X-435000Y-1535000D02*
X-465000Y-1565000D01*
X-415000Y2015000D02*
X-385000Y1985000D01*
X-385000Y2015000D02*
X-415000Y1985000D01*
X-415000Y-1085000D02*
X-385000Y-1115000D01*
X-385000Y-1085000D02*
X-415000Y-1115000D01*
X-405000Y1835000D02*
X-375000Y1805000D01*
X-375000Y1835000D02*
X-405000Y1805000D01*
X-290000Y515000D02*
X-260000Y485000D01*
X-260000Y515000D02*
X-290000Y485000D01*
X-115000Y2015000D02*
X-85000Y1985000D01*
X-85000Y2015000D02*
X-115000Y1985000D01*
X-115000Y-1735000D02*
X-85000Y-1765000D01*
X-85000Y-1735000D02*
X-115000Y-1765000D01*
X165000Y1835000D02*
X195000Y1805000D01*
X195000Y1835000D02*
X165000Y1805000D01*
X285000Y490000D02*
X315000Y460000D01*
X315000Y490000D02*
X285000Y460000D01*
X310000Y-1860000D02*
X340000Y-1890000D01*
X340000Y-1860000D02*
X310000Y-1890000D01*
X385000Y1840000D02*
X415000Y1810000D01*
X415000Y1840000D02*
X385000Y1810000D01*
X485000Y-1585000D02*
X515000Y-1615000D01*
X515000Y-1585000D02*
X485000Y-1615000D01*
X635000Y1840000D02*
X665000Y1810000D01*
X665000Y1840000D02*
X635000Y1810000D01*
X785000Y-2035000D02*
X815000Y-2065000D01*
X815000Y-2035000D02*
X785000Y-2065000D01*
X810000Y-1185000D02*
X840000Y-1215000D01*
X840000Y-1185000D02*
X810000Y-1215000D01*
X860000Y-610000D02*
X890000Y-640000D01*
X890000Y-610000D02*
X860000Y-640000D01*
X1075000Y-675000D02*
X1105000Y-705000D01*
X1105000Y-675000D02*
X1075000Y-705000D01*
X1085000Y-385000D02*
X1115000Y-415000D01*
X1115000Y-385000D02*
X1085000Y-415000D01*
X1095000Y-1185000D02*
X1125000Y-1215000D01*
X1125000Y-1185000D02*
X1095000Y-1215000D01*
X1175000Y-665000D02*
X1205000Y-695000D01*
X1205000Y-665000D02*
X1175000Y-695000D01*
X1175000Y-1645000D02*
X1205000Y-1675000D01*
X1205000Y-1645000D02*
X1175000Y-1675000D01*
X1185000Y1715000D02*
X1215000Y1685000D01*
X1215000Y1715000D02*
X1185000Y1685000D01*
X1185000Y1415000D02*
X1215000Y1385000D01*
X1215000Y1415000D02*
X1185000Y1385000D01*
X1185000Y1115000D02*
X1215000Y1085000D01*
X1215000Y1115000D02*
X1185000Y1085000D01*
X1185000Y815000D02*
X1215000Y785000D01*
X1215000Y815000D02*
X1185000Y785000D01*
X1185000Y515000D02*
X1215000Y485000D01*
X1215000Y515000D02*
X1185000Y485000D01*
X-849000Y1000000D02*
G75*
G02*
X-929000Y1000000I-40000J0D01*
G01*
X-929000Y1000000D02*
G75*
G02*
X-849000Y1000000I40000J0D01*
G01*
X-849000Y238000D02*
G75*
G02*
X-929000Y238000I-40000J0D01*
G01*
X-929000Y238000D02*
G75*
G02*
X-849000Y238000I40000J0D01*
G01*
X-595000Y1000000D02*
G75*
G02*
X-675000Y1000000I-40000J0D01*
G01*
X-675000Y1000000D02*
G75*
G02*
X-595000Y1000000I40000J0D01*
G01*
X-595000Y238000D02*
G75*
G02*
X-675000Y238000I-40000J0D01*
G01*
X-675000Y238000D02*
G75*
G02*
X-595000Y238000I40000J0D01*
G01*
X-341000Y1000000D02*
G75*
G02*
X-421000Y1000000I-40000J0D01*
G01*
X-421000Y1000000D02*
G75*
G02*
X-341000Y1000000I40000J0D01*
G01*
X-341000Y238000D02*
G75*
G02*
X-421000Y238000I-40000J0D01*
G01*
X-421000Y238000D02*
G75*
G02*
X-341000Y238000I40000J0D01*
G01*
X-87000Y1000000D02*
G75*
G02*
X-167000Y1000000I-40000J0D01*
G01*
X-167000Y1000000D02*
G75*
G02*
X-87000Y1000000I40000J0D01*
G01*
X-87000Y238000D02*
G75*
G02*
X-167000Y238000I-40000J0D01*
G01*
X-167000Y238000D02*
G75*
G02*
X-87000Y238000I40000J0D01*
G01*
X167000Y1000000D02*
G75*
G02*
X87000Y1000000I-40000J0D01*
G01*
X87000Y1000000D02*
G75*
G02*
X167000Y1000000I40000J0D01*
G01*
X167000Y238000D02*
G75*
G02*
X87000Y238000I-40000J0D01*
G01*
X87000Y238000D02*
G75*
G02*
X167000Y238000I40000J0D01*
G01*
X421000Y1000000D02*
G75*
G02*
X341000Y1000000I-40000J0D01*
G01*
X341000Y1000000D02*
G75*
G02*
X421000Y1000000I40000J0D01*
G01*
X421000Y238000D02*
G75*
G02*
X341000Y238000I-40000J0D01*
G01*
X341000Y238000D02*
G75*
G02*
X421000Y238000I40000J0D01*
G01*
X675000Y1000000D02*
G75*
G02*
X595000Y1000000I-40000J0D01*
G01*
X595000Y1000000D02*
G75*
G02*
X675000Y1000000I40000J0D01*
G01*
X675000Y238000D02*
G75*
G02*
X595000Y238000I-40000J0D01*
G01*
X595000Y238000D02*
G75*
G02*
X675000Y238000I40000J0D01*
G01*
X929000Y1000000D02*
G75*
G02*
X849000Y1000000I-40000J0D01*
G01*
X849000Y1000000D02*
G75*
G02*
X929000Y1000000I40000J0D01*
G01*
X929000Y238000D02*
G75*
G02*
X849000Y238000I-40000J0D01*
G01*
X849000Y238000D02*
G75*
G02*
X929000Y238000I40000J0D01*
G01*
X-889000Y2550000D02*
X-889000Y2450000D01*
X-939000Y2500000D02*
X-839000Y2500000D01*
X-635000Y2550000D02*
X-635000Y2450000D01*
X-685000Y2500000D02*
X-585000Y2500000D01*
X-508000Y-788000D02*
X-508000Y-888000D01*
X-558000Y-838000D02*
X-458000Y-838000D01*
X-508000Y-2309000D02*
X-508000Y-2409000D01*
X-558000Y-2359000D02*
X-458000Y-2359000D01*
X-381000Y2550000D02*
X-381000Y2450000D01*
X-431000Y2500000D02*
X-331000Y2500000D01*
X-254000Y-788000D02*
X-254000Y-888000D01*
X-304000Y-838000D02*
X-204000Y-838000D01*
X-254000Y-2312000D02*
X-254000Y-2412000D01*
X-304000Y-2362000D02*
X-204000Y-2362000D01*
X-127000Y2550000D02*
X-127000Y2450000D01*
X-177000Y2500000D02*
X-77000Y2500000D01*
X0Y-788000D02*
X0Y-888000D01*
X-50000Y-838000D02*
X50000Y-838000D01*
X0Y-2312000D02*
X0Y-2412000D01*
X-50000Y-2362000D02*
X50000Y-2362000D01*
X127000Y2550000D02*
X127000Y2450000D01*
X77000Y2500000D02*
X177000Y2500000D01*
X254000Y-788000D02*
X254000Y-888000D01*
X204000Y-838000D02*
X304000Y-838000D01*
X254000Y-2312000D02*
X254000Y-2412000D01*
X204000Y-2362000D02*
X304000Y-2362000D01*
X381000Y2550000D02*
X381000Y2450000D01*
X331000Y2500000D02*
X431000Y2500000D01*
X508000Y-788000D02*
X508000Y-888000D01*
X458000Y-838000D02*
X558000Y-838000D01*
X508000Y-2312000D02*
X508000Y-2412000D01*
X458000Y-2362000D02*
X558000Y-2362000D01*
X635000Y2550000D02*
X635000Y2450000D01*
X585000Y2500000D02*
X685000Y2500000D01*
X889000Y2550000D02*
X889000Y2450000D01*
X839000Y2500000D02*
X939000Y2500000D01*
D11*
X-1141723Y-2913984D02*
X-1141723Y-2713984D01*
X-1141723Y-2713984D02*
X-1094104Y-2713984D01*
X-1094104Y-2713984D02*
X-1065533Y-2723508D01*
X-1065533Y-2723508D02*
X-1046485Y-2742555D01*
X-1046485Y-2742555D02*
X-1036961Y-2761603D01*
X-1036961Y-2761603D02*
X-1027437Y-2799698D01*
X-1027437Y-2799698D02*
X-1027437Y-2828269D01*
X-1027437Y-2828269D02*
X-1036961Y-2866365D01*
X-1036961Y-2866365D02*
X-1046485Y-2885412D01*
X-1046485Y-2885412D02*
X-1065533Y-2904460D01*
X-1065533Y-2904460D02*
X-1094104Y-2913984D01*
X-1094104Y-2913984D02*
X-1141723Y-2913984D01*
X-941723Y-2913984D02*
X-941723Y-2780650D01*
X-941723Y-2818746D02*
X-932199Y-2799698D01*
X-932199Y-2799698D02*
X-922676Y-2790174D01*
X-922676Y-2790174D02*
X-903628Y-2780650D01*
X-903628Y-2780650D02*
X-884580Y-2780650D01*
X-817914Y-2913984D02*
X-817914Y-2780650D01*
X-817914Y-2713984D02*
X-827437Y-2723508D01*
X-827437Y-2723508D02*
X-817914Y-2733031D01*
X-817914Y-2733031D02*
X-808390Y-2723508D01*
X-808390Y-2723508D02*
X-817914Y-2713984D01*
X-817914Y-2713984D02*
X-817914Y-2733031D01*
X-694104Y-2913984D02*
X-713152Y-2904460D01*
X-713152Y-2904460D02*
X-722676Y-2885412D01*
X-722676Y-2885412D02*
X-722676Y-2713984D01*
X-589342Y-2913984D02*
X-608390Y-2904460D01*
X-608390Y-2904460D02*
X-617914Y-2885412D01*
X-617914Y-2885412D02*
X-617914Y-2713984D01*
X-360771Y-2913984D02*
X-360771Y-2713984D01*
X-360771Y-2713984D02*
X-294104Y-2856841D01*
X-294104Y-2856841D02*
X-227437Y-2713984D01*
X-227437Y-2713984D02*
X-227437Y-2913984D01*
X-46485Y-2913984D02*
X-46485Y-2809222D01*
X-46485Y-2809222D02*
X-56009Y-2790174D01*
X-56009Y-2790174D02*
X-75057Y-2780650D01*
X-75057Y-2780650D02*
X-113152Y-2780650D01*
X-113152Y-2780650D02*
X-132199Y-2790174D01*
X-46485Y-2904460D02*
X-65533Y-2913984D01*
X-65533Y-2913984D02*
X-113152Y-2913984D01*
X-113152Y-2913984D02*
X-132199Y-2904460D01*
X-132199Y-2904460D02*
X-141723Y-2885412D01*
X-141723Y-2885412D02*
X-141723Y-2866365D01*
X-141723Y-2866365D02*
X-132199Y-2847317D01*
X-132199Y-2847317D02*
X-113152Y-2837793D01*
X-113152Y-2837793D02*
X-65533Y-2837793D01*
X-65533Y-2837793D02*
X-46485Y-2828269D01*
X48753Y-2780650D02*
X48753Y-2980650D01*
X48753Y-2790174D02*
X67801Y-2780650D01*
X67801Y-2780650D02*
X105896Y-2780650D01*
X105896Y-2780650D02*
X124943Y-2790174D01*
X124943Y-2790174D02*
X134467Y-2799698D01*
X134467Y-2799698D02*
X143991Y-2818746D01*
X143991Y-2818746D02*
X143991Y-2875888D01*
X143991Y-2875888D02*
X134467Y-2894936D01*
X134467Y-2894936D02*
X124943Y-2904460D01*
X124943Y-2904460D02*
X105896Y-2913984D01*
X105896Y-2913984D02*
X67801Y-2913984D01*
X67801Y-2913984D02*
X48753Y-2904460D01*
X229705Y-2894936D02*
X239229Y-2904460D01*
X239229Y-2904460D02*
X229705Y-2913984D01*
X229705Y-2913984D02*
X220182Y-2904460D01*
X220182Y-2904460D02*
X229705Y-2894936D01*
X229705Y-2894936D02*
X229705Y-2913984D01*
X229705Y-2790174D02*
X239229Y-2799698D01*
X239229Y-2799698D02*
X229705Y-2809222D01*
X229705Y-2809222D02*
X220182Y-2799698D01*
X220182Y-2799698D02*
X229705Y-2790174D01*
X229705Y-2790174D02*
X229705Y-2809222D01*
D12*
X-1432500Y-3227500D02*
X-1402500Y-3257500D01*
X-1402500Y-3227500D02*
X-1432500Y-3257500D01*
D11*
X-1103628Y-3133984D02*
X-1084580Y-3133984D01*
X-1084580Y-3133984D02*
X-1065533Y-3143508D01*
X-1065533Y-3143508D02*
X-1056009Y-3153031D01*
X-1056009Y-3153031D02*
X-1046485Y-3172079D01*
X-1046485Y-3172079D02*
X-1036961Y-3210174D01*
X-1036961Y-3210174D02*
X-1036961Y-3257793D01*
X-1036961Y-3257793D02*
X-1046485Y-3295888D01*
X-1046485Y-3295888D02*
X-1056009Y-3314936D01*
X-1056009Y-3314936D02*
X-1065533Y-3324460D01*
X-1065533Y-3324460D02*
X-1084580Y-3333984D01*
X-1084580Y-3333984D02*
X-1103628Y-3333984D01*
X-1103628Y-3333984D02*
X-1122676Y-3324460D01*
X-1122676Y-3324460D02*
X-1132199Y-3314936D01*
X-1132199Y-3314936D02*
X-1141723Y-3295888D01*
X-1141723Y-3295888D02*
X-1151247Y-3257793D01*
X-1151247Y-3257793D02*
X-1151247Y-3210174D01*
X-1151247Y-3210174D02*
X-1141723Y-3172079D01*
X-1141723Y-3172079D02*
X-1132199Y-3153031D01*
X-1132199Y-3153031D02*
X-1122676Y-3143508D01*
X-1122676Y-3143508D02*
X-1103628Y-3133984D01*
X-951247Y-3314936D02*
X-941723Y-3324460D01*
X-941723Y-3324460D02*
X-951247Y-3333984D01*
X-951247Y-3333984D02*
X-960771Y-3324460D01*
X-960771Y-3324460D02*
X-951247Y-3314936D01*
X-951247Y-3314936D02*
X-951247Y-3333984D01*
X-875056Y-3133984D02*
X-751247Y-3133984D01*
X-751247Y-3133984D02*
X-817914Y-3210174D01*
X-817914Y-3210174D02*
X-789342Y-3210174D01*
X-789342Y-3210174D02*
X-770295Y-3219698D01*
X-770295Y-3219698D02*
X-760771Y-3229222D01*
X-760771Y-3229222D02*
X-751247Y-3248269D01*
X-751247Y-3248269D02*
X-751247Y-3295888D01*
X-751247Y-3295888D02*
X-760771Y-3314936D01*
X-760771Y-3314936D02*
X-770295Y-3324460D01*
X-770295Y-3324460D02*
X-789342Y-3333984D01*
X-789342Y-3333984D02*
X-846485Y-3333984D01*
X-846485Y-3333984D02*
X-865533Y-3324460D01*
X-865533Y-3324460D02*
X-875056Y-3314936D01*
X-627438Y-3133984D02*
X-608390Y-3133984D01*
X-608390Y-3133984D02*
X-589342Y-3143508D01*
X-589342Y-3143508D02*
X-579818Y-3153031D01*
X-579818Y-3153031D02*
X-570295Y-3172079D01*
X-570295Y-3172079D02*
X-560771Y-3210174D01*
X-560771Y-3210174D02*
X-560771Y-3257793D01*
X-560771Y-3257793D02*
X-570295Y-3295888D01*
X-570295Y-3295888D02*
X-579818Y-3314936D01*
X-579818Y-3314936D02*
X-589342Y-3324460D01*
X-589342Y-3324460D02*
X-608390Y-3333984D01*
X-608390Y-3333984D02*
X-627438Y-3333984D01*
X-627438Y-3333984D02*
X-646485Y-3324460D01*
X-646485Y-3324460D02*
X-656009Y-3314936D01*
X-656009Y-3314936D02*
X-665533Y-3295888D01*
X-665533Y-3295888D02*
X-675057Y-3257793D01*
X-675057Y-3257793D02*
X-675057Y-3210174D01*
X-675057Y-3210174D02*
X-665533Y-3172079D01*
X-665533Y-3172079D02*
X-656009Y-3153031D01*
X-656009Y-3153031D02*
X-646485Y-3143508D01*
X-646485Y-3143508D02*
X-627438Y-3133984D01*
X-436961Y-3133984D02*
X-417914Y-3133984D01*
X-417914Y-3133984D02*
X-398866Y-3143508D01*
X-398866Y-3143508D02*
X-389342Y-3153031D01*
X-389342Y-3153031D02*
X-379818Y-3172079D01*
X-379818Y-3172079D02*
X-370295Y-3210174D01*
X-370295Y-3210174D02*
X-370295Y-3257793D01*
X-370295Y-3257793D02*
X-379818Y-3295888D01*
X-379818Y-3295888D02*
X-389342Y-3314936D01*
X-389342Y-3314936D02*
X-398866Y-3324460D01*
X-398866Y-3324460D02*
X-417914Y-3333984D01*
X-417914Y-3333984D02*
X-436961Y-3333984D01*
X-436961Y-3333984D02*
X-456009Y-3324460D01*
X-456009Y-3324460D02*
X-465533Y-3314936D01*
X-465533Y-3314936D02*
X-475056Y-3295888D01*
X-475056Y-3295888D02*
X-484580Y-3257793D01*
X-484580Y-3257793D02*
X-484580Y-3210174D01*
X-484580Y-3210174D02*
X-475056Y-3172079D01*
X-475056Y-3172079D02*
X-465533Y-3153031D01*
X-465533Y-3153031D02*
X-456009Y-3143508D01*
X-456009Y-3143508D02*
X-436961Y-3133984D01*
X-284580Y-3333984D02*
X-284580Y-3200650D01*
X-284580Y-3219698D02*
X-275057Y-3210174D01*
X-275057Y-3210174D02*
X-256009Y-3200650D01*
X-256009Y-3200650D02*
X-227437Y-3200650D01*
X-227437Y-3200650D02*
X-208390Y-3210174D01*
X-208390Y-3210174D02*
X-198866Y-3229222D01*
X-198866Y-3229222D02*
X-198866Y-3333984D01*
X-198866Y-3229222D02*
X-189342Y-3210174D01*
X-189342Y-3210174D02*
X-170295Y-3200650D01*
X-170295Y-3200650D02*
X-141723Y-3200650D01*
X-141723Y-3200650D02*
X-122675Y-3210174D01*
X-122675Y-3210174D02*
X-113152Y-3229222D01*
X-113152Y-3229222D02*
X-113152Y-3333984D01*
X-17914Y-3333984D02*
X-17914Y-3200650D01*
X-17914Y-3219698D02*
X-8390Y-3210174D01*
X-8390Y-3210174D02*
X10658Y-3200650D01*
X10658Y-3200650D02*
X39229Y-3200650D01*
X39229Y-3200650D02*
X58277Y-3210174D01*
X58277Y-3210174D02*
X67801Y-3229222D01*
X67801Y-3229222D02*
X67801Y-3333984D01*
X67801Y-3229222D02*
X77325Y-3210174D01*
X77325Y-3210174D02*
X96372Y-3200650D01*
X96372Y-3200650D02*
X124943Y-3200650D01*
X124943Y-3200650D02*
X143991Y-3210174D01*
X143991Y-3210174D02*
X153515Y-3229222D01*
X153515Y-3229222D02*
X153515Y-3333984D01*
X543991Y-3124460D02*
X372563Y-3381603D01*
X801134Y-3133984D02*
X820182Y-3133984D01*
X820182Y-3133984D02*
X839229Y-3143508D01*
X839229Y-3143508D02*
X848753Y-3153031D01*
X848753Y-3153031D02*
X858277Y-3172079D01*
X858277Y-3172079D02*
X867801Y-3210174D01*
X867801Y-3210174D02*
X867801Y-3257793D01*
X867801Y-3257793D02*
X858277Y-3295888D01*
X858277Y-3295888D02*
X848753Y-3314936D01*
X848753Y-3314936D02*
X839229Y-3324460D01*
X839229Y-3324460D02*
X820182Y-3333984D01*
X820182Y-3333984D02*
X801134Y-3333984D01*
X801134Y-3333984D02*
X782086Y-3324460D01*
X782086Y-3324460D02*
X772563Y-3314936D01*
X772563Y-3314936D02*
X763039Y-3295888D01*
X763039Y-3295888D02*
X753515Y-3257793D01*
X753515Y-3257793D02*
X753515Y-3210174D01*
X753515Y-3210174D02*
X763039Y-3172079D01*
X763039Y-3172079D02*
X772563Y-3153031D01*
X772563Y-3153031D02*
X782086Y-3143508D01*
X782086Y-3143508D02*
X801134Y-3133984D01*
X953515Y-3314936D02*
X963039Y-3324460D01*
X963039Y-3324460D02*
X953515Y-3333984D01*
X953515Y-3333984D02*
X943991Y-3324460D01*
X943991Y-3324460D02*
X953515Y-3314936D01*
X953515Y-3314936D02*
X953515Y-3333984D01*
X1086848Y-3133984D02*
X1105896Y-3133984D01*
X1105896Y-3133984D02*
X1124944Y-3143508D01*
X1124944Y-3143508D02*
X1134468Y-3153031D01*
X1134468Y-3153031D02*
X1143991Y-3172079D01*
X1143991Y-3172079D02*
X1153515Y-3210174D01*
X1153515Y-3210174D02*
X1153515Y-3257793D01*
X1153515Y-3257793D02*
X1143991Y-3295888D01*
X1143991Y-3295888D02*
X1134468Y-3314936D01*
X1134468Y-3314936D02*
X1124944Y-3324460D01*
X1124944Y-3324460D02*
X1105896Y-3333984D01*
X1105896Y-3333984D02*
X1086848Y-3333984D01*
X1086848Y-3333984D02*
X1067801Y-3324460D01*
X1067801Y-3324460D02*
X1058277Y-3314936D01*
X1058277Y-3314936D02*
X1048753Y-3295888D01*
X1048753Y-3295888D02*
X1039229Y-3257793D01*
X1039229Y-3257793D02*
X1039229Y-3210174D01*
X1039229Y-3210174D02*
X1048753Y-3172079D01*
X1048753Y-3172079D02*
X1058277Y-3153031D01*
X1058277Y-3153031D02*
X1067801Y-3143508D01*
X1067801Y-3143508D02*
X1086848Y-3133984D01*
X1343991Y-3333984D02*
X1229706Y-3333984D01*
X1286848Y-3333984D02*
X1286848Y-3133984D01*
X1286848Y-3133984D02*
X1267801Y-3162555D01*
X1267801Y-3162555D02*
X1248753Y-3181603D01*
X1248753Y-3181603D02*
X1229706Y-3191127D01*
X1534467Y-3333984D02*
X1420182Y-3333984D01*
X1477325Y-3333984D02*
X1477325Y-3133984D01*
X1477325Y-3133984D02*
X1458277Y-3162555D01*
X1458277Y-3162555D02*
X1439229Y-3181603D01*
X1439229Y-3181603D02*
X1420182Y-3191127D01*
X1648753Y-3219698D02*
X1629706Y-3210174D01*
X1629706Y-3210174D02*
X1620182Y-3200650D01*
X1620182Y-3200650D02*
X1610658Y-3181603D01*
X1610658Y-3181603D02*
X1610658Y-3172079D01*
X1610658Y-3172079D02*
X1620182Y-3153031D01*
X1620182Y-3153031D02*
X1629706Y-3143508D01*
X1629706Y-3143508D02*
X1648753Y-3133984D01*
X1648753Y-3133984D02*
X1686848Y-3133984D01*
X1686848Y-3133984D02*
X1705896Y-3143508D01*
X1705896Y-3143508D02*
X1715420Y-3153031D01*
X1715420Y-3153031D02*
X1724944Y-3172079D01*
X1724944Y-3172079D02*
X1724944Y-3181603D01*
X1724944Y-3181603D02*
X1715420Y-3200650D01*
X1715420Y-3200650D02*
X1705896Y-3210174D01*
X1705896Y-3210174D02*
X1686848Y-3219698D01*
X1686848Y-3219698D02*
X1648753Y-3219698D01*
X1648753Y-3219698D02*
X1629706Y-3229222D01*
X1629706Y-3229222D02*
X1620182Y-3238746D01*
X1620182Y-3238746D02*
X1610658Y-3257793D01*
X1610658Y-3257793D02*
X1610658Y-3295888D01*
X1610658Y-3295888D02*
X1620182Y-3314936D01*
X1620182Y-3314936D02*
X1629706Y-3324460D01*
X1629706Y-3324460D02*
X1648753Y-3333984D01*
X1648753Y-3333984D02*
X1686848Y-3333984D01*
X1686848Y-3333984D02*
X1705896Y-3324460D01*
X1705896Y-3324460D02*
X1715420Y-3314936D01*
X1715420Y-3314936D02*
X1724944Y-3295888D01*
X1724944Y-3295888D02*
X1724944Y-3257793D01*
X1724944Y-3257793D02*
X1715420Y-3238746D01*
X1715420Y-3238746D02*
X1705896Y-3229222D01*
X1705896Y-3229222D02*
X1686848Y-3219698D01*
X1801134Y-3133984D02*
X1801134Y-3172079D01*
X1877325Y-3133984D02*
X1877325Y-3172079D01*
X2172563Y-3410174D02*
X2163039Y-3400650D01*
X2163039Y-3400650D02*
X2143991Y-3372079D01*
X2143991Y-3372079D02*
X2134468Y-3353031D01*
X2134468Y-3353031D02*
X2124944Y-3324460D01*
X2124944Y-3324460D02*
X2115420Y-3276841D01*
X2115420Y-3276841D02*
X2115420Y-3238746D01*
X2115420Y-3238746D02*
X2124944Y-3191127D01*
X2124944Y-3191127D02*
X2134468Y-3162555D01*
X2134468Y-3162555D02*
X2143991Y-3143508D01*
X2143991Y-3143508D02*
X2163039Y-3114936D01*
X2163039Y-3114936D02*
X2172563Y-3105412D01*
X2334468Y-3200650D02*
X2334468Y-3333984D01*
X2286849Y-3124460D02*
X2239230Y-3267317D01*
X2239230Y-3267317D02*
X2363039Y-3267317D01*
X2429706Y-3153031D02*
X2439230Y-3143508D01*
X2439230Y-3143508D02*
X2458277Y-3133984D01*
X2458277Y-3133984D02*
X2505896Y-3133984D01*
X2505896Y-3133984D02*
X2524944Y-3143508D01*
X2524944Y-3143508D02*
X2534468Y-3153031D01*
X2534468Y-3153031D02*
X2543991Y-3172079D01*
X2543991Y-3172079D02*
X2543991Y-3191127D01*
X2543991Y-3191127D02*
X2534468Y-3219698D01*
X2534468Y-3219698D02*
X2420182Y-3333984D01*
X2420182Y-3333984D02*
X2543991Y-3333984D01*
X2782087Y-3333984D02*
X2782087Y-3133984D01*
X2867801Y-3333984D02*
X2867801Y-3229222D01*
X2867801Y-3229222D02*
X2858277Y-3210174D01*
X2858277Y-3210174D02*
X2839230Y-3200650D01*
X2839230Y-3200650D02*
X2810658Y-3200650D01*
X2810658Y-3200650D02*
X2791611Y-3210174D01*
X2791611Y-3210174D02*
X2782087Y-3219698D01*
X2991610Y-3333984D02*
X2972563Y-3324460D01*
X2972563Y-3324460D02*
X2963039Y-3314936D01*
X2963039Y-3314936D02*
X2953515Y-3295888D01*
X2953515Y-3295888D02*
X2953515Y-3238746D01*
X2953515Y-3238746D02*
X2963039Y-3219698D01*
X2963039Y-3219698D02*
X2972563Y-3210174D01*
X2972563Y-3210174D02*
X2991610Y-3200650D01*
X2991610Y-3200650D02*
X3020182Y-3200650D01*
X3020182Y-3200650D02*
X3039230Y-3210174D01*
X3039230Y-3210174D02*
X3048753Y-3219698D01*
X3048753Y-3219698D02*
X3058277Y-3238746D01*
X3058277Y-3238746D02*
X3058277Y-3295888D01*
X3058277Y-3295888D02*
X3048753Y-3314936D01*
X3048753Y-3314936D02*
X3039230Y-3324460D01*
X3039230Y-3324460D02*
X3020182Y-3333984D01*
X3020182Y-3333984D02*
X2991610Y-3333984D01*
X3172563Y-3333984D02*
X3153515Y-3324460D01*
X3153515Y-3324460D02*
X3143991Y-3305412D01*
X3143991Y-3305412D02*
X3143991Y-3133984D01*
X3324944Y-3324460D02*
X3305896Y-3333984D01*
X3305896Y-3333984D02*
X3267801Y-3333984D01*
X3267801Y-3333984D02*
X3248753Y-3324460D01*
X3248753Y-3324460D02*
X3239230Y-3305412D01*
X3239230Y-3305412D02*
X3239230Y-3229222D01*
X3239230Y-3229222D02*
X3248753Y-3210174D01*
X3248753Y-3210174D02*
X3267801Y-3200650D01*
X3267801Y-3200650D02*
X3305896Y-3200650D01*
X3305896Y-3200650D02*
X3324944Y-3210174D01*
X3324944Y-3210174D02*
X3334468Y-3229222D01*
X3334468Y-3229222D02*
X3334468Y-3248269D01*
X3334468Y-3248269D02*
X3239230Y-3267317D01*
X3410658Y-3324460D02*
X3429706Y-3333984D01*
X3429706Y-3333984D02*
X3467801Y-3333984D01*
X3467801Y-3333984D02*
X3486849Y-3324460D01*
X3486849Y-3324460D02*
X3496372Y-3305412D01*
X3496372Y-3305412D02*
X3496372Y-3295888D01*
X3496372Y-3295888D02*
X3486849Y-3276841D01*
X3486849Y-3276841D02*
X3467801Y-3267317D01*
X3467801Y-3267317D02*
X3439230Y-3267317D01*
X3439230Y-3267317D02*
X3420182Y-3257793D01*
X3420182Y-3257793D02*
X3410658Y-3238746D01*
X3410658Y-3238746D02*
X3410658Y-3229222D01*
X3410658Y-3229222D02*
X3420182Y-3210174D01*
X3420182Y-3210174D02*
X3439230Y-3200650D01*
X3439230Y-3200650D02*
X3467801Y-3200650D01*
X3467801Y-3200650D02*
X3486849Y-3210174D01*
X3563039Y-3410174D02*
X3572563Y-3400650D01*
X3572563Y-3400650D02*
X3591611Y-3372079D01*
X3591611Y-3372079D02*
X3601134Y-3353031D01*
X3601134Y-3353031D02*
X3610658Y-3324460D01*
X3610658Y-3324460D02*
X3620182Y-3276841D01*
X3620182Y-3276841D02*
X3620182Y-3238746D01*
X3620182Y-3238746D02*
X3610658Y-3191127D01*
X3610658Y-3191127D02*
X3601134Y-3162555D01*
X3601134Y-3162555D02*
X3591611Y-3143508D01*
X3591611Y-3143508D02*
X3572563Y-3114936D01*
X3572563Y-3114936D02*
X3563039Y-3105412D01*
D12*
X-1402500Y-3506500D02*
G75*
G02*
X-1482500Y-3506500I-40000J0D01*
G01*
X-1482500Y-3506500D02*
G75*
G02*
X-1402500Y-3506500I40000J0D01*
G01*
D11*
X-1103628Y-3397984D02*
X-1084580Y-3397984D01*
X-1084580Y-3397984D02*
X-1065533Y-3407508D01*
X-1065533Y-3407508D02*
X-1056009Y-3417031D01*
X-1056009Y-3417031D02*
X-1046485Y-3436079D01*
X-1046485Y-3436079D02*
X-1036961Y-3474174D01*
X-1036961Y-3474174D02*
X-1036961Y-3521793D01*
X-1036961Y-3521793D02*
X-1046485Y-3559888D01*
X-1046485Y-3559888D02*
X-1056009Y-3578936D01*
X-1056009Y-3578936D02*
X-1065533Y-3588460D01*
X-1065533Y-3588460D02*
X-1084580Y-3597984D01*
X-1084580Y-3597984D02*
X-1103628Y-3597984D01*
X-1103628Y-3597984D02*
X-1122676Y-3588460D01*
X-1122676Y-3588460D02*
X-1132199Y-3578936D01*
X-1132199Y-3578936D02*
X-1141723Y-3559888D01*
X-1141723Y-3559888D02*
X-1151247Y-3521793D01*
X-1151247Y-3521793D02*
X-1151247Y-3474174D01*
X-1151247Y-3474174D02*
X-1141723Y-3436079D01*
X-1141723Y-3436079D02*
X-1132199Y-3417031D01*
X-1132199Y-3417031D02*
X-1122676Y-3407508D01*
X-1122676Y-3407508D02*
X-1103628Y-3397984D01*
X-951247Y-3578936D02*
X-941723Y-3588460D01*
X-941723Y-3588460D02*
X-951247Y-3597984D01*
X-951247Y-3597984D02*
X-960771Y-3588460D01*
X-960771Y-3588460D02*
X-951247Y-3578936D01*
X-951247Y-3578936D02*
X-951247Y-3597984D01*
X-827437Y-3483698D02*
X-846485Y-3474174D01*
X-846485Y-3474174D02*
X-856009Y-3464650D01*
X-856009Y-3464650D02*
X-865533Y-3445603D01*
X-865533Y-3445603D02*
X-865533Y-3436079D01*
X-865533Y-3436079D02*
X-856009Y-3417031D01*
X-856009Y-3417031D02*
X-846485Y-3407508D01*
X-846485Y-3407508D02*
X-827437Y-3397984D01*
X-827437Y-3397984D02*
X-789342Y-3397984D01*
X-789342Y-3397984D02*
X-770295Y-3407508D01*
X-770295Y-3407508D02*
X-760771Y-3417031D01*
X-760771Y-3417031D02*
X-751247Y-3436079D01*
X-751247Y-3436079D02*
X-751247Y-3445603D01*
X-751247Y-3445603D02*
X-760771Y-3464650D01*
X-760771Y-3464650D02*
X-770295Y-3474174D01*
X-770295Y-3474174D02*
X-789342Y-3483698D01*
X-789342Y-3483698D02*
X-827437Y-3483698D01*
X-827437Y-3483698D02*
X-846485Y-3493222D01*
X-846485Y-3493222D02*
X-856009Y-3502746D01*
X-856009Y-3502746D02*
X-865533Y-3521793D01*
X-865533Y-3521793D02*
X-865533Y-3559888D01*
X-865533Y-3559888D02*
X-856009Y-3578936D01*
X-856009Y-3578936D02*
X-846485Y-3588460D01*
X-846485Y-3588460D02*
X-827437Y-3597984D01*
X-827437Y-3597984D02*
X-789342Y-3597984D01*
X-789342Y-3597984D02*
X-770295Y-3588460D01*
X-770295Y-3588460D02*
X-760771Y-3578936D01*
X-760771Y-3578936D02*
X-751247Y-3559888D01*
X-751247Y-3559888D02*
X-751247Y-3521793D01*
X-751247Y-3521793D02*
X-760771Y-3502746D01*
X-760771Y-3502746D02*
X-770295Y-3493222D01*
X-770295Y-3493222D02*
X-789342Y-3483698D01*
X-627438Y-3397984D02*
X-608390Y-3397984D01*
X-608390Y-3397984D02*
X-589342Y-3407508D01*
X-589342Y-3407508D02*
X-579818Y-3417031D01*
X-579818Y-3417031D02*
X-570295Y-3436079D01*
X-570295Y-3436079D02*
X-560771Y-3474174D01*
X-560771Y-3474174D02*
X-560771Y-3521793D01*
X-560771Y-3521793D02*
X-570295Y-3559888D01*
X-570295Y-3559888D02*
X-579818Y-3578936D01*
X-579818Y-3578936D02*
X-589342Y-3588460D01*
X-589342Y-3588460D02*
X-608390Y-3597984D01*
X-608390Y-3597984D02*
X-627438Y-3597984D01*
X-627438Y-3597984D02*
X-646485Y-3588460D01*
X-646485Y-3588460D02*
X-656009Y-3578936D01*
X-656009Y-3578936D02*
X-665533Y-3559888D01*
X-665533Y-3559888D02*
X-675057Y-3521793D01*
X-675057Y-3521793D02*
X-675057Y-3474174D01*
X-675057Y-3474174D02*
X-665533Y-3436079D01*
X-665533Y-3436079D02*
X-656009Y-3417031D01*
X-656009Y-3417031D02*
X-646485Y-3407508D01*
X-646485Y-3407508D02*
X-627438Y-3397984D01*
X-436961Y-3397984D02*
X-417914Y-3397984D01*
X-417914Y-3397984D02*
X-398866Y-3407508D01*
X-398866Y-3407508D02*
X-389342Y-3417031D01*
X-389342Y-3417031D02*
X-379818Y-3436079D01*
X-379818Y-3436079D02*
X-370295Y-3474174D01*
X-370295Y-3474174D02*
X-370295Y-3521793D01*
X-370295Y-3521793D02*
X-379818Y-3559888D01*
X-379818Y-3559888D02*
X-389342Y-3578936D01*
X-389342Y-3578936D02*
X-398866Y-3588460D01*
X-398866Y-3588460D02*
X-417914Y-3597984D01*
X-417914Y-3597984D02*
X-436961Y-3597984D01*
X-436961Y-3597984D02*
X-456009Y-3588460D01*
X-456009Y-3588460D02*
X-465533Y-3578936D01*
X-465533Y-3578936D02*
X-475056Y-3559888D01*
X-475056Y-3559888D02*
X-484580Y-3521793D01*
X-484580Y-3521793D02*
X-484580Y-3474174D01*
X-484580Y-3474174D02*
X-475056Y-3436079D01*
X-475056Y-3436079D02*
X-465533Y-3417031D01*
X-465533Y-3417031D02*
X-456009Y-3407508D01*
X-456009Y-3407508D02*
X-436961Y-3397984D01*
X-284580Y-3597984D02*
X-284580Y-3464650D01*
X-284580Y-3483698D02*
X-275057Y-3474174D01*
X-275057Y-3474174D02*
X-256009Y-3464650D01*
X-256009Y-3464650D02*
X-227437Y-3464650D01*
X-227437Y-3464650D02*
X-208390Y-3474174D01*
X-208390Y-3474174D02*
X-198866Y-3493222D01*
X-198866Y-3493222D02*
X-198866Y-3597984D01*
X-198866Y-3493222D02*
X-189342Y-3474174D01*
X-189342Y-3474174D02*
X-170295Y-3464650D01*
X-170295Y-3464650D02*
X-141723Y-3464650D01*
X-141723Y-3464650D02*
X-122675Y-3474174D01*
X-122675Y-3474174D02*
X-113152Y-3493222D01*
X-113152Y-3493222D02*
X-113152Y-3597984D01*
X-17914Y-3597984D02*
X-17914Y-3464650D01*
X-17914Y-3483698D02*
X-8390Y-3474174D01*
X-8390Y-3474174D02*
X10658Y-3464650D01*
X10658Y-3464650D02*
X39229Y-3464650D01*
X39229Y-3464650D02*
X58277Y-3474174D01*
X58277Y-3474174D02*
X67801Y-3493222D01*
X67801Y-3493222D02*
X67801Y-3597984D01*
X67801Y-3493222D02*
X77325Y-3474174D01*
X77325Y-3474174D02*
X96372Y-3464650D01*
X96372Y-3464650D02*
X124943Y-3464650D01*
X124943Y-3464650D02*
X143991Y-3474174D01*
X143991Y-3474174D02*
X153515Y-3493222D01*
X153515Y-3493222D02*
X153515Y-3597984D01*
X543991Y-3388460D02*
X372563Y-3645603D01*
X801134Y-3397984D02*
X820182Y-3397984D01*
X820182Y-3397984D02*
X839229Y-3407508D01*
X839229Y-3407508D02*
X848753Y-3417031D01*
X848753Y-3417031D02*
X858277Y-3436079D01*
X858277Y-3436079D02*
X867801Y-3474174D01*
X867801Y-3474174D02*
X867801Y-3521793D01*
X867801Y-3521793D02*
X858277Y-3559888D01*
X858277Y-3559888D02*
X848753Y-3578936D01*
X848753Y-3578936D02*
X839229Y-3588460D01*
X839229Y-3588460D02*
X820182Y-3597984D01*
X820182Y-3597984D02*
X801134Y-3597984D01*
X801134Y-3597984D02*
X782086Y-3588460D01*
X782086Y-3588460D02*
X772563Y-3578936D01*
X772563Y-3578936D02*
X763039Y-3559888D01*
X763039Y-3559888D02*
X753515Y-3521793D01*
X753515Y-3521793D02*
X753515Y-3474174D01*
X753515Y-3474174D02*
X763039Y-3436079D01*
X763039Y-3436079D02*
X772563Y-3417031D01*
X772563Y-3417031D02*
X782086Y-3407508D01*
X782086Y-3407508D02*
X801134Y-3397984D01*
X953515Y-3578936D02*
X963039Y-3588460D01*
X963039Y-3588460D02*
X953515Y-3597984D01*
X953515Y-3597984D02*
X943991Y-3588460D01*
X943991Y-3588460D02*
X953515Y-3578936D01*
X953515Y-3578936D02*
X953515Y-3597984D01*
X1086848Y-3397984D02*
X1105896Y-3397984D01*
X1105896Y-3397984D02*
X1124944Y-3407508D01*
X1124944Y-3407508D02*
X1134468Y-3417031D01*
X1134468Y-3417031D02*
X1143991Y-3436079D01*
X1143991Y-3436079D02*
X1153515Y-3474174D01*
X1153515Y-3474174D02*
X1153515Y-3521793D01*
X1153515Y-3521793D02*
X1143991Y-3559888D01*
X1143991Y-3559888D02*
X1134468Y-3578936D01*
X1134468Y-3578936D02*
X1124944Y-3588460D01*
X1124944Y-3588460D02*
X1105896Y-3597984D01*
X1105896Y-3597984D02*
X1086848Y-3597984D01*
X1086848Y-3597984D02*
X1067801Y-3588460D01*
X1067801Y-3588460D02*
X1058277Y-3578936D01*
X1058277Y-3578936D02*
X1048753Y-3559888D01*
X1048753Y-3559888D02*
X1039229Y-3521793D01*
X1039229Y-3521793D02*
X1039229Y-3474174D01*
X1039229Y-3474174D02*
X1048753Y-3436079D01*
X1048753Y-3436079D02*
X1058277Y-3417031D01*
X1058277Y-3417031D02*
X1067801Y-3407508D01*
X1067801Y-3407508D02*
X1086848Y-3397984D01*
X1220182Y-3397984D02*
X1343991Y-3397984D01*
X1343991Y-3397984D02*
X1277325Y-3474174D01*
X1277325Y-3474174D02*
X1305896Y-3474174D01*
X1305896Y-3474174D02*
X1324944Y-3483698D01*
X1324944Y-3483698D02*
X1334468Y-3493222D01*
X1334468Y-3493222D02*
X1343991Y-3512269D01*
X1343991Y-3512269D02*
X1343991Y-3559888D01*
X1343991Y-3559888D02*
X1334468Y-3578936D01*
X1334468Y-3578936D02*
X1324944Y-3588460D01*
X1324944Y-3588460D02*
X1305896Y-3597984D01*
X1305896Y-3597984D02*
X1248753Y-3597984D01*
X1248753Y-3597984D02*
X1229706Y-3588460D01*
X1229706Y-3588460D02*
X1220182Y-3578936D01*
X1534467Y-3597984D02*
X1420182Y-3597984D01*
X1477325Y-3597984D02*
X1477325Y-3397984D01*
X1477325Y-3397984D02*
X1458277Y-3426555D01*
X1458277Y-3426555D02*
X1439229Y-3445603D01*
X1439229Y-3445603D02*
X1420182Y-3455127D01*
X1715420Y-3397984D02*
X1620182Y-3397984D01*
X1620182Y-3397984D02*
X1610658Y-3493222D01*
X1610658Y-3493222D02*
X1620182Y-3483698D01*
X1620182Y-3483698D02*
X1639229Y-3474174D01*
X1639229Y-3474174D02*
X1686848Y-3474174D01*
X1686848Y-3474174D02*
X1705896Y-3483698D01*
X1705896Y-3483698D02*
X1715420Y-3493222D01*
X1715420Y-3493222D02*
X1724944Y-3512269D01*
X1724944Y-3512269D02*
X1724944Y-3559888D01*
X1724944Y-3559888D02*
X1715420Y-3578936D01*
X1715420Y-3578936D02*
X1705896Y-3588460D01*
X1705896Y-3588460D02*
X1686848Y-3597984D01*
X1686848Y-3597984D02*
X1639229Y-3597984D01*
X1639229Y-3597984D02*
X1620182Y-3588460D01*
X1620182Y-3588460D02*
X1610658Y-3578936D01*
X1801134Y-3397984D02*
X1801134Y-3436079D01*
X1877325Y-3397984D02*
X1877325Y-3436079D01*
X2172563Y-3674174D02*
X2163039Y-3664650D01*
X2163039Y-3664650D02*
X2143991Y-3636079D01*
X2143991Y-3636079D02*
X2134468Y-3617031D01*
X2134468Y-3617031D02*
X2124944Y-3588460D01*
X2124944Y-3588460D02*
X2115420Y-3540841D01*
X2115420Y-3540841D02*
X2115420Y-3502746D01*
X2115420Y-3502746D02*
X2124944Y-3455127D01*
X2124944Y-3455127D02*
X2134468Y-3426555D01*
X2134468Y-3426555D02*
X2143991Y-3407508D01*
X2143991Y-3407508D02*
X2163039Y-3378936D01*
X2163039Y-3378936D02*
X2172563Y-3369412D01*
X2353515Y-3597984D02*
X2239230Y-3597984D01*
X2296372Y-3597984D02*
X2296372Y-3397984D01*
X2296372Y-3397984D02*
X2277325Y-3426555D01*
X2277325Y-3426555D02*
X2258277Y-3445603D01*
X2258277Y-3445603D02*
X2239230Y-3455127D01*
X2524944Y-3397984D02*
X2486849Y-3397984D01*
X2486849Y-3397984D02*
X2467801Y-3407508D01*
X2467801Y-3407508D02*
X2458277Y-3417031D01*
X2458277Y-3417031D02*
X2439230Y-3445603D01*
X2439230Y-3445603D02*
X2429706Y-3483698D01*
X2429706Y-3483698D02*
X2429706Y-3559888D01*
X2429706Y-3559888D02*
X2439230Y-3578936D01*
X2439230Y-3578936D02*
X2448753Y-3588460D01*
X2448753Y-3588460D02*
X2467801Y-3597984D01*
X2467801Y-3597984D02*
X2505896Y-3597984D01*
X2505896Y-3597984D02*
X2524944Y-3588460D01*
X2524944Y-3588460D02*
X2534468Y-3578936D01*
X2534468Y-3578936D02*
X2543991Y-3559888D01*
X2543991Y-3559888D02*
X2543991Y-3512269D01*
X2543991Y-3512269D02*
X2534468Y-3493222D01*
X2534468Y-3493222D02*
X2524944Y-3483698D01*
X2524944Y-3483698D02*
X2505896Y-3474174D01*
X2505896Y-3474174D02*
X2467801Y-3474174D01*
X2467801Y-3474174D02*
X2448753Y-3483698D01*
X2448753Y-3483698D02*
X2439230Y-3493222D01*
X2439230Y-3493222D02*
X2429706Y-3512269D01*
X2782087Y-3597984D02*
X2782087Y-3397984D01*
X2867801Y-3597984D02*
X2867801Y-3493222D01*
X2867801Y-3493222D02*
X2858277Y-3474174D01*
X2858277Y-3474174D02*
X2839230Y-3464650D01*
X2839230Y-3464650D02*
X2810658Y-3464650D01*
X2810658Y-3464650D02*
X2791611Y-3474174D01*
X2791611Y-3474174D02*
X2782087Y-3483698D01*
X2991610Y-3597984D02*
X2972563Y-3588460D01*
X2972563Y-3588460D02*
X2963039Y-3578936D01*
X2963039Y-3578936D02*
X2953515Y-3559888D01*
X2953515Y-3559888D02*
X2953515Y-3502746D01*
X2953515Y-3502746D02*
X2963039Y-3483698D01*
X2963039Y-3483698D02*
X2972563Y-3474174D01*
X2972563Y-3474174D02*
X2991610Y-3464650D01*
X2991610Y-3464650D02*
X3020182Y-3464650D01*
X3020182Y-3464650D02*
X3039230Y-3474174D01*
X3039230Y-3474174D02*
X3048753Y-3483698D01*
X3048753Y-3483698D02*
X3058277Y-3502746D01*
X3058277Y-3502746D02*
X3058277Y-3559888D01*
X3058277Y-3559888D02*
X3048753Y-3578936D01*
X3048753Y-3578936D02*
X3039230Y-3588460D01*
X3039230Y-3588460D02*
X3020182Y-3597984D01*
X3020182Y-3597984D02*
X2991610Y-3597984D01*
X3172563Y-3597984D02*
X3153515Y-3588460D01*
X3153515Y-3588460D02*
X3143991Y-3569412D01*
X3143991Y-3569412D02*
X3143991Y-3397984D01*
X3324944Y-3588460D02*
X3305896Y-3597984D01*
X3305896Y-3597984D02*
X3267801Y-3597984D01*
X3267801Y-3597984D02*
X3248753Y-3588460D01*
X3248753Y-3588460D02*
X3239230Y-3569412D01*
X3239230Y-3569412D02*
X3239230Y-3493222D01*
X3239230Y-3493222D02*
X3248753Y-3474174D01*
X3248753Y-3474174D02*
X3267801Y-3464650D01*
X3267801Y-3464650D02*
X3305896Y-3464650D01*
X3305896Y-3464650D02*
X3324944Y-3474174D01*
X3324944Y-3474174D02*
X3334468Y-3493222D01*
X3334468Y-3493222D02*
X3334468Y-3512269D01*
X3334468Y-3512269D02*
X3239230Y-3531317D01*
X3410658Y-3588460D02*
X3429706Y-3597984D01*
X3429706Y-3597984D02*
X3467801Y-3597984D01*
X3467801Y-3597984D02*
X3486849Y-3588460D01*
X3486849Y-3588460D02*
X3496372Y-3569412D01*
X3496372Y-3569412D02*
X3496372Y-3559888D01*
X3496372Y-3559888D02*
X3486849Y-3540841D01*
X3486849Y-3540841D02*
X3467801Y-3531317D01*
X3467801Y-3531317D02*
X3439230Y-3531317D01*
X3439230Y-3531317D02*
X3420182Y-3521793D01*
X3420182Y-3521793D02*
X3410658Y-3502746D01*
X3410658Y-3502746D02*
X3410658Y-3493222D01*
X3410658Y-3493222D02*
X3420182Y-3474174D01*
X3420182Y-3474174D02*
X3439230Y-3464650D01*
X3439230Y-3464650D02*
X3467801Y-3464650D01*
X3467801Y-3464650D02*
X3486849Y-3474174D01*
X3563039Y-3674174D02*
X3572563Y-3664650D01*
X3572563Y-3664650D02*
X3591611Y-3636079D01*
X3591611Y-3636079D02*
X3601134Y-3617031D01*
X3601134Y-3617031D02*
X3610658Y-3588460D01*
X3610658Y-3588460D02*
X3620182Y-3540841D01*
X3620182Y-3540841D02*
X3620182Y-3502746D01*
X3620182Y-3502746D02*
X3610658Y-3455127D01*
X3610658Y-3455127D02*
X3601134Y-3426555D01*
X3601134Y-3426555D02*
X3591611Y-3407508D01*
X3591611Y-3407508D02*
X3572563Y-3378936D01*
X3572563Y-3378936D02*
X3563039Y-3369412D01*
D12*
X-1452500Y-3720500D02*
X-1452500Y-3820500D01*
X-1502500Y-3770500D02*
X-1402500Y-3770500D01*
D11*
X-1036961Y-3861984D02*
X-1151247Y-3861984D01*
X-1094104Y-3861984D02*
X-1094104Y-3661984D01*
X-1094104Y-3661984D02*
X-1113152Y-3690555D01*
X-1113152Y-3690555D02*
X-1132199Y-3709603D01*
X-1132199Y-3709603D02*
X-1151247Y-3719127D01*
X-951247Y-3842936D02*
X-941723Y-3852460D01*
X-941723Y-3852460D02*
X-951247Y-3861984D01*
X-951247Y-3861984D02*
X-960771Y-3852460D01*
X-960771Y-3852460D02*
X-951247Y-3842936D01*
X-951247Y-3842936D02*
X-951247Y-3861984D01*
X-817914Y-3661984D02*
X-798866Y-3661984D01*
X-798866Y-3661984D02*
X-779818Y-3671508D01*
X-779818Y-3671508D02*
X-770295Y-3681031D01*
X-770295Y-3681031D02*
X-760771Y-3700079D01*
X-760771Y-3700079D02*
X-751247Y-3738174D01*
X-751247Y-3738174D02*
X-751247Y-3785793D01*
X-751247Y-3785793D02*
X-760771Y-3823888D01*
X-760771Y-3823888D02*
X-770295Y-3842936D01*
X-770295Y-3842936D02*
X-779818Y-3852460D01*
X-779818Y-3852460D02*
X-798866Y-3861984D01*
X-798866Y-3861984D02*
X-817914Y-3861984D01*
X-817914Y-3861984D02*
X-836961Y-3852460D01*
X-836961Y-3852460D02*
X-846485Y-3842936D01*
X-846485Y-3842936D02*
X-856009Y-3823888D01*
X-856009Y-3823888D02*
X-865533Y-3785793D01*
X-865533Y-3785793D02*
X-865533Y-3738174D01*
X-865533Y-3738174D02*
X-856009Y-3700079D01*
X-856009Y-3700079D02*
X-846485Y-3681031D01*
X-846485Y-3681031D02*
X-836961Y-3671508D01*
X-836961Y-3671508D02*
X-817914Y-3661984D01*
X-627438Y-3661984D02*
X-608390Y-3661984D01*
X-608390Y-3661984D02*
X-589342Y-3671508D01*
X-589342Y-3671508D02*
X-579818Y-3681031D01*
X-579818Y-3681031D02*
X-570295Y-3700079D01*
X-570295Y-3700079D02*
X-560771Y-3738174D01*
X-560771Y-3738174D02*
X-560771Y-3785793D01*
X-560771Y-3785793D02*
X-570295Y-3823888D01*
X-570295Y-3823888D02*
X-579818Y-3842936D01*
X-579818Y-3842936D02*
X-589342Y-3852460D01*
X-589342Y-3852460D02*
X-608390Y-3861984D01*
X-608390Y-3861984D02*
X-627438Y-3861984D01*
X-627438Y-3861984D02*
X-646485Y-3852460D01*
X-646485Y-3852460D02*
X-656009Y-3842936D01*
X-656009Y-3842936D02*
X-665533Y-3823888D01*
X-665533Y-3823888D02*
X-675057Y-3785793D01*
X-675057Y-3785793D02*
X-675057Y-3738174D01*
X-675057Y-3738174D02*
X-665533Y-3700079D01*
X-665533Y-3700079D02*
X-656009Y-3681031D01*
X-656009Y-3681031D02*
X-646485Y-3671508D01*
X-646485Y-3671508D02*
X-627438Y-3661984D01*
X-436961Y-3661984D02*
X-417914Y-3661984D01*
X-417914Y-3661984D02*
X-398866Y-3671508D01*
X-398866Y-3671508D02*
X-389342Y-3681031D01*
X-389342Y-3681031D02*
X-379818Y-3700079D01*
X-379818Y-3700079D02*
X-370295Y-3738174D01*
X-370295Y-3738174D02*
X-370295Y-3785793D01*
X-370295Y-3785793D02*
X-379818Y-3823888D01*
X-379818Y-3823888D02*
X-389342Y-3842936D01*
X-389342Y-3842936D02*
X-398866Y-3852460D01*
X-398866Y-3852460D02*
X-417914Y-3861984D01*
X-417914Y-3861984D02*
X-436961Y-3861984D01*
X-436961Y-3861984D02*
X-456009Y-3852460D01*
X-456009Y-3852460D02*
X-465533Y-3842936D01*
X-465533Y-3842936D02*
X-475056Y-3823888D01*
X-475056Y-3823888D02*
X-484580Y-3785793D01*
X-484580Y-3785793D02*
X-484580Y-3738174D01*
X-484580Y-3738174D02*
X-475056Y-3700079D01*
X-475056Y-3700079D02*
X-465533Y-3681031D01*
X-465533Y-3681031D02*
X-456009Y-3671508D01*
X-456009Y-3671508D02*
X-436961Y-3661984D01*
X-284580Y-3861984D02*
X-284580Y-3728650D01*
X-284580Y-3747698D02*
X-275057Y-3738174D01*
X-275057Y-3738174D02*
X-256009Y-3728650D01*
X-256009Y-3728650D02*
X-227437Y-3728650D01*
X-227437Y-3728650D02*
X-208390Y-3738174D01*
X-208390Y-3738174D02*
X-198866Y-3757222D01*
X-198866Y-3757222D02*
X-198866Y-3861984D01*
X-198866Y-3757222D02*
X-189342Y-3738174D01*
X-189342Y-3738174D02*
X-170295Y-3728650D01*
X-170295Y-3728650D02*
X-141723Y-3728650D01*
X-141723Y-3728650D02*
X-122675Y-3738174D01*
X-122675Y-3738174D02*
X-113152Y-3757222D01*
X-113152Y-3757222D02*
X-113152Y-3861984D01*
X-17914Y-3861984D02*
X-17914Y-3728650D01*
X-17914Y-3747698D02*
X-8390Y-3738174D01*
X-8390Y-3738174D02*
X10658Y-3728650D01*
X10658Y-3728650D02*
X39229Y-3728650D01*
X39229Y-3728650D02*
X58277Y-3738174D01*
X58277Y-3738174D02*
X67801Y-3757222D01*
X67801Y-3757222D02*
X67801Y-3861984D01*
X67801Y-3757222D02*
X77325Y-3738174D01*
X77325Y-3738174D02*
X96372Y-3728650D01*
X96372Y-3728650D02*
X124943Y-3728650D01*
X124943Y-3728650D02*
X143991Y-3738174D01*
X143991Y-3738174D02*
X153515Y-3757222D01*
X153515Y-3757222D02*
X153515Y-3861984D01*
X543991Y-3652460D02*
X372563Y-3909603D01*
X801134Y-3661984D02*
X820182Y-3661984D01*
X820182Y-3661984D02*
X839229Y-3671508D01*
X839229Y-3671508D02*
X848753Y-3681031D01*
X848753Y-3681031D02*
X858277Y-3700079D01*
X858277Y-3700079D02*
X867801Y-3738174D01*
X867801Y-3738174D02*
X867801Y-3785793D01*
X867801Y-3785793D02*
X858277Y-3823888D01*
X858277Y-3823888D02*
X848753Y-3842936D01*
X848753Y-3842936D02*
X839229Y-3852460D01*
X839229Y-3852460D02*
X820182Y-3861984D01*
X820182Y-3861984D02*
X801134Y-3861984D01*
X801134Y-3861984D02*
X782086Y-3852460D01*
X782086Y-3852460D02*
X772563Y-3842936D01*
X772563Y-3842936D02*
X763039Y-3823888D01*
X763039Y-3823888D02*
X753515Y-3785793D01*
X753515Y-3785793D02*
X753515Y-3738174D01*
X753515Y-3738174D02*
X763039Y-3700079D01*
X763039Y-3700079D02*
X772563Y-3681031D01*
X772563Y-3681031D02*
X782086Y-3671508D01*
X782086Y-3671508D02*
X801134Y-3661984D01*
X953515Y-3842936D02*
X963039Y-3852460D01*
X963039Y-3852460D02*
X953515Y-3861984D01*
X953515Y-3861984D02*
X943991Y-3852460D01*
X943991Y-3852460D02*
X953515Y-3842936D01*
X953515Y-3842936D02*
X953515Y-3861984D01*
X1086848Y-3661984D02*
X1105896Y-3661984D01*
X1105896Y-3661984D02*
X1124944Y-3671508D01*
X1124944Y-3671508D02*
X1134468Y-3681031D01*
X1134468Y-3681031D02*
X1143991Y-3700079D01*
X1143991Y-3700079D02*
X1153515Y-3738174D01*
X1153515Y-3738174D02*
X1153515Y-3785793D01*
X1153515Y-3785793D02*
X1143991Y-3823888D01*
X1143991Y-3823888D02*
X1134468Y-3842936D01*
X1134468Y-3842936D02*
X1124944Y-3852460D01*
X1124944Y-3852460D02*
X1105896Y-3861984D01*
X1105896Y-3861984D02*
X1086848Y-3861984D01*
X1086848Y-3861984D02*
X1067801Y-3852460D01*
X1067801Y-3852460D02*
X1058277Y-3842936D01*
X1058277Y-3842936D02*
X1048753Y-3823888D01*
X1048753Y-3823888D02*
X1039229Y-3785793D01*
X1039229Y-3785793D02*
X1039229Y-3738174D01*
X1039229Y-3738174D02*
X1048753Y-3700079D01*
X1048753Y-3700079D02*
X1058277Y-3681031D01*
X1058277Y-3681031D02*
X1067801Y-3671508D01*
X1067801Y-3671508D02*
X1086848Y-3661984D01*
X1220182Y-3661984D02*
X1343991Y-3661984D01*
X1343991Y-3661984D02*
X1277325Y-3738174D01*
X1277325Y-3738174D02*
X1305896Y-3738174D01*
X1305896Y-3738174D02*
X1324944Y-3747698D01*
X1324944Y-3747698D02*
X1334468Y-3757222D01*
X1334468Y-3757222D02*
X1343991Y-3776269D01*
X1343991Y-3776269D02*
X1343991Y-3823888D01*
X1343991Y-3823888D02*
X1334468Y-3842936D01*
X1334468Y-3842936D02*
X1324944Y-3852460D01*
X1324944Y-3852460D02*
X1305896Y-3861984D01*
X1305896Y-3861984D02*
X1248753Y-3861984D01*
X1248753Y-3861984D02*
X1229706Y-3852460D01*
X1229706Y-3852460D02*
X1220182Y-3842936D01*
X1439229Y-3861984D02*
X1477325Y-3861984D01*
X1477325Y-3861984D02*
X1496372Y-3852460D01*
X1496372Y-3852460D02*
X1505896Y-3842936D01*
X1505896Y-3842936D02*
X1524944Y-3814365D01*
X1524944Y-3814365D02*
X1534467Y-3776269D01*
X1534467Y-3776269D02*
X1534467Y-3700079D01*
X1534467Y-3700079D02*
X1524944Y-3681031D01*
X1524944Y-3681031D02*
X1515420Y-3671508D01*
X1515420Y-3671508D02*
X1496372Y-3661984D01*
X1496372Y-3661984D02*
X1458277Y-3661984D01*
X1458277Y-3661984D02*
X1439229Y-3671508D01*
X1439229Y-3671508D02*
X1429706Y-3681031D01*
X1429706Y-3681031D02*
X1420182Y-3700079D01*
X1420182Y-3700079D02*
X1420182Y-3747698D01*
X1420182Y-3747698D02*
X1429706Y-3766746D01*
X1429706Y-3766746D02*
X1439229Y-3776269D01*
X1439229Y-3776269D02*
X1458277Y-3785793D01*
X1458277Y-3785793D02*
X1496372Y-3785793D01*
X1496372Y-3785793D02*
X1515420Y-3776269D01*
X1515420Y-3776269D02*
X1524944Y-3766746D01*
X1524944Y-3766746D02*
X1534467Y-3747698D01*
X1705896Y-3728650D02*
X1705896Y-3861984D01*
X1658277Y-3652460D02*
X1610658Y-3795317D01*
X1610658Y-3795317D02*
X1734467Y-3795317D01*
X1801134Y-3661984D02*
X1801134Y-3700079D01*
X1877325Y-3661984D02*
X1877325Y-3700079D01*
X2172563Y-3938174D02*
X2163039Y-3928650D01*
X2163039Y-3928650D02*
X2143991Y-3900079D01*
X2143991Y-3900079D02*
X2134468Y-3881031D01*
X2134468Y-3881031D02*
X2124944Y-3852460D01*
X2124944Y-3852460D02*
X2115420Y-3804841D01*
X2115420Y-3804841D02*
X2115420Y-3766746D01*
X2115420Y-3766746D02*
X2124944Y-3719127D01*
X2124944Y-3719127D02*
X2134468Y-3690555D01*
X2134468Y-3690555D02*
X2143991Y-3671508D01*
X2143991Y-3671508D02*
X2163039Y-3642936D01*
X2163039Y-3642936D02*
X2172563Y-3633412D01*
X2353515Y-3861984D02*
X2239230Y-3861984D01*
X2296372Y-3861984D02*
X2296372Y-3661984D01*
X2296372Y-3661984D02*
X2277325Y-3690555D01*
X2277325Y-3690555D02*
X2258277Y-3709603D01*
X2258277Y-3709603D02*
X2239230Y-3719127D01*
X2467801Y-3747698D02*
X2448753Y-3738174D01*
X2448753Y-3738174D02*
X2439230Y-3728650D01*
X2439230Y-3728650D02*
X2429706Y-3709603D01*
X2429706Y-3709603D02*
X2429706Y-3700079D01*
X2429706Y-3700079D02*
X2439230Y-3681031D01*
X2439230Y-3681031D02*
X2448753Y-3671508D01*
X2448753Y-3671508D02*
X2467801Y-3661984D01*
X2467801Y-3661984D02*
X2505896Y-3661984D01*
X2505896Y-3661984D02*
X2524944Y-3671508D01*
X2524944Y-3671508D02*
X2534468Y-3681031D01*
X2534468Y-3681031D02*
X2543991Y-3700079D01*
X2543991Y-3700079D02*
X2543991Y-3709603D01*
X2543991Y-3709603D02*
X2534468Y-3728650D01*
X2534468Y-3728650D02*
X2524944Y-3738174D01*
X2524944Y-3738174D02*
X2505896Y-3747698D01*
X2505896Y-3747698D02*
X2467801Y-3747698D01*
X2467801Y-3747698D02*
X2448753Y-3757222D01*
X2448753Y-3757222D02*
X2439230Y-3766746D01*
X2439230Y-3766746D02*
X2429706Y-3785793D01*
X2429706Y-3785793D02*
X2429706Y-3823888D01*
X2429706Y-3823888D02*
X2439230Y-3842936D01*
X2439230Y-3842936D02*
X2448753Y-3852460D01*
X2448753Y-3852460D02*
X2467801Y-3861984D01*
X2467801Y-3861984D02*
X2505896Y-3861984D01*
X2505896Y-3861984D02*
X2524944Y-3852460D01*
X2524944Y-3852460D02*
X2534468Y-3842936D01*
X2534468Y-3842936D02*
X2543991Y-3823888D01*
X2543991Y-3823888D02*
X2543991Y-3785793D01*
X2543991Y-3785793D02*
X2534468Y-3766746D01*
X2534468Y-3766746D02*
X2524944Y-3757222D01*
X2524944Y-3757222D02*
X2505896Y-3747698D01*
X2782087Y-3861984D02*
X2782087Y-3661984D01*
X2867801Y-3861984D02*
X2867801Y-3757222D01*
X2867801Y-3757222D02*
X2858277Y-3738174D01*
X2858277Y-3738174D02*
X2839230Y-3728650D01*
X2839230Y-3728650D02*
X2810658Y-3728650D01*
X2810658Y-3728650D02*
X2791611Y-3738174D01*
X2791611Y-3738174D02*
X2782087Y-3747698D01*
X2991610Y-3861984D02*
X2972563Y-3852460D01*
X2972563Y-3852460D02*
X2963039Y-3842936D01*
X2963039Y-3842936D02*
X2953515Y-3823888D01*
X2953515Y-3823888D02*
X2953515Y-3766746D01*
X2953515Y-3766746D02*
X2963039Y-3747698D01*
X2963039Y-3747698D02*
X2972563Y-3738174D01*
X2972563Y-3738174D02*
X2991610Y-3728650D01*
X2991610Y-3728650D02*
X3020182Y-3728650D01*
X3020182Y-3728650D02*
X3039230Y-3738174D01*
X3039230Y-3738174D02*
X3048753Y-3747698D01*
X3048753Y-3747698D02*
X3058277Y-3766746D01*
X3058277Y-3766746D02*
X3058277Y-3823888D01*
X3058277Y-3823888D02*
X3048753Y-3842936D01*
X3048753Y-3842936D02*
X3039230Y-3852460D01*
X3039230Y-3852460D02*
X3020182Y-3861984D01*
X3020182Y-3861984D02*
X2991610Y-3861984D01*
X3172563Y-3861984D02*
X3153515Y-3852460D01*
X3153515Y-3852460D02*
X3143991Y-3833412D01*
X3143991Y-3833412D02*
X3143991Y-3661984D01*
X3324944Y-3852460D02*
X3305896Y-3861984D01*
X3305896Y-3861984D02*
X3267801Y-3861984D01*
X3267801Y-3861984D02*
X3248753Y-3852460D01*
X3248753Y-3852460D02*
X3239230Y-3833412D01*
X3239230Y-3833412D02*
X3239230Y-3757222D01*
X3239230Y-3757222D02*
X3248753Y-3738174D01*
X3248753Y-3738174D02*
X3267801Y-3728650D01*
X3267801Y-3728650D02*
X3305896Y-3728650D01*
X3305896Y-3728650D02*
X3324944Y-3738174D01*
X3324944Y-3738174D02*
X3334468Y-3757222D01*
X3334468Y-3757222D02*
X3334468Y-3776269D01*
X3334468Y-3776269D02*
X3239230Y-3795317D01*
X3410658Y-3852460D02*
X3429706Y-3861984D01*
X3429706Y-3861984D02*
X3467801Y-3861984D01*
X3467801Y-3861984D02*
X3486849Y-3852460D01*
X3486849Y-3852460D02*
X3496372Y-3833412D01*
X3496372Y-3833412D02*
X3496372Y-3823888D01*
X3496372Y-3823888D02*
X3486849Y-3804841D01*
X3486849Y-3804841D02*
X3467801Y-3795317D01*
X3467801Y-3795317D02*
X3439230Y-3795317D01*
X3439230Y-3795317D02*
X3420182Y-3785793D01*
X3420182Y-3785793D02*
X3410658Y-3766746D01*
X3410658Y-3766746D02*
X3410658Y-3757222D01*
X3410658Y-3757222D02*
X3420182Y-3738174D01*
X3420182Y-3738174D02*
X3439230Y-3728650D01*
X3439230Y-3728650D02*
X3467801Y-3728650D01*
X3467801Y-3728650D02*
X3486849Y-3738174D01*
X3563039Y-3938174D02*
X3572563Y-3928650D01*
X3572563Y-3928650D02*
X3591611Y-3900079D01*
X3591611Y-3900079D02*
X3601134Y-3881031D01*
X3601134Y-3881031D02*
X3610658Y-3852460D01*
X3610658Y-3852460D02*
X3620182Y-3804841D01*
X3620182Y-3804841D02*
X3620182Y-3766746D01*
X3620182Y-3766746D02*
X3610658Y-3719127D01*
X3610658Y-3719127D02*
X3601134Y-3690555D01*
X3601134Y-3690555D02*
X3591611Y-3671508D01*
X3591611Y-3671508D02*
X3572563Y-3642936D01*
X3572563Y-3642936D02*
X3563039Y-3633412D01*
M02*
