%TF.GenerationSoftware,KiCad,Pcbnew,9.0.7*%
%TF.CreationDate,2026-04-21T17:40:21+01:00*%
%TF.ProjectId,solderbit-segment-shift-edition,736f6c64-6572-4626-9974-2d7365676d65,v0.1*%
%TF.SameCoordinates,PX8583b00PY4e33880*%
%TF.FileFunction,Soldermask,Top*%
%TF.FilePolarity,Negative*%
%FSLAX46Y46*%
G04 Gerber Fmt 4.6, Leading zero omitted, Abs format (unit mm)*
G04 Created by KiCad (PCBNEW 9.0.7) date 2026-04-21 17:40:21*
%MOMM*%
%LPD*%
G01*
G04 APERTURE LIST*
G04 Aperture macros list*
%AMRoundRect*
0 Rectangle with rounded corners*
0 $1 Rounding radius*
0 $2 $3 $4 $5 $6 $7 $8 $9 X,Y pos of 4 corners*
0 Add a 4 corners polygon primitive as box body*
4,1,4,$2,$3,$4,$5,$6,$7,$8,$9,$2,$3,0*
0 Add four circle primitives for the rounded corners*
1,1,$1+$1,$2,$3*
1,1,$1+$1,$4,$5*
1,1,$1+$1,$6,$7*
1,1,$1+$1,$8,$9*
0 Add four rect primitives between the rounded corners*
20,1,$1+$1,$2,$3,$4,$5,0*
20,1,$1+$1,$4,$5,$6,$7,0*
20,1,$1+$1,$6,$7,$8,$9,0*
20,1,$1+$1,$8,$9,$2,$3,0*%
G04 Aperture macros list end*
%ADD10RoundRect,0.336539X0.563461X0.538461X-0.563461X0.538461X-0.563461X-0.538461X0.563461X-0.538461X0*%
%ADD11RoundRect,0.336539X-0.563461X-0.538461X0.563461X-0.538461X0.563461X0.538461X-0.563461X0.538461X0*%
%ADD12RoundRect,0.250000X0.550000X-1.150000X0.550000X1.150000X-0.550000X1.150000X-0.550000X-1.150000X0*%
%ADD13O,1.600000X2.800000*%
%ADD14RoundRect,0.200000X0.200000X-1.050000X0.200000X1.050000X-0.200000X1.050000X-0.200000X-1.050000X0*%
%ADD15RoundRect,0.150000X0.150000X-1.100000X0.150000X1.100000X-0.150000X1.100000X-0.150000X-1.100000X0*%
G04 APERTURE END LIST*
D10*
%TO.C,R7*%
X11800000Y-10367500D03*
X8200000Y-10367500D03*
%TD*%
D11*
%TO.C,R4*%
X-11800000Y-14432500D03*
X-8200000Y-14432500D03*
%TD*%
D10*
%TO.C,R8*%
X11800000Y-14367500D03*
X8200000Y-14367500D03*
%TD*%
D11*
%TO.C,R3*%
X-11800000Y-10432500D03*
X-8200000Y-10432500D03*
%TD*%
%TO.C,R5*%
X-11800000Y-18432500D03*
X-8200000Y-18432500D03*
%TD*%
D10*
%TO.C,C1*%
X-5200000Y16500000D03*
X-8800000Y16500000D03*
%TD*%
%TO.C,R9*%
X11800000Y-18367500D03*
X8200000Y-18367500D03*
%TD*%
D11*
%TO.C,R2*%
X5200000Y16500000D03*
X8800000Y16500000D03*
%TD*%
D12*
%TO.C,U2*%
X-8890000Y2380000D03*
D13*
X-6350000Y2380000D03*
X-3810000Y2380000D03*
X-1270000Y2380000D03*
X1270000Y2380000D03*
X3810000Y2380000D03*
X6350000Y2380000D03*
X8890000Y2380000D03*
X8890000Y10000000D03*
X6350000Y10000000D03*
X3810000Y10000000D03*
X1270000Y10000000D03*
X-1270000Y10000000D03*
X-3810000Y10000000D03*
X-6350000Y10000000D03*
X-8890000Y10000000D03*
%TD*%
D10*
%TO.C,R1*%
X1800000Y16500000D03*
X-1800000Y16500000D03*
%TD*%
D11*
%TO.C,R6*%
X-11800000Y-22432500D03*
X-8200000Y-22432500D03*
%TD*%
D10*
%TO.C,R10*%
X11800000Y-22367500D03*
X8200000Y-22367500D03*
%TD*%
D14*
%TO.C,U1*%
X-4445000Y6950000D03*
D15*
X-3175000Y6950000D03*
X-1905000Y6950000D03*
X-635000Y6950000D03*
X635000Y6950000D03*
X1905000Y6950000D03*
X3175000Y6950000D03*
D14*
X4445000Y6950000D03*
X4445000Y13050000D03*
D15*
X3175000Y13050000D03*
X1905000Y13050000D03*
X635000Y13050000D03*
X-635000Y13050000D03*
X-1905000Y13050000D03*
X-3175000Y13050000D03*
D14*
X-4445000Y13050000D03*
%TD*%
D13*
%TO.C,DS1*%
X-5080000Y-23590000D03*
X-2540000Y-23620000D03*
X0Y-23620000D03*
X2540000Y-23620000D03*
X5080000Y-23620000D03*
X5080000Y-8380000D03*
X2540000Y-8380000D03*
X0Y-8380000D03*
X-2540000Y-8380000D03*
X-5080000Y-8380000D03*
%TD*%
%TO.C,J1*%
X8890000Y25000000D03*
X6350000Y25000000D03*
X3810000Y25000000D03*
X1270000Y25000000D03*
X-1270000Y25000000D03*
X-3810000Y25000000D03*
X-6350000Y25000000D03*
X-8890000Y25000000D03*
%TD*%
M02*
